<?xml version="1.0" encoding="utf-8"?>
<!-- Generator: Adobe Illustrator 18.0.0, SVG Export Plug-In . SVG Version: 6.00 Build 0)  -->
<!DOCTYPE svg PUBLIC "-//W3C//DTD SVG 1.1//EN" "http://www.w3.org/Graphics/SVG/1.1/DTD/svg11.dtd">
<svg version="1.1" id="Layer_1" xmlns="http://www.w3.org/2000/svg" xmlns:xlink="http://www.w3.org/1999/xlink" x="0px" y="0px"
	 viewBox="0 190 960 180" enable-background="new 0 190 960 180" xml:space="preserve">
<g>
	<g>
		<g>
			<path fill="#0F0F0F" d="M180.5,209.2h21.1c5.7,0,9.8,1.7,12.3,5.1c1.4,2,2.1,4.3,2.1,6.9c0,3.1-0.9,5.6-2.7,7.6
				c-0.9,1-2.2,2-3.9,2.9c2.6,0.9,4.4,2,5.6,3.3c2.1,2.1,3.3,5.1,3.3,8.8c0,3.2-1,6-3,8.6c-3,3.8-7.7,5.7-14.1,5.7h-20.8V209.2z
				 M199.1,229.9c2.9,0,5-0.4,6.5-1.1c2.5-1.2,3.7-3.4,3.7-6.5c0-3.2-1.3-5.3-3.9-6.4c-1.4-0.6-3.7-0.9-6.5-0.9h-11.9V230h12.2
				V229.9z M201.3,252.3c4.1,0,7-1.1,8.8-3.5c1.1-1.5,1.6-3.3,1.6-5.4c0-3.6-1.6-5.9-4.8-7.3c-1.7-0.7-4-1-6.7-1h-13.3v17.2H201.3z"
				/>
			<path fill="#0F0F0F" d="M225.2,209.2h6.1v6.7h-6.1V209.2z M225.2,222.6h6.1V258h-6.1V222.6z"/>
			<path fill="#0F0F0F" d="M239.8,209h5.8v17.7c1.3-1.7,2.9-3,4.7-3.9c1.8-0.9,3.8-1.3,5.9-1.3c4.5,0,8.1,1.5,10.8,4.6
				c2.8,3.1,4.2,7.6,4.2,13.5c0,5.6-1.3,10.3-4.1,14c-2.8,3.7-6.5,5.6-11.3,5.6c-2.8,0-5-0.6-6.8-1.9c-1.1-0.8-2.3-2-3.6-3.7v4.6
				h-5.5V209H239.8z M262.7,250c1.6-2.6,2.5-5.9,2.5-10.2c0-3.8-0.8-6.8-2.5-9.3c-1.6-2.5-4-3.7-7.1-3.7c-2.8,0-5.1,1-7.1,3.1
				s-3.1,5.3-3.1,10c0,3.4,0.4,6,1.2,8.2c1.5,3.9,4.5,5.9,8.9,5.9C258.7,253.9,261.1,252.5,262.7,250z"/>
			<path fill="#0F0F0F" d="M278.3,209.2h6V258h-6V209.2z"/>
			<path fill="#0F0F0F" d="M293.4,209.2h6.1v6.7h-6.1V209.2z M293.4,222.6h6.1V258h-6.1V222.6z"/>
			<path fill="#0F0F0F" d="M334.2,226c3.2,3.1,4.7,7.6,4.7,13.5c0,5.7-1.4,10.4-4.2,14.2c-2.8,3.8-7,5.6-12.9,5.6
				c-4.9,0-8.7-1.6-11.5-5c-2.9-3.3-4.3-7.8-4.3-13.3c0-5.9,1.5-10.7,4.5-14.3c3.1-3.6,7-5.3,12.2-5.3
				C327.3,221.4,331.1,222.9,334.2,226z M330.5,249.7c1.4-3,2.1-6.3,2.1-10c0-3.3-0.5-6-1.5-8.1c-1.6-3.3-4.5-4.9-8.6-4.9
				c-3.6,0-6.2,1.4-7.9,4.2c-1.6,2.8-2.5,6.1-2.5,10.1c0,3.8,0.8,6.9,2.5,9.5c1.6,2.6,4.3,3.8,7.9,3.8
				C326.3,254.2,329.1,252.6,330.5,249.7z"/>
			<path fill="#0F0F0F" d="M347.5,212.5h6v9.9h5.7v4.9h-5.7v23.2c0,1.2,0.4,2,1.2,2.5c0.5,0.2,1.2,0.4,2.3,0.4c0.3,0,0.6,0,0.9,0
				s0.7-0.1,1.1-0.1v4.8c-0.7,0.2-1.4,0.3-2.1,0.4c-0.7,0.1-1.5,0.1-2.5,0.1c-2.8,0-4.7-0.7-5.7-2.1s-1.5-3.3-1.5-5.5v-23.6h-4.8
				v-4.9h4.8v-9.9H347.5z"/>
			<path fill="#0F0F0F" d="M365.3,209h6v18.2c1.4-1.8,2.7-3.1,3.8-3.8c1.9-1.2,4.3-1.9,7.3-1.9c5.2,0,8.7,1.8,10.5,5.4
				c1,1.9,1.5,4.7,1.5,8.2v22.8h-6.1v-22.5c0-2.7-0.3-4.5-1-5.7c-1.1-1.9-3.2-3-6.1-3c-2.5,0-4.7,0.8-6.7,2.6
				c-2,1.7-3.1,4.9-3.1,9.7v18.9h-6V209z"/>
			<path fill="#0F0F0F" d="M425.1,223.4c2.3,1.2,4.2,2.8,5.4,4.6c1.2,1.8,1.9,3.9,2.3,6.2c0.3,1.6,0.5,4.3,0.5,7.9h-25.8
				c0.1,3.6,0.9,6.5,2.6,8.7c1.5,2.1,4,3.3,7.4,3.3c3.1,0,5.6-1,7.5-3.1c1-1.2,1.7-2.6,2.2-4.2h5.9c-0.2,1.3-0.7,2.8-1.5,4.4
				c-0.9,1.6-1.8,3-3,4c-1.8,1.7-4.1,3-6.7,3.6c-1.4,0.3-3.1,0.5-4.8,0.5c-4.4,0-8.2-1.6-11.2-4.8c-3.1-3.3-4.6-7.8-4.6-13.6
				c0-5.7,1.5-10.3,4.6-13.9c3.1-3.6,7.1-5.3,12.1-5.3C420.3,221.6,422.7,222.2,425.1,223.4z M427.3,237.4c-0.2-2.6-0.8-4.7-1.6-6.2
				c-1.6-2.9-4.3-4.3-8.2-4.3c-2.8,0-5,1-6.8,3c-1.8,1.9-2.9,4.5-3,7.6L427.3,237.4L427.3,237.4z"/>
			<path fill="#0F0F0F" d="M464.4,224.3c2.6,1.9,4,5.3,4.5,10.1h-5.8c-0.3-2.1-1.1-4-2.5-5.5c-1.2-1.4-3.3-2.1-6.1-2.1
				c-3.8,0-6.5,1.8-8.2,5.6c-1,2.5-1.6,5.4-1.6,8.9c0,3.6,0.7,6.5,2.2,9s3.9,3.7,7.1,3.7c2.5,0,4.5-0.7,5.9-2.2
				c1.4-1.5,2.5-3.6,3-6.2h5.8c-0.7,4.7-2.3,8.2-5,10.3c-2.7,2.1-6,3.3-10.2,3.3c-4.7,0-8.4-1.7-11.1-5.1c-2.8-3.4-4.2-7.7-4.2-12.8
				c0-6.2,1.5-11.1,4.6-14.6c3.1-3.5,6.9-5.2,11.6-5.2C458.7,221.4,462,222.4,464.4,224.3z"/>
			<path fill="#0F0F0F" d="M494,236.5c1.3-0.2,2.2-0.7,2.8-1.7c0.3-0.5,0.4-1.3,0.4-2.3c0-2-0.7-3.6-2.1-4.5
				c-1.4-0.9-3.5-1.4-6.2-1.4c-3.2,0-5.3,0.8-6.6,2.6c-0.7,0.9-1.2,2.3-1.4,4.2h-5.6c0.1-4.4,1.5-7.5,4.3-9.2
				c2.8-1.7,5.9-2.6,9.5-2.6c4.2,0,7.6,0.8,10.2,2.3c2.6,1.6,3.9,4.1,3.9,7.5v20.5c0,0.6,0.1,1.1,0.4,1.5c0.2,0.4,0.8,0.6,1.6,0.6
				c0.3,0,0.6,0,0.9,0s0.7-0.1,1-0.1v4.4c-0.9,0.3-1.6,0.4-2.1,0.5c-0.5,0.1-1.1,0.1-2,0.1c-2,0-3.6-0.7-4.5-2.1
				c-0.5-0.8-0.8-1.8-1-3.3c-1.2,1.6-3,3-5.2,4.2c-2.2,1.1-4.8,1.7-7.6,1.7c-3.3,0-6-1-8.1-3c-2.1-2-3.2-4.5-3.2-7.6
				c0-3.3,1-5.8,3.1-7.7c2-1.8,4.8-3,8.1-3.4L494,236.5z M481.5,252.6c1.2,1,2.8,1.5,4.5,1.5c2.1,0,4.2-0.5,6.1-1.4
				c3.4-1.6,5-4.3,5-8V240c-0.7,0.5-1.6,0.8-2.9,1.1c-1.1,0.3-2.2,0.5-3.4,0.7l-3.6,0.5c-2.1,0.3-3.8,0.7-4.9,1.3
				c-1.8,1-2.8,2.7-2.8,5C479.5,250.3,480.2,251.6,481.5,252.6z"/>
			<path fill="#0F0F0F" d="M543.1,209.2h7.5l17.7,48.8h-7.3l-5.1-14.6h-19.2l-5.3,14.6h-6.6L543.1,209.2z M554,238l-7.6-21.5
				l-7.8,21.5H554z"/>
			<path fill="#0F0F0F" d="M573.4,222.4h5.7v5c1.6-2,3.5-3.6,5.3-4.5s4-1.3,6.3-1.3c5,0,8.5,1.7,10.2,5.3c1,1.9,1.4,4.7,1.4,8.3
				v22.8h-6.1v-22.5c0-2.1-0.3-3.9-0.9-5.2c-1-2.2-3-3.4-5.8-3.4c-1.4,0-2.6,0.1-3.5,0.4c-1.6,0.5-3.1,1.4-4.3,3
				c-1,1.1-1.6,2.3-1.9,3.7c-0.3,1.2-0.4,3.1-0.4,5.4v18.6h-6L573.4,222.4L573.4,222.4z"/>
			<path fill="#0F0F0F" d="M637,226c3.2,3.1,4.7,7.6,4.7,13.5c0,5.7-1.4,10.4-4.2,14.2c-2.8,3.8-7,5.6-12.9,5.6
				c-4.9,0-8.7-1.6-11.5-5c-2.9-3.3-4.3-7.8-4.3-13.3c0-5.9,1.5-10.7,4.5-14.3c3.1-3.6,7-5.3,12.2-5.3
				C630.1,221.4,633.9,222.9,637,226z M633.3,249.7c1.4-3,2.1-6.3,2.1-10c0-3.3-0.5-6-1.5-8.1c-1.6-3.3-4.5-4.9-8.6-4.9
				c-3.6,0-6.2,1.4-7.9,4.2c-1.6,2.8-2.5,6.1-2.5,10.1c0,3.8,0.8,6.9,2.5,9.5c1.6,2.6,4.3,3.8,7.9,3.8
				C629.2,254.2,631.8,252.6,633.3,249.7z"/>
			<path fill="#0F0F0F" d="M649.1,222.4h5.7v5c1.6-2,3.5-3.6,5.3-4.5c1.8-0.9,4-1.3,6.3-1.3c5,0,8.5,1.7,10.2,5.3
				c1,1.9,1.4,4.7,1.4,8.3v22.8h-6.1v-22.5c0-2.1-0.3-3.9-0.9-5.2c-1-2.2-3-3.4-5.8-3.4c-1.4,0-2.6,0.1-3.5,0.4
				c-1.6,0.5-3.1,1.4-4.3,3c-1,1.1-1.6,2.3-1.9,3.7c-0.3,1.2-0.4,3.1-0.4,5.4v18.6h-6L649.1,222.4L649.1,222.4z"/>
			<path fill="#0F0F0F" d="M712.7,226c3.2,3.1,4.7,7.6,4.7,13.5c0,5.7-1.4,10.4-4.2,14.2c-2.8,3.8-7,5.6-12.9,5.6
				c-4.9,0-8.7-1.6-11.5-5c-2.9-3.3-4.3-7.8-4.3-13.3c0-5.9,1.5-10.7,4.5-14.3c3.1-3.6,7-5.3,12.2-5.3
				C705.8,221.4,709.6,222.9,712.7,226z M709,249.7c1.4-3,2.1-6.3,2.1-10c0-3.3-0.5-6-1.5-8.1c-1.6-3.3-4.5-4.9-8.6-4.9
				c-3.6,0-6.2,1.4-7.9,4.2c-1.6,2.8-2.5,6.1-2.5,10.1c0,3.8,0.8,6.9,2.5,9.5s4.3,3.8,7.9,3.8C704.8,254.2,707.6,252.6,709,249.7z"
				/>
			<path fill="#0F0F0F" d="M724.9,222.4h5.9v5c1.4-1.7,2.7-3.1,3.9-3.8c1.9-1.3,4.2-2,6.7-2c2.9,0,5.1,0.7,6.8,2
				c1,0.8,1.8,1.9,2.7,3.5c1.3-1.9,2.9-3.3,4.7-4.2c1.8-0.9,3.8-1.4,6-1.4c4.8,0,8.1,1.7,9.8,5.2c0.9,1.8,1.4,4.4,1.4,7.6v23.7h-6.2
				v-24.7c0-2.3-0.6-4-1.7-4.9c-1.2-0.9-2.7-1.3-4.3-1.3c-2.3,0-4.4,0.8-6,2.3c-1.7,1.5-2.6,4.2-2.6,7.9v20.7h-6.1v-23.2
				c0-2.5-0.3-4.2-0.8-5.3c-0.9-1.6-2.6-2.5-5.1-2.5c-2.2,0-4.3,0.9-6.1,2.7c-1.8,1.7-2.8,4.9-2.8,9.5V258h-6.2V222.4z"/>
			<path fill="#0F0F0F" d="M800.5,236.5c1.3-0.2,2.2-0.7,2.8-1.7c0.3-0.5,0.4-1.3,0.4-2.3c0-2-0.7-3.6-2.1-4.5
				c-1.4-0.9-3.5-1.4-6.2-1.4c-3.2,0-5.3,0.8-6.6,2.6c-0.7,0.9-1.2,2.3-1.4,4.2h-5.6c0.1-4.4,1.5-7.5,4.3-9.2
				c2.8-1.7,5.9-2.6,9.5-2.6c4.2,0,7.6,0.8,10.2,2.3c2.6,1.6,3.9,4.1,3.9,7.5v20.5c0,0.6,0.1,1.1,0.4,1.5c0.2,0.4,0.8,0.6,1.6,0.6
				c0.3,0,0.6,0,0.9,0s0.7-0.1,1-0.1v4.4c-0.9,0.3-1.6,0.4-2.1,0.5c-0.5,0.1-1.1,0.1-2,0.1c-2,0-3.6-0.7-4.5-2.1
				c-0.5-0.8-0.8-1.8-1-3.3c-1.2,1.6-3,3-5.2,4.2c-2.2,1.1-4.8,1.7-7.6,1.7c-3.3,0-6-1-8.1-3c-2-2-3.2-4.5-3.2-7.6
				c0-3.3,1-5.8,3.1-7.7c2-1.8,4.8-3,8.1-3.4L800.5,236.5z M788,252.6c1.2,1,2.8,1.5,4.5,1.5c2.1,0,4.2-0.5,6.1-1.4
				c3.4-1.6,5-4.3,5-8V240c-0.7,0.5-1.6,0.8-2.9,1.1c-1.1,0.3-2.2,0.5-3.4,0.7l-3.6,0.5c-2.1,0.3-3.8,0.7-4.9,1.3
				c-1.8,1-2.8,2.7-2.8,5C786.1,250.3,786.7,251.6,788,252.6z"/>
		</g>
		<g>
			<path fill="#424242" d="M196.6,305.3h-3.3c-1,0-4.6,0.2-4.6,0.2l-0.1-1.5l2.3-0.6l-0.8-3.5l-0.7-1.9h-7l-1,3.4l-0.3,2l2.2,0.3
				l-0.2,1.7h-2.8c-1.2,0-4.3,0.2-4.3,0.2l-0.1-1.5l2-0.5l1.4-3.2l5.7-17.5l1.8-0.3l6.6,18.2l1.2,2.8l1.9,0.3L196.6,305.3z
				 M183.1,296.2l5.8-0.1l-3.1-8.7L183.1,296.2z"/>
			<path fill="#424242" d="M198.6,289.3c0,0,2.3,0.1,3,0.1h1.1l0.6,0.6l0.2,2c0.8-1.4,2.5-3,4.9-3c4.4,0,5.4,2.9,5.4,7.3v3.5
				c0,1.6,0.2,3.4,0.2,3.4l2.6,0.2l-0.2,1.9c0,0-1.5-0.2-4.2-0.2c-0.6,0-3.3,0.2-3.3,0.2l-0.2-1.6l2.1-0.5c0.2-0.7,0.3-1.6,0.3-2.5
				v-4.5c0-2.7-0.6-5.3-3.3-5.3c-2.6,0-4.1,2.2-4.1,5.4v3.5c0,1.6,0.2,3.4,0.2,3.4l2.6,0.2l-0.2,1.9c0,0-1.5-0.2-4.2-0.2
				c-0.6,0-3.6,0.2-3.6,0.2l-0.2-1.6l2.5-0.5c0,0,0.3-1.5,0.3-2.2v-7c0-0.6-0.3-2.5-0.3-2.5l-2.5-0.5L198.6,289.3z"/>
			<path fill="#424242" d="M233.4,305.6c-4.9,0-7.4-3.4-7.4-8.2c0-4.9,2.6-8.3,7.4-8.3c4.9,0,7.4,3.3,7.4,8.3
				C240.8,302.3,238.3,305.6,233.4,305.6z M233.4,291c-3.3,0-4.4,3.1-4.4,6.4c0,3.3,1,6.4,4.4,6.4c3.3,0,4.4-3.1,4.4-6.4
				S236.7,291,233.4,291z"/>
			<path fill="#424242" d="M248.6,292.2c1.2-2,2.9-3,5.2-3c1.2,0,2.1,0.3,2.1,0.3l-0.3,5.3l-1.8-0.1V293c0-0.2-0.2-0.9-0.4-1.6h-0.1
				c-3,0-4.2,1.8-4.3,4.8v3.8c0,1.6,0.2,3.4,0.2,3.4l3.2,0.2l-0.2,1.9c0,0-2.2-0.2-4.8-0.2c-0.6,0-3.6,0.2-3.6,0.2l-0.2-1.6l2.5-0.5
				c0,0,0.3-1.8,0.3-2.5v-6.9c0-0.6-0.3-2.5-0.3-2.5l-2.5-0.5l0.2-1.7c0,0,2.3,0.1,3,0.1h1.1l0.6,0.6L248.6,292.2z"/>
			<path fill="#424242" d="M268.9,291c0.9,1,1.4,2.3,1.4,4c0,3.5-2.5,5.8-6.2,5.8c-0.8,0-1.5-0.1-2.1-0.3c-0.6,0.7-0.8,1.1-0.8,1.3
				c0,0.6,0.6,0.8,3.1,1.1c2.1,0.3,5,0.6,6.2,0.9c0.9,0.3,1.4,1.2,1.4,2.8c0,3.4-3.7,6.1-8.2,6.1c-4.2,0-6.3-1.6-6.3-4.7
				c0-0.6,1.2-1.9,3-3.3c-1.1-0.5-1.6-1.2-1.6-2.3c0-0.4,0.7-1.2,2.3-2.6c-1.8-0.9-2.9-2.8-2.9-5.1c0-3.5,2.5-5.8,6.2-5.8
				c1.3,0,2.5,0.3,3.4,0.8l3.9-0.6v1.8L268.9,291z M260.1,307.9c0,2.1,1.4,3.2,4.5,3.2c2.7,0,4.5-1.3,4.5-3.3c0-0.9-0.3-1.3-1.2-1.4
				l-4.2-0.5c-0.8-0.1-1.6-0.2-2.2-0.4C260.3,306.8,260.1,307.3,260.1,307.9z M260.8,295c0,2.8,1.1,4.2,3.4,4.2
				c2.2,0,3.4-1.4,3.4-4.2c0-2.8-1.1-4.2-3.4-4.2S260.8,292.3,260.8,295z"/>
			<path fill="#424242" d="M284,302.8c-0.8,1.6-3.1,2.9-5.1,2.9c-2.9,0-4.7-1.6-4.7-4.1c0-2.3,1.4-3.8,4.3-4.3l5.1-0.8v-1
				c0-3-1-4.4-3.1-4.4c-1,0-2.2,0.3-3.1,0.6l-0.2,1.3v1.3l-1.7,0l-0.3-4.4c1.9-0.5,3.9-0.8,5.8-0.8c3.8,0,5.3,1.9,5.3,6.8v4
				c0,1.6,0.3,3.4,0.3,3.4l2.2,0.2l-0.2,1.9c0,0-1.5-0.2-4.2-0.2L284,302.8z M279.1,298.9c-1.3,0.2-2,1-2,2.1c0,1.6,0.8,2.6,2.3,2.6
				c2.1,0,4-1.5,4.3-3.7V298L279.1,298.9z"/>
			<path fill="#424242" d="M291,289.3c0,0,2.3,0.1,3,0.1h1.1l0.6,0.6l0.2,2c0.8-1.4,2.5-3,4.9-3c4.4,0,5.4,2.9,5.4,7.3v3.5
				c0,1.6,0.2,3.4,0.2,3.4l2.6,0.2l-0.2,1.9c0,0-1.5-0.2-4.2-0.2c-0.6,0-3.3,0.2-3.3,0.2l-0.2-1.6l2.1-0.5c0.2-0.7,0.3-1.6,0.3-2.5
				v-4.5c0-2.7-0.6-5.3-3.3-5.3c-2.6,0-4.1,2.2-4.1,5.4v3.5c0,1.6,0.2,3.4,0.2,3.4l2.6,0.2l-0.2,1.9c0,0-1.5-0.2-4.2-0.2
				c-0.6,0-3.6,0.2-3.6,0.2l-0.2-1.6l2.5-0.5c0,0,0.3-1.5,0.3-2.2v-7c0-0.6-0.3-2.5-0.3-2.5l-2.5-0.5L291,289.3z"/>
			<path fill="#424242" d="M318.6,305.4c0,0-1.5-0.2-4.2-0.2c-0.6,0-3.6,0.2-3.6,0.2l-0.2-1.6l2.5-0.5c0,0,0.3-1.8,0.3-2.5v-6.9
				c0-0.6-0.3-2.5-0.3-2.5l-2.5-0.5l0.2-1.7c0,0,2.3,0.1,3,0.1h1.8l0.6,0.6c0,0-0.2,3.3-0.2,4.9v5c0,1.6,0.2,3.4,0.2,3.4l2.6,0.2
				L318.6,305.4z M316.7,284.3c0,1.2-0.7,2-1.9,2s-1.9-0.8-1.9-2c0-1.2,0.7-2,1.9-2C316,282.2,316.7,283,316.7,284.3z"/>
			<path fill="#424242" d="M321.9,289.4c0,0,2.5,0.1,3.1,0.1h7.8l0.2,1.8l-2.8,3.5l-3.9,5.9c-0.3,0.4-1,1.8-1.6,2.9h4
				c0.2,0,1.1-0.1,1.9-0.2c0.2-0.4,0.5-0.9,0.7-1.6c0-0.1,0.1-0.7,0.2-1.3l1.8,0.2l-0.3,4.1l-0.6,0.6c0,0-2.9-0.1-3.6-0.1H321
				l-0.2-1.8c0,0,2.6-2.9,3.1-3.6l4-5.9c0.3-0.4,1.1-1.9,1.6-2.9h-3.9c-0.2,0-1,0.1-1.7,0.2c-0.2,0.3-0.7,1.6-0.8,1.9l-0.1,1.2
				l-1.8-0.1l0.2-4.5L321.9,289.4z"/>
			<path fill="#424242" d="M345.9,302.8c-0.8,1.6-3.1,2.9-5.1,2.9c-2.9,0-4.7-1.6-4.7-4.1c0-2.3,1.4-3.8,4.3-4.3l5.1-0.8v-1
				c0-3-1-4.4-3.1-4.4c-1,0-2.2,0.3-3.1,0.6l-0.2,1.3v1.3l-1.8,0.1L337,290c1.9-0.5,3.9-0.8,5.8-0.8c3.8,0,5.3,1.9,5.3,6.8v4
				c0,1.6,0.3,3.4,0.3,3.4l2.2,0.2l-0.2,1.9c0,0-1.5-0.2-4.2-0.2L345.9,302.8z M341,298.9c-1.3,0.2-2,1-2,2.1c0,1.6,0.8,2.6,2.3,2.6
				c2.1,0,4-1.5,4.3-3.7V298L341,298.9z"/>
			<path fill="#424242" d="M362.5,304c-1,0.8-2.1,1.6-3.8,1.6c-3.1,0-4-1.8-4-5.3v-9.1h-2.5l-0.1-1.3c1-0.3,1.8-0.5,2.6-0.9
				c0.3-0.3,1.4-2.9,1.4-2.9l1.1,0.1v3.3h4.5l-0.2,1.7h-4.3v9.9c0,1.6,0.5,2.6,1.7,2.6c1.1,0,2.6-0.9,2.6-0.9L362.5,304z"/>
			<path fill="#424242" d="M371.9,305.4c0,0-1.5-0.2-4.2-0.2c-0.6,0-3.6,0.2-3.6,0.2l-0.2-1.6l2.5-0.5c0,0,0.3-1.8,0.3-2.5v-6.9
				c0-0.6-0.3-2.5-0.3-2.5l-2.5-0.5l0.2-1.7c0,0,2.3,0.1,3,0.1h1.8l0.6,0.6c0,0-0.2,3.3-0.2,4.9v5c0,1.6,0.2,3.4,0.2,3.4l2.6,0.2
				L371.9,305.4z M370.1,284.3c0,1.2-0.7,2-1.9,2c-1.2,0-1.9-0.8-1.9-2c0-1.2,0.7-2,1.9-2S370.1,283,370.1,284.3z"/>
			<path fill="#424242" d="M381.6,305.6c-4.9,0-7.4-3.4-7.4-8.2c0-4.9,2.6-8.3,7.4-8.3c4.9,0,7.4,3.3,7.4,8.3
				C389,302.3,386.4,305.6,381.6,305.6z M381.6,291c-3.3,0-4.4,3.1-4.4,6.4c0,3.3,1,6.4,4.4,6.4c3.3,0,4.4-3.1,4.4-6.4
				C385.9,294.1,384.9,291,381.6,291z"/>
			<path fill="#424242" d="M391.9,289.3c0,0,2.3,0.1,3,0.1h1.1l0.6,0.6l0.2,2c0.8-1.4,2.5-3,4.9-3c4.4,0,5.4,2.9,5.4,7.3v3.5
				c0,1.6,0.2,3.4,0.2,3.4l2.6,0.2l-0.2,1.9c0,0-1.5-0.2-4.2-0.2c-0.6,0-3.3,0.2-3.3,0.2l-0.2-1.6l2.1-0.5c0.2-0.7,0.3-1.6,0.3-2.5
				v-4.5c0-2.7-0.6-5.3-3.3-5.3c-2.6,0-4.1,2.2-4.1,5.4v3.5c0,1.6,0.2,3.4,0.2,3.4l2.6,0.2l-0.2,1.9c0,0-1.5-0.2-4.2-0.2
				c-0.6,0-3.6,0.2-3.6,0.2l-0.2-1.6l2.5-0.5c0,0,0.3-1.5,0.3-2.2v-7c0-0.6-0.3-2.5-0.3-2.5l-2.5-0.5L391.9,289.3z"/>
			<path fill="#424242" d="M429,304c-1,0.8-2.1,1.6-3.8,1.6c-3.1,0-4-1.8-4-5.3v-9.1h-2.5l-0.1-1.3c1-0.3,1.8-0.5,2.6-0.9
				c0.3-0.3,1.4-2.9,1.4-2.9l1.1,0.1v3.3h4.5l-0.2,1.7h-4.3v9.9c0,1.6,0.5,2.6,1.7,2.6c1.1,0,2.6-0.9,2.6-0.9L429,304z"/>
			<path fill="#424242" d="M440.5,302.8c-0.8,1.6-3.1,2.9-5.1,2.9c-2.9,0-4.7-1.6-4.7-4.1c0-2.3,1.4-3.8,4.3-4.3l5.1-0.8v-1
				c0-3-1-4.4-3.1-4.4c-1,0-2.2,0.3-3.1,0.6l-0.2,1.3v1.3l-1.8,0.1l-0.3-4.4c1.9-0.5,3.9-0.8,5.8-0.8c3.8,0,5.3,1.9,5.3,6.8v4
				c0,1.6,0.3,3.4,0.3,3.4l2.2,0.2l-0.2,1.9c0,0-1.5-0.2-4.2-0.2L440.5,302.8z M435.6,298.9c-1.3,0.2-2,1-2,2.1
				c0,1.6,0.8,2.6,2.3,2.6c2.1,0,4-1.5,4.3-3.7V298L435.6,298.9z"/>
			<path fill="#424242" d="M457.8,289.7l-0.4,4.6l-1.8-0.1v-1.1c0-0.3-0.2-1.1-0.4-1.8c-0.7-0.3-1.2-0.4-2.1-0.4
				c-1.5,0-2.6,0.8-2.6,2c0,3.3,8.2,3,8.2,8.1c0,3.4-2.1,4.7-5.6,4.7c-3.2,0-5.3-1.2-5.3-1.2l0.3-4.4l1.8,0.1v1.2
				c0,0.3,0.2,1.1,0.5,1.9c0.7,0.6,1.6,0.8,2.7,0.8c1.8,0,3-0.7,3-2.5c0-3.4-8.2-3-8.2-8.1c0-2.7,2.2-4.3,5.2-4.3
				C454.5,289.2,456.3,289.4,457.8,289.7z"/>
			<path fill="#424242" d="M461,280.9c0,0,2.3,0.1,3,0.1h1.8l0.6,0.6c-0.1,1-0.2,3.4-0.2,4.9v13.4c0,1.4,0.2,3.2,0.2,3.4l2.6,0.2
				l-0.2,1.9c0,0-1.5-0.2-4.2-0.2c-0.6,0-3.6,0.2-3.6,0.2l-0.2-1.6l2.5-0.5c0.1-0.3,0.3-1.8,0.3-2.5v-15.3c0-0.6-0.3-2.5-0.3-2.5
				l-2.5-0.5L461,280.9z M470.3,291l0.2-1.6c0,0,2.1,0.1,2.8,0.1c2.6,0,4.1-0.2,4.1-0.2l0.1,1.8l-2.5,0.3c-1,0.6-2.6,1.5-3.2,2.1
				l-2.6,2.8l4.4,4.8c0.3,0.4,1.8,1.4,2.9,2.2l2,0.2l-0.2,1.9c0,0-1.5-0.2-4.2-0.2l-3.3,0.1l-0.2-1.6l1.8-0.3l-1.6-1.8l-4.6-4.8
				l5.3-5.5L470.3,291z"/>
			<path fill="#424242" d="M492.3,296.6l-0.5,1h-9.6c0.1,2.9,1.4,5.8,4.4,5.8c2.8,0,4.8-1.3,4.8-1.3l0.9,1.4c0,0-2,1.9-5.7,1.9
				c-4.8,0-7.4-3.4-7.4-8.2s2.2-8.3,7-8.3C490.6,289.2,492.3,292.2,492.3,296.6z M482.2,296.1l7.1-0.5c0,0,0-0.5,0-0.6
				c0-2.2-1-4.1-3.4-4.1C483.3,290.8,482.4,293.5,482.2,296.1z"/>
			<path fill="#424242" d="M510.5,305.4c0,0-1.5-0.2-4.2-0.2l-0.4-2.6c-0.6,1.4-3,2.9-4.6,2.9c-4,0-6.4-3.1-6.4-8.3
				c0-5.1,2.6-8.2,6.7-8.2c1.3,0,2.3,0.2,4,0.8v-4.4c0-0.6-0.3-2.5-0.3-2.5l-2.9-0.5l0.2-1.7c0,0,2.7,0.1,3.4,0.1h1.8l0.6,0.6
				c0,0-0.2,3.3-0.2,4.9v13.4c0,1.6,0.3,3.4,0.3,3.4l2.2,0.2L510.5,305.4z M505.6,292.3c-1.2-0.8-2.3-1.1-3.7-1.1
				c-2.6,0-4.1,2.3-4.1,6.3c0,3.8,1.4,6.1,3.7,6.1c2.6,0,4.1-1.8,4.1-4.9V292.3z"/>
			<path fill="#424242" d="M543.5,291.3c-0.6,1.3-1.4,3.3-1.6,3.7l-3.7,10.2H536l-3.8-10.7l-3.7,10.7h-2.1c0,0-4-10.3-4.2-11
				c-0.2-0.4-0.7-1.8-1.3-2.9l-1.3-0.3l0.2-1.6c0,0,1.5,0.1,2.2,0.1c2.6,0,4.8-0.2,4.8-0.2l0.1,1.8l-2.6,0.2
				c0.3,1.1,0.6,2.3,0.8,2.8l2.8,7.9l4.1-12.6h1.2l4.3,12.6l2.7-8c0.2-0.4,0.4-1.6,0.6-2.7l-2.8-0.3l0.2-1.6c0,0,2.3,0.1,3.1,0.1
				c2.6,0,3.7-0.2,3.7-0.2l0.1,1.8L543.5,291.3z"/>
			<path fill="#424242" d="M554.4,305.4c0,0-1.5-0.2-4.2-0.2c-0.6,0-3.6,0.2-3.6,0.2l-0.2-1.6l2.5-0.5c0,0,0.3-1.8,0.3-2.5v-6.9
				c0-0.6-0.3-2.5-0.3-2.5l-2.5-0.5l0.2-1.7c0,0,2.3,0.1,3,0.1h1.8l0.6,0.6c0,0-0.2,3.3-0.2,4.9v5c0,1.6,0.2,3.4,0.2,3.4l2.6,0.2
				L554.4,305.4z M552.6,284.3c0,1.2-0.7,2-1.9,2c-1.2,0-1.9-0.8-1.9-2c0-1.2,0.7-2,1.9-2C551.8,282.2,552.6,283,552.6,284.3z"/>
			<path fill="#424242" d="M566.3,304c-1,0.8-2.1,1.6-3.8,1.6c-3.1,0-4-1.8-4-5.3v-9.1h-2.5l-0.1-1.3c1-0.3,1.8-0.5,2.6-0.9
				c0.3-0.3,1.4-2.9,1.4-2.9l1.1,0.1v3.3h4.5l-0.1,1.7h-4.3v9.9c0,1.6,0.5,2.6,1.7,2.6c1.1,0,2.6-0.9,2.6-0.9L566.3,304z"/>
			<path fill="#424242" d="M567.6,280.9c0,0,2.3,0.1,3,0.1h1.8l0.6,0.6c-0.1,1-0.2,3.4-0.2,4.9v5.1c0.8-1.3,2.5-2.5,4.6-2.5
				c4.4,0,5.4,2.9,5.4,7.3v3.5c0,1.6,0.2,3.4,0.2,3.4l2.6,0.2l-0.2,1.9c0,0-1.5-0.2-4.2-0.2c-0.6,0-3.3,0.2-3.3,0.2l-0.2-1.6
				l2.1-0.5c0.2-0.7,0.3-1.6,0.3-2.5v-4.5c0-2.7-0.6-5.3-3.3-5.3c-2.6,0-4.1,2.2-4.1,5.4v3.5c0,1.4,0.2,3.2,0.2,3.4l2.6,0.2
				l-0.2,1.9c0,0-1.5-0.2-4.2-0.2c-0.6,0-3.6,0.2-3.6,0.2l-0.2-1.6l2.5-0.5c0.1-0.3,0.3-1.8,0.3-2.5v-15.3c0-0.6-0.3-2.5-0.3-2.5
				l-2.5-0.5L567.6,280.9z"/>
			<path fill="#424242" d="M604.9,302.8c-0.8,1.6-3.1,2.9-5.1,2.9c-2.9,0-4.7-1.6-4.7-4.1c0-2.3,1.4-3.8,4.3-4.3l5.1-0.8v-1
				c0-3-1-4.4-3.1-4.4c-1,0-2.2,0.3-3.1,0.6l-0.2,1.3v1.3l-1.8,0.1L596,290c1.9-0.5,3.9-0.8,5.8-0.8c3.8,0,5.3,1.9,5.3,6.8v4
				c0,1.6,0.3,3.4,0.3,3.4l2.2,0.2l-0.2,1.9c0,0-1.5-0.2-4.2-0.2L604.9,302.8z M599.9,298.9c-1.3,0.2-2,1-2,2.1
				c0,1.6,0.8,2.6,2.3,2.6c2.1,0,4-1.5,4.3-3.7V298L599.9,298.9z"/>
			<path fill="#424242" d="M616.8,292.2c1.2-2,2.9-3,5.2-3c1.2,0,2.1,0.3,2.1,0.3l-0.3,5.3l-1.8-0.1V293c0-0.2-0.2-0.9-0.4-1.6h-0.1
				c-3,0-4.2,1.8-4.3,4.8v3.8c0,1.6,0.2,3.4,0.2,3.4l3.2,0.2l-0.2,1.9c0,0-2.2-0.2-4.8-0.2c-0.6,0-3.6,0.2-3.6,0.2l-0.2-1.6l2.5-0.5
				c0,0,0.3-1.8,0.3-2.5v-6.9c0-0.6-0.3-2.5-0.3-2.5l-2.5-0.5l0.2-1.7c0,0,2.3,0.1,3,0.1h1.1l0.6,0.6L616.8,292.2z"/>
			<path fill="#424242" d="M638.1,290.3l-0.3,4l-1.8-0.1v-1.1c0-0.2-0.1-0.6-0.2-1.1c-0.9-0.8-1.7-0.9-2.7-0.9
				c-3.2,0-4.4,3.2-4.4,6.4s1.1,6.1,4.4,6.1c2.6,0,4.5-1.1,4.5-1.1l0.9,1.5c0,0-2,1.7-5.4,1.7c-4.9,0-7.4-3.3-7.4-8.2
				c0-4.9,2.5-8.3,7.4-8.3C635,289.2,636.2,289.7,638.1,290.3z"/>
			<path fill="#424242" d="M640.5,280.9c0,0,2.3,0.1,3,0.1h1.8l0.6,0.6c-0.1,1-0.2,3.4-0.2,4.9v5.1c0.8-1.3,2.5-2.5,4.6-2.5
				c4.4,0,5.4,2.9,5.4,7.3v3.5c0,1.6,0.2,3.4,0.2,3.4l2.6,0.2l-0.2,1.9c0,0-1.5-0.2-4.2-0.2c-0.6,0-3.3,0.2-3.3,0.2l-0.2-1.6
				l2.1-0.5c0.2-0.7,0.3-1.6,0.3-2.5v-4.5c0-2.7-0.6-5.3-3.3-5.3c-2.6,0-4.1,2.2-4.1,5.4v3.5c0,1.4,0.2,3.2,0.2,3.4l2.6,0.2
				l-0.2,1.9c0,0-1.5-0.2-4.2-0.2c-0.6,0-3.6,0.2-3.6,0.2l-0.2-1.6l2.5-0.5c0.1-0.3,0.3-1.8,0.3-2.5v-15.3c0-0.6-0.3-2.5-0.3-2.5
				l-2.5-0.5L640.5,280.9z"/>
			<path fill="#424242" d="M668.2,305.4c0,0-1.5-0.2-4.2-0.2c-0.6,0-3.6,0.2-3.6,0.2l-0.2-1.6l2.5-0.5c0,0,0.3-1.8,0.3-2.5v-6.9
				c0-0.6-0.3-2.5-0.3-2.5l-2.5-0.5l0.2-1.7c0,0,2.3,0.1,3,0.1h1.8l0.6,0.6c0,0-0.2,3.3-0.2,4.9v5c0,1.6,0.2,3.4,0.2,3.4l2.6,0.2
				L668.2,305.4z M666.2,284.3c0,1.2-0.7,2-1.9,2c-1.2,0-1.9-0.8-1.9-2c0-1.2,0.7-2,1.9-2C665.5,282.2,666.2,283,666.2,284.3z"/>
			<path fill="#424242" d="M683.4,291.3c-0.6,1.3-1.4,3.3-1.6,3.7l-3.7,10.2h-2.1c0,0-4-10.3-4.2-11c-0.2-0.4-0.7-1.8-1.3-2.9
				l-1.9-0.3l0.2-1.6c0,0,2.2,0.1,2.9,0.1c2.6,0,4.2-0.2,4.2-0.2l0.1,1.8l-1.9,0.2c0.3,1.1,0.6,2.3,0.8,2.8l2.8,7.9l2.7-8
				c0.2-0.4,0.4-1.6,0.6-2.7l-2.5-0.3l0.2-1.6c0,0,2,0.1,2.7,0.1c2.6,0,4-0.2,4-0.2l0.1,1.8L683.4,291.3z"/>
			<path fill="#424242" d="M694.8,305.4c0,0-1.5-0.2-4.2-0.2c-0.6,0-3.6,0.2-3.6,0.2l-0.2-1.6l2.5-0.5c0,0,0.3-1.8,0.3-2.5v-6.9
				c0-0.6-0.3-2.5-0.3-2.5l-2.5-0.5l0.2-1.7c0,0,2.3,0.1,3,0.1h1.8l0.6,0.6c0,0-0.2,3.3-0.2,4.9v5c0,1.6,0.2,3.4,0.2,3.4l2.6,0.2
				L694.8,305.4z M692.9,284.3c0,1.2-0.7,2-1.9,2c-1.2,0-1.9-0.8-1.9-2c0-1.2,0.7-2,1.9-2C692.2,282.2,692.9,283,692.9,284.3z"/>
			<path fill="#424242" d="M697.1,289.3c0,0,2.3,0.1,3,0.1h1.1l0.6,0.6l0.2,2c0.8-1.4,2.5-3,4.9-3c4.4,0,5.4,2.9,5.4,7.3v3.5
				c0,1.6,0.2,3.4,0.2,3.4l2.6,0.2l-0.2,1.9c0,0-1.5-0.2-4.2-0.2c-0.6,0-3.3,0.2-3.3,0.2l-0.2-1.6l2.1-0.5c0.2-0.7,0.3-1.6,0.3-2.5
				v-4.5c0-2.7-0.6-5.3-3.3-5.3c-2.6,0-4.1,2.2-4.1,5.4v3.5c0,1.6,0.2,3.4,0.2,3.4l2.6,0.2l-0.2,1.9c0,0-1.5-0.2-4.2-0.2
				c-0.6,0-3.6,0.2-3.6,0.2l-0.2-1.6l2.5-0.5c0,0,0.3-1.5,0.3-2.2v-7c0-0.6-0.3-2.5-0.3-2.5l-2.5-0.5L697.1,289.3z"/>
			<path fill="#424242" d="M728.3,291c0.9,1,1.4,2.3,1.4,4c0,3.5-2.5,5.8-6.2,5.8c-0.8,0-1.5-0.1-2.1-0.3c-0.6,0.7-0.8,1.1-0.8,1.3
				c0,0.6,0.6,0.8,3.1,1.1c2.1,0.3,5,0.6,6.2,0.9c0.9,0.3,1.4,1.2,1.4,2.8c0,3.4-3.7,6.1-8.2,6.1c-4.2,0-6.3-1.6-6.3-4.7
				c0-0.6,1.2-1.9,3-3.3c-1.1-0.5-1.6-1.2-1.6-2.3c0-0.4,0.7-1.2,2.3-2.6c-1.8-0.9-2.9-2.8-2.9-5.1c0-3.5,2.5-5.8,6.2-5.8
				c1.3,0,2.5,0.3,3.4,0.8l3.9-0.6v1.8L728.3,291z M719.4,307.9c0,2.1,1.4,3.2,4.5,3.2c2.7,0,4.5-1.3,4.5-3.3c0-0.9-0.3-1.3-1.2-1.4
				l-4.2-0.5c-0.8-0.1-1.6-0.2-2.2-0.4C719.7,306.8,719.4,307.3,719.4,307.9z M720.3,295c0,2.8,1.1,4.2,3.4,4.2s3.4-1.4,3.4-4.2
				c0-2.8-1.1-4.2-3.4-4.2S720.3,292.3,720.3,295z"/>
			<path fill="#424242" d="M733.8,303.4c0-1.2,0.7-2.2,1.9-2.2c1.5,0,2,1.3,2,2.9c0,2.3-1.4,5-4.2,5.6l-0.3-1
				c1.4-0.6,2.2-1.6,2.2-3.1C734.5,305.5,733.8,304.5,733.8,303.4z"/>
			<path fill="#424242" d="M758.3,302.8c-0.8,1.6-3.1,2.9-5.1,2.9c-2.9,0-4.7-1.6-4.7-4.1c0-2.3,1.4-3.8,4.3-4.3l5.1-0.8v-1
				c0-3-1-4.4-3.1-4.4c-1,0-2.2,0.3-3.1,0.6l-0.2,1.3v1.3l-1.8,0.1l-0.3-4.4c1.9-0.5,3.9-0.8,5.8-0.8c3.8,0,5.3,1.9,5.3,6.8v4
				c0,1.6,0.3,3.4,0.3,3.4l2.2,0.2l-0.2,1.9c0,0-1.5-0.2-4.2-0.2L758.3,302.8z M753.4,298.9c-1.3,0.2-2,1-2,2.1
				c0,1.6,0.8,2.6,2.3,2.6c2.1,0,4-1.5,4.3-3.7V298L753.4,298.9z"/>
			<path fill="#424242" d="M765.3,289.3c0,0,2.3,0.1,3,0.1h1.1l0.6,0.6l0.2,2c0.8-1.4,2.5-3,4.9-3c4.4,0,5.4,2.9,5.4,7.3v3.5
				c0,1.6,0.2,3.4,0.2,3.4l2.6,0.2l-0.2,1.9c0,0-1.5-0.2-4.2-0.2c-0.6,0-3.3,0.2-3.3,0.2l-0.2-1.6l2.1-0.5c0.2-0.7,0.3-1.6,0.3-2.5
				v-4.5c0-2.7-0.6-5.3-3.3-5.3c-2.6,0-4.1,2.2-4.1,5.4v3.5c0,1.6,0.2,3.4,0.2,3.4l2.6,0.2l-0.2,1.9c0,0-1.5-0.2-4.2-0.2
				c-0.6,0-3.6,0.2-3.6,0.2l-0.2-1.6l2.5-0.5c0,0,0.3-1.5,0.3-2.2v-7c0-0.6-0.3-2.5-0.3-2.5l-2.5-0.5L765.3,289.3z"/>
			<path fill="#424242" d="M795.1,302.8c-0.8,1.6-3.1,2.9-5.1,2.9c-2.9,0-4.7-1.6-4.7-4.1c0-2.3,1.4-3.8,4.3-4.3l5.1-0.8v-1
				c0-3-1-4.4-3.1-4.4c-1,0-2.2,0.3-3.1,0.6l-0.2,1.3v1.3l-1.8,0.1l-0.3-4.4c1.9-0.5,3.9-0.8,5.8-0.8c3.8,0,5.3,1.9,5.3,6.8v4
				c0,1.6,0.3,3.4,0.3,3.4l2.2,0.2l-0.2,1.9c0,0-1.5-0.2-4.2-0.2L795.1,302.8z M790.2,298.9c-1.3,0.2-2,1-2,2.1
				c0,1.6,0.8,2.6,2.3,2.6c2.1,0,4-1.5,4.3-3.7V298L790.2,298.9z"/>
			<path fill="#424242" d="M801.5,280.9c0,0,2.3,0.1,3,0.1h1.8l0.6,0.6c-0.1,1-0.2,3.4-0.2,4.9v13.4c0,1.4,0.2,3.2,0.2,3.4l2.6,0.2
				l-0.2,1.9c0,0-1.5-0.2-4.2-0.2c-0.6,0-3.6,0.2-3.6,0.2l-0.2-1.6l2.5-0.5c0.1-0.3,0.3-1.8,0.3-2.5v-15.3c0-0.6-0.3-2.5-0.3-2.5
				l-2.5-0.5L801.5,280.9z"/>
			<path fill="#424242" d="M821.7,294.5c0.2-0.6,0.6-2,0.8-3.1l-2.3-0.4l0.2-1.6c0,0,2.1,0.1,2.8,0.1c2.5,0,3.7-0.2,3.7-0.2l0.1,1.8
				l-1.7,0.3c-0.6,1.3-1.4,3.1-1.6,3.7l-6.6,17.8l-5.2-0.3l0.3-1.8h1.3c0.4,0,1.4-0.2,2.1-0.3c0.5-0.8,1-1.7,1.2-2.1l1-2.9
				l-4.6-10.7c-0.3-0.8-1-2.1-1.6-3.2l-1.5-0.4l0.2-1.6c0,0,1.9,0.1,2.7,0.1c2.6,0,4.4-0.2,4.4-0.2l0.1,1.8l-2.3,0.2
				c0.2,0.9,0.5,2.1,0.8,2.8l3.2,7.9L821.7,294.5z"/>
			<path fill="#424242" d="M829.8,289.4c0,0,2.5,0.1,3.1,0.1h7.8l0.2,1.8l-2.8,3.5l-3.9,5.9c-0.3,0.4-1,1.8-1.6,2.9h4
				c0.2,0,1.1-0.1,1.9-0.2c0.2-0.4,0.5-0.9,0.7-1.6c0-0.1,0.1-0.7,0.2-1.3l1.8,0.2l-0.3,4.1l-0.6,0.6c0,0-2.9-0.1-3.6-0.1H829
				l-0.2-1.8c0,0,2.6-2.9,3.1-3.6l4-5.9c0.3-0.4,1.1-1.9,1.6-2.9h-3.9c-0.2,0-1,0.1-1.7,0.2c-0.2,0.3-0.7,1.6-0.8,1.9l-0.1,1.2
				l-1.8-0.1l0.2-4.5L829.8,289.4z"/>
			<path fill="#424242" d="M851.6,305.4c0,0-1.5-0.2-4.2-0.2c-0.6,0-3.6,0.2-3.6,0.2l-0.2-1.6l2.5-0.5c0,0,0.3-1.8,0.3-2.5v-6.9
				c0-0.6-0.3-2.5-0.3-2.5l-2.5-0.5l0.2-1.7c0,0,2.3,0.1,3,0.1h1.8l0.6,0.6c0,0-0.2,3.3-0.2,4.9v5c0,1.6,0.2,3.4,0.2,3.4l2.6,0.2
				L851.6,305.4z M849.8,284.3c0,1.2-0.7,2-1.9,2s-1.9-0.8-1.9-2c0-1.2,0.7-2,1.9-2S849.8,283,849.8,284.3z"/>
			<path fill="#424242" d="M853.9,289.3c0,0,2.3,0.1,3,0.1h1.1l0.6,0.6l0.2,2c0.8-1.4,2.5-3,4.9-3c4.4,0,5.4,2.9,5.4,7.3v3.5
				c0,1.6,0.2,3.4,0.2,3.4l2.6,0.2l-0.2,1.9c0,0-1.5-0.2-4.2-0.2c-0.6,0-3.3,0.2-3.3,0.2l-0.2-1.6l2.1-0.5c0.2-0.7,0.3-1.6,0.3-2.5
				v-4.5c0-2.7-0.6-5.3-3.3-5.3c-2.6,0-4.1,2.2-4.1,5.4v3.5c0,1.6,0.2,3.4,0.2,3.4l2.6,0.2l-0.2,1.9c0,0-1.5-0.2-4.2-0.2
				c-0.6,0-3.6,0.2-3.6,0.2l-0.2-1.6l2.5-0.5c0,0,0.3-1.5,0.3-2.2v-7c0-0.6-0.3-2.5-0.3-2.5l-2.5-0.5L853.9,289.3z"/>
			<path fill="#424242" d="M885.2,291c0.9,1,1.4,2.3,1.4,4c0,3.5-2.5,5.8-6.2,5.8c-0.8,0-1.5-0.1-2.1-0.3c-0.6,0.7-0.8,1.1-0.8,1.3
				c0,0.6,0.6,0.8,3.1,1.1c2.1,0.3,5,0.6,6.2,0.9c0.9,0.3,1.4,1.2,1.4,2.8c0,3.4-3.7,6.1-8.2,6.1c-4.2,0-6.3-1.6-6.3-4.7
				c0-0.6,1.2-1.9,3-3.3c-1.1-0.5-1.6-1.2-1.6-2.3c0-0.4,0.7-1.2,2.3-2.6c-1.8-0.9-2.9-2.8-2.9-5.1c0-3.5,2.5-5.8,6.2-5.8
				c1.3,0,2.5,0.3,3.4,0.8l3.9-0.6v1.8L885.2,291z M876.3,307.9c0,2.1,1.4,3.2,4.5,3.2c2.7,0,4.5-1.3,4.5-3.3c0-0.9-0.3-1.3-1.2-1.4
				l-4.2-0.5c-0.8-0.1-1.6-0.2-2.2-0.4C876.5,306.8,876.3,307.3,876.3,307.9z M877,295c0,2.8,1.1,4.2,3.4,4.2s3.4-1.4,3.4-4.2
				c0-2.8-1.1-4.2-3.4-4.2S877,292.3,877,295z"/>
			<path fill="#424242" d="M890.6,303.4c0-1.2,0.7-2.2,1.9-2.2c1.5,0,2,1.3,2,2.9c0,2.3-1.4,5-4.2,5.6l-0.3-1
				c1.4-0.6,2.2-1.6,2.2-3.1C891.2,305.5,890.6,304.5,890.6,303.4z"/>
			<path fill="#424242" d="M915.1,302.8c-0.8,1.6-3.1,2.9-5.1,2.9c-2.9,0-4.7-1.6-4.7-4.1c0-2.3,1.4-3.8,4.3-4.3l5.1-0.8v-1
				c0-3-1-4.4-3.1-4.4c-1,0-2.2,0.3-3.1,0.6l-0.2,1.3v1.3l-1.7,0l-0.3-4.4c1.9-0.5,3.9-0.8,5.8-0.8c3.8,0,5.3,1.9,5.3,6.8v4
				c0,1.6,0.3,3.4,0.3,3.4l2.2,0.2l-0.2,1.9c0,0-1.5-0.2-4.2-0.2L915.1,302.8z M910.2,298.9c-1.3,0.2-2,1-2,2.1
				c0,1.6,0.8,2.6,2.3,2.6c2.1,0,4-1.5,4.3-3.7V298L910.2,298.9z"/>
			<path fill="#424242" d="M922.2,289.3c0,0,2.3,0.1,3,0.1h1.1l0.6,0.6l0.2,2c0.8-1.4,2.5-3,4.9-3c4.4,0,5.4,2.9,5.4,7.3v3.5
				c0,1.6,0.2,3.4,0.2,3.4l2.6,0.2l-0.2,1.9c0,0-1.5-0.2-4.2-0.2c-0.6,0-3.3,0.2-3.3,0.2l-0.2-1.6l2.1-0.5c0.2-0.7,0.3-1.6,0.3-2.5
				v-4.5c0-2.7-0.6-5.3-3.3-5.3c-2.6,0-4.1,2.2-4.1,5.4v3.5c0,1.6,0.2,3.4,0.2,3.4l2.6,0.2l-0.2,1.9c0,0-1.5-0.2-4.2-0.2
				c-0.6,0-3.6,0.2-3.6,0.2l-0.2-1.6l2.5-0.5c0,0,0.3-1.5,0.3-2.2v-7c0-0.6-0.3-2.5-0.3-2.5l-2.5-0.5L922.2,289.3z"/>
			<path fill="#424242" d="M957.7,305.4c0,0-1.5-0.2-4.2-0.2l-0.4-2.6c-0.6,1.4-3,2.9-4.6,2.9c-4,0-6.4-3.1-6.4-8.3
				c0-5.1,2.6-8.2,6.7-8.2c1.3,0,2.3,0.2,4,0.8v-4.4c0-0.6-0.3-2.5-0.3-2.5l-2.9-0.5l0.2-1.7c0,0,2.7,0.1,3.4,0.1h1.8l0.6,0.6
				c0,0-0.2,3.3-0.2,4.9v13.4c0,1.6,0.3,3.4,0.3,3.4l2.2,0.2L957.7,305.4z M952.8,292.3c-1.2-0.8-2.3-1.1-3.7-1.1
				c-2.6,0-4.1,2.3-4.1,6.3c0,3.8,1.4,6.1,3.7,6.1c2.6,0,4.1-1.8,4.1-4.9V292.3z"/>
			<path fill="#424242" d="M192.4,335.7c0,4.9-3.1,8.6-7.4,8.6c-1.1,0-2.2-0.3-3.5-0.8v2.5c0,1.6,0.2,3.4,0.2,3.4l3.2,0.2l-0.2,1.9
				c0,0-2.1-0.2-4.8-0.2c-0.9,0-3.3,0.2-3.3,0.2l-0.2-1.6l2.1-0.5c0,0,0.3-1.5,0.3-2.2v-14.4c0-0.6-0.3-2.5-0.3-2.5l-2.5-0.5
				l0.2-1.7c0,0,2.3,0.1,3,0.1h1.1l0.6,0.6l0.2,2c0.7-1.5,2.8-3,4.5-3C189.9,327.7,192.4,330.6,192.4,335.7z M181.5,334.7v6.3
				c1.1,0.8,2.2,1.1,3.3,1.1c3.1,0,4.7-2.3,4.7-6.5c0-4-1.3-6-4-6C183.1,329.6,181.5,331.7,181.5,334.7z"/>
			<path fill="#424242" d="M200.1,330.7c1.2-2,2.9-3,5.2-3c1.2,0,2.1,0.3,2.1,0.3l-0.3,5.3l-1.8-0.1v-1.7c0-0.2-0.2-0.9-0.4-1.6
				h-0.1c-3,0-4.2,1.8-4.3,4.8v3.8c0,1.6,0.2,3.4,0.2,3.4l3.2,0.2l-0.2,1.9c0,0-2.2-0.2-4.8-0.2c-0.6,0-3.6,0.2-3.6,0.2l-0.2-1.6
				l2.5-0.5c0,0,0.3-1.8,0.3-2.5v-6.9c0-0.6-0.3-2.5-0.3-2.5l-2.5-0.5l0.2-1.7c0,0,2.3,0.1,3,0.1h1.1l0.6,0.6L200.1,330.7z"/>
			<path fill="#424242" d="M222.3,335.1l-0.5,1h-9.6c0.1,2.9,1.4,5.8,4.4,5.8c2.8,0,4.8-1.3,4.8-1.3l0.9,1.4c0,0-2,1.9-5.7,1.9
				c-4.8,0-7.4-3.4-7.4-8.2c0-4.8,2.2-8.3,7-8.3C220.5,327.7,222.3,330.7,222.3,335.1z M212.2,334.6l7.1-0.5c0,0,0-0.5,0-0.6
				c0-2.2-1-4.1-3.4-4.1C213.3,329.3,212.4,332,212.2,334.6z"/>
			<path fill="#424242" d="M235,328.2l-0.4,4.6l-1.8-0.1v-1.1c0-0.3-0.2-1.1-0.4-1.8c-0.7-0.3-1.2-0.4-2.1-0.4c-1.5,0-2.6,0.8-2.6,2
				c0,3.3,8.2,3,8.2,8.1c0,3.4-2.1,4.7-5.6,4.7c-3.2,0-5.3-1.2-5.3-1.2l0.3-4.4l1.8,0.1v1.2c0,0.3,0.2,1.1,0.5,1.9
				c0.7,0.6,1.6,0.8,2.7,0.8c1.8,0,3-0.7,3-2.5c0-3.4-8.2-3-8.2-8.1c0-2.7,2.2-4.3,5.2-4.3C231.8,327.7,233.5,327.9,235,328.2z"/>
			<path fill="#424242" d="M251.8,335.1l-0.5,1h-9.6c0.1,2.9,1.4,5.8,4.4,5.8c2.8,0,4.8-1.3,4.8-1.3l0.9,1.4c0,0-2,1.9-5.7,1.9
				c-4.8,0-7.4-3.4-7.4-8.2c0-4.8,2.2-8.3,7-8.3C250.2,327.7,251.8,330.7,251.8,335.1z M241.7,334.6l7.1-0.5c0,0,0-0.5,0-0.6
				c0-2.2-1-4.1-3.4-4.1C242.9,329.3,241.9,332,241.7,334.6z"/>
			<path fill="#424242" d="M259.3,330.7c1.2-2,2.9-3,5.2-3c1.2,0,2.1,0.3,2.1,0.3l-0.3,5.3l-1.8-0.1v-1.7c0-0.2-0.2-0.9-0.4-1.6
				h-0.1c-3,0-4.2,1.8-4.3,4.8v3.8c0,1.6,0.2,3.4,0.2,3.4l3.2,0.2l-0.2,1.9c0,0-2.2-0.2-4.8-0.2c-0.6,0-3.6,0.2-3.6,0.2l-0.2-1.6
				l2.5-0.5c0,0,0.3-1.8,0.3-2.5v-6.9c0-0.6-0.3-2.5-0.3-2.5l-2.5-0.5l0.2-1.7c0,0,2.3,0.1,3,0.1h1.1l0.6,0.6L259.3,330.7z"/>
			<path fill="#424242" d="M282.8,329.8c-0.6,1.3-1.4,3.3-1.6,3.7l-3.7,10.2h-2.1c0,0-4-10.3-4.2-11c-0.2-0.4-0.7-1.8-1.3-2.9
				l-1.9-0.3l0.2-1.6c0,0,2.2,0.1,2.9,0.1c2.6,0,4.2-0.2,4.2-0.2l0.1,1.8l-1.9,0.2c0.3,1.1,0.6,2.3,0.8,2.8l2.8,7.9l2.7-8
				c0.2-0.4,0.4-1.6,0.6-2.7l-2.5-0.3l0.2-1.6c0,0,2,0.1,2.7,0.1c2.6,0,4-0.2,4-0.2l0.1,1.8L282.8,329.8z"/>
			<path fill="#424242" d="M294.2,344c0,0-1.5-0.2-4.2-0.2c-0.6,0-3.6,0.2-3.6,0.2l-0.2-1.6l2.5-0.5c0,0,0.3-1.8,0.3-2.5v-6.9
				c0-0.6-0.3-2.5-0.3-2.5l-2.5-0.5l0.2-1.7c0,0,2.3,0.1,3,0.1h1.8l0.6,0.6c0,0-0.2,3.3-0.2,4.9v5c0,1.6,0.2,3.4,0.2,3.4l2.6,0.2
				L294.2,344z M292.3,322.8c0,1.2-0.7,2-1.9,2c-1.2,0-1.9-0.8-1.9-2c0-1.2,0.7-2,1.9-2C291.6,320.7,292.3,321.5,292.3,322.8z"/>
			<path fill="#424242" d="M296.5,327.9c0,0,2.3,0.1,3,0.1h1.1l0.6,0.6l0.2,2c0.8-1.4,2.5-3,4.9-3c4.4,0,5.4,2.9,5.4,7.3v3.5
				c0,1.6,0.2,3.4,0.2,3.4l2.6,0.2l-0.2,1.9c0,0-1.5-0.2-4.2-0.2c-0.6,0-3.3,0.2-3.3,0.2l-0.2-1.6l2.1-0.5c0.2-0.7,0.3-1.6,0.3-2.5
				v-4.5c0-2.7-0.6-5.3-3.3-5.3c-2.6,0-4.1,2.2-4.1,5.4v3.5c0,1.6,0.2,3.4,0.2,3.4l2.6,0.2l-0.2,1.9c0,0-1.5-0.2-4.2-0.2
				c-0.6,0-3.6,0.2-3.6,0.2l-0.2-1.6l2.5-0.5c0,0,0.3-1.5,0.3-2.2v-7c0-0.6-0.3-2.5-0.3-2.5l-2.5-0.5L296.5,327.9z"/>
			<path fill="#424242" d="M327.7,329.5c0.9,1,1.4,2.3,1.4,4c0,3.5-2.5,5.8-6.2,5.8c-0.8,0-1.5-0.1-2.1-0.3
				c-0.6,0.7-0.8,1.1-0.8,1.3c0,0.6,0.6,0.8,3.1,1.1c2.1,0.3,5,0.6,6.2,0.9c0.9,0.3,1.4,1.2,1.4,2.8c0,3.4-3.7,6.1-8.2,6.1
				c-4.2,0-6.3-1.6-6.3-4.7c0-0.6,1.2-1.9,3-3.3c-1.1-0.5-1.6-1.2-1.6-2.3c0-0.4,0.7-1.2,2.3-2.6c-1.8-0.9-2.9-2.8-2.9-5.1
				c0-3.5,2.5-5.8,6.2-5.8c1.3,0,2.5,0.3,3.4,0.8l3.9-0.6v1.8L327.7,329.5z M318.9,346.4c0,2.1,1.4,3.2,4.5,3.2
				c2.7,0,4.5-1.3,4.5-3.3c0-0.9-0.3-1.3-1.2-1.4l-4.2-0.5c-0.8-0.1-1.6-0.2-2.2-0.4C319.1,345.3,318.9,345.8,318.9,346.4z
				 M319.6,333.5c0,2.8,1.1,4.2,3.4,4.2c2.2,0,3.4-1.4,3.4-4.2c0-2.8-1.1-4.2-3.4-4.2C320.7,329.3,319.6,330.8,319.6,333.5z"/>
			<path fill="#424242" d="M350.1,342.5c-1,0.8-2.1,1.6-3.8,1.6c-3.1,0-4-1.8-4-5.3v-9.1h-2.6l-0.1-1.3c1-0.3,1.8-0.5,2.6-0.9
				c0.3-0.3,1.4-2.9,1.4-2.9l1.1,0.1v3.3h4.5l-0.2,1.7h-4.2v9.9c0,1.6,0.5,2.6,1.7,2.6c1.1,0,2.6-0.9,2.6-0.9L350.1,342.5z"/>
			<path fill="#424242" d="M351.3,319.4c0,0,2.3,0.1,3,0.1h1.8l0.6,0.6c-0.1,1-0.2,3.4-0.2,4.9v5.1c0.8-1.3,2.5-2.5,4.6-2.5
				c4.4,0,5.4,2.9,5.4,7.3v3.5c0,1.6,0.2,3.4,0.2,3.4l2.6,0.2l-0.2,1.9c0,0-1.5-0.2-4.2-0.2c-0.6,0-3.3,0.2-3.3,0.2l-0.2-1.6
				l2.1-0.5c0.2-0.7,0.3-1.6,0.3-2.5v-4.5c0-2.7-0.6-5.3-3.3-5.3c-2.6,0-4.1,2.2-4.1,5.4v3.5c0,1.4,0.2,3.2,0.2,3.4l2.6,0.2
				l-0.2,1.9c0,0-1.5-0.2-4.2-0.2c-0.6,0-3.6,0.2-3.6,0.2l-0.2-1.6l2.5-0.5c0.1-0.3,0.3-1.8,0.3-2.5V324c0-0.6-0.3-2.5-0.3-2.5
				l-2.5-0.5L351.3,319.4z"/>
			<path fill="#424242" d="M384.4,335.1l-0.5,1h-9.6c0.1,2.9,1.4,5.8,4.4,5.8c2.8,0,4.8-1.3,4.8-1.3l0.9,1.4c0,0-2,1.9-5.7,1.9
				c-4.8,0-7.4-3.4-7.4-8.2c0-4.8,2.2-8.3,7-8.3C382.6,327.7,384.4,330.7,384.4,335.1z M374.2,334.6l7.1-0.5c0,0,0-0.5,0-0.6
				c0-2.2-1-4.1-3.4-4.1C375.4,329.3,374.5,332,374.2,334.6z"/>
			<path fill="#424242" d="M408.6,330.8c0.9-1.5,2.6-3.1,5-3.1c4.1,0,5,2.9,5,7.3v3.5c0,1.6,0.2,3.4,0.2,3.4l2.6,0.2l-0.2,1.9
				c0,0-1.5-0.2-4.2-0.2c-0.6,0-3.3,0.2-3.3,0.2l-0.2-1.6l2.1-0.5c0.2-0.7,0.3-1.6,0.3-2.5v-4.5c0-2.7-0.5-5.3-3-5.3
				c-2.3,0-3.9,2-4,5.1v0.2v3.5c0,1.6,0.2,3.4,0.2,3.4l2.6,0.2l-0.2,1.9c0,0-1.5-0.2-4.2-0.2c-0.6,0-3.3,0.2-3.3,0.2l-0.2-1.6
				l2.1-0.5c0.2-0.7,0.3-1.6,0.3-2.5v-4.5c0-2.7-0.5-5.3-3-5.3s-4,2.2-4,5.4v3.5c0,1.6,0.2,3.4,0.2,3.4l2.6,0.2l-0.2,1.9
				c0,0-1.5-0.2-4.2-0.2c-0.6,0-3.6,0.2-3.6,0.2l-0.2-1.6l2.5-0.5c0,0,0.3-1.5,0.3-2.2v-7c0-0.6-0.3-2.5-0.3-2.5l-2.5-0.5l0.2-1.7
				c0,0,2.3,0.1,3,0.1h1.1l0.6,0.6l0.2,2c0.8-1.4,2.5-3,4.8-3C406.6,327.7,407.9,328.8,408.6,330.8z"/>
			<path fill="#424242" d="M433.2,341.3c-0.8,1.6-3.1,2.9-5.1,2.9c-2.9,0-4.7-1.6-4.7-4.1c0-2.3,1.4-3.8,4.3-4.3l5.1-0.8v-1
				c0-3-1-4.4-3.1-4.4c-1,0-2.2,0.3-3.1,0.6l-0.2,1.3v1.3l-1.8,0.1l-0.3-4.4c1.9-0.5,3.9-0.8,5.8-0.8c3.8,0,5.3,1.9,5.3,6.8v4
				c0,1.6,0.3,3.4,0.3,3.4l2.2,0.2l-0.2,1.9c0,0-1.5-0.2-4.2-0.2L433.2,341.3z M428.3,337.4c-1.3,0.2-2,1-2,2.1
				c0,1.6,0.8,2.6,2.3,2.6c2.1,0,4-1.5,4.3-3.7v-1.9L428.3,337.4z"/>
			<path fill="#424242" d="M440.1,327.9c0,0,2.3,0.1,3,0.1h1.1l0.6,0.6l0.2,2c0.8-1.4,2.5-3,4.9-3c4.4,0,5.4,2.9,5.4,7.3v3.5
				c0,1.6,0.2,3.4,0.2,3.4l2.6,0.2l-0.2,1.9c0,0-1.5-0.2-4.2-0.2c-0.6,0-3.3,0.2-3.3,0.2l-0.2-1.6l2.1-0.5c0.2-0.7,0.3-1.6,0.3-2.5
				v-4.5c0-2.7-0.6-5.3-3.3-5.3c-2.6,0-4.1,2.2-4.1,5.4v3.5c0,1.6,0.2,3.4,0.2,3.4l2.6,0.2l-0.2,1.9c0,0-1.5-0.2-4.2-0.2
				c-0.6,0-3.6,0.2-3.6,0.2l-0.2-1.6l2.5-0.5c0,0,0.3-1.5,0.3-2.2v-7c0-0.6-0.3-2.5-0.3-2.5l-2.5-0.5L440.1,327.9z"/>
			<path fill="#424242" d="M469.8,333c0.2-0.6,0.6-2,0.8-3.1l-2.3-0.4l0.2-1.6c0,0,2.1,0.1,2.8,0.1c2.5,0,3.7-0.2,3.7-0.2l0.1,1.8
				l-1.7,0.3c-0.6,1.3-1.4,3.1-1.6,3.7l-6.6,17.8l-5.2-0.3l0.3-1.8h1.3c0.4,0,1.4-0.2,2.1-0.3c0.5-0.8,1-1.7,1.2-2.1l1-2.9
				l-4.5-10.8c-0.3-0.8-1-2.1-1.6-3.2l-1.5-0.4l0.2-1.6c0,0,1.9,0.1,2.7,0.1c2.6,0,4.4-0.2,4.4-0.2l0.1,1.8l-2.3,0.2
				c0.2,0.9,0.5,2.1,0.8,2.8l3.2,7.9L469.8,333z"/>
			<path fill="#424242" d="M494.2,342.5c-1,0.8-2.1,1.6-3.8,1.6c-3.1,0-4-1.8-4-5.3v-9.1H484l-0.1-1.3c1-0.3,1.8-0.5,2.6-0.9
				c0.3-0.3,1.4-2.9,1.4-2.9l1.1,0.1v3.3h4.5l-0.2,1.7H489v9.9c0,1.6,0.5,2.6,1.7,2.6c1.1,0,2.6-0.9,2.6-0.9L494.2,342.5z"/>
			<path fill="#424242" d="M500.9,330.7c1.2-2,2.9-3,5.2-3c1.2,0,2.1,0.3,2.1,0.3l-0.3,5.3l-1.8-0.1v-1.7c0-0.2-0.2-0.9-0.4-1.6
				h-0.1c-3,0-4.2,1.8-4.3,4.8v3.8c0,1.6,0.2,3.4,0.2,3.4l3.2,0.2l-0.2,1.9c0,0-2.2-0.2-4.8-0.2c-0.6,0-3.6,0.2-3.6,0.2l-0.2-1.6
				l2.5-0.5c0,0,0.3-1.8,0.3-2.5v-6.9c0-0.6-0.3-2.5-0.3-2.5l-2.5-0.5l0.2-1.7c0,0,2.3,0.1,3,0.1h1.1l0.6,0.6L500.9,330.7z"/>
			<path fill="#424242" d="M522.9,335.1l-0.5,1h-9.6c0.1,2.9,1.4,5.8,4.4,5.8c2.8,0,4.8-1.3,4.8-1.3l0.9,1.4c0,0-2,1.9-5.7,1.9
				c-4.8,0-7.4-3.4-7.4-8.2c0-4.8,2.2-8.3,7-8.3C521.3,327.7,522.9,330.7,522.9,335.1z M512.8,334.6l7.1-0.5c0,0,0-0.5,0-0.6
				c0-2.2-1-4.1-3.4-4.1C514.1,329.3,513,332,512.8,334.6z"/>
			<path fill="#424242" d="M535.4,341.3c-0.8,1.6-3.1,2.9-5.1,2.9c-2.9,0-4.7-1.6-4.7-4.1c0-2.3,1.4-3.8,4.3-4.3l5.1-0.8v-1
				c0-3-1-4.4-3.1-4.4c-1,0-2.2,0.3-3.1,0.6l-0.2,1.3v1.3l-1.8,0.1l-0.3-4.4c1.9-0.5,3.9-0.8,5.8-0.8c3.8,0,5.3,1.9,5.3,6.8v4
				c0,1.6,0.3,3.4,0.3,3.4l2.2,0.2L540,344c0,0-1.5-0.2-4.2-0.2L535.4,341.3z M530.4,337.4c-1.3,0.2-2,1-2,2.1
				c0,1.6,0.8,2.6,2.3,2.6c2.1,0,4-1.5,4.3-3.7v-1.9L530.4,337.4z"/>
			<path fill="#424242" d="M552.6,328.2l-0.4,4.6l-1.8-0.1v-1.1c0-0.3-0.2-1.1-0.4-1.8c-0.7-0.3-1.2-0.4-2.1-0.4
				c-1.5,0-2.6,0.8-2.6,2c0,3.3,8.2,3,8.2,8.1c0,3.4-2.1,4.7-5.6,4.7c-3.2,0-5.3-1.2-5.3-1.2l0.3-4.4l1.8,0.1v1.2
				c0,0.3,0.2,1.1,0.5,1.9c0.7,0.6,1.6,0.8,2.7,0.8c1.8,0,3-0.7,3-2.5c0-3.4-8.2-3-8.2-8.1c0-2.7,2.2-4.3,5.2-4.3
				C549.3,327.7,551,327.9,552.6,328.2z"/>
			<path fill="#424242" d="M565.4,327.9c0,0,2.1,0.1,2.8,0.1h1.8l0.6,0.6c0,0-0.2,3.3-0.2,4.9v5c0,1.6,0.3,3.4,0.3,3.4l2.2,0.2
				l-0.2,1.9c0,0-1.5-0.2-4.2-0.2l-0.4-2.6c-0.6,1-1.9,2.9-5,2.9c-4.4,0-5.2-3-5.2-7.3v-4.4c0-0.6-0.3-2.5-0.3-2.5l-2.1-0.5l0.2-1.7
				c0,0,1.9,0.1,2.7,0.1h1.8l0.6,0.6c0,0-0.2,3.3-0.2,4.9v4.5c0,2.3,0.8,4.2,3.2,4.2c2.7,0,4.1-2.5,4.1-5v-4.6
				c0-0.6-0.3-2.5-0.3-2.5l-2.2-0.5L565.4,327.9z"/>
			<path fill="#424242" d="M580.4,330.7c1.2-2,2.9-3,5.2-3c1.2,0,2.1,0.3,2.1,0.3l-0.3,5.3l-1.8-0.1v-1.7c0-0.2-0.2-0.9-0.4-1.6
				h-0.1c-3,0-4.2,1.8-4.3,4.8v3.8c0,1.6,0.2,3.4,0.2,3.4l3.2,0.2l-0.2,1.9c0,0-2.2-0.2-4.8-0.2c-0.6,0-3.6,0.2-3.6,0.2l-0.2-1.6
				l2.5-0.5c0,0,0.3-1.8,0.3-2.5v-6.9c0-0.6-0.3-2.5-0.3-2.5l-2.5-0.5l0.2-1.7c0,0,2.3,0.1,3,0.1h1.1l0.6,0.6L580.4,330.7z"/>
			<path fill="#424242" d="M602.6,335.1l-0.5,1h-9.6c0.1,2.9,1.4,5.8,4.4,5.8c2.8,0,4.8-1.3,4.8-1.3l0.9,1.4c0,0-2,1.9-5.7,1.9
				c-4.8,0-7.4-3.4-7.4-8.2c0-4.8,2.2-8.3,7-8.3C600.9,327.7,602.6,330.7,602.6,335.1z M592.5,334.6l7.1-0.5c0,0,0-0.5,0-0.6
				c0-2.2-1-4.1-3.4-4.1C593.6,329.3,592.7,332,592.5,334.6z"/>
			<path fill="#424242" d="M615.4,328.2l-0.4,4.6l-1.8-0.1v-1.1c0-0.3-0.2-1.1-0.4-1.8c-0.7-0.3-1.2-0.4-2.1-0.4
				c-1.5,0-2.6,0.8-2.6,2c0,3.3,8.2,3,8.2,8.1c0,3.4-2.1,4.7-5.6,4.7c-3.2,0-5.3-1.2-5.3-1.2l0.3-4.4l1.8,0.1v1.2
				c0,0.3,0.2,1.1,0.5,1.9c0.7,0.6,1.6,0.8,2.7,0.8c1.8,0,3-0.7,3-2.5c0-3.4-8.2-3-8.2-8.1c0-2.7,2.2-4.3,5.2-4.3
				C612.1,327.7,613.8,327.9,615.4,328.2z"/>
			<path fill="#424242" d="M633.9,344.1c-4.9,0-7.4-3.4-7.4-8.2c0-4.9,2.6-8.3,7.4-8.3c4.9,0,7.4,3.3,7.4,8.3
				C641.2,340.8,638.8,344.1,633.9,344.1z M633.9,329.5c-3.3,0-4.4,3.1-4.4,6.4c0,3.3,1,6.4,4.4,6.4c3.3,0,4.4-3.1,4.4-6.4
				S637.1,329.5,633.9,329.5z"/>
			<path fill="#424242" d="M655.7,319.4l-0.3,4.3l-1.7-0.1v-1.1c0-0.3-0.2-1-0.4-1.6c-0.3,0-0.6,0-0.8,0c-2.9,0-3.1,1.9-3.1,4.8v2.3
				h4.5l-0.2,1.7h-4.3v8.8c0,1.6,0.2,3.4,0.2,3.4l3.2,0.2l-0.2,1.9c0,0-2.2-0.2-4.8-0.2c-0.6,0-3.6,0.2-3.6,0.2l-0.2-1.6l2.5-0.5
				c0,0,0.3-1.8,0.3-2.5v-9.7h-2.5l-0.1-1.3c1-0.3,1.8-0.5,2.6-0.9v-2.8c0-3.4,1.9-5.5,5.6-5.5C653.7,319.1,655.7,319.4,655.7,319.4
				z"/>
			<path fill="#424242" d="M671.9,322.9l-2.6,0.2c-0.1,0.4-0.2,2-0.2,3.4v11.9c0,1.3,0.2,3,0.2,3.4l2.9,0.2l-0.2,1.9
				c0,0-2.1-0.2-4.7-0.2c-0.6,0-3.8,0.2-3.8,0.2l-0.2-1.6l2.6-0.5c0.1-0.4,0.3-1.9,0.3-2.5v-13.8c0-0.5-0.2-2-0.3-2.5l-2.5-0.4
				l0.2-1.7c0,0,3.1,0.2,3.7,0.2c2.6,0,4.4-0.2,4.4-0.2L671.9,322.9z"/>
			<path fill="#424242" d="M675.2,327.9c0,0,2.3,0.1,3,0.1h1.1l0.6,0.6l0.2,2c0.8-1.4,2.5-3,4.9-3c4.4,0,5.4,2.9,5.4,7.3v3.5
				c0,1.6,0.2,3.4,0.2,3.4l2.6,0.2l-0.2,1.9c0,0-1.5-0.2-4.2-0.2c-0.6,0-3.3,0.2-3.3,0.2l-0.2-1.6l2.1-0.5c0.2-0.7,0.3-1.6,0.3-2.5
				v-4.5c0-2.7-0.6-5.3-3.3-5.3c-2.6,0-4.1,2.2-4.1,5.4v3.5c0,1.6,0.2,3.4,0.2,3.4l2.6,0.2l-0.2,1.9c0,0-1.5-0.2-4.2-0.2
				c-0.6,0-3.6,0.2-3.6,0.2l-0.2-1.6l2.5-0.5c0,0,0.3-1.5,0.3-2.2v-7c0-0.6-0.3-2.5-0.3-2.5l-2.5-0.5L675.2,327.9z"/>
			<path fill="#424242" d="M704.8,342.5c-1,0.8-2.1,1.6-3.8,1.6c-3.1,0-4-1.8-4-5.3v-9.1h-2.5l-0.1-1.3c1-0.3,1.8-0.5,2.6-0.9
				c0.3-0.3,1.4-2.9,1.4-2.9l1.1,0.1v3.3h4.5l-0.2,1.7h-4.3v9.9c0,1.6,0.5,2.6,1.7,2.6c1.1,0,2.6-0.9,2.6-0.9L704.8,342.5z"/>
			<path fill="#424242" d="M719.6,335.1l-0.5,1h-9.6c0.1,2.9,1.4,5.8,4.4,5.8c2.8,0,4.8-1.3,4.8-1.3l0.9,1.4c0,0-2,1.9-5.7,1.9
				c-4.8,0-7.4-3.4-7.4-8.2c0-4.8,2.2-8.3,7-8.3C718,327.7,719.6,330.7,719.6,335.1z M709.5,334.6l7.1-0.5c0,0,0-0.5,0-0.6
				c0-2.2-1-4.1-3.4-4.1C710.7,329.3,709.7,332,709.5,334.6z"/>
			<path fill="#424242" d="M727.1,330.7c1.2-2,2.9-3,5.2-3c1.2,0,2.1,0.3,2.1,0.3l-0.3,5.3l-1.8-0.1v-1.7c0-0.2-0.2-0.9-0.4-1.6
				h-0.1c-3,0-4.2,1.8-4.3,4.8v3.8c0,1.6,0.2,3.4,0.2,3.4l3.2,0.2l-0.2,1.9c0,0-2.2-0.2-4.8-0.2c-0.6,0-3.6,0.2-3.6,0.2l-0.2-1.6
				l2.5-0.5c0,0,0.3-1.8,0.3-2.5v-6.9c0-0.6-0.3-2.5-0.3-2.5l-2.5-0.5l0.2-1.7c0,0,2.3,0.1,3,0.1h1.1l0.6,0.6L727.1,330.7z"/>
			<path fill="#424242" d="M736.1,327.9c0,0,2.3,0.1,3,0.1h1.1l0.6,0.6l0.2,2c0.8-1.4,2.5-3,4.9-3c4.4,0,5.4,2.9,5.4,7.3v3.5
				c0,1.6,0.2,3.4,0.2,3.4l2.6,0.2l-0.2,1.9c0,0-1.5-0.2-4.2-0.2c-0.6,0-3.3,0.2-3.3,0.2l-0.2-1.6l2.1-0.5c0.2-0.7,0.3-1.6,0.3-2.5
				v-4.5c0-2.7-0.6-5.3-3.3-5.3c-2.6,0-4.1,2.2-4.1,5.4v3.5c0,1.6,0.2,3.4,0.2,3.4l2.6,0.2l-0.2,1.9c0,0-1.5-0.2-4.2-0.2
				c-0.6,0-3.6,0.2-3.6,0.2l-0.2-1.6l2.5-0.5c0,0,0.3-1.5,0.3-2.2v-7c0-0.6-0.3-2.5-0.3-2.5l-2.5-0.5L736.1,327.9z"/>
			<path fill="#424242" d="M769.1,335.1l-0.5,1H759c0.1,2.9,1.4,5.8,4.4,5.8c2.8,0,4.8-1.3,4.8-1.3l0.9,1.4c0,0-2,1.9-5.7,1.9
				c-4.8,0-7.4-3.4-7.4-8.2c0-4.8,2.2-8.3,7-8.3C767.4,327.7,769.1,330.7,769.1,335.1z M759,334.6l7.1-0.5c0,0,0-0.5,0-0.6
				c0-2.2-1-4.1-3.4-4.1C760.2,329.3,759.2,332,759,334.6z"/>
			<path fill="#424242" d="M781.2,342.5c-1,0.8-2.1,1.6-3.8,1.6c-3.1,0-4-1.8-4-5.3v-9.1H771l-0.1-1.3c1-0.3,1.8-0.5,2.6-0.9
				c0.3-0.3,1.4-2.9,1.4-2.9l1.1,0.1v3.3h4.5l-0.2,1.7H776v9.9c0,1.6,0.5,2.6,1.7,2.6c1.1,0,2.6-0.9,2.6-0.9L781.2,342.5z"/>
			<path fill="#424242" d="M805.9,321.5l0.2,4.4l-1.8,0.2c-0.1-0.5-0.2-1.2-0.3-1.7c0-0.2-0.3-0.7-0.6-1.1c-0.7-0.1-1.7-0.2-2.6-0.2
				h-4.2c-0.1,0.7-0.2,2.3-0.2,3.6v4.8c0.5,0,1.1,0.1,1.4,0.1h2.3c0.6,0,1.9-0.3,1.9-0.3l0.3-2.1l1.4,0.2c0,0,0,2,0,2.7
				c0,1.6,0.1,3.5,0.1,3.5l-1.5,0.2l-0.3-2.1c0,0-1.9-0.2-2.6-0.2h-1.7c-0.3,0-0.8,0-1.4,0.1v5.1c0,1.3,0.2,3,0.2,3.4l3.2,0.2
				l-0.2,1.9c0,0-2.5-0.2-5-0.2c-0.6,0-3.8,0.2-3.8,0.2l-0.2-1.6l2.6-0.5c0.1-0.4,0.3-1.9,0.3-2.5v-13.8c0-0.5-0.2-2-0.3-2.5
				l-2.5-0.4l0.2-1.7c0,0,3.1,0.2,3.7,0.2h7.1c0.6,0,3.7-0.3,3.7-0.3L805.9,321.5z"/>
			<path fill="#424242" d="M814.3,344.1c-4.9,0-7.4-3.4-7.4-8.2c0-4.9,2.6-8.3,7.4-8.3c4.9,0,7.4,3.3,7.4,8.3
				C821.7,340.8,819.1,344.1,814.3,344.1z M814.3,329.5c-3.3,0-4.4,3.1-4.4,6.4c0,3.3,1,6.4,4.4,6.4c3.3,0,4.4-3.1,4.4-6.4
				C818.6,332.6,817.6,329.5,814.3,329.5z"/>
			<path fill="#424242" d="M824.1,319.4c0,0,2.3,0.1,3,0.1h1.8l0.6,0.6c-0.1,1-0.2,3.4-0.2,4.9v13.4c0,1.4,0.2,3.2,0.2,3.4l2.6,0.2
				l-0.2,1.9c0,0-1.5-0.2-4.2-0.2c-0.6,0-3.6,0.2-3.6,0.2l-0.2-1.6l2.5-0.5c0.1-0.3,0.3-1.8,0.3-2.5V324c0-0.6-0.3-2.5-0.3-2.5
				l-2.5-0.5L824.1,319.4z"/>
			<path fill="#424242" d="M833.8,319.4c0,0,2.3,0.1,3,0.1h1.8l0.6,0.6c-0.1,1-0.2,3.4-0.2,4.9v13.4c0,1.4,0.2,3.2,0.2,3.4l2.6,0.2
				l-0.2,1.9c0,0-1.5-0.2-4.2-0.2c-0.6,0-3.6,0.2-3.6,0.2l-0.2-1.6l2.5-0.5c0.1-0.3,0.3-1.8,0.3-2.5V324c0-0.6-0.3-2.5-0.3-2.5
				l-2.5-0.5L833.8,319.4z M843.3,329.5l0.2-1.6c0,0,2.1,0.1,2.8,0.1c2.6,0,4.1-0.2,4.1-0.2l0.1,1.8l-2.5,0.3
				c-1,0.6-2.6,1.5-3.2,2.1l-2.6,2.8l4.4,4.8c0.3,0.4,1.8,1.4,2.9,2.2l2,0.2l-0.2,1.9c0,0-1.5-0.2-4.2-0.2l-3.3,0.1l-0.2-1.6
				l1.8-0.3l-1.6-1.8l-4.6-4.8l5.3-5.5L843.3,329.5z"/>
			<path fill="#424242" d="M852.5,319.4c0,0,2.3,0.1,3,0.1h1.8l0.6,0.6c-0.1,1-0.2,3.4-0.2,4.9v13.4c0,1.4,0.2,3.2,0.2,3.4l2.6,0.2
				l-0.2,1.9c0,0-1.5-0.2-4.2-0.2c-0.6,0-3.6,0.2-3.6,0.2l-0.2-1.6l2.5-0.5c0.1-0.3,0.3-1.8,0.3-2.5V324c0-0.6-0.3-2.5-0.3-2.5
				l-2.5-0.5L852.5,319.4z"/>
			<path fill="#424242" d="M870.5,344c0,0-1.5-0.2-4.2-0.2c-0.6,0-3.6,0.2-3.6,0.2l-0.2-1.6l2.5-0.5c0,0,0.3-1.8,0.3-2.5v-6.9
				c0-0.6-0.3-2.5-0.3-2.5l-2.5-0.5l0.2-1.7c0,0,2.3,0.1,3,0.1h1.8l0.6,0.6c0,0-0.2,3.3-0.2,4.9v5c0,1.6,0.2,3.4,0.2,3.4l2.6,0.2
				L870.5,344z M868.5,322.8c0,1.2-0.7,2-1.9,2s-1.9-0.8-1.9-2c0-1.2,0.7-2,1.9-2S868.5,321.5,868.5,322.8z"/>
			<path fill="#424242" d="M884.3,319.4l-0.3,4.3l-1.7-0.1v-1.1c0-0.3-0.2-1-0.4-1.6c-0.3,0-0.6,0-0.8,0c-2.9,0-3.1,1.9-3.1,4.8v2.3
				h4.5l-0.2,1.7h-4.3v8.8c0,1.6,0.2,3.4,0.2,3.4l3.2,0.2l-0.2,1.9c0,0-2.2-0.2-4.8-0.2c-0.6,0-3.6,0.2-3.6,0.2l-0.2-1.6l2.5-0.5
				c0,0,0.3-1.8,0.3-2.5v-9.7h-2.5l-0.1-1.3c1-0.3,1.8-0.5,2.6-0.9v-2.8c0-3.4,1.9-5.5,5.6-5.5C882.3,319.1,884.3,319.4,884.3,319.4
				z"/>
			<path fill="#424242" d="M897.4,335.1l-0.5,1h-9.6c0.1,2.9,1.4,5.8,4.4,5.8c2.8,0,4.8-1.3,4.8-1.3l0.9,1.4c0,0-2,1.9-5.7,1.9
				c-4.8,0-7.4-3.4-7.4-8.2c0-4.8,2.2-8.3,7-8.3C895.8,327.7,897.4,330.7,897.4,335.1z M887.3,334.6l7.1-0.5c0,0,0-0.5,0-0.6
				c0-2.2-1-4.1-3.4-4.1C888.6,329.3,887.5,332,887.3,334.6z"/>
			<path fill="#424242" d="M904.1,341.9c0,1.3-0.7,2.2-2,2.2s-2-0.9-2-2.2c0-1.3,0.7-2.2,2-2.2C903.3,339.6,904.1,340.6,904.1,341.9
				z"/>
		</g>
	</g>
	<g>
		<rect x="66.5" y="227" fill="#26407F" width="4.6" height="4.5"/>
		<rect x="38.9" y="227" fill="#4C80FE" width="4.8" height="13.7"/>
		<rect x="38.9" y="259.4" fill="#4C80FE" width="4.8" height="9.1"/>
		<rect x="103.2" y="291.4" fill="#6C8BD4" width="4.6" height="9.1"/>
		<path fill="#4C80FE" d="M29.5,277.8V296h-4.6v-27.6h9.2v-4.6h-9.2v-9.1h9.2v-4.6h-9.2v-9.5h9.2V227H20.4v96.9h13.7v-14.2h-9.2
			v-9.2h9.2v-18.3h4.8v18.3h4.8v-22.8L29.5,277.8L29.5,277.8z M24.8,231.4h4.6v4.6h-4.6V231.4L24.8,231.4z M29.5,314.3v4.9h-4.6
			v-4.9H29.5L29.5,314.3z"/>
		<polygon fill="#1240AA" points="52.9,217.9 52.9,323.9 48.2,323.9 48.2,222.5 11.3,222.5 11.3,217.9 		"/>
		<polygon fill="#1240AA" points="80.2,217.9 80.2,323.9 75.6,323.9 75.6,222.5 61.9,222.5 61.9,323.9 57.2,323.9 57.2,217.9 		"/>
		<rect x="75.6" y="328.5" fill="#1240AA" width="4.6" height="4.5"/>
		<rect x="103.2" y="319.3" fill="#6C8BD4" width="4.6" height="13.7"/>
		<path fill="#6C8BD4" d="M112.7,236v14.2h9.2v9.2h-9.2v18.3h-4.9v-18.3h-4.6v22.8h14.2v-18.3h4.6v27.6h-9.2v4.6h9.2v9.1h-9.2v4.6
			h9.2v9.5h-9.2v13.7h13.6V236L112.7,236L112.7,236z M122,328.5h-4.6v-4.6h4.6V328.5L122,328.5z M122,245.6h-4.6v-4.9h4.6V245.6
			L122,245.6z"/>
		<path fill="#1240AA" d="M84.8,217.9v13.6h4.6v-8.9h4.5v8.9h4.6v-8.9h14.2v8.9h13.7v-8.9h4.5v110.5h4.6V217.9H84.8z M122,227h-4.6
			v-4.5h4.6V227L122,227z"/>
		<path fill="#26407F" d="M57.2,337.4h-4.4v-9h-4.6v9H34.1v-9H20.4v9h-4.5V227h-4.6v115.1h50.7v-13.6h-4.6v8.9H57.2z M24.8,337.4
			v-4.5h4.6v4.5H24.8L24.8,337.4z"/>
		<polygon fill="#26407F" points="84.8,337.4 71.1,337.4 71.1,236 66.5,236 66.5,342.1 89.5,342.1 89.5,236 84.8,236 		"/>
		<polygon fill="#26407F" points="135.5,337.4 135.5,342.1 93.9,342.1 93.9,236 98.6,236 98.6,337.4 		"/>
		<path fill="#06266F" d="M2,208.6v142.7h142.8V208.6H2z M140.2,346.7H6.6V213.2h133.5"/>
	</g>
</g>
</svg>
