<?xml version="1.0" encoding="utf-8"?>
<!-- Generator: Adobe Illustrator 18.0.0, SVG Export Plug-In . SVG Version: 6.00 Build 0)  -->
<!DOCTYPE svg PUBLIC "-//W3C//DTD SVG 1.1//EN" "http://www.w3.org/Graphics/SVG/1.1/DTD/svg11.dtd">
<svg version="1.1" id="Layer_1" xmlns="http://www.w3.org/2000/svg" xmlns:xlink="http://www.w3.org/1999/xlink" x="0px" y="0px"
	 viewBox="95 190 770 180" enable-background="new 95 190 770 180" xml:space="preserve">
<g>
	<g>
		<g>
			<g>
				<defs>
					<path id="SVGID_1_" d="M207.3,197.4c-46.8,0-102,37.7-102,76c0,30.3,21.4,39.7,47.7,50.9c12.8,5.5,26.7,8.8,40,8.8
						c12.7,0,15.9-1.7,21.3-3.1c1,0.8,2,1.5,3.1,2.2l0,0c0,0,0.1,0.1,0.3,0.2c0.1,0.1,0.3,0.2,0.4,0.3c3.4,2.3,17.8,12.6,28.4,29.7
						c0,0,3.1,1.3,10.9-2.5c0,0-7.7-11.5-8.6-18.7c0.3,0,0.6,0,0.9,0c36.6,0,40.9-19.2,41.1-34.2c9.6-3.7,18.6-11.3,18.6-22.1
						C309.3,270.9,287.3,197.4,207.3,197.4z M249.7,293.3c-9.1,9.3-22.3,13-35,13.6c-18.9,0.8-38.3-3.5-54-14.1
						C153,287.6,146,279.7,145,270c-1-10.2,4.6-19.6,11.7-26.4c13.3-12.4,31.2-18.9,49.1-21.1c13.1-1.9,27.2,0.1,38,8.1
						c9.8,7.1,15.3,18.9,16,30.8C260.8,272.8,257.8,284.9,249.7,293.3z"/>
				</defs>
				<clipPath id="SVGID_2_">
					<use xlink:href="#SVGID_1_"  overflow="visible"/>
				</clipPath>
				<rect x="95" y="189.9" clip-path="url(#SVGID_2_)" width="112.2" height="180.2"/>
			</g>
		</g>
		<g>
			<g>
				<defs>
					<path id="SVGID_3_" d="M207.3,197.4c-46.8,0-102,37.7-102,76c0,30.3,21.4,39.7,47.7,50.9c12.8,5.5,26.7,8.8,40,8.8
						c12.7,0,15.9-1.7,21.3-3.1c1,0.8,2,1.5,3.1,2.2l0,0c0,0,0.1,0.1,0.3,0.2c0.1,0.1,0.3,0.2,0.4,0.3c3.4,2.3,17.8,12.6,28.4,29.7
						c0,0,3.1,1.3,10.9-2.5c0,0-7.7-11.5-8.6-18.7c0.3,0,0.6,0,0.9,0c36.6,0,40.9-19.2,41.1-34.2c9.6-3.7,18.6-11.3,18.6-22.1
						C309.3,270.9,287.3,197.4,207.3,197.4z M249.7,293.3c-9.1,9.3-22.3,13-35,13.6c-18.9,0.8-38.3-3.5-54-14.1
						C153,287.6,146,279.7,145,270c-1-10.2,4.6-19.6,11.7-26.4c13.3-12.4,31.2-18.9,49.1-21.1c13.1-1.9,27.2,0.1,38,8.1
						c9.8,7.1,15.3,18.9,16,30.8C260.8,272.8,257.8,284.9,249.7,293.3z"/>
				</defs>
				<clipPath id="SVGID_4_">
					<use xlink:href="#SVGID_3_"  overflow="visible"/>
				</clipPath>
				<rect x="207.2" y="189.9" clip-path="url(#SVGID_4_)" fill="#FFFFFF" width="112.2" height="180.2"/>
			</g>
		</g>
	</g>
	<g>
		<g id="g384">
			<path id="path386" d="M377.4,269.8c0.2,12.2,7.9,17.2,17,17.2c6.5,0,10.5-1.1,13.7-2.6l1.6,6.5c-3.2,1.4-8.7,3.2-16.6,3.2
				c-15.3,0-24.4-10.2-24.4-25.1c0-15,8.8-26.7,23.3-26.7c16.3,0,20.5,14.1,20.5,23.3c0,1.8-0.1,3.2-0.3,4.2H377.4L377.4,269.8z
				 M403.9,263.3c0.1-5.6-2.4-14.6-12.5-14.6c-9.2,0-13.1,8.3-13.8,14.6H403.9z"/>
			<path id="path388" d="M457.6,285.3h-0.2c-2.8,4.8-8.2,8.7-16.2,8.7c-11.6,0-21-9.9-21-25c0-18.7,12-26.8,22.4-26.8
				c7.7,0,12.8,3.8,15.3,8.5h0.2l0.3-7.5h8.5c-0.2,4.1-0.4,8.5-0.4,13.6v56.3h-8.9V285.3L457.6,285.3z M457.6,263.4
				c0-1.2-0.1-2.6-0.4-3.7c-1.4-5.5-6.2-10.3-12.9-10.3c-9.3,0-15,7.9-15,19c0,9.9,4.7,18.5,14.7,18.5c5.8,0,10.9-3.6,12.9-9.7
				c0.4-1.3,0.7-3.1,0.7-4.4L457.6,263.4L457.6,263.4z"/>
			<path id="path390" d="M523,279.3c0,5.2,0.1,9.7,0.4,13.6h-8l-0.5-8.1h-0.2c-2.3,4-7.6,9.2-16.4,9.2c-7.8,0-17.1-4.4-17.1-21.7
				v-29h9v27.4c0,9.4,3,15.9,11.1,15.9c6,0,10.3-4.2,11.9-8.3c0.5-1.2,0.8-2.9,0.8-4.6v-30.3h9L523,279.3L523,279.3z"/>
			<path id="path392" d="M548,229.4c0,3.1-2.1,5.5-5.7,5.5c-3.3,0-5.4-2.5-5.4-5.5s2.3-5.6,5.6-5.6C545.7,223.7,548,226.2,548,229.4
				z M537.9,292.9v-49.6h9v49.6L537.9,292.9L537.9,292.9z"/>
			<path id="path394" d="M561.9,256.8c0-5.2-0.1-9.3-0.4-13.4h8l0.5,8.2h0.2c2.5-4.6,8.2-9.2,16.4-9.2c6.9,0,17.5,4.1,17.5,21.1
				v29.5h-9v-28.6c0-8-3-14.7-11.5-14.7c-5.8,0-10.5,4.2-12.1,9.2c-0.4,1.1-0.6,2.7-0.6,4.2v29.8h-9L561.9,256.8L561.9,256.8z"/>
			<path id="path396" d="M663.7,267.7c0,18.3-12.8,26.3-24.7,26.3c-13.3,0-23.8-9.8-23.8-25.5c0-16.5,11-26.2,24.6-26.2
				C654.1,242.3,663.7,252.7,663.7,267.7z M624.5,268.2c0,10.9,6.2,19.1,15,19.1c8.6,0,15.1-8.1,15.1-19.3c0-8.4-4.2-19-14.9-19
				C629.1,249.1,624.5,258.9,624.5,268.2z"/>
			<path id="path398" d="M677.9,243.3l7.1,10.7c2,2.8,3.5,5.2,5.1,8h0.2c1.6-2.9,3.3-5.4,5-8.1l6.9-10.6h9.8l-16.9,24l17.3,25.6
				h-10.1l-7.4-11.2c-1.9-2.9-3.6-5.6-5.3-8.6h-0.2c-1.6,3-3.3,5.6-5.2,8.6l-7.2,11.2H667l17.6-25.3l-16.8-24.3H677.9L677.9,243.3z"
				/>
			<path id="path400" fill="#FFFFFF" d="M721.1,256.8c0-5.2-0.1-9.3-0.4-13.4h8l0.5,8.2h0.2c2.5-4.6,8.2-9.2,16.4-9.2
				c6.9,0,17.5,4.1,17.5,21.1v29.5h-9v-28.6c0-8-3-14.7-11.5-14.7c-5.8,0-10.5,4.2-12.1,9.2c-0.4,1.1-0.6,2.7-0.6,4.2v29.8h-9V256.8
				z"/>
			<path id="path402" fill="#FFFFFF" d="M783,269.8c0.2,12.2,7.9,17.2,17,17.2c6.5,0,10.5-1.1,13.7-2.6l1.6,6.5
				c-3.2,1.4-8.7,3.2-16.6,3.2c-15.3,0-24.4-10.2-24.4-25.1c0-15,8.8-26.7,23.3-26.7c16.3,0,20.5,14.1,20.5,23.3
				c0,1.8-0.1,3.2-0.3,4.2H783L783,269.8z M809.5,263.3c0.1-5.6-2.4-14.6-12.5-14.6c-9.2,0-13.1,8.3-13.8,14.6H809.5z"/>
			<path id="path404" fill="#FFFFFF" d="M840.2,231.4v11.9h12.9v6.9h-12.9v26.8c0,6.2,1.7,9.6,6.8,9.6c2.5,0,3.9-0.2,5.2-0.6
				l0.4,6.9c-1.7,0.6-4.5,1.2-8,1.2c-4.2,0-7.6-1.4-9.7-3.8c-2.5-2.8-3.5-7.2-3.5-13v-27.1h-7.7v-6.9h7.7v-9.2L840.2,231.4z"/>
		</g>
		<g id="g406">
			<path id="path408" d="M533.2,318.8l1.7,6.3c0.3,1.4,0.7,2.7,0.9,3.9h0.1c0.3-1.3,0.7-2.6,1.1-3.9l2-6.3h1.9l1.9,6.2
				c0.5,1.5,0.8,2.8,1.1,4h0.1c0.2-1.3,0.5-2.6,0.9-4l1.8-6.2h2.2l-4,12.4h-2l-1.9-5.9c-0.4-1.4-0.8-2.6-1.1-4.1h0
				c-0.3,1.5-0.7,2.8-1.1,4.1l-2,5.9h-2l-3.7-12.4L533.2,318.8L533.2,318.8z"/>
			<path id="path410" d="M551.1,313h2.3v7.8h0c0.4-0.6,0.9-1.2,1.6-1.6c0.7-0.4,1.5-0.6,2.3-0.6c1.7,0,4.3,1,4.3,5.3v7.4h-2.3v-7.1
				c0-2-0.7-3.7-2.9-3.7c-1.5,0-2.6,1-3,2.2c-0.1,0.3-0.2,0.7-0.2,1.1v7.5h-2.3L551.1,313L551.1,313z"/>
			<path id="path412" d="M566.6,325.4c0,3,2,4.3,4.3,4.3c1.6,0,2.6-0.3,3.4-0.6l0.4,1.6c-0.8,0.4-2.2,0.8-4.2,0.8
				c-3.8,0-6.1-2.5-6.1-6.3c0-3.7,2.2-6.7,5.8-6.7c4.1,0,5.1,3.5,5.1,5.8c0,0.5,0,0.8-0.1,1.1L566.6,325.4L566.6,325.4z
				 M573.2,323.8c0-1.4-0.6-3.6-3.1-3.6c-2.3,0-3.3,2.1-3.5,3.6H573.2z"/>
			<path id="path414" d="M578.2,322.6c0-1.5,0-2.7-0.1-3.9h2l0.1,2.5h0.1c0.6-1.7,1.9-2.7,3.5-2.7c0.2,0,0.4,0,0.6,0.1v2.1
				c-0.2-0.1-0.5-0.1-0.8-0.1c-1.6,0-2.7,1.2-3,2.9c0,0.3-0.1,0.7-0.1,1v6.6h-2.3L578.2,322.6L578.2,322.6z"/>
			<path id="path416" d="M587.6,325.4c0.1,3,2,4.3,4.3,4.3c1.6,0,2.6-0.3,3.4-0.6l0.4,1.6c-0.8,0.4-2.2,0.8-4.2,0.8
				c-3.8,0-6.1-2.5-6.1-6.3c0-3.7,2.2-6.7,5.8-6.7c4.1,0,5.1,3.5,5.1,5.8c0,0.5,0,0.8-0.1,1.1L587.6,325.4L587.6,325.4z
				 M594.2,323.8c0-1.4-0.6-3.6-3.1-3.6c-2.3,0-3.3,2.1-3.5,3.6H594.2z"/>
			<path id="path418" fill="#FFFFFF" d="M604.6,313h2.2v7.8h0c0.8-1.4,2.2-2.3,4.2-2.3c3.1,0,5.3,2.6,5.3,6.3c0,4.4-2.8,6.6-5.6,6.6
				c-1.8,0-3.2-0.7-4.2-2.3h0l-0.1,2h-1.9c0-0.8,0.1-2.1,0.1-3.2V313L604.6,313z M606.8,326.2c0,0.3,0,0.6,0.1,0.8
				c0.4,1.6,1.7,2.6,3.4,2.6c2.4,0,3.8-1.9,3.8-4.8c0-2.5-1.3-4.6-3.7-4.6c-1.5,0-2.9,1.1-3.4,2.8c-0.1,0.3-0.1,0.6-0.1,0.9V326.2
				L606.8,326.2z"/>
			<path id="path420" fill="#FFFFFF" d="M619.2,322.6c0-1.5,0-2.7-0.1-3.9h2l0.1,2.5h0.1c0.6-1.7,1.9-2.7,3.5-2.7
				c0.2,0,0.4,0,0.6,0.1v2.1c-0.2-0.1-0.5-0.1-0.8-0.1c-1.6,0-2.7,1.2-3,2.9c0,0.3-0.1,0.7-0.1,1v6.6h-2.3L619.2,322.6L619.2,322.6z
				"/>
			<path id="path422" fill="#FFFFFF" d="M636.1,328.2c0,1.1,0,2.1,0.2,3h-2l-0.2-1.6H634c-0.7,1-2,1.8-3.8,1.8
				c-2.5,0-3.8-1.8-3.8-3.6c0-3,2.7-4.6,7.5-4.6V323c0-1-0.3-2.9-2.8-2.8c-1.2,0-2.4,0.3-3.3,0.9l-0.5-1.5c1-0.6,2.5-1.1,4.1-1.1
				c3.8,0,4.7,2.6,4.7,5.1L636.1,328.2L636.1,328.2L636.1,328.2z M634,324.9c-2.5,0-5.3,0.4-5.3,2.8c0,1.5,1,2.2,2.1,2.2
				c1.6,0,2.7-1,3-2.1c0.1-0.3,0.1-0.5,0.1-0.7L634,324.9L634,324.9z"/>
			<path id="path424" fill="#FFFFFF" d="M642.3,315.3c0,0.8-0.5,1.4-1.4,1.4c-0.8,0-1.4-0.6-1.4-1.4c0-0.8,0.6-1.4,1.4-1.4
				C641.7,313.9,642.3,314.5,642.3,315.3z M639.8,331.2v-12.4h2.3v12.4H639.8z"/>
			<path id="path426" fill="#FFFFFF" d="M645.8,322.1c0-1.3,0-2.3-0.1-3.4h2l0.1,2h0.1c0.6-1.2,2-2.3,4.1-2.3c1.7,0,4.4,1,4.4,5.3
				v7.4h-2.3V324c0-2-0.7-3.7-2.9-3.7c-1.5,0-2.6,1-3,2.3c-0.1,0.3-0.2,0.7-0.2,1.1v7.5h-2.3L645.8,322.1
				C645.8,322.1,645.8,322.1,645.8,322.1z"/>
			<path id="path428" fill="#FFFFFF" d="M660,322.8c0-1.6,0-2.9-0.1-4h2l0.1,2.1h0c0.9-1.5,2.4-2.4,4.4-2.4c3,0,5.3,2.5,5.3,6.3
				c0,4.5-2.7,6.7-5.7,6.7c-1.6,0-3.1-0.7-3.8-1.9h0v6.7H660L660,322.8L660,322.8z M662.2,326.1c0,0.3,0,0.6,0.1,0.9
				c0.4,1.6,1.8,2.6,3.4,2.6c2.4,0,3.8-1.9,3.8-4.8c0-2.5-1.3-4.6-3.7-4.6c-1.5,0-3,1.1-3.4,2.8c-0.1,0.3-0.2,0.6-0.2,0.9
				L662.2,326.1L662.2,326.1z"/>
			<path id="path430" fill="#FFFFFF" d="M685.8,324.9c0,4.6-3.2,6.6-6.2,6.6c-3.3,0-5.9-2.5-5.9-6.4c0-4.1,2.7-6.6,6.2-6.6
				C683.4,318.5,685.8,321.1,685.8,324.9z M676,325c0,2.7,1.5,4.8,3.7,4.8c2.2,0,3.8-2,3.8-4.8c0-2.1-1-4.7-3.7-4.7
				C677.1,320.2,676,322.7,676,325z"/>
			<path id="path432" fill="#FFFFFF" d="M689.4,318.8l1.7,6.3c0.3,1.4,0.7,2.7,0.9,3.9h0.1c0.3-1.3,0.7-2.6,1.1-3.9l2-6.3h1.9
				l1.9,6.2c0.5,1.5,0.8,2.8,1.1,4h0.1c0.2-1.3,0.5-2.6,0.9-4l1.8-6.2h2.2l-4,12.4h-2l-1.9-5.9c-0.4-1.4-0.8-2.6-1.1-4.1H696
				c-0.3,1.5-0.7,2.8-1.1,4.1l-2,5.9h-2.1l-3.7-12.4L689.4,318.8L689.4,318.8z"/>
			<path id="path434" fill="#FFFFFF" d="M708.3,325.4c0,3,2,4.3,4.3,4.3c1.6,0,2.6-0.3,3.4-0.6l0.4,1.6c-0.8,0.4-2.2,0.8-4.2,0.8
				c-3.8,0-6.1-2.5-6.1-6.3c0-3.7,2.2-6.7,5.8-6.7c4.1,0,5.1,3.5,5.1,5.8c0,0.5,0,0.8-0.1,1.1L708.3,325.4L708.3,325.4z
				 M714.9,323.8c0-1.4-0.6-3.6-3.1-3.6c-2.3,0-3.3,2.1-3.5,3.6H714.9z"/>
			<path id="path436" fill="#FFFFFF" d="M719.9,322.6c0-1.5,0-2.7-0.1-3.9h2l0.1,2.5h0.1c0.6-1.7,2-2.7,3.5-2.7c0.2,0,0.4,0,0.6,0.1
				v2.1c-0.2-0.1-0.5-0.1-0.8-0.1c-1.6,0-2.7,1.2-3,2.9c-0.1,0.3-0.1,0.7-0.1,1v6.6h-2.3L719.9,322.6L719.9,322.6z"/>
			<path id="path438" d="M733.4,328.9c0.7,0.4,1.9,0.9,3,0.9c1.6,0,2.4-0.8,2.4-1.8c0-1.1-0.6-1.6-2.3-2.3c-2.3-0.8-3.3-2-3.3-3.5
				c0-2,1.6-3.6,4.3-3.6c1.3,0,2.4,0.3,3,0.8l-0.5,1.6c-0.5-0.3-1.4-0.7-2.5-0.7c-1.3,0-2.1,0.8-2.1,1.7c0,1,0.7,1.5,2.3,2.1
				c2.1,0.8,3.3,1.9,3.3,3.7c0,2.2-1.7,3.7-4.6,3.7c-1.4,0-2.6-0.4-3.5-0.9L733.4,328.9z"/>
			<path id="path440" d="M746.6,315.8v3h3.2v1.7h-3.2v6.7c0,1.5,0.4,2.4,1.7,2.4c0.6,0,1-0.1,1.3-0.2l0.1,1.7
				c-0.4,0.2-1.1,0.3-2,0.3c-1.1,0-1.9-0.4-2.4-0.9c-0.6-0.7-0.9-1.8-0.9-3.3v-6.8h-1.9v-1.7h1.9v-2.3L746.6,315.8z"/>
			<path id="path442" d="M754.9,315.3c0,0.8-0.5,1.4-1.4,1.4c-0.8,0-1.4-0.6-1.4-1.4c0-0.8,0.6-1.4,1.4-1.4
				C754.3,313.9,754.9,314.5,754.9,315.3z M752.4,331.2v-12.4h2.3v12.4H752.4z"/>
			<path id="path444" d="M758.4,313h2.3v18.2h-2.3V313z"/>
			<path id="path446" d="M764.4,313h2.3v18.2h-2.3V313z"/>
			<path id="path448" d="M775.9,322.1c0-1.3-0.1-2.3-0.1-3.4h2l0.1,2h0.1c0.7-1.2,1.8-2.3,3.9-2.3c1.7,0,3,1,3.5,2.5h0
				c0.4-0.7,0.9-1.2,1.4-1.6c0.7-0.6,1.5-0.9,2.7-0.9c1.7,0,4.1,1.1,4.1,5.4v7.3h-2.2v-7c0-2.4-0.9-3.8-2.7-3.8
				c-1.3,0-2.3,0.9-2.7,2c-0.1,0.3-0.2,0.7-0.2,1.1v7.7h-2.2v-7.4c0-2-0.9-3.4-2.6-3.4c-1.4,0-2.4,1.1-2.8,2.3
				c-0.1,0.3-0.2,0.7-0.2,1.1v7.5h-2.2L775.9,322.1L775.9,322.1z"/>
			<path id="path450" d="M806,328.2c0,1.1,0,2.1,0.2,3h-2l-0.2-1.6h-0.1c-0.7,1-2,1.8-3.8,1.8c-2.5,0-3.8-1.8-3.8-3.6
				c0-3,2.7-4.6,7.5-4.6V323c0-1-0.3-2.9-2.8-2.8c-1.2,0-2.4,0.3-3.3,0.9l-0.5-1.5c1-0.6,2.5-1.1,4.1-1.1c3.8,0,4.7,2.6,4.7,5.1
				L806,328.2L806,328.2z M803.8,324.9c-2.5,0-5.3,0.4-5.3,2.8c0,1.5,1,2.2,2.1,2.2c1.6,0,2.7-1,3.1-2.1c0.1-0.3,0.1-0.5,0.1-0.7
				L803.8,324.9L803.8,324.9z"/>
			<path id="path452" d="M812.2,315.8v3h3.2v1.7h-3.2v6.7c0,1.5,0.4,2.4,1.7,2.4c0.6,0,1-0.1,1.3-0.2l0.1,1.7
				c-0.4,0.2-1.1,0.3-2,0.3c-1.1,0-1.9-0.4-2.4-0.9c-0.6-0.7-0.9-1.8-0.9-3.3v-6.8h-1.9v-1.7h1.9v-2.3L812.2,315.8z"/>
			<path id="path454" d="M820.7,315.8v3h3.2v1.7h-3.2v6.7c0,1.5,0.4,2.4,1.7,2.4c0.6,0,1-0.1,1.3-0.2l0.1,1.7
				c-0.4,0.2-1.1,0.3-2,0.3c-1.1,0-1.9-0.4-2.4-0.9c-0.6-0.7-0.9-1.8-0.9-3.3v-6.8h-1.9v-1.7h1.9v-2.3L820.7,315.8z"/>
			<path id="path456" d="M827.6,325.4c0.1,3,2,4.3,4.3,4.3c1.6,0,2.6-0.3,3.4-0.6l0.4,1.6c-0.8,0.4-2.2,0.8-4.2,0.8
				c-3.8,0-6.1-2.5-6.1-6.3c0-3.7,2.2-6.7,5.8-6.7c4.1,0,5.1,3.5,5.1,5.8c0,0.5,0,0.8-0.1,1.1L827.6,325.4L827.6,325.4z
				 M834.2,323.8c0-1.4-0.6-3.6-3.1-3.6c-2.3,0-3.3,2.1-3.5,3.6H834.2z"/>
			<path id="path458" d="M839.1,322.6c0-1.5,0-2.7-0.1-3.9h2l0.1,2.5h0.1c0.6-1.7,1.9-2.7,3.5-2.7c0.2,0,0.4,0,0.6,0.1v2.1
				c-0.2-0.1-0.5-0.1-0.8-0.1c-1.6,0-2.7,1.2-3,2.9c0,0.3-0.1,0.7-0.1,1v6.6h-2.3L839.1,322.6L839.1,322.6z"/>
			<path id="path460" d="M847.2,328.9c0.7,0.4,1.9,0.9,3,0.9c1.6,0,2.4-0.8,2.4-1.8c0-1.1-0.6-1.6-2.3-2.3c-2.3-0.8-3.3-2-3.3-3.5
				c0-2,1.6-3.6,4.3-3.6c1.3,0,2.4,0.3,3,0.8l-0.5,1.6c-0.5-0.3-1.4-0.7-2.5-0.7c-1.3,0-2,0.8-2,1.7c0,1,0.7,1.5,2.3,2.1
				c2.1,0.8,3.3,1.9,3.3,3.7c0,2.2-1.7,3.7-4.6,3.7c-1.4,0-2.6-0.4-3.5-0.9L847.2,328.9z"/>
		</g>
	</g>
</g>
</svg>
