<?xml version="1.0" encoding="UTF-8" standalone="no"?>
<!-- Created with Inkscape (http://www.inkscape.org/) -->

<svg
   xmlns:dc="http://purl.org/dc/elements/1.1/"
   xmlns:cc="http://creativecommons.org/ns#"
   xmlns:rdf="http://www.w3.org/1999/02/22-rdf-syntax-ns#"
   xmlns:svg="http://www.w3.org/2000/svg"
   xmlns="http://www.w3.org/2000/svg"
   xmlns:sodipodi="http://sodipodi.sourceforge.net/DTD/sodipodi-0.dtd"
   xmlns:inkscape="http://www.inkscape.org/namespaces/inkscape"
   id="svg2"
   version="1.1"
   inkscape:version="0.91 r13725"
   xml:space="preserve"
   width="960"
   height="270"
   viewBox="0 0 960 270"
   sodipodi:docname="girc.svg"><metadata
     id="metadata8"><rdf:RDF><cc:Work
         rdf:about=""><dc:format>image/svg+xml</dc:format><dc:type
           rdf:resource="http://purl.org/dc/dcmitype/StillImage" /><dc:title></dc:title></cc:Work></rdf:RDF></metadata><defs
     id="defs6"><clipPath
       clipPathUnits="userSpaceOnUse"
       id="clipPath18"><path
         d="m 4380,3010 4040,0 0,1980 -4040,0 0,-1980 z"
         id="path20"
         inkscape:connector-curvature="0" /></clipPath><clipPath
       clipPathUnits="userSpaceOnUse"
       id="clipPath24"><path
         d="m 4380,3010 4040,0 0,1980 -4040,0 0,-1980 z"
         id="path26"
         inkscape:connector-curvature="0" /></clipPath><clipPath
       clipPathUnits="userSpaceOnUse"
       id="clipPath28"><path
         d="m 4380,3010 4040,0 0,1980 -4040,0 0,-1980 z"
         id="path30"
         inkscape:connector-curvature="0" /></clipPath></defs><sodipodi:namedview
     pagecolor="#ffffff"
     bordercolor="#666666"
     borderopacity="1"
     objecttolerance="10"
     gridtolerance="10"
     guidetolerance="10"
     inkscape:pageopacity="0"
     inkscape:pageshadow="2"
     inkscape:window-width="1313"
     inkscape:window-height="744"
     id="namedview4"
     showgrid="false"
     inkscape:zoom="0.41625"
     inkscape:cx="510.51051"
     inkscape:cy="500"
     inkscape:window-x="53"
     inkscape:window-y="0"
     inkscape:window-maximized="1"
     inkscape:current-layer="g10" /><g
     id="g10"
     inkscape:groupmode="layer"
     inkscape:label="target"
     transform="matrix(1.25,0,0,-1.25,0,270)"><g
       id="g12"
       transform="matrix(0.10388267,0,0,0.10388267,-280.84909,-303.68684)"><g
         id="g14"><g
           id="g16"
           clip-path="url(#clipPath18)"><g
             id="g22" /><g
             id="g32"><g
               clip-path="url(#clipPath24)"
               id="g34"
               style="opacity:0"><g
                 id="g36"><g
                   clip-path="url(#clipPath28)"
                   id="g38"><path
                     d="m 8420,3040 c 0,-16.57 -13.43,-30 -30,-30 l -3980,0 c -16.57,0 -30,13.43 -30,30 l 0,1920 c 0,16.57 13.43,30 30,30 l 3980,0 c 16.57,0 30,-13.43 30,-30"
                     style="fill:#fcfcfc;fill-opacity:1;fill-rule:evenodd;stroke:none"
                     id="path40"
                     inkscape:connector-curvature="0" /></g></g></g></g></g></g><path
         d="m 5413.79,3390 -8.86,-30.01 2755.07,0 0,30.01 -2746.21,0 z m -733.79,0 0,-30.01 267.77,0 -7.66,30.01"
         style="fill:#2e97a5;fill-opacity:1;fill-rule:nonzero;stroke:none"
         id="path42"
         inkscape:connector-curvature="0" /><path
         d="m 5407.89,3370 -17.69,-59.99 2769.8,0 0,59.99 -2752.11,0 z m -727.89,0 0,-59.99 280.52,0 -15.31,59.99"
         style="fill:#165e66;fill-opacity:1;fill-rule:nonzero;stroke:none"
         id="path44"
         inkscape:connector-curvature="0" /><path
         d="m 5380.16,4319.38 -8.18,-94.93 -3.28,0 c -40.92,65.47 -109.65,112.94 -219.32,112.94 -196.41,0 -363.36,-163.69 -363.36,-420.66 0,-230.78 140.76,-391.18 338.81,-391.18 91.65,0 168.58,37.64 216.05,104.75 l 3.28,0 0,-52.38 c 0,-147.31 -90.03,-211.14 -207.88,-211.14 -93.3,0 -181.69,31.1 -232.42,60.56 l -49.11,-188.23 c 72.03,-40.92 183.33,-62.19 288.08,-62.19 117.84,0 237.33,22.91 325.72,98.21 90.01,80.2 121.12,206.23 121.12,360.07 l 0,446.85 c 0,119.48 3.27,186.59 6.55,237.33 l -216.06,0 z m -39.28,-443.57 c 0,-21.28 -1.65,-47.47 -8.19,-65.47 -16.36,-58.92 -67.1,-101.48 -130.94,-101.48 -104.75,0 -163.67,93.3 -163.67,212.78 0,145.67 73.65,227.52 163.67,227.52 68.75,0 116.22,-44.19 134.22,-109.66 3.26,-13.09 4.91,-29.47 4.91,-45.84 l 0,-117.85"
         style="fill:#1a1a1a;fill-opacity:1;fill-rule:nonzero;stroke:none"
         id="path46"
         inkscape:connector-curvature="0" /><path
         d="m 5798.03,3519 250.422,0 0,1103.19 -250.422,0 0,-1103.19 z"
         style="fill:#1a1a1a;fill-opacity:1;fill-rule:nonzero;stroke:none"
         id="path48"
         inkscape:connector-curvature="0" /><path
         d="m 6265.03,3519 247.14,0 0,433.75 75.3,0 c 101.48,-1.64 148.95,-39.28 178.41,-176.78 32.73,-135.84 58.92,-225.88 76.93,-256.97 l 255.33,0 c -21.28,42.56 -55.64,186.59 -90.01,310.98 -27.83,101.49 -70.4,175.15 -147.32,206.24 l 0,4.91 c 94.94,34.37 194.78,130.95 194.78,271.7 0,101.48 -36.01,178.4 -101.48,230.8 -78.56,62.18 -193.14,86.73 -356.81,86.73 -132.58,0 -252.07,-9.81 -332.27,-22.91 l 0,-1088.45 z m 247.14,918.23 c 18.02,3.27 52.39,8.18 112.94,8.18 114.58,-1.63 183.33,-52.38 183.33,-153.85 0,-96.58 -73.66,-158.78 -198.05,-158.78 l -98.22,0 0,304.45"
         style="fill:#1a1a1a;fill-opacity:1;fill-rule:nonzero;stroke:none"
         id="path50"
         inkscape:connector-curvature="0" /><path
         d="m 8001.58,3744.88 c -49.1,-19.65 -132.58,-36.02 -207.86,-36.02 -222.61,0 -353.55,139.12 -353.55,360.09 0,245.52 153.86,365 351.91,365 88.39,0 158.76,-19.64 209.5,-40.92 l 50.75,198.05 c -44.2,22.92 -142.41,49.11 -271.7,49.11 -333.91,0 -602.35,-209.5 -602.35,-585.97 0,-314.25 196.42,-551.59 577.78,-551.59 134.22,0 237.33,24.56 283.17,47.46 l -37.65,194.79"
         style="fill:#1a1a1a;fill-opacity:1;fill-rule:nonzero;stroke:none"
         id="path52"
         inkscape:connector-curvature="0" /></g></g></svg>