<?xml version="1.0" encoding="utf-8"?>
<!-- Generator: Adobe Illustrator 18.0.0, SVG Export Plug-In . SVG Version: 6.00 Build 0)  -->
<!DOCTYPE svg PUBLIC "-//W3C//DTD SVG 1.1//EN" "http://www.w3.org/Graphics/SVG/1.1/DTD/svg11.dtd">
<svg version="1.1" id="Layer_1" xmlns="http://www.w3.org/2000/svg" xmlns:xlink="http://www.w3.org/1999/xlink" x="0px" y="0px"
	 viewBox="0 105 960 270" enable-background="new 0 105 960 270" xml:space="preserve">
<g>
	<g>
		<g>
			<g enable-background="new    ">
				<path fill="#1A1A1A" d="M303.3,295.6c-10.4,3.5-30.1,8.4-49.8,8.4c-27.2,0-47-6.9-60.7-20.2c-13.7-12.8-21.3-32.3-21-54.3
					c0.2-49.6,36.3-78,85.3-78c19.3,0,34.1,3.8,41.4,7.3l-7.1,27c-8.2-3.5-18.4-6.4-34.8-6.4c-28.1,0-49.4,16-49.4,48.3
					c0,30.8,19.3,49,47,49c7.8,0,14-0.9,16.6-2.2v-31.2h-23v-26.4h55.6L303.3,295.6L303.3,295.6z"/>
				<path fill="#1A1A1A" d="M436.9,247.1c0,39.7-28.1,57.8-57.2,57.8c-31.7,0-56-20.8-56-55.8c0-35,23-57.4,57.8-57.4
					C414.8,191.7,436.9,214.5,436.9,247.1z M358.5,248.2c0,18.6,7.8,32.6,22.2,32.6c13.1,0,21.5-13.1,21.5-32.6
					c0-16.2-6.2-32.6-21.5-32.6C364.5,215.6,358.5,232.2,358.5,248.2z"/>
				<path fill="#1A1A1A" d="M457.5,273c6.2,3.8,19.1,8.2,29,8.2c10.2,0,14.4-3.5,14.4-9.1c0-5.5-3.3-8.2-16-12.4
					c-22.4-7.5-31-19.7-30.8-32.6c0-20.2,17.3-35.4,44.1-35.4c12.6,0,23.9,2.9,30.6,6.2l-6,23.3c-4.9-2.7-14.2-6.2-23.5-6.2
					c-8.2,0-12.9,3.3-12.9,8.9c0,5.1,4.2,7.8,17.5,12.4c20.6,7.1,29.2,17.5,29.5,33.5c0,20.2-16,35-47,35c-14.2,0-26.8-3.1-35-7.5
					L457.5,273z"/>
				<path fill="#1A1A1A" d="M553.9,145.1h33.7V207h0.4c3.5-4.7,8-8.2,13.3-11.1c4.9-2.7,11.3-4.2,17.5-4.2
					c21.5,0,37.9,14.8,37.9,47.4v63.4H623v-59.6c0-14.2-4.9-23.9-17.5-23.9c-8.9,0-14.4,5.8-16.8,11.7c-0.9,2.2-1.1,5.1-1.1,7.5
					v64.2h-33.7L553.9,145.1L553.9,145.1z"/>
				<path fill="#1A1A1A" d="M785.8,267.7c0,14.2,0.4,25.7,0.9,34.8h-29.2l-1.6-15.3h-0.7c-4.2,6.6-14.4,17.7-33.9,17.7
					c-21.9,0-38.1-13.7-38.1-47.2v-63.6h33.9v58.3c0,15.7,5.1,25.3,16.8,25.3c9.3,0,14.6-6.4,16.8-11.7c0.9-2,1.1-4.7,1.1-7.3v-64.5
					h33.9L785.8,267.7L785.8,267.7z"/>
			</g>
		</g>
	</g>
	<g>
		<rect x="172.4" y="323.3" fill="#2E97A5" width="615.9" height="5"/>
		<rect x="172.4" y="326.6" fill="#165E66" width="615.9" height="8.3"/>
	</g>
</g>
</svg>
