<?xml version="1.0" encoding="UTF-8" standalone="no"?>
<svg
   xmlns:dc="http://purl.org/dc/elements/1.1/"
   xmlns:cc="http://creativecommons.org/ns#"
   xmlns:rdf="http://www.w3.org/1999/02/22-rdf-syntax-ns#"
   xmlns:svg="http://www.w3.org/2000/svg"
   xmlns="http://www.w3.org/2000/svg"
   viewBox="0 0 779.01331 147.52"
   height="147.52"
   width="779.01331"
   xml:space="preserve"
   version="1.1"
   id="svg4553"><metadata
     id="metadata4559"><rdf:RDF><cc:Work
         rdf:about=""><dc:format>image/svg+xml</dc:format><dc:type
           rdf:resource="http://purl.org/dc/dcmitype/StillImage" /><dc:title></dc:title></cc:Work></rdf:RDF></metadata><defs
     id="defs4557" /><g
     transform="matrix(1.3333333,0,0,-1.3333333,0,147.52)"
     id="g4561"><g
       transform="scale(0.1)"
       id="g4563"><path
         id="path4565"
         style="fill:#100f0d;fill-opacity:1;fill-rule:nonzero;stroke:none"
         d="m 1662.65,789.191 -327.59,0 0,-191.339 327.59,0 0,191.339 m 0,236.019 -327.59,0 0,-189.112 327.59,0 0,189.112 m -376.73,47.65 425.87,0 0,-597.856 -49.14,0 0,75.941 -327.59,0 0,-68.496 -49.14,0 0,590.411" /><path
         id="path4567"
         style="fill:#100f0d;fill-opacity:1;fill-rule:nonzero;stroke:none"
         d="m 2221.05,1106.36 49.88,0 0,-138.481 298.55,0 0,-46.906 -275.47,0 c 68,-112.172 159.08,-202.508 273.24,-271.004 15.88,-9.93 32.51,-19.36 49.88,-28.293 l -43.18,-40.203 -4.47,-2.981 c -5.46,0 -32.01,17.867 -79.66,53.606 -96.29,71.972 -169.26,155.359 -218.89,250.16 l 0,-240.481 124.33,0 0,-46.906 -124.33,0 0,-129.547 -49.88,0 0,129.547 -131.79,0 0,46.906 131.79,0 -0.75,240.481 c -1.49,-4.965 -8.69,-18.117 -21.59,-39.461 -0.99,-1.488 -1.74,-2.977 -2.23,-4.465 -46.16,-81.898 -111.19,-154.367 -195.07,-217.402 -29.78,-22.832 -54.1,-39.461 -72.96,-49.883 -2.98,-1.488 -4.97,-2.234 -5.96,-2.234 -3.47,0 -16.87,10.175 -40.2,30.527 -3.48,3.473 -5.71,5.707 -6.7,6.699 l 64.02,37.227 c 101.76,59.562 186.63,152.129 254.63,277.707 l -271.75,0 0,46.906 298.55,0 0,138.481" /><path
         id="path4569"
         style="fill:#100f0d;fill-opacity:1;fill-rule:nonzero;stroke:none"
         d="m 2859.85,659.645 -121.36,0 0,-110.934 121.36,0 0,110.934 m 358.86,11.168 -182.41,0 0,-122.102 182.41,0 0,122.102 m -526.38,31.269 212.19,0 0,-234.523 -44.67,0 0,38.714 -121.36,0 0,-38.714 -46.16,0 0,234.523 m 298.55,11.168 273.24,0 0,-238.246 -45.41,0 0,31.269 -182.41,0 0,-31.269 -45.42,0 0,238.246 m -298.55,92.32 212.19,0 0,-42.437 -212.19,0 0,42.437 m 0,99.77 212.19,0 0,-42.442 -212.19,0 0,42.442 m 513.72,17.867 -104.98,0 c 0,0 -8.93,-34.25 -26.8,-102.746 l 131.78,0 0,102.746 m -550.2,74.453 275.47,0 0,-42.437 -275.47,0 0,42.437 m 294.83,92.32 340.99,0 0,-42.44 -160.07,0 c -2.49,-14.39 -8.19,-41.69 -17.13,-81.895 l 137,0 0,-145.184 76.68,0 0,-42.438 -396.83,0 0,42.438 96.79,0 27.55,102.746 -88.6,0 0,42.438 100.51,0 16.38,81.895 -133.27,0 0,42.44 m -249.42,0 192.83,0 0,-42.44 -192.83,0 0,42.44" /><path
         id="path4571"
         style="fill:#100f0d;fill-opacity:1;fill-rule:nonzero;stroke:none"
         d="m 1353.05,421.48 44.36,0 0,-305.074 c 0,-39.5349 -7.54,-68.2341 -22.62,-86.0974 -14.94,-17.8594 -39.02,-26.79688 -72.26,-26.79688 l -16.91,0 0,37.33988 13.83,0 c 19.63,0 33.46,5.4882 41.52,16.4687 8.05,10.9883 12.08,30.6797 12.08,59.0857 l 0,305.074" /><path
         id="path4573"
         style="fill:#100f0d;fill-opacity:1;fill-rule:nonzero;stroke:none"
         d="m 1676.35,233.914 0,-140.3437 -40.41,0 0,37.3317 c -9.23,-14.933 -20.72,-25.992 -34.49,-33.1637 -13.76,-7.0274 -30.6,-10.5391 -50.51,-10.5391 -25.19,0 -45.25,7.0196 -60.18,21.0818 -14.79,14.203 -22.19,33.164 -22.19,56.887 0,27.672 9.23,48.539 27.68,62.598 18.59,14.054 46.27,21.082 83.02,21.082 l 56.67,0 0,3.957 c 0,18.593 -6.15,32.941 -18.45,43.047 -12.16,10.25 -29.29,15.375 -51.4,15.375 -14.05,0 -27.74,-1.684 -41.07,-5.051 -13.32,-3.371 -26.14,-8.422 -38.44,-15.156 l 0,37.335 c 14.79,5.711 29.14,9.958 43.05,12.743 13.91,2.925 27.46,4.39 40.64,4.39 35.58,0 62.15,-9.222 79.72,-27.672 17.58,-18.453 26.36,-46.418 26.36,-83.902 m -80.61,-16.695 c -32.65,0 -55.27,-3.731 -67.86,-11.199 -12.6,-7.469 -18.89,-20.207 -18.89,-38.219 0,-14.348 4.68,-25.77 14.05,-34.262 9.52,-8.348 22.41,-12.519 38.66,-12.519 22.4,0 40.34,7.906 53.81,23.718 13.62,15.961 20.43,37.121 20.43,63.477 l 0,9.004 -40.2,0" /><path
         id="path4575"
         style="fill:#100f0d;fill-opacity:1;fill-rule:nonzero;stroke:none"
         d="m 1936.4,216.34 c 0,29.726 -6.15,53.008 -18.45,69.844 -12.15,16.988 -28.92,25.476 -50.3,25.476 -21.37,0 -38.21,-8.488 -50.51,-25.476 -12.16,-16.84 -18.23,-40.121 -18.23,-69.844 0,-29.723 6.07,-53.078 18.23,-70.063 12.3,-16.839 29.14,-25.257 50.51,-25.257 21.38,0 38.15,8.418 50.3,25.257 12.3,16.985 18.45,40.34 18.45,70.063 m -137.49,-85.875 0,-130.465 -40.63,0 0,339.559 40.63,0 0,-37.34 c 8.49,14.644 19.18,25.476 32.07,32.508 13.03,7.171 28.55,10.761 46.56,10.761 29.87,0 54.1,-11.859 72.7,-35.582 18.74,-23.718 28.11,-54.91 28.11,-93.566 0,-38.652 -9.37,-69.844 -28.11,-93.563 -18.6,-23.7184 -42.83,-35.5856 -72.7,-35.5856 -18.01,0 -33.53,3.5195 -46.56,10.5469 -12.89,7.1717 -23.58,18.0817 -32.07,32.7267" /><path
         id="path4577"
         style="fill:#100f0d;fill-opacity:1;fill-rule:nonzero;stroke:none"
         d="m 2237.74,233.914 0,-140.3437 -40.41,0 0,37.3317 c -9.23,-14.933 -20.72,-25.992 -34.48,-33.1637 -13.77,-7.0274 -30.61,-10.5391 -50.52,-10.5391 -25.19,0 -45.25,7.0196 -60.18,21.0818 -14.79,14.203 -22.18,33.164 -22.18,56.887 0,27.672 9.22,48.539 27.67,62.598 18.6,14.054 46.27,21.082 83.02,21.082 l 56.67,0 0,3.957 c 0,18.593 -6.15,32.941 -18.45,43.047 -12.15,10.25 -29.29,15.375 -51.4,15.375 -14.05,0 -27.74,-1.684 -41.07,-5.051 -13.32,-3.371 -26.13,-8.422 -38.43,-15.156 l 0,37.335 c 14.78,5.711 29.13,9.958 43.04,12.743 13.91,2.925 27.46,4.39 40.64,4.39 35.58,0 62.15,-9.222 79.73,-27.672 17.57,-18.453 26.35,-46.418 26.35,-83.902 m -80.6,-16.695 c -32.66,0 -55.28,-3.731 -67.87,-11.199 -12.59,-7.469 -18.89,-20.207 -18.89,-38.219 0,-14.348 4.68,-25.77 14.06,-34.262 9.51,-8.348 22.4,-12.519 38.65,-12.519 22.4,0 40.34,7.906 53.81,23.718 13.62,15.961 20.43,37.121 20.43,63.477 l 0,9.004 -40.19,0" /><path
         id="path4579"
         style="fill:#100f0d;fill-opacity:1;fill-rule:nonzero;stroke:none"
         d="m 2525.69,242.039 0,-148.4804 -40.42,0 0,147.1604 c 0,23.285 -4.54,40.707 -13.61,52.273 -9.08,11.571 -22.7,17.356 -40.86,17.356 -21.81,0 -39.02,-6.957 -51.61,-20.868 -12.59,-13.91 -18.89,-32.871 -18.89,-56.886 l 0,-139.0354 -40.63,0 0,246.0004 40.63,0 0,-38.219 c 9.66,14.789 21.01,25.844 34.04,33.168 13.18,7.32 28.34,10.98 45.47,10.98 28.26,0 49.64,-8.785 64.13,-26.355 14.5,-17.426 21.75,-43.121 21.75,-77.094" /><path
         id="path4581"
         style="fill:#100f0d;fill-opacity:1;fill-rule:nonzero;stroke:none"
         d="m 2776.73,238.523 c -0.29,22.11 -6.51,39.754 -18.67,52.934 -12,13.176 -27.97,19.766 -47.88,19.766 -22.55,0 -40.63,-6.368 -54.25,-19.11 -13.47,-12.738 -21.23,-30.675 -23.28,-53.808 l 144.08,0.218 m 40.41,-11.859 0,-19.769 -185.81,0 c 1.76,-27.821 10.1,-49.051 25.04,-63.692 15.08,-14.496 36.02,-21.746 62.82,-21.746 15.52,0 30.53,1.902 45.02,5.711 14.64,3.809 29.14,9.52 43.49,17.133 l 0,-38.223 c -14.5,-6.1483 -29.36,-10.828 -44.59,-14.0467 -15.22,-3.2227 -30.67,-4.8399 -46.34,-4.8399 -39.24,0 -70.36,11.4297 -93.35,34.2656 -22.84,22.844 -34.26,53.738 -34.26,92.688 0,40.265 10.84,72.187 32.51,95.761 21.81,23.719 51.17,35.578 88.07,35.578 33.09,0 59.23,-10.687 78.41,-32.066 19.33,-21.23 28.99,-50.148 28.99,-86.754" /><path
         id="path4583"
         style="fill:#100f0d;fill-opacity:1;fill-rule:nonzero;stroke:none"
         d="m 3040.29,332.309 0,-38.215 c -11.42,5.855 -23.28,10.25 -35.58,13.176 -12.3,2.929 -25.04,4.394 -38.21,4.394 -20.06,0 -35.15,-3.074 -45.25,-9.226 -9.96,-6.149 -14.93,-15.375 -14.93,-27.672 0,-9.371 3.58,-16.766 10.76,-22.188 7.17,-5.269 21.6,-10.32 43.27,-15.152 l 13.83,-3.074 c 28.7,-6.153 49.06,-14.864 61.06,-26.137 12.16,-11.129 18.23,-26.727 18.23,-46.785 0,-22.84 -9.08,-40.926 -27.23,-54.25 -18.01,-13.3206 -42.83,-19.9886 -74.46,-19.9886 -13.18,0 -26.94,1.3203 -41.29,3.957 -14.2,2.4922 -29.21,6.293 -45.03,11.4216 l 0,41.731 c 14.94,-7.762 29.65,-13.617 44.15,-17.571 14.5,-3.808 28.85,-5.71 43.05,-5.71 19.03,0 33.68,3.218 43.93,9.664 10.25,6.589 15.37,15.812 15.37,27.671 0,10.985 -3.73,19.403 -11.2,25.262 -7.32,5.856 -23.5,11.492 -48.54,16.91 l -14.06,3.293 c -25.04,5.274 -43.12,13.328 -54.25,24.16 -11.13,10.985 -16.69,25.993 -16.69,45.028 0,23.133 8.2,41 24.6,53.59 16.4,12.593 39.68,18.886 69.84,18.89 14.94,0 29,-1.097 42.17,-3.297 13.18,-2.195 25.34,-5.488 36.46,-9.882" /><path
         id="path4585"
         style="fill:#100f0d;fill-opacity:1;fill-rule:nonzero;stroke:none"
         d="m 3288.05,238.523 c -0.3,22.11 -6.52,39.754 -18.67,52.934 -12.01,13.176 -27.97,19.766 -47.88,19.766 -22.55,0 -40.64,-6.368 -54.25,-19.11 -13.48,-12.738 -21.24,-30.675 -23.29,-53.808 l 144.09,0.218 m 40.41,-11.859 0,-19.769 -185.81,0 c 1.75,-27.821 10.1,-49.051 25.03,-63.692 15.09,-14.496 36.02,-21.746 62.82,-21.746 15.52,0 30.53,1.902 45.03,5.711 14.64,3.809 29.13,9.52 43.48,17.133 l 0,-38.223 c -14.49,-6.1483 -29.35,-10.828 -44.58,-14.0467 -15.23,-3.2227 -30.68,-4.8399 -46.35,-4.8399 -39.24,0 -70.35,11.4297 -93.34,34.2656 -22.84,22.844 -34.26,53.738 -34.26,92.688 0,40.265 10.83,72.187 32.5,95.761 21.82,23.719 51.18,35.578 88.08,35.578 33.09,0 59.22,-10.687 78.41,-32.066 19.32,-21.23 28.99,-50.148 28.99,-86.754" /><path
         id="path4587"
         style="fill:#a81c22;fill-opacity:1;fill-rule:nonzero;stroke:none"
         d="m 3924.94,633.719 c 62.97,-13.461 112.04,-41.473 147.21,-84.028 35.61,-42.554 53.41,-95.097 53.41,-157.628 0,-95.969 -33,-170.227 -99.01,-222.77 -66,-52.543 -159.8,-78.8125 -281.39,-78.8125 -40.82,0 -82.94,4.1211 -126.36,12.3715 -42.99,7.816 -87.5,19.757 -133.53,35.828 l 0,127.015 c 36.47,-21.277 76.42,-37.343 119.85,-48.203 43.42,-10.855 88.8,-16.281 136.14,-16.281 82.5,0 145.25,16.281 188.24,48.852 43.43,32.57 65.14,79.902 65.14,142 0,57.32 -20.19,102.046 -60.58,134.179 -39.95,32.571 -95.75,48.856 -167.4,48.856 l -113.34,0 0,108.125 118.55,0 c 64.7,0 114.21,12.812 148.51,38.433 34.31,26.055 51.46,63.399 51.46,112.035 0,49.938 -17.8,88.153 -53.41,114.641 -35.18,26.922 -85.77,40.383 -151.77,40.387 -36.04,-0.004 -74.69,-3.91 -115.94,-11.727 -41.26,-7.816 -86.64,-19.976 -136.14,-36.476 l 0,117.244 c 49.94,13.9 96.62,24.32 140.04,31.27 43.86,6.95 85.12,10.42 123.76,10.42 99.88,0 178.91,-22.8 237.1,-68.4 58.19,-45.155 87.28,-106.386 87.29,-183.679 -0.01,-53.848 -15.42,-99.445 -46.25,-136.789 -30.83,-36.91 -74.69,-62.531 -131.58,-76.859" /><path
         id="path4589"
         style="fill:#a81c22;fill-opacity:1;fill-rule:nonzero;stroke:none"
         d="m 4934.56,1060.37 0,-119.858 c -33,15.633 -66.44,27.574 -100.31,35.828 -33.43,8.25 -66.65,12.375 -99.66,12.375 -86.85,0 -153.29,-29.313 -199.32,-87.934 -45.59,-58.625 -71.65,-147.211 -78.16,-265.761 25.62,37.781 57.75,66.656 96.4,86.632 38.65,20.411 81.21,30.614 127.67,30.618 97.71,-0.004 174.78,-29.75 231.24,-89.239 56.88,-59.058 85.33,-139.613 85.33,-241.66 0,-99.879 -29.53,-179.996 -88.59,-240.355 -59.06,-60.36 -137.66,-90.5472 -235.79,-90.5472 -112.48,0 -198.46,42.9962 -257.95,128.9762 -59.49,86.414 -89.24,211.481 -89.24,375.188 0,153.722 36.48,276.18 109.44,367.375 72.95,91.622 170.87,137.442 293.76,137.442 33.01,0 66.23,-3.26 99.66,-9.77 33.87,-6.52 69.05,-16.29 105.53,-29.32 m -261.2,-412.313 c -59.06,0 -105.96,-20.192 -140.7,-60.574 -34.31,-40.387 -51.46,-95.754 -51.46,-166.102 0,-69.914 17.15,-125.277 51.46,-166.098 34.74,-40.386 81.64,-60.578 140.7,-60.578 59.05,0 105.73,20.192 140.04,60.578 34.74,40.821 52.11,96.184 52.11,166.098 0,70.348 -17.37,125.715 -52.11,166.102 -34.31,40.382 -80.99,60.574 -140.04,60.574" /><path
         id="path4591"
         style="fill:#a81c22;fill-opacity:1;fill-rule:nonzero;stroke:none"
         d="m 5506.47,1099.45 c 108.99,0 192.15,-43.21 249.47,-129.626 57.76,-85.98 86.63,-211.043 86.63,-375.187 0,-163.711 -28.87,-288.778 -86.63,-375.192 -57.32,-85.98 -140.48,-128.9645 -249.47,-128.9645 -109,0 -192.37,42.9845 -250.13,128.9645 -57.32,86.414 -85.98,211.481 -85.98,375.192 0,164.144 28.66,289.207 85.98,375.187 57.76,86.416 141.13,129.626 250.13,129.626 m 0,-104.22 c -67.75,-0.003 -118.77,-33.437 -153.07,-100.312 -33.88,-66.441 -50.81,-166.535 -50.81,-300.281 0,-133.317 16.93,-233.41 50.81,-300.282 34.3,-66.441 85.32,-99.66 153.07,-99.66 68.17,0 119.2,33.219 153.07,99.66 34.31,66.872 51.46,166.965 51.46,300.282 0,133.746 -17.16,233.84 -51.46,300.281 -33.87,66.871 -84.9,100.309 -153.07,100.312" /><path
         id="path4593"
         style="fill:#a81c22;fill-opacity:1;fill-rule:nonzero;stroke:none"
         d="m 777.813,583.703 c 0,-121.558 -98.543,-220.105 -220.106,-220.105 -121.562,0 -220.109,98.547 -220.109,220.105 0,121.563 98.547,220.11 220.109,220.11 121.563,0 220.106,-98.547 220.106,-220.11 l 0,0" /><path
         id="path4595"
         style="fill:#100f0d;fill-opacity:1;fill-rule:nonzero;stroke:none"
         d="M 72.4141,523.895 C 101.902,281.902 308.445,94.6602 558.41,94.6602 c 246.477,0 449.82,181.8668 483.65,418.9138 l -34.24,-47.383 -38.472,52.543 C 938.254,319.508 766.367,166.902 558.41,166.902 c -209.765,0 -383.402,155.235 -412.347,356.993 l -73.6489,0 z M 558.41,1072.75 c -250.383,0 -457.051,-188.027 -485.9959,-430.641 l 42.6879,59.106 33.308,-45.031 c 34.442,195.304 204.817,343.856 410,343.856 208.305,0 380.731,-153.06 411.406,-352.77 l 73.184,0 c -31.18,240.085 -236,425.48 -484.59,425.48" /><path
         id="path4597"
         style="fill:#100f0d;fill-opacity:1;fill-rule:nonzero;stroke:none"
         d="m 115.359,662.617 57.684,-78.937 57.68,-78.938 -230.723,0 57.6797,78.938 57.6793,78.937 0,0" /><path
         id="path4599"
         style="fill:#100f0d;fill-opacity:1;fill-rule:nonzero;stroke:none"
         d="m 1007.73,504.742 -57.679,78.938 -57.68,78.941 230.719,0 -57.68,-78.941 -57.68,-78.938 0,0" /></g></g></svg>