<?xml version="1.0" encoding="utf-8"?>
<!-- Generator: Adobe Illustrator 18.0.0, SVG Export Plug-In . SVG Version: 6.00 Build 0)  -->
<!DOCTYPE svg PUBLIC "-//W3C//DTD SVG 1.1//EN" "http://www.w3.org/Graphics/SVG/1.1/DTD/svg11.dtd">
<svg version="1.1" id="Layer_1" xmlns="http://www.w3.org/2000/svg" xmlns:xlink="http://www.w3.org/1999/xlink" x="0px" y="0px"
	 viewBox="-165 200 330 160" enable-background="new -165 200 330 160" xml:space="preserve">
<g>
	<g>
		<path fill="#010101" d="M-154.5,221.8c9.2-0.4,18.9-1.8,23.5-3.2c2.8-0.8,4.4-1.8,6-3l6.1,5.8c-8.1,5.2-21.7,22.7-21.7,39.2
			c0.1,12,8.2,17.1,18.5,17.1c19.3,0,19.3-14.5,19.3-21c0-9.6-1-21.7-5.2-30.5l7.7-3.9c4.7,10.9,14.5,19.8,22.3,22.4l-3.3,8.3
			c-6.3-2.2-12.9-8.5-15.5-13.4h-0.1c1.4,6.6,1.9,13.6,1.9,19.3v2.5c-0.3,14.4-9.1,24.4-27.1,24.4c-16.1,0-26.6-8.7-26.6-25
			c0-10.6,5.2-24.1,14.5-34.3c-4.1,1.3-10.5,2.5-17.6,3.1c-0.2,0.7-0.8,1.3-1.5,1.3L-154.5,221.8z"/>
		<path fill="#010101" d="M-55.5,229c-0.3,0.8-1,1.3-2.2,1.4c-0.8,12-2.1,20.6-3.4,22.5h0.1c7.6-5.4,19.7-9.3,29.2-9.3
			c12.4,0,21,6.7,20.9,18.8c-0.2,15.8-12.6,23.2-45.6,24.5c-0.7-2-1.8-5.4-3-7.6c28.6-1.3,39.6-5.6,39.7-16.6
			c0.1-7-5-11.4-13.6-11.4c-13.1,0-27,7.9-29.7,13.1l-7.9-3.5c1.8-1.5,4.8-17.2,5-33.1L-55.5,229z M-55.6,211.9
			c10.7,1.2,23.9,3.6,32.4,7l-2.8,8.2c-8.6-3.5-21.9-6.1-32.2-7.4L-55.6,211.9z"/>
		<path fill="#010101" d="M30.8,214.4c-0.3,1.2-1.3,1.6-2.8,1.7c-0.9,4.4-2.3,12-3.3,17c3-0.3,6.2-0.6,8.2-0.6
			c13.4-0.1,17.6,9,17.6,21.8c0,3.4-0.6,11.6-2.5,17.7c-2.6,9.4-8.2,14-15.6,14c-3.4,0-8.2-1.6-15.2-7.1c1.2-2.1,2.3-4.7,2.9-7.1
			c6.2,4.6,9.7,5.6,12.1,5.6c4,0,6.4-2.9,7.9-8c1.3-4.5,2.2-11.8,2.2-15.5c-0.1-8.9-2.9-13.8-10.1-13.7c-2.3,0-5.4,0.2-9.1,0.7
			c-4,16.2-8.7,31-16.4,44.5l-7.7-3.7c7.5-12.9,11.9-25,15.6-39.9l-13.9,1.9l-0.7-8.2l16.1-1.8c1.2-6.1,2.4-13.5,3.2-20.8
			L30.8,214.4z M55,226.4c-2-3.6-6.9-9.1-10.3-11.8l3.9-2.9c4,3,8.5,8,10.7,11.6L55,226.4z M66,260.5c-2.4-11.3-8.4-22-15.4-28.1
			l6.9-4.5c8.1,7.1,14.7,17.9,17.2,29.5L66,260.5z M68.1,222.9c-2-3.5-6.9-9-10.4-11.7l4-2.9c3.9,3.1,8.4,8.1,10.7,11.7L68.1,222.9z
			"/>
		<path fill="#010101" d="M114.6,212.8c-0.3,0.8-1.1,1.5-2.5,1.7c-0.5,3.3-1.3,7.5-2,10.3c7.1-0.4,16-1.8,22.7-3.9l1.1,8
			c-7.6,1.8-16.4,3.1-25.3,3.8c-3.9,15.7-9.2,28.7-16.9,40.8l-8.2-3c7.3-10.8,13-23.4,16.2-37.6c-1.8,0.1-3.9,0.1-5.8,0.1H84v-7.6
			h9.7c2.6,0,5.2,0,7.4-0.1c0.8-4.1,1.5-8.8,2-13.4L114.6,212.8z M136.5,249.1c0.1,5.9,0.4,10.6,0.8,15.9c5,2,12.1,5.5,17.1,9.1
			l-4,7.7c-3.9-3-9.2-6.1-13.1-8c0,4.6-1.8,13.9-16.4,13.9c-9.2-0.1-16.6-4.5-16.6-12.9c0.1-8.5,8.7-13,16.7-13c2.5,0,5.1,0.4,8,1.1
			c-0.3-4.7-0.6-9.5-0.6-12.8L136.5,249.1z M129.7,270.3c-2.9-1.2-6.1-1.7-8.7-1.7c-4.5,0-9.3,1.9-9.3,6.1c0,3.9,3.9,6,9.5,6
			c4.7,0,8.5-2.1,8.5-7.3V270.3z M153.7,241.8c-9.2,0.1-20.5,1.4-29.4,3.7l-1.3-7.3c9.6-2.5,21-4.3,30.3-4.3L153.7,241.8z"/>
	</g>
	<g opacity="0.58">
		<path fill="#CE1F43" d="M-61.2,308.1c-0.3,2-1,6.9-1.9,14.8c-0.6,5.6-1,11-1.1,16.4h-4.5c0.4-2.6,0.9-7.5,1.8-14.8h-13.6
			c-0.4,3.5-0.7,8.5-1.1,14.8h-4.6c0.4-2.7,1.1-8.2,2.1-16.4c0.6-5.3,0.9-10.3,1-14.8h4.5c-0.3,2.1-0.9,6.6-1.7,13.3h13.8
			c0.4-3.5,0.6-7.9,0.8-13.3H-61.2z"/>
		<path fill="#CE1F43" d="M-50.5,316.1c0,1.1-0.1,2.7-0.4,4.8c-0.3,2-0.6,4.5-0.9,7.5c-0.2,2.3-0.5,5.9-0.8,10.9l-4.2,0.2
			c0.4-2.5,0.9-6.2,1.5-11.2c0.3-3.2,0.5-6.1,0.5-8.8c0-1.1,0-2.1-0.1-2.8L-50.5,316.1z M-48.8,309.1c0,0.9-0.3,1.7-0.9,2.4
			c-0.6,0.7-1.4,1-2.3,1c-1.5,0-2.2-0.8-2.2-2.3c0-0.9,0.3-1.7,0.9-2.3c0.6-0.6,1.4-1,2.3-1C-49.5,306.8-48.8,307.5-48.8,309.1z"/>
		<path fill="#CE1F43" d="M-29.7,316.3l-1.4,3.8c-1.1-0.3-2.2-0.5-3.2-0.5c-3.7,0-5.7,1.9-6.1,5.6c-0.6,5.5-1,10.1-1.3,14l-3.9,0.2
			c1.1-8.3,1.7-13.8,1.7-16.8c0-1.7-0.1-3.7-0.4-6.1l4-0.6c0.1,1.3,0.2,2.5,0.2,3.5h0.2c1.9-2.5,4-3.8,6.2-3.8
			C-32.6,315.8-31.3,316-29.7,316.3z"/>
		<path fill="#CE1F43" d="M-8.7,315.5c-1.5,8.1-2.2,14-2.2,17.7c0,1.7,0.1,3.6,0.4,5.9l-4,0.6c-0.1-1.4-0.1-3.2-0.1-5.3h-0.2
			c-2,3.7-4.7,5.5-8,5.5c-1.9,0-3.4-0.8-4.4-2.3s-1.5-3.5-1.5-6c0-4,1.4-7.5,4.2-10.4c2.8-3,6.8-4.5,12-4.5l1.1-0.7L-8.7,315.5z
			 M-13.1,319.3c-4.1,0.1-7,1.2-8.9,3.3c-1.9,2.1-2.8,5-2.8,8.5c0,3.6,1.2,5.5,3.6,5.5c1.7,0,3.2-1.2,4.7-3.6
			c1.4-2.4,2.3-4.6,2.6-6.6C-13.5,324.3-13.2,322-13.1,319.3z"/>
		<path fill="#CE1F43" d="M18.8,313.5l-0.7,3.3c-2.6,0-4.2,0.5-4.8,1.5l0,0.2c0.7,1.2,1.1,2.4,1.1,3.8c0,2.8-1,5-2.9,6.7
			c-2,1.6-4.4,2.4-7.3,2.4c-1.6,0-2.8-0.2-3.6-0.5c-0.9,0.7-1.4,1.6-1.4,2.8c0,0.8,0.4,1.4,1.1,1.6c0.7,0.3,3.6,0.4,8.6,0.4
			c4.3,0,6.5,1.7,6.5,5c0,3.3-1.3,6-4,8c-2.7,2-5.8,3-9.3,3c-3.4,0-5.7-0.6-7.1-1.9c-1.4-1.2-2.1-2.9-2.1-5.1c0-3,1.6-5.1,4.7-6.5
			l0-0.2c-1-0.5-1.5-1.5-1.5-2.9c0-1.7,0.9-3.2,2.7-4.7l0-0.2c-0.6-0.3-1.2-1-1.9-2.1c-0.6-1-0.9-2.2-0.9-3.5c0-2.8,1-5,2.9-6.5
			c1.9-1.5,4.4-2.3,7.3-2.3c2.5,0,4.4,0.5,5.9,1.6h0.2c0.4-1.6,1-2.7,1.6-3.3c0.6-0.6,1.4-0.9,2.5-0.9
			C17.4,313.2,18.2,313.3,18.8,313.5z M11.6,342.3c0-1.3-0.5-2.1-1.4-2.5c-0.9-0.4-3-0.6-6.2-0.6c-1.5,0-3.1-0.1-4.7-0.3
			c-2.2,1.1-3.3,2.7-3.3,4.9c0,3.4,2.1,5.1,6.2,5.1c2.6,0,4.8-0.6,6.6-1.9C10.7,345.8,11.6,344.2,11.6,342.3z M10.6,323
			c0-1.5-0.5-2.7-1.5-3.5c-0.9-0.8-2.1-1.1-3.6-1.1c-1.8,0-3.2,0.6-4.3,1.7c-1.1,1.1-1.7,2.5-1.7,4.3c0,1.5,0.5,2.6,1.4,3.4
			c0.9,0.8,2.2,1.2,3.7,1.2c1.7,0,3.2-0.5,4.3-1.6C10,326.2,10.6,324.7,10.6,323z"/>
		<path fill="#CE1F43" d="M39.6,315.5c-1.5,8.1-2.2,14-2.2,17.7c0,1.7,0.1,3.6,0.4,5.9l-4,0.6c-0.1-1.4-0.1-3.2-0.1-5.3h-0.2
			c-2,3.7-4.7,5.5-8,5.5c-1.9,0-3.4-0.8-4.4-2.3c-1-1.5-1.5-3.5-1.5-6c0-4,1.4-7.5,4.2-10.4c2.8-3,6.8-4.5,12-4.5l1.1-0.7
			L39.6,315.5z M35.3,319.3c-4.1,0.1-7,1.2-8.9,3.3s-2.8,5-2.8,8.5c0,3.6,1.2,5.5,3.6,5.5c1.7,0,3.2-1.2,4.7-3.6
			c1.4-2.4,2.3-4.6,2.6-6.6S35.1,322,35.3,319.3z"/>
		<path fill="#CE1F43" d="M64.5,322.9c0,1.3-0.2,3.8-0.5,7.7c-0.4,3.9-0.5,6.8-0.5,8.7l-4,0.2c0-0.7,0.2-3,0.7-6.8
			c0.5-3.8,0.7-6.7,0.7-8.7c0-1.9-0.3-3.2-1-3.9c-0.7-0.7-1.7-1.1-3.2-1.1c-1.7,0-3.4,1.1-5,3.4c-1.6,2.3-2.5,4.8-2.8,7.5
			c-0.4,3.6-0.6,6.7-0.8,9.2l-3.9,0.2c1.1-8.3,1.7-13.8,1.7-16.8c0-1.7-0.1-3.7-0.4-6.1l4-0.6c0.1,1.4,0.1,3.3,0.1,5.6h0.2
			c2.1-3.9,4.9-5.8,8.6-5.8C62.4,315.8,64.5,318.2,64.5,322.9z"/>
		<path fill="#CE1F43" d="M88.7,315.5c-1.5,8.1-2.2,14-2.2,17.7c0,1.7,0.1,3.6,0.4,5.9l-4,0.6c-0.1-1.4-0.1-3.2-0.1-5.3h-0.2
			c-2,3.7-4.7,5.5-8,5.5c-1.9,0-3.4-0.8-4.4-2.3c-1-1.5-1.5-3.5-1.5-6c0-4,1.4-7.5,4.2-10.4c2.8-3,6.8-4.5,12-4.5l1.1-0.7
			L88.7,315.5z M84.3,319.3c-4.1,0.1-7,1.2-8.9,3.3s-2.8,5-2.8,8.5c0,3.6,1.2,5.5,3.6,5.5c1.7,0,3.2-1.2,4.7-3.6
			c1.4-2.4,2.3-4.6,2.6-6.6S84.2,322,84.3,319.3z"/>
	</g>
</g>
</svg>
