<?xml version="1.0" encoding="utf-8"?>
<!-- Generator: Adobe Illustrator 18.0.0, SVG Export Plug-In . SVG Version: 6.00 Build 0)  -->
<!DOCTYPE svg PUBLIC "-//W3C//DTD SVG 1.1//EN" "http://www.w3.org/Graphics/SVG/1.1/DTD/svg11.dtd">
<svg version="1.1" id="Layer_1" xmlns="http://www.w3.org/2000/svg" xmlns:xlink="http://www.w3.org/1999/xlink" x="0px" y="0px"
	 viewBox="95 240 770 320" enable-background="new 95 240 770 320" xml:space="preserve">
<g>
	<g>
		<g>
			<g>
				<g>
					<g>
						<path fill="#FFFFFF" d="M165.8,379.4c-9.2,0-15.6-12.5-25.8-51.3c-1.6,0-2.8-0.1-3.8-0.3c-0.1,0-0.2-0.1-0.3-0.1
							c-8.7,19.3-13.6,33.6-16.6,48.7c-0.2,0.7-0.6,1.4-1.2,1.8c-0.5,0.3-1,0.4-1.5,0.4c-0.2,0-0.4,0-0.6-0.1
							c-6.8-1.5-11.8-5.6-16.1-13.2c-0.5-0.8-0.5-1.8-0.1-2.6c2.4-4.6,3.5-6.7,22.4-51.6c4.6-10.9,7-16.7,9.3-25.2
							c-6.3,2.5-11.3,5.3-14.6,8.1c-0.5,0.4-1.2,0.7-1.8,0.7c-0.6,0-1.1-0.2-1.6-0.5c-3.8-2.7-8.4-10.7-8.9-15.6
							c-0.1-1,0.4-2,1.2-2.6c11.9-8.2,34.9-13,50.3-13c22.7,0,36.8,10.6,36.8,27.7c0,17.3-15.3,32.3-37,36.5
							c6,16.2,15.6,32.5,23.5,39.7c0.9,0.8,1.2,2.1,0.6,3.2C178.2,374.3,171.3,379.4,165.8,379.4z M160.1,279
							c0.1,0.7-0.1,1.3-0.6,1.9c-2,2.6-9.6,17.1-16.5,31.7c23-1.1,39.2-10.3,39.2-22.8c0-2.7,0-11.1-17.1-11.1
							C163.6,278.8,161.9,278.9,160.1,279z"/>
					</g>
					<g>
						<path fill="#0B0B57" d="M156.2,265.6c21.4,0,34,9.6,34,25c0,17.1-16.5,31.3-37.9,34.3c5.5,16.2,15.9,35.4,25.4,44
							c-1.6,3.5-7.7,7.8-11.9,7.8c-7.8,0-14-14.4-23.6-51.3c-2,0-4.2,0-5.3-0.3c-0.7-0.4-1.3-1.1-2-1.9c-9.6,20.9-15,36.2-18.4,52.6
							c-6.1-1.3-10.4-5-14.3-11.9c2.4-4.7,3.6-7.2,22.5-51.8c5.7-13.4,8-19,10.8-30.8c-8.2,2.8-15.8,6.5-20.4,10.4
							c-3.1-2.2-7.3-9.4-7.7-13.6C118.2,270.9,140.3,265.6,156.2,265.6 M138.5,315.5c27,0,46.4-10.7,46.4-25.6
							c0-8.9-6.5-13.9-19.8-13.9c-3,0-6.1,0.3-9.4,0.7l1.6,2.6C154.9,282.5,145.7,300.1,138.5,315.5 M156.2,260
							c-15.8,0-39.5,5.1-51.9,13.5c-1.7,1.1-2.6,3.1-2.4,5.1c0.6,5.8,5.5,14.5,10.1,17.7c1,0.7,2.1,1,3.2,1c1.3,0,2.6-0.4,3.6-1.3
							c2-1.7,4.9-3.5,8.4-5.2c-1.8,5.5-3.9,10.7-7.5,19.1c-19,44.8-20,46.9-22.4,51.4c-0.9,1.7-0.8,3.7,0.1,5.3
							c4.8,8.4,10.3,12.9,17.9,14.6c0.4,0.1,0.8,0.1,1.2,0.1c1.1,0,2.1-0.3,3-0.9c1.3-0.8,2.1-2.1,2.4-3.6
							c2.9-14.3,7.5-28,15.6-46.1c0.1,0,0.2,0,0.3,0c9.4,35.5,15.9,51.4,27.9,51.4c6.7,0,14.6-5.9,16.9-11.1c1-2.2,0.5-4.8-1.3-6.4
							c-7.1-6.5-15.8-20.9-21.6-35.7c21.2-5.3,36-20.7,36-38.5C195.8,271.7,180.6,260,156.2,260L156.2,260z M162.3,281.6
							c1-0.1,1.9-0.1,2.8-0.1c14.3,0,14.3,5.8,14.3,8.3c0,9.9-13.2,17.7-31.8,19.6c6.5-13.4,12.7-24.9,14.2-26.9
							C162,282.3,162.1,282,162.3,281.6L162.3,281.6z"/>
					</g>
				</g>
				<g>
					<g>
						<path fill="#FFFFFF" d="M201,372.4c-11.6-1.2-19.4-11.1-19.4-24.6c0-15.3,9.7-33.6,23.1-43.4c5.3-4,10.7-6.1,15.5-6.1
							c0.5,0,0.9,0.1,1.3,0.3c3,1.6,6,4.7,8.7,9.2c0.3,0,0.6,0,0.9,0c6.6,0,9.9,5.2,9.9,15.5c0,23.6-16.5,44.3-39.3,49.1
							c-0.2,0-0.4,0.1-0.6,0.1C201.2,372.4,201.1,372.4,201,372.4z M225.2,316.7c-6.6,2.7-11.7,7.9-14.9,12.1
							c-5.7,7.6-10.4,19.1-10.4,25.7c0,2.9,0.9,5.4,1.5,6.5c14.1-3.9,24.2-19.9,24.2-38.8C225.7,319.8,225.6,318.1,225.2,316.7z"/>
					</g>
					<g>
						<path fill="#0B0B57" d="M220.3,301.1c2.8,1.5,5.8,4.9,8.5,9.6c0.8,0,1.6-0.1,2.4-0.1c4.9,0,7.1,4,7.1,12.7
							c0,22.5-15.5,41.8-37.1,46.4c-10.3-1.1-16.9-9.7-16.9-21.9c0-14.4,9.3-31.8,22-41.1C211.3,303,216.1,301.1,220.3,301.1
							 M200.7,364.1c16.1-3.5,27.8-20.8,27.8-41.8c0-4.6-0.5-7.1-1.8-9c-7.8,2.3-14.2,8.1-18.6,13.9c-6.2,8.2-10.9,20.2-10.9,27.4
							C197.2,358.8,199,363.6,200.7,364.1 M220.3,295.5c-5.5,0-11.4,2.3-17.2,6.6c-14,10.3-24.2,29.5-24.2,45.6
							c0,15,8.8,26,21.8,27.4c0.2,0,0.4,0,0.6,0c0.4,0,0.8,0,1.2-0.1c24.1-5.1,41.5-26.9,41.5-51.9c0-6.7-1.6-17.8-12.1-18.2
							c-2.8-4.2-5.8-7.2-8.9-8.8C222.1,295.7,221.2,295.5,220.3,295.5L220.3,295.5z M203.2,357.5c-0.2-0.9-0.4-2-0.4-3
							c0-5.3,3.9-16.3,9.8-24c2.4-3.1,5.9-6.9,10.3-9.5c0,0.4,0,0.9,0,1.3C223,338.7,214.8,352.9,203.2,357.5L203.2,357.5z"/>
					</g>
				</g>
				<g>
					<g>
						<path fill="#FFFFFF" d="M255.9,377.5c-3.4-0.4-6.3-2-7.2-4.2c-0.3-0.5-1.8-2.1-2.6-2.7c-3.9-2.6-4.1-12.4-4.1-14.3
							c0-8.1,3.9-23.2,11-42.6c11.4-31.1,21.1-51,30.6-62.5c0.5-0.6,1.3-1,2.2-1c0.2,0,0.3,0,0.5,0c4.6,0.9,14.8,6.4,16.9,9.7
							c0.7,1,0.6,2.4-0.2,3.3c-13.8,16.3-23.8,34.4-32.6,58.6c-7.4,20.5-11.4,37.9-11.4,49c0,3,0,3,0.1,3.4c0.2,0.9-0.1,1.8-0.7,2.4
							c-0.5,0.6-1.3,0.9-2.1,0.9C256.1,377.5,256,377.5,255.9,377.5z"/>
					</g>
					<g>
						<path fill="#0B0B57" d="M285.6,252.9c4.3,0.8,13.6,6.2,15.1,8.5c-14,16.6-24.2,34.8-33.1,59.5c-7.6,21-11.6,38.6-11.6,49.9
							c0,3.1,0,3.2,0.1,3.9c-2.4-0.3-4.5-1.3-5-2.6c-0.4-0.9-2.4-3.1-3.6-3.9c-1.6-1.1-2.8-6.2-2.8-12c0-7.8,3.9-22.8,10.8-41.7
							C266.6,284.4,276.3,264.3,285.6,252.9 M285.6,247.3c-1.6,0-3.2,0.7-4.3,2c-9.7,11.7-19.5,31.9-31,63.3
							c-5.1,13.9-11.1,32.8-11.1,43.6c0,4.9,0.7,13.6,5.3,16.6c0.4,0.3,1.4,1.3,1.8,1.8c1.5,3,5,5.1,9.3,5.6c0.2,0,0.4,0,0.6,0
							c1.5,0,3-0.6,4.1-1.8c1.2-1.3,1.7-3.1,1.4-4.9v-0.1c0-0.2,0-1.2,0-2.7c0-10.7,4-27.8,11.3-48c8.6-24,18.5-41.8,32.1-57.8
							c1.6-1.9,1.8-4.6,0.4-6.6c-2.5-3.9-13.5-10-18.8-10.9C286.3,247.4,286,247.3,285.6,247.3L285.6,247.3z"/>
					</g>
				</g>
				<g>
					<g>
						<path fill="#FFFFFF" d="M294.2,372.9c-13.3-1.4-22.2-10.8-22.2-23.4c0-23.8,21.8-51,40.8-51c0.1,0,0.2,0,0.4,0
							c4.8,0.6,9.3,3.6,13.4,8.7c0.4,0.5,0.6,1.2,0.6,1.9c-1.4,23-13.8,32.7-36.1,41.8c0,0.5-0.1,1.1-0.1,1.6c0,1.9,0.2,8,3.4,8
							c8.8,0,17.8-9.7,22.7-14.9c0.5-0.6,1.3-0.9,2-0.9c0.6,0,1.3,0.2,1.8,0.7c1.1,0.9,1.9,1.7,2.6,2.6c0.8,1,0.9,2.4,0.1,3.5
							c-8.4,11.1-19.4,19.2-28.6,21.3c-0.2,0-0.4,0.1-0.6,0.1C294.4,373,294.3,372.9,294.2,372.9z M311.7,317.4
							c-6.2,2.8-13.1,10.2-17.3,20.6C303.6,332.2,309.8,324.9,311.7,317.4z"/>
					</g>
					<g>
						<path fill="#0B0B57" d="M312.9,301.4c4.1,0.5,8,3.1,11.6,7.7c-1.4,22.1-13.1,30.9-36,40.1c0,1.1-0.1,2.3-0.1,3.5
							c0,4.6,1.1,10.8,6.2,10.8c9.7,0,19-9.7,24.7-15.8c0.9,0.8,1.6,1.5,2.3,2.3c-8.1,10.7-18.5,18.4-27,20.2
							c-12.4-1.3-19.7-9.8-19.7-20.6C274.8,327.4,295.1,301.4,312.9,301.4 M315.2,313.5c-9.8,1.3-21.3,13.8-25.6,30.5
							C303.8,336.8,314.5,325.8,315.2,313.5 M312.9,295.8c-20.8,0-43.6,28.1-43.6,53.7c0,14.1,9.9,24.6,24.7,26.2c0.2,0,0.4,0,0.6,0
							c0.4,0,0.8,0,1.2-0.1c9.8-2.2,21.4-10.7,30.2-22.3c1.6-2.1,1.5-4.9-0.2-6.9c-0.9-1-1.7-1.9-2.9-3c-1-0.9-2.3-1.4-3.6-1.4
							c-1.5,0-3,0.6-4.1,1.8c-4.2,4.5-12.9,13.8-20.4,14c-0.3-0.6-0.8-2.1-0.9-4.9c22.3-9.4,34.7-19.6,36.1-43.5
							c0.1-1.4-0.3-2.7-1.2-3.8c-4.5-5.7-9.7-9-15.2-9.8C313.4,295.8,313.1,295.8,312.9,295.8L312.9,295.8z"/>
					</g>
				</g>
				<g>
					<g>
						<path fill="#FFFFFF" d="M326.1,417.1c-0.1,0-0.3,0-0.4,0c-1.8-0.3-3.3-1.3-4.4-3.3l-0.4-0.5c-0.7-0.7-0.9-1-1.1-1.2
							c-2.1-0.8-3.5-3.1-3.8-6.1c-0.7-2.4-1-5.8-1-10.2c0-8.3,5.6-28.5,13.3-48c8.2-20.6,13.1-33.8,15.6-41.5
							c1.5-4.5,6.8-14.1,10.5-17.4c0.5-0.4,1.2-0.7,1.8-0.7c0.1,0,0.3,0,0.4,0c5.1,0.8,13.9,3.4,16,7.2c0.6,1.1,0.4,2.5-0.5,3.4
							c-2.2,2.1-5.4,7.1-8.4,12.8c5-4.9,11.6-10,17.6-10c8.4,0,14.5,5.4,14.5,12.9c0,13.5-4.8,27.4-13.1,38.1
							c-6.9,8.9-18.8,16.1-26.5,16.1c-4.3,0-8.1-2.1-9.3-5.3c-0.5-1.3,0-2.7,1.2-3.4c12-7.1,23.8-26.2,29-45.9
							c-3.8,2.5-7.4,5.6-11.1,10.3l-0.6,0.7c-12.2,15.1-13.4,16.7-16.9,24.7c-5.1,11.3-13.3,38.7-19.7,65.3
							C328.5,416.2,327.4,417.1,326.1,417.1z"/>
					</g>
					<g>
						<path fill="#0B0B57" d="M356.2,291c6.2,0.9,12.8,3.6,14,5.8c-5.1,4.7-13.5,21.2-16.1,30.6c1.8-3,4.2-6.2,10.1-12.4
							c6.6-6.9,12.7-10.7,17-10.7c6.9,0,11.7,4.2,11.7,10.1c0,13-4.6,26.2-12.5,36.4c-6.2,8-17.4,15-24.3,15c-3.2,0-5.9-1.5-6.7-3.5
							c13.9-8.2,27.4-30.9,31.7-54c-6.9,3.6-12,7.4-17.4,14.2c-12.8,15.9-14.2,17.5-17.8,26c-5.1,11.5-13.5,39.3-19.8,65.7
							c-0.9-0.1-1.7-0.7-2.6-2.2c-1.5-1.6-1.9-2.2-2.7-2.6c-1.1-0.3-2-1.9-2.2-4c-0.7-2.3-0.9-5.7-0.9-9.7c0-7.7,5.3-27.1,13.1-47
							c9.9-24.8,13.8-35.8,15.7-41.7C347.8,303,353,293.8,356.2,291 M356.2,285.4c-1.3,0-2.6,0.5-3.7,1.4
							c-4.2,3.7-9.8,13.9-11.3,18.7c-2.4,7.5-7.5,21.1-15.5,41.4c-7.9,20.1-13.5,40.3-13.5,49c0,4.6,0.3,8.1,1,10.7
							c0.4,3.7,2.3,6.7,5,8c0.2,0.2,0.4,0.4,0.6,0.7l0.3,0.3c1.6,2.5,3.7,4,6.3,4.4c0.3,0,0.5,0.1,0.8,0.1c2.5,0,4.8-1.7,5.4-4.3
							c4.3-17.8,9.4-35.9,13.8-49.3c2.2,3.2,6.2,5.1,10.9,5.1c9.6,0,22.1-8.7,28.7-17.1c8.7-11.2,13.7-25.8,13.7-39.9
							c0-9.1-7.3-15.7-17.3-15.7c-2.2,0-4.5,0.6-6.8,1.6c1.5-1.8,1.7-4.3,0.6-6.3c-3.6-6.3-17.5-8.5-18-8.6
							C356.7,285.4,356.5,285.4,356.2,285.4L356.2,285.4z M348.9,356c0.8-2,1.5-3.7,2.1-5.2c3.3-7.8,4.3-9,16.5-24.1l0.6-0.7
							c1.2-1.5,2.4-2.8,3.5-4C366.3,336.5,357.8,349.6,348.9,356L348.9,356z"/>
					</g>
				</g>
				<g>
					<g>
						<path fill="#FFFFFF" d="M408.9,377.5c-3.4-0.4-6.3-2-7.2-4.2c-0.3-0.5-1.8-2.1-2.6-2.7c-3.9-2.6-4.1-12.4-4.1-14.3
							c0-8.1,3.9-23.2,11-42.6c11.4-31.1,21.1-51,30.6-62.5c0.5-0.6,1.3-1,2.2-1c0.2,0,0.3,0,0.5,0c4.6,0.9,14.8,6.4,16.9,9.7
							c0.7,1,0.6,2.4-0.2,3.3c-13.8,16.3-23.8,34.4-32.6,58.6c-7.4,20.5-11.4,37.9-11.4,49c0,3,0,3,0.1,3.4c0.2,0.9-0.1,1.8-0.7,2.4
							c-0.5,0.6-1.3,0.9-2.1,0.9C409.1,377.5,409,377.5,408.9,377.5z"/>
					</g>
					<g>
						<path fill="#0B0B57" d="M438.6,252.9c4.3,0.8,13.6,6.2,15.1,8.5c-14,16.6-24.1,34.8-33.1,59.5c-7.6,21-11.6,38.6-11.6,49.9
							c0,3.1,0,3.2,0.1,3.9c-2.4-0.3-4.5-1.3-5-2.6c-0.4-0.9-2.4-3.1-3.6-3.9c-1.6-1.1-2.8-6.2-2.8-12c0-7.8,3.9-22.8,10.8-41.7
							C419.6,284.4,429.3,264.3,438.6,252.9 M438.6,247.3c-1.6,0-3.2,0.7-4.3,2c-9.7,11.8-19.5,31.9-31,63.3
							c-5.1,13.9-11.1,32.8-11.1,43.6c0,4.9,0.7,13.6,5.3,16.6c0.4,0.3,1.4,1.3,1.8,1.8c1.5,3,5,5.1,9.3,5.6c0.2,0,0.4,0,0.6,0
							c1.6,0,3.1-0.6,4.1-1.8c1.2-1.3,1.7-3.1,1.4-4.9l0,0c0-0.3,0-1.4,0-2.8c0-10.7,4-27.8,11.3-48c8.6-24,18.5-41.8,32.1-57.8
							c1.6-1.9,1.8-4.6,0.4-6.6c-2.5-3.9-13.5-10-18.8-10.9C439.3,247.4,439,247.3,438.6,247.3L438.6,247.3z"/>
					</g>
				</g>
				<g>
					<g>
						<path fill="#FFFFFF" d="M438.4,370.7c-8.2-0.3-13.9-8.2-13.9-19.1c0-21.6,20.5-50.3,36.6-51.2c0,0,0.1,0,0.2,0
							c0.2,0,0.5,0,0.7,0.1c3.4,0.9,8.5,5.3,10.9,9.5c0.1-0.2,0.2-0.5,0.4-0.7c0.5-1,1.4-1.6,2.5-1.6c3.7,0,9.3,2.2,11.5,4.6
							c1.1,1.2,1.3,2.4,1.2,3.1c0,0.3-0.1,0.7-0.3,1c-7.3,15.1-12,30.4-12,39c0,4,0.8,6.7,2.1,7.4c0.9,0.5,1.4,1.4,1.4,2.4
							s-0.5,1.9-1.3,2.4c-2.6,1.6-7,2.9-10.2,2.9c-3.8,0-10.1-1.7-10.1-12.8c0-0.7,0-1.4,0.1-2.1c-6.4,8.4-13.4,14.2-19.3,15.1
							c-0.1,0-0.3,0-0.4,0C438.5,370.7,438.4,370.7,438.4,370.7z M469.2,317.2c-12.6,4.3-27.1,24.9-27.1,39.3
							c5.5-2.7,12.9-14.3,18.2-23C462.8,329.2,466.2,323.1,469.2,317.2z"/>
					</g>
					<g>
						<path fill="#0B0B57" d="M461.3,303.1c3.6,0.9,9.7,7.3,10.1,10.7c-14.4,2.3-32.1,26.2-32.1,42.8c0,1.9,0.7,2.8,1.9,3.2
							c5.3-1.1,11.7-8.6,21.5-24.8c3.8-6.3,9.2-16.5,13.1-24.6c3.8,0,10.1,3,10,4.7c-7.3,15.1-12.3,31-12.3,40.2
							c0,5,1.1,8.5,3.5,9.9c-2.2,1.3-6.1,2.4-8.8,2.4c-4.9,0-7.3-3.2-7.3-10c0-5,1.8-12.3,5.1-21.1c-7.3,16.5-19.2,30-27.5,31.3
							c-6.6-0.3-11.2-7-11.2-16.3C427.3,331.4,446.7,303.9,461.3,303.1 M461.3,297.5c-0.1,0-0.2,0-0.3,0
							c-8.7,0.5-18.4,7.5-26.7,19.3c-7.9,11.2-12.5,24.1-12.5,34.7c0,12.5,6.8,21.5,16.5,21.9c0.1,0,0.2,0,0.2,0
							c0.3,0,0.6,0,0.9-0.1c5.6-0.9,11.3-5,16.5-10.7c1,4.7,4,10.5,12.3,10.5c3.8,0,8.7-1.4,11.7-3.3c1.7-1,2.7-2.9,2.6-4.9
							c0-1.9-1.1-3.7-2.7-4.6c-0.2-0.3-0.8-1.6-0.8-5.1c0-8.1,4.7-23.2,11.7-37.8c0.3-0.6,0.5-1.3,0.5-2c0.1-1.3-0.2-3.3-2-5.2
							c-2.7-2.9-9-5.5-13.6-5.5c-0.9,0-1.8,0.2-2.6,0.6c-3-3.7-7.2-6.9-10.5-7.7C462.2,297.6,461.8,297.5,461.3,297.5L461.3,297.5z
							 M446,349.4c2.5-8.7,9-18.5,15.9-24.5c-1.5,2.7-2.9,5.1-4.1,7.2C452.6,340.8,448.8,346.2,446,349.4L446,349.4z"/>
					</g>
				</g>
				<g>
					<g>
						<path fill="#FFFFFF" d="M487.5,416.4c-9.8,0-20.4-4.8-23.6-10.8c-0.2-0.4-0.3-0.9-0.3-1.3c0-2,1.2-3.9,3.2-5.2
							c0.5-0.3,1-0.4,1.5-0.4c0.7,0,1.3,0.2,1.9,0.7c3.9,3.5,4.6,3.7,7.7,3.7c15.9,0,31.5-17,41.9-44.5c-4.4,5.5-9.1,10-13.7,11.6
							c-0.3,0.1-0.6,0.2-0.9,0.2h-0.1c-7.2-0.3-15.7-5.2-17.4-12.7c0-0.2-0.1-0.4-0.1-0.6c0-5.3,0.3-8.2,1.3-12.1
							c3.2-13.1,12.9-37.2,25.2-46.2c0.5-0.4,1.1-0.5,1.7-0.5c3.7,0,10.6,1.3,14.2,5c0.6,0.5,0.8,1.3,0.8,2.1c0,0.8-0.4,1.5-1,2
							c-1.1,0.9-8.2,9.8-16.8,30.1c-1.7,4.1-4.7,13.7-5.3,18.5c2.5-1.7,6.5-5.5,11.4-12.8c4.7-7.1,8.4-14,12.4-21.4
							c3.2-5.8,6.4-11.9,10.3-18.3c0.5-0.8,1.4-1.3,2.4-1.3c5.1,0,12.9,2.3,15.3,5.4c0.7,0.8,0.8,2,0.3,2.9
							c-5,10.7-10.2,22.3-14.2,34.5c-8.5,27.7-16.9,43.8-29.9,57.3C506.7,411.5,497,416.4,487.5,416.4z"/>
					</g>
					<g>
						<path fill="#0B0B57" d="M515.6,300.9c3,0,9.2,1.1,12.3,4.2c-2,1.8-9.4,12-17.5,31.2c-1.6,4-5.7,16.3-5.7,21
							c0,1.4,0.7,2.2,0.9,2.4c3.2-0.5,8.9-5.1,15.6-15.1c8.5-12.8,14-25.4,22.8-39.8c4.7,0,11.5,2.3,13.1,4.3
							c-5.5,11.7-10.5,23.1-14.3,34.8c-8.1,26.3-16.2,42.6-29.3,56.3c-8.2,8.6-17.3,13.4-26,13.4c-8.9,0-18.5-4.3-21.2-9.3
							c0-1.1,0.8-2.2,1.9-2.8c4.2,3.8,5.5,4.5,9.6,4.5c20.5,0,39.9-25,50.1-63.8c-4.6,7.3-14.4,22.5-22.8,25.5
							c-5.7-0.3-13.4-4.2-14.8-10.5c0-5.1,0.3-7.7,1.2-11.5C494.8,332,504.4,309.2,515.6,300.9 M515.6,295.4c-1.2,0-2.3,0.4-3.3,1.1
							c-5.8,4.3-11.4,11.8-16.7,22.3c-4,8.1-7.6,17.6-9.6,25.5c-1.1,4.2-1.4,7.2-1.4,12.8c0,0.4,0,0.9,0.1,1.3
							c2.1,8.8,11.8,14.4,20,14.8c0.1,0,0.2,0,0.3,0c0.6,0,1.3-0.1,1.9-0.3c1.6-0.6,3.1-1.4,4.7-2.4c-9.4,18.8-21.6,29.9-33.8,29.9
							c-2.4,0-2.5,0-5.8-3c-1.1-1-2.4-1.4-3.7-1.4c-1,0-2,0.3-2.9,0.8c-2.8,1.8-4.5,4.6-4.5,7.6c0,0.9,0.2,1.8,0.7,2.7
							c4.1,7.7,16.5,12.2,26.1,12.2c10.3,0,20.7-5.2,30.1-15.1c13.3-13.9,21.9-30.3,30.6-58.5c3.9-12,9-23.5,14-34.1
							c0.9-1.9,0.6-4.2-0.7-5.9c-3.3-4.1-12.4-6.4-17.4-6.4c-1.9,0-3.7,1-4.8,2.7c-3.9,6.5-7.2,12.5-10.4,18.4
							c-4,7.3-7.7,14.3-12.3,21.2c-1.5,2.2-2.8,4-4.1,5.5c1-3.2,2.1-6.5,2.9-8.7c8.1-19.2,15-28.1,16.1-29.1c1.2-1,1.8-2.5,1.9-4
							c0.1-1.5-0.6-3-1.6-4.1C527.2,296.6,519.1,295.4,515.6,295.4L515.6,295.4z"/>
					</g>
				</g>
				<g>
					<g>
						<path fill="#FFFFFF" d="M568.1,370.1c-2.6,0-12.6-4.4-12.6-14.3c0-3.5,1.2-10.4,4.7-26.2c0.7-3.1,4.8-18.7,14.3-23.5
							c0.4-0.2,0.8-0.3,1.2-0.3c0.2,0,0.4,0,0.6,0.1c3.6,0.8,10.3,4.2,14.3,10.1c0.7,1.1,0.6,2.5-0.2,3.4
							c-6.4,7.1-9.2,14.7-12.4,23.5c-0.7,2-1.5,4.1-2.4,6.3c-1.7,4.6-3.7,10.3-3.9,13.8C571.6,366.6,571.6,370.1,568.1,370.1z
							 M588,303.7c-0.2,0-0.3,0-0.5,0c-3.5-0.6-6.3-3.5-6.3-6.4c0-0.5,0.1-1.1,0.2-1.8c-0.9-1.6-1.4-3.6-1.4-5.1
							c0-3.5,2-12.6,4.4-18.7c0.4-1.1,1.4-1.8,2.6-1.8c5.2,0,15.4,5.9,18.6,10.7c0.8,1.1,0.6,2.6-0.4,3.6
							c-4.2,3.9-13.6,15.5-14.6,17.9C590.1,303.1,589.1,303.7,588,303.7z"/>
					</g>
					<g>
						<path fill="#0B0B57" d="M586.9,272.8c4.2,0,13.6,5.4,16.3,9.4c-4.1,3.8-13.9,15.8-15.3,18.8c-2.2-0.4-4.1-2.2-4.1-3.6
							c0-0.5,0.1-1.3,0.4-2.4c-0.9-0.9-1.6-3-1.6-4.5C582.8,287.3,584.6,278.6,586.9,272.8 M575.6,308.6c3,0.7,9,3.6,12.6,8.9
							c-8.2,9.2-10.7,18.8-15.2,30.6c-1.9,5-3.9,10.8-4,14.7c0,3.2,0,4.5-0.8,4.5c-1.3,0-9.8-3.5-9.8-11.5c0-3.1,1.1-9.4,4.6-25.6
							C563.6,326.7,567.5,312.7,575.6,308.6 M586.9,267.2c-2.3,0-4.3,1.4-5.2,3.5c-2.3,5.9-4.6,15.5-4.6,19.7c0,1.6,0.4,3.7,1.3,5.6
							c-0.1,0.5-0.1,0.9-0.1,1.3c0,4.7,4.4,8.3,8.6,9.1c0.3,0.1,0.7,0.1,1,0.1c2.1,0,4.2-1.3,5.1-3.3c1.1-2.3,10.2-13.5,14-17
							c2-1.9,2.3-4.9,0.8-7.2C604.2,273.5,593,267.2,586.9,267.2L586.9,267.2z M575.6,303.1c-0.9,0-1.7,0.2-2.5,0.6
							c-10.4,5.2-14.7,20.7-15.7,25.3c-4,18.4-4.7,23.6-4.7,26.9c0,11.1,10.9,17,15.4,17c2.7,0,5.6-1.8,6.2-5.8
							c0.2-1.1,0.2-2.3,0.2-4.1c0.2-3.5,2.7-10.3,3.7-12.8c0.8-2.2,1.6-4.3,2.4-6.3c3.2-8.9,5.8-15.9,11.8-22.6
							c1.7-1.9,1.9-4.7,0.5-6.8c-4.7-7.1-12.5-10.5-16-11.2C576.4,303.1,576,303.1,575.6,303.1L575.6,303.1z"/>
					</g>
				</g>
				<g>
					<g>
						<path fill="#FFFFFF" d="M593.1,374.4c-0.5,0-1-0.1-1.4-0.4c-3.9-2.2-6.3-6.3-7.6-12.4c0-0.2-0.1-0.4-0.1-0.5
							c0-7.5,4.4-23.4,10.3-36.9c5.3-12.3,12.8-25.8,16.1-27.3c0.4-0.2,0.8-0.2,1.2-0.2c0.3,0,0.6,0,0.8,0.1
							c5.4,1.7,10.8,7.8,13,14.8c0.2,0.6,0.2,1.3-0.1,1.9c-1.7,4.2-5.1,9.8-8.7,15.8c-0.6,1-1.2,1.9-1.7,2.9c1.9-2.2,3.5-4,4.5-5.1
							c9.8-10.4,21.1-21.5,30.3-21.5c4.8,0,9.1,3.2,12.1,8.8c0.2,0.4,0.3,0.8,0.3,1.3c0,1.7-1.3,2.5-1.9,2.8
							c-0.5,0.3-1.4,0.8-2.7,2.3c-4.5,5.8-13.4,23.1-13.4,33.4c0,1.5,0.2,2.2,0.3,2.5c0.1,0,0.2,0,0.3,0c0.6,0,1.7-0.4,2.5-0.6
							c1.1-0.4,2.1-0.7,3.1-0.7c0.5,0,1,0.1,1.4,0.4c1.8,1.1,2.6,3.6,2.6,5.1c0,0.8-0.3,1.5-0.9,2.1c-2.8,2.6-9.3,6.2-13.5,6.2
							c-10.4,0-15.6-5.7-15.6-17.1c0-3.9,0.8-8.3,4.3-17.3c-1,0.8-2,1.7-3.1,2.7c-8.1,7.9-14.3,15.1-21.4,24.9
							c-4.6,6.5-7.3,10.3-9.9,11.7C594.1,374.3,593.6,374.4,593.1,374.4z"/>
					</g>
					<g>
						<path fill="#0B0B57" d="M611.8,299.5c4.7,1.5,9.3,7,11.2,13c-4,9.8-18.2,29-19.3,37.2c5.7-6.1,14.8-17.4,18-20.6
							c6.9-7.3,19.6-20.6,28.3-20.6c4.6,0,7.8,3.9,9.6,7.3c0,0.4-1.5,0.5-3.9,3.4c-4.9,6.3-14,24.2-14,35.2c0,4.5,1.2,5.3,3.4,5.3
							c1.9,0,4.5-1.4,5.7-1.4c0.7,0.4,1.2,1.9,1.2,2.7c-2.7,2.4-8.5,5.5-11.6,5.5c-10.4,0-12.8-6.3-12.8-14.3c0-4.5,1.2-10,7.4-24.3
							c-0.4,0-5.7,2.6-10.9,7.7c-8.4,8.1-14.7,15.5-21.7,25.2c-3.9,5.5-6.9,9.7-9,10.9c-3.8-2.2-5.4-6.5-6.2-10.5
							c0-6.7,4-21.9,10.1-35.8C603.9,309.6,610.3,300.1,611.8,299.5 M611.8,293.9c-0.8,0-1.6,0.2-2.3,0.5
							c-6.1,2.8-17,27.7-17.5,28.7c-6.1,14-10.6,30-10.6,38c0,0.4,0,0.7,0.1,1.1c1.4,6.9,4.4,11.7,8.9,14.3c0.9,0.5,1.8,0.7,2.8,0.7
							c0.9,0,1.9-0.2,2.7-0.7c3.1-1.8,5.9-5.5,10.9-12.6c5.4-7.5,10.4-13.5,16.1-19.5c-0.7,3.1-1,5.4-1,7.6
							c0,16.4,10,19.9,18.4,19.9c5.2,0,12.2-4.2,15.3-7c1.2-1.1,1.8-2.6,1.8-4.1c0-2.1-1-5.8-3.9-7.5c-0.9-0.5-1.9-0.8-2.9-0.8
							c-1.2,0-2.4,0.3-3.4,0.7c0.5-9.4,8.4-24.9,12.8-30.7c0.9-1.1,1.5-1.4,1.9-1.6c2.7-1.6,3.2-3.7,3.2-5.2c0-0.9-0.2-1.8-0.6-2.6
							c-3.4-6.5-8.7-10.3-14.5-10.3c-7,0-14.6,5.2-21.9,11.9c0-0.1,0.1-0.1,0.1-0.2c0.5-1.2,0.6-2.6,0.2-3.8
							c-2.5-7.9-8.5-14.6-14.8-16.6C612.9,294,612.3,293.9,611.8,293.9L611.8,293.9z"/>
					</g>
				</g>
				<g>
					<g>
						<path fill="#FFFFFF" d="M656.6,417.2c-9.9,0-20.5-4.9-23.5-10.8c-0.2-0.4-0.3-0.8-0.3-1.3c0-2.6,2.1-4.4,2.7-5
							c0.5-0.4,1.2-0.7,1.8-0.7s1.3,0.2,1.8,0.7c4.2,3.6,4.8,3.8,7.8,3.8c15.4,0,29-15.7,38.2-43.5c-4.1,3-8.7,5.8-11.8,7.1
							c-0.3,0.1-0.7,0.2-1,0.2c-0.2,0-0.3,0-0.5,0c-7.5-1.3-13.1-9.9-13.1-19.9c0-22.6,25.8-50.4,46.8-50.4
							c7.6,0,11.6,3.3,13.2,10.8c0.2,1.1-0.2,2.2-1.1,2.8c-0.5,0.4-1.1,0.5-1.6,0.5s-1-0.1-1.4-0.4c-0.4-0.2-1.3-0.4-2.4-0.4
							c-0.6,0-1.2,0.1-1.9,0.3c5,0.3,9.8,2,11.9,4c0.8,0.8,1,2,0.6,3.1c-6.2,14.4-9.6,23.6-12.1,30.2c-9.6,25.9-16.4,42.7-29.7,57.4
							C673.9,413.6,663.4,417.2,656.6,417.2z M707.7,312c-11.5,5.5-30.3,28.5-32.5,43.1c3.3-2.2,8.9-7,14.3-13.1
							c7.1-8,13.9-19.2,17.7-29.2C707.4,312.5,707.5,312.2,707.7,312z"/>
					</g>
					<g>
						<path fill="#0B0B57" d="M705.4,300.1c6.2,0,9.2,2.3,10.5,8.6c-0.9-0.5-2.4-0.8-3.8-0.8c-13,0-39.9,33.2-39.9,49.8
							c0,1.2,0.3,1.3,0.5,1.3c3.1,0,12.1-7.7,18.9-15.3c7.7-8.6,14.4-20.1,18.2-30.1c4.9,0.3,9,1.9,10.4,3.2
							c-6.1,14-9.4,23.1-12.1,30.4c-9.6,25.9-16.2,42.2-29.1,56.5c-6.2,6.9-15.9,10.5-22.4,10.5c-8.8,0-18.5-4.3-21-9.3
							c0-1.1,0.8-2,1.8-2.8c4.4,3.8,5.7,4.5,9.6,4.5c18.6,0,34.3-20.2,43.6-54.5c-4.2,4.5-13.5,10.8-18.2,12.7
							c-6.1-1.1-10.8-8.6-10.8-17.1C661.4,326.9,686.3,300.1,705.4,300.1 M705.4,294.6c-22.2,0-49.6,29.3-49.6,53.2
							c0,11.3,6.6,21.1,15.4,22.6c0.3,0.1,0.6,0.1,1,0.1c0.7,0,1.4-0.1,2.1-0.4c1.5-0.6,3.4-1.6,5.3-2.7
							c-8.6,21.7-20.1,33.8-32.8,33.8c-2.2,0-2.3,0-6-3.1c-1-0.9-2.3-1.3-3.6-1.3s-2.6,0.4-3.6,1.3c-2.5,2.1-3.7,4.5-3.7,7.1
							c0,0.9,0.2,1.8,0.6,2.5c4,7.7,16.3,12.3,26,12.3c7.4,0,18.9-3.9,26.5-12.4c13.7-15.1,20.5-32.1,30.2-58.3
							c2.5-6.6,5.8-15.7,12-30.1c0.9-2.1,0.4-4.5-1.2-6.2c-0.8-0.8-1.9-1.5-3.1-2.1c0.4-1,0.5-2.2,0.3-3.3
							C719.5,298.8,714.3,294.6,705.4,294.6L705.4,294.6z M681,346.8c2.4-5.2,6.2-11,10.7-16.6c3.2-3.9,6.3-7.2,9.2-9.8
							c-3.7,7.2-8.4,14.3-13.3,19.8C685.3,342.6,683.1,344.8,681,346.8L681,346.8z"/>
					</g>
				</g>
			</g>
			<g>
				<g>
					<g>
						<path fill="#FFFFFF" d="M410.6,519.2c-6.3-0.5-13.4-6.3-15.3-12.5c-0.1-0.3-0.1-0.5-0.1-0.8c0-14.4,12-26.7,27.7-28.9
							c-0.3-3.5-1.2-7-2-10.3c-1-4-2-7.8-2-11.8c0-10.9,9.4-22.4,20-24.7c0.2,0,0.4-0.1,0.6-0.1s0.5,0,0.7,0.1
							c5,1.4,16.2,12.6,17.5,17.8c0.1,0.3,0.1,0.6,0.1,0.9c-0.4,6.2-4.2,18.1-10.1,18.1c-0.1,0-0.2,0-0.3,0c-2.3-0.3-3.9-2-4.2-4.5
							c0-0.1,0-0.2,0-0.3c0-0.9,0.3-1.8,1-3.5c0.4-1.1,1.2-3,1.2-3.8c0-1.1-0.4-1.6-0.5-1.7c-5,0-8.1,8.4-8.2,22.5
							c2.5-0.1,4.6-0.2,6.8-0.2c1.1,0,2,0.6,2.5,1.5c0.4,0.9,0.4,1.5,0.4,2.3c0,1.2-0.4,2.8-1.3,3.7c-0.4,0.4-0.9,0.6-1.4,0.8
							c-2.6,0.6-5.7,1.3-6.9,1.7c0,0.5,0,0.9,0,1.5c0,0.9,0.1,1.9,0.1,3.1c0,16.2-9.8,27.3-25.7,28.9c-0.1,0-0.2,0-0.3,0
							C410.8,519.2,410.7,519.2,410.6,519.2z M423.1,490.5c-5.8,3.2-12.5,11.1-12.5,14.8c0,0.4,0.1,1,0.4,1.5
							C416.6,503.8,421.5,497.1,423.1,490.5z"/>
					</g>
					<g>
						<path fill="#0B0B57" d="M439.5,432.8c4,1.1,14.4,11.6,15.5,15.8c-0.4,6.9-4.5,15.5-7.3,15.5c-1.1-0.1-1.6-0.8-1.8-2
							c0-1.1,2.2-5.1,2.2-7.3c0-2.6-1.3-4.4-3.2-4.4c-7.1,0-11.1,9.3-11.1,26.6c0,1.1,0,1.3,0.1,1.6c3.8-0.1,6.6-0.3,9.4-0.3
							c0.1,0.3,0.1,0.4,0.1,1.1s-0.3,1.5-0.5,1.8c-8.4,1.9-9,2.2-9,4.2c0,1.4,0.1,2.7,0.1,4.9c0,15-8.8,24.7-23.2,26.2
							c-5.1-0.4-11.3-5.5-12.8-10.5c0-13.8,12.1-25.4,27.8-26.4c0-9.2-4.2-17-4.2-24.6C421.7,445.3,430,434.9,439.5,432.8
							 M426.4,486.4c-7,0.9-18.6,12.7-18.6,18.9c0,2,0.9,3.6,2.7,4.9C419.1,506.7,426.4,495.7,426.4,486.4 M439.5,427.3
							c-0.4,0-0.8,0-1.2,0.1c-12,2.6-22.2,15.2-22.2,27.4c0,4.3,1.1,8.5,2.1,12.5c0.6,2.4,1.3,4.8,1.7,7.3
							c-15.7,3.4-27.4,16.3-27.4,31.2c0,0.5,0.1,1.1,0.2,1.6c2.2,7.3,10.3,13.9,17.7,14.5c0.1,0,0.3,0,0.4,0c0.2,0,0.4,0,0.6,0
							c17.4-1.8,28.2-13.9,28.2-31.7c0-1,0-1.8-0.1-2.5c1.4-0.4,3.2-0.8,4.6-1.1c1-0.2,2-0.8,2.7-1.5c1.6-1.6,2.2-4,2.2-5.7
							c0-0.9,0-2.1-0.7-3.5c-0.9-1.9-2.9-3.1-5-3.1c-1.3,0-2.6,0-3.9,0.1c0.2-3.8,0.6-6.9,1.1-9.3c0.7,3.4,3.1,5.7,6.5,6.1
							c0.2,0,0.5,0,0.7,0c8.1,0,12.4-13.8,12.8-20.8c0-0.6,0-1.2-0.2-1.7c-1.6-6.1-13.4-18.2-19.5-19.8
							C440.4,427.3,440,427.3,439.5,427.3L439.5,427.3z"/>
					</g>
				</g>
				<g>
					<g>
						<path fill="#FFFFFF" d="M386.6,507.6c-2.6,0-12.6-4.4-12.6-14.2c0-3.5,1.2-10.4,4.7-26.2c0.7-3.1,4.7-18.7,14.3-23.5
							c0.4-0.2,0.8-0.3,1.2-0.3c0.2,0,0.4,0,0.6,0.1c3.6,0.8,10.3,4.2,14.2,10.1c0.7,1.1,0.6,2.5-0.2,3.4
							c-6.4,7.1-9.2,14.7-12.4,23.5c-0.7,2-1.5,4.1-2.3,6.3c-1.7,4.6-3.7,10.3-3.9,13.8C390.2,504,390.2,507.6,386.6,507.6z
							 M406.5,441.2c-0.2,0-0.3,0-0.5,0c-3.5-0.7-6.3-3.5-6.3-6.4c0-0.5,0.1-1.1,0.2-1.8c-0.9-1.6-1.4-3.6-1.4-5.1
							c0-3.5,2-12.6,4.4-18.7c0.4-1.1,1.4-1.8,2.6-1.8c5.2,0,15.4,5.9,18.6,10.7c0.8,1.1,0.6,2.7-0.4,3.6
							c-4.2,3.9-13.5,15.5-14.6,17.9C408.6,440.5,407.6,441.2,406.5,441.2z"/>
					</g>
					<g>
						<path fill="#0B0B57" d="M405.5,410.2c4.2,0,13.6,5.4,16.3,9.4c-4.1,3.8-13.9,15.8-15.2,18.8c-2.2-0.4-4-2.2-4-3.6
							c0-0.5,0.1-1.4,0.4-2.4c-0.9-0.9-1.6-3-1.6-4.4C401.3,424.8,403.2,416,405.5,410.2 M394.1,446.1c3,0.7,9,3.6,12.5,8.9
							c-8.2,9.2-10.7,18.8-15.2,30.6c-1.9,5-3.9,10.8-4,14.7c0,3.2,0,4.4-0.8,4.4c-1.3,0-9.8-3.5-9.8-11.5c0-3.1,1.1-9.4,4.6-25.6
							C382.1,464.2,386,450.1,394.1,446.1 M405.5,404.6c-2.3,0-4.3,1.4-5.2,3.5c-2.4,5.9-4.6,15.5-4.6,19.7c0,1.6,0.4,3.7,1.3,5.6
							c-0.1,0.5-0.1,0.9-0.1,1.3c0,4.7,4.4,8.3,8.6,9.1c0.3,0.1,0.7,0.1,1,0.1c2.2,0,4.2-1.2,5.1-3.3c1.1-2.3,10.2-13.5,14-17
							c2-1.9,2.3-4.9,0.8-7.2C422.7,411,411.5,404.6,405.5,404.6L405.5,404.6z M394.1,440.5c-0.9,0-1.7,0.2-2.5,0.6
							c-10.7,5.3-15,22-15.8,25.3c-4,18.4-4.7,23.6-4.7,26.9c0,11.1,10.9,17,15.4,17c2.7,0,5.6-1.8,6.2-5.8c0.2-1.1,0.2-2.3,0.2-4.1
							c0.2-3.5,2.7-10.3,3.7-12.8c0.8-2.2,1.6-4.3,2.4-6.3c3.2-8.9,5.8-15.9,11.8-22.6c1.7-1.9,1.9-4.7,0.5-6.8
							c-4.7-7.1-12.5-10.5-16-11.2C395,440.6,394.5,440.5,394.1,440.5L394.1,440.5z"/>
					</g>
				</g>
			</g>
			<g>
				<g>
					<g>
						<path fill="#FFFFFF" d="M495,515.4c-0.3,0-0.5,0-0.8-0.1c-8.5-2.5-13.5-5.2-13.5-11c0-6.6,7.2-22.9,21.3-48.4
							c15.3-27.8,28.2-47.8,41.1-55.2c0.4-0.2,0.9-0.4,1.4-0.4c4.5,0,20.7,5.7,22,10.4c0.2,0.7,0.1,1.3-0.2,2
							c-3.6,7.4-10,27.5-14.4,48.2c13.5-25.8,32.1-52.7,42.3-60c0.5-0.3,1-0.5,1.6-0.5c4.5,0,20.7,5.7,22,10.4
							c0.2,0.7,0.1,1.5-0.3,2.1c-10.6,19-17.2,59.5-17.2,86.1c0,4.2,0,8.6,0.3,13.3c0,0.8-0.2,1.5-0.8,2.1c-0.5,0.6-1.3,0.9-2,0.9
							c-5.2,0-16.5-2.7-19.3-7.1c-0.3-0.4-0.4-0.9-0.4-1.4c-0.1-2.6-0.1-5.4-0.1-8c0-21.2,3.2-43.4,9.7-67.9c0.3-1.1,0.7-2.7,1-4.5
							c-14.6,14.4-37.2,57.4-39.3,86.2c-0.1,1.1-0.8,2.1-1.9,2.4c-0.8,0.3-1.3,0.3-2.5,0.3c-4.9,0-16.3-3.5-18-7.7
							c-0.1-0.3-0.2-0.6-0.2-0.9c-0.1-2.6-0.1-5.4-0.1-8c0-21.2,3.2-43.4,9.7-67.9c0.1-0.4,0.2-0.9,0.4-1.4
							c-14.2,17.3-36.4,57.6-38.9,83.5c-0.1,0.8-0.5,1.6-1.2,2C496.1,515.2,495.6,515.4,495,515.4z"/>
					</g>
					<g>
						<path fill="#0B0B57" d="M595.8,403c5,0,18.6,5.9,19.3,8.4c-11.5,20.5-17.5,62.2-17.5,87.4c0,4.2,0,8.6,0.3,13.5
							c-5,0-15-2.7-17-5.8c-0.1-2.6-0.1-5.3-0.1-7.8c0-20,2.8-41.8,9.6-67.2c0.7-2.6,1.6-7.2,2.6-11.9c-15.3,7.4-44,60.6-46.3,92.7
							c-0.4,0.1-0.5,0.1-1.6,0.1c-5,0-14.4-3.6-15.4-5.9c-0.1-2.6-0.1-5.3-0.1-7.8c0-20,2.8-41.8,9.6-67.2c0.7-2.4,1.6-6.6,2.4-11.1
							c-12.8,10.1-43.4,60.9-46.4,92.2c-8.6-2.6-11.5-4.7-11.5-8.4c0-6.5,8.2-24.2,20.9-47.1c14.4-26.2,27.5-47,40.1-54.1
							c5,0,18.6,5.9,19.3,8.4c-4.9,10-14.7,42.9-18.4,69.4C558.1,451,583.7,411.8,595.8,403 M595.8,397.4c-1.2,0-2.3,0.4-3.3,1.1
							c-8.1,5.8-21.2,23.4-33.1,43.2c3.4-12.4,7-23,9.4-27.9c0.6-1.2,0.7-2.6,0.4-3.9c-0.6-2.3-2.4-4.9-11.2-8.7
							c-2.6-1.1-9.1-3.7-13.5-3.7c-1,0-1.9,0.3-2.8,0.7c-13.5,7.7-26.6,28.1-42.2,56.3c-21.6,39.1-21.6,47.1-21.6,49.8
							c0,9.1,9.7,12,15.5,13.7c0.5,0.2,1,0.2,1.6,0.2c1.1,0,2.2-0.3,3.1-1c1.4-0.9,2.3-2.4,2.4-4.1c2-20.8,17.1-50.9,29.9-70.3
							c-4.5,19.8-6.6,38.2-6.6,55.9c0,2.7,0,5.4,0.1,8.1c0,0.6,0.2,1.3,0.4,1.8c2.4,5.8,15.4,9.4,20.5,9.4c1.3,0,2.1,0,3.4-0.4
							c2.1-0.7,3.6-2.6,3.8-4.9c1.7-23.2,17.7-57.1,31-75.5c-5.3,21.9-7.9,42.1-7.9,61.5c0,2.7,0,5.4,0.1,8.1c0.1,1,0.4,1.9,0.9,2.8
							c3.9,5.9,16.9,8.3,21.7,8.3c1.5,0,3-0.6,4-1.7c1.1-1.1,1.6-2.6,1.5-4.1c-0.3-4.7-0.3-9-0.3-13.2c0-26.3,6.4-66.1,16.8-84.7
							c0.7-1.3,0.9-2.8,0.5-4.2c-0.6-2.3-2.4-4.9-11.2-8.7C606.7,400,600.2,397.4,595.8,397.4L595.8,397.4z"/>
					</g>
				</g>
				<g>
					<g>
						<path fill="#FFFFFF" d="M623.3,508.1c-8.2-0.3-13.9-8.2-13.9-19.1c0-21.6,20.5-50.3,36.6-51.2c0.1,0,0.1,0,0.2,0
							c0.2,0,0.5,0,0.7,0.1c3.4,0.9,8.5,5.3,10.9,9.5c0.1-0.2,0.2-0.5,0.3-0.7c0.5-1,1.4-1.6,2.5-1.6c3.8,0,9.4,2.2,11.5,4.6
							c1.1,1.2,1.3,2.4,1.2,3.1c0,0.3-0.1,0.7-0.3,1c-7.3,15.1-12,30.4-12,39c0,4,0.8,6.7,2.1,7.4c0.9,0.5,1.4,1.4,1.4,2.4
							s-0.5,1.9-1.3,2.4c-2.6,1.6-7,2.9-10.2,2.9c-3.8,0-10.1-1.7-10.1-12.8c0-0.7,0-1.4,0.1-2.1c-6.4,8.4-13.4,14.2-19.3,15.1
							C623.6,508.1,623.4,508.1,623.3,508.1C623.3,508.1,623.3,508.1,623.3,508.1z M654.1,454.6c-12.6,4.3-27.1,24.9-27.1,39.3
							c5.5-2.7,12.9-14.3,18.2-23C647.7,466.6,651,460.6,654.1,454.6z"/>
					</g>
					<g>
						<path fill="#0B0B57" d="M646.2,440.5c3.6,0.9,9.7,7.3,10.1,10.7c-14.4,2.3-32.1,26.2-32.1,42.8c0,1.9,0.7,2.8,1.9,3.2
							c5.3-1.1,11.7-8.6,21.5-24.8c3.8-6.3,9.2-16.5,13.1-24.6c3.8,0,10.1,3,10,4.7c-7.3,15.1-12.3,31-12.3,40.2
							c0,5,1.1,8.5,3.5,9.8c-2.2,1.4-6.1,2.4-8.8,2.4c-4.9,0-7.3-3.2-7.3-10c0-5,1.8-12.3,5.1-21c-7.3,16.5-19.2,30-27.5,31.3
							c-6.6-0.3-11.2-7-11.2-16.3C612.2,468.9,631.6,441.3,646.2,440.5 M646.2,434.9c-0.1,0-0.2,0-0.3,0
							c-8.7,0.5-18.4,7.5-26.7,19.3c-7.9,11.2-12.6,24.1-12.6,34.7c0,12.5,6.8,21.5,16.5,21.9c0.1,0,0.1,0,0.2,0
							c0.3,0,0.6,0,0.9-0.1c5.6-0.9,11.3-5,16.5-10.7c1,4.7,4,10.5,12.3,10.5c3.8,0,8.7-1.4,11.7-3.3c1.7-1,2.7-2.9,2.6-4.9
							c-0.1-1.9-1.1-3.7-2.7-4.6c-0.3-0.4-0.8-1.9-0.8-5.1c0-8.1,4.7-23.2,11.7-37.8c0.3-0.6,0.5-1.3,0.5-2c0.1-1.3-0.2-3.3-2-5.2
							c-2.7-2.9-9-5.5-13.6-5.5c-0.9,0-1.8,0.2-2.6,0.6c-3-3.7-7.2-6.9-10.5-7.7C647.1,435,646.6,434.9,646.2,434.9L646.2,434.9z
							 M630.9,486.8c2.5-8.7,9-18.5,15.9-24.5c-1.5,2.7-2.9,5.1-4.1,7.2C637.5,478.2,633.7,483.6,630.9,486.8L630.9,486.8z"/>
					</g>
				</g>
				<g>
					<g>
						<path fill="#FFFFFF" d="M670.5,554.6c-9.9,0-20.5-4.9-23.5-10.8c-0.2-0.4-0.3-0.8-0.3-1.3c0-2.6,2.1-4.4,2.7-4.9
							c0.5-0.4,1.2-0.7,1.8-0.7s1.3,0.2,1.8,0.7c4.3,3.7,4.8,3.8,7.8,3.8c15.4,0,29-15.7,38.2-43.5c-4.1,3-8.7,5.8-11.8,7.1
							c-0.3,0.1-0.7,0.2-1,0.2c-0.2,0-0.3,0-0.5,0c-7.5-1.3-13.1-9.9-13.1-19.9c0-22.6,25.8-50.4,46.8-50.4
							c7.6,0,11.7,3.3,13.2,10.8c0.2,1.1-0.2,2.2-1.1,2.8c-0.5,0.4-1.1,0.5-1.6,0.5s-1-0.1-1.4-0.4c-0.4-0.2-1.3-0.4-2.4-0.4
							c-0.6,0-1.2,0.1-1.9,0.3c5,0.3,9.8,2,11.9,4c0.8,0.8,1,2,0.6,3.1c-6.2,14.4-9.6,23.5-12.1,30.2c-9.6,25.9-16.4,42.7-29.7,57.4
							C687.8,551,677.3,554.6,670.5,554.6z M721.6,449.4c-11.5,5.5-30.3,28.5-32.5,43.1c3.3-2.2,8.9-7,14.3-13.1
							c7.1-8,13.9-19.2,17.7-29.2C721.3,449.9,721.4,449.6,721.6,449.4z"/>
					</g>
					<g>
						<path fill="#0B0B57" d="M719.3,437.5c6.2,0,9.2,2.3,10.5,8.6c-0.9-0.5-2.4-0.8-3.8-0.8c-13,0-39.9,33.2-39.9,49.8
							c0,1.2,0.3,1.4,0.5,1.4c3.1,0,12.1-7.7,18.9-15.3c7.7-8.6,14.4-20.1,18.2-30.1c4.9,0.3,9,1.9,10.4,3.2
							c-6.1,14-9.4,23.1-12.1,30.4c-9.6,25.9-16.2,42.2-29.1,56.5c-6.2,6.9-15.9,10.5-22.4,10.5c-8.8,0-18.5-4.3-21-9.3
							c0-1.1,0.8-2,1.8-2.8c4.5,3.8,5.7,4.4,9.6,4.4c18.6,0,34.3-20.2,43.6-54.5c-4.2,4.5-13.5,10.8-18.2,12.7
							c-6.1-1.1-10.8-8.6-10.8-17.1C675.3,464.3,700.1,437.5,719.3,437.5 M719.3,432c-22.2,0-49.6,29.3-49.6,53.2
							c0,11.3,6.6,21.1,15.4,22.6c0.3,0.1,0.6,0.1,1,0.1c0.7,0,1.4-0.1,2.1-0.4c1.5-0.6,3.4-1.6,5.3-2.7
							c-8.6,21.7-20.1,33.8-32.8,33.8c-2.2,0-2.3,0-6-3.1c-1-0.9-2.3-1.3-3.6-1.3s-2.6,0.4-3.6,1.3c-2.5,2.1-3.7,4.5-3.7,7.1
							c0,0.9,0.2,1.8,0.6,2.5c4,7.7,16.3,12.3,26,12.3c7.4,0,18.9-3.9,26.5-12.4c13.7-15.1,20.5-32.1,30.2-58.3
							c2.5-6.7,5.8-15.8,12-30.1c0.9-2.1,0.4-4.5-1.2-6.2c-0.8-0.8-1.8-1.5-3.1-2.1c0.4-1,0.5-2.2,0.3-3.3
							C733.4,436.3,728.2,432,719.3,432L719.3,432z M694.9,484.2c2.4-5.2,6.2-11,10.7-16.7c3.2-3.9,6.3-7.2,9.2-9.8
							c-3.7,7.2-8.4,14.3-13.3,19.8C699.2,480,697,482.3,694.9,484.2L694.9,484.2z"/>
					</g>
				</g>
				<g>
					<g>
						<path fill="#FFFFFF" d="M791.3,509c-13.2-1.2-24-14.9-24-30.4c0-22.1,19.5-43,40-43c10.9,0,17.4,6.1,17.4,16.3
							c0,9.8-6.3,19.1-13,19.1c-3.1,0-6.3-1.9-8.4-4.9c-0.8-1.1-0.6-2.7,0.4-3.6c5.4-4.9,8.1-9.3,8.1-12.9c0-0.7-0.1-1-0.2-1.1
							c0,0-0.1,0-0.2,0c-2.4,0-7.8,3.2-12.5,8.4c-7.3,8.2-11.2,18.2-11.2,29c0,5.2,0.9,8.8,2.6,10.2c4.5-0.9,13-4.9,21.1-10.9
							c0.5-0.4,1.1-0.5,1.7-0.5c0.6,0,1.2,0.2,1.7,0.6c1.3,1.1,2.4,3.2,2.4,4.9c0,0.6-0.2,1.2-0.6,1.7c-6.4,7.9-17.9,16-24.8,17.2
							c-0.2,0-0.3,0-0.5,0C791.4,509,791.3,509,791.3,509z"/>
					</g>
					<g>
						<path fill="#0B0B57" d="M807.3,438.4c9.3,0,14.6,4.9,14.6,13.5c0,8.2-5.1,16.3-10.3,16.3c-2.2,0-4.6-1.5-6.1-3.6
							c6.1-5.5,9-10.5,9-15c0-2.6-1.1-3.9-3.1-3.9c-3.5,0-9.6,3.8-14.6,9.3c-7.7,8.6-11.9,19.4-11.9,30.9c0,7.3,1.6,11.6,4.9,13.1
							c5.3-0.7,15-5.4,23.3-11.6c0.7,0.5,1.4,1.9,1.4,2.7c-5.9,7.4-17,15.1-23.1,16.2c-11.9-1.1-21.5-13.5-21.5-27.7
							C770,458.2,788.4,438.4,807.3,438.4 M807.3,432.8c-22,0-42.8,22.3-42.8,45.8c0,17,11.9,31.9,26.5,33.2c0.2,0,0.3,0,0.5,0
							c0.3,0,0.7,0,1-0.1c8.3-1.5,20.4-10.6,26.4-18.2c0.8-1,1.2-2.2,1.2-3.5c0-2.5-1.5-5.5-3.4-7c-1-0.8-2.2-1.2-3.5-1.2
							c-1.2,0-2.3,0.4-3.3,1.1c-6.7,5-13.9,8.6-18.4,10c-0.5-1.1-1-3.2-1-7c0-10.1,3.6-19.5,10.5-27.2c2.6-2.8,5.1-4.8,7.1-6
							c-0.9,1.9-2.8,4.5-6.4,7.8c-2.1,1.9-2.4,5-0.8,7.3c2.6,3.7,6.7,6.1,10.7,6.1c7.5,0,15.8-9,15.8-21.9
							C827.4,440.1,819.7,432.8,807.3,432.8L807.3,432.8z"/>
					</g>
				</g>
				<g>
					<g>
						<path fill="#FFFFFF" d="M747.4,507.5c-2.6,0-12.6-4.4-12.6-14.3c0-3.5,1.2-10.4,4.7-26.2c0.7-3.1,4.7-18.7,14.3-23.5
							c0.4-0.2,0.8-0.3,1.2-0.3c0.2,0,0.4,0,0.6,0.1c3.6,0.8,10.3,4.2,14.2,10.1c0.7,1.1,0.6,2.5-0.2,3.4
							c-6.4,7.1-9.1,14.7-12.4,23.5c-0.7,2-1.5,4.1-2.4,6.3c-1.7,4.6-3.7,10.3-3.9,13.8C751,504,751,507.5,747.4,507.5z M772.6,453
							c-2.2,0-3.7-1.4-3.8-3.5c0-2-0.1-4-0.2-6.1c-0.3,0.4-0.6,0.8-0.9,1.3c-0.2,0.3-0.5,0.5-0.8,0.7c-0.7,0.4-1.4,0.6-2.2,0.6
							s-1.5-0.2-2.2-0.6c-1.3-0.6-1.8-1.6-2-2.3c-0.3-0.9-0.1-1.9,0.4-2.7c0.5-0.7,1-1.4,1.4-2.1c-3.4,1.1-6.9,2.1-10.5,2.9
							c-0.2,0-0.4,0.1-0.6,0.1c-0.2,0-0.3,0-0.5,0c-2.6-0.4-3.9-3.5-4-3.9c-0.5-1.3-0.5-2.4,0-3.4c0.4-0.9,1.2-1.6,2.3-1.9
							c1.6-0.4,3.1-0.8,4.7-1.3c-0.6-0.7-0.8-1.6-0.6-2.5c0.2-1.1,0.8-2.2,1.7-3.2s2.8-2.1,4.5-2.1c0.4,0,0.7,0,1,0.1
							c0.5,0.1,3.3,0.4,4.6,0.5c0.1,0,0.3,0,0.4,0c-1.4-5.8-3.1-11.4-4.9-16.5c-0.1-0.3-0.1-0.5-0.2-0.8c-0.1-2.5,1.4-4.4,3.8-4.5
							c0.1,0,0.2,0,0.3,0c1.3,0,2.6,0.4,3.9,1.1c1.1,0.6,2.3,1.5,3.5,2.6c1.5,1.4,2.5,3,2.8,4.7c0.2,0.9,0.4,1.8,0.5,2.7
							c0.5-0.7,1.3-1.3,2.6-1.3c0.6,0,1.2,0.2,1.7,0.5c0.9,0.6,1.7,1.5,2.3,2.8c0.3,0.6,0.5,1.4,0.6,2.4c2-1.2,3.9-2.4,5.7-3.6
							c0.2-0.2,0.5-0.3,0.7-0.3c0.5-0.2,1-0.2,1.5-0.2c1.8,0,3.3,1.1,3.8,2.9c0.4,1.3,0.4,2.8-0.1,4.4c-0.4,1.5-1.4,3.2-2.8,4.6
							c-0.9,0.9-2,1.6-3,2.1c0.2,0.1,0.3,0.2,0.5,0.3c1.2,0.9,1.8,2.3,1.7,4c-0.2,2.4-1.9,3.4-3.4,3.4l0,0c-0.2,0-0.5,0-0.7-0.1
							c-2.8-0.7-5.8-1.1-8.8-1.4c0.3,5,0.3,10.3,0.3,15.7c0,0.4-0.1,0.7-0.2,1.1c-0.7,1.6-2.1,2.6-4,2.9
							C773.1,453,772.8,453,772.6,453z"/>
					</g>
					<g>
						<path fill="#0B0B57" d="M764.3,404.6c0.8,0,1.6,0.2,2.5,0.8c1,0.5,2,1.3,3,2.3c1.1,1,1.7,2,2,3.2c0.8,3.5,1.4,7.3,1.9,11.4
							c1-2,2-3.9,3.1-6.4c0.2-0.6,0.5-1.4,0.9-1.4c0.1,0,0.1,0,0.2,0.1c0.5,0.3,0.9,0.9,1.3,1.6c0.4,0.7,0.5,2.3,0,3
							c-0.5,0.6-1.7,3-2.6,4.7c4.6-2.5,8.9-5.1,13-7.8c0.3-0.1,0.5-0.1,0.7-0.1c0.6,0,1,0.3,1.1,0.9c0.2,0.8,0.2,1.7-0.1,2.8
							c-0.3,1.1-1.1,2.3-2.1,3.3c-1.1,1.1-2.9,1.9-4,2.4c-1.8,0.9-3.6,1.8-5.4,2.7c1.9,0.3,4.2,0.8,7.1,1.5c0.4,0.3,0.6,0.8,0.6,1.5
							c0,0.6-0.3,0.9-0.7,0.9c-0.1,0-0.1,0-0.2,0c-3.6-0.9-7.5-1.4-11.7-1.7c-0.2,0.1-0.4,0.2-0.6,0.3c0.4,5.7,0.5,11.8,0.4,18.4
							c-0.3,0.7-0.9,1.1-1.8,1.2c-0.2,0-0.3,0-0.4,0c-0.7,0-1-0.3-1-0.8c0-4.5-0.4-9.1-1.1-13.9c-1.2,2-2.7,4.4-5.1,7.6
							c-0.2,0.1-0.5,0.2-0.7,0.2c-0.3,0-0.6-0.1-0.9-0.3c-0.6-0.3-0.8-0.7-0.5-1.1c1.9-2.7,3.6-5.6,5.3-8.8
							c-5.1,2-10.7,3.9-17.3,5.4c-0.7-0.1-1.6-1.3-1.9-2.1c-0.3-0.9-0.2-1.4,0.5-1.6c4.8-1.2,9.7-2.9,14.7-5.1
							c-2.2-0.2-4.2-0.4-6.7-0.4c-0.1,0-0.2,0-0.3,0h-0.1c-0.1,0-0.1,0-0.2,0c-0.7,0-1.4,0-1.3-0.6c0.1-0.6,0.4-1.2,1-1.8
							c0.5-0.5,1.6-1.2,2.4-1.2c0.1,0,0.2,0,0.3,0c1,0.3,5.7,0.7,6.8,0.8c0.9,0.1,1.7,0.2,2.5,0.3c-1.6-7.3-3.6-14.2-5.9-20.7
							c-0.1-1,0.3-1.6,1.2-1.6C764.1,404.6,764.2,404.6,764.3,404.6 M754.9,446c3,0.7,9,3.6,12.5,8.9c-8.2,9.2-10.7,18.8-15.3,30.6
							c-1.9,5-3.9,10.8-4,14.7c0,3.2,0,4.5-0.8,4.5c-1.4,0-9.9-3.5-9.9-11.5c0-3.1,1.1-9.4,4.6-25.6
							C742.9,464.1,746.8,450.1,754.9,446 M764.3,399L764.3,399c-0.2,0-0.3,0-0.5,0c-3.9,0.2-6.7,3.3-6.5,7.4c0,0.6,0.1,1.1,0.3,1.6
							c1.4,3.9,2.7,8,3.9,12.4c-0.3,0-0.5-0.1-0.7-0.1c-0.5-0.1-1.1-0.2-1.6-0.2c-2.6,0-5.2,1.5-6.5,3c-1.3,1.4-2.1,3-2.4,4.6
							c-0.1,0.4-0.1,0.7-0.1,1.1c-0.6,0.2-1.2,0.3-1.8,0.5c-0.1,0-0.2,0-0.2,0.1c-1.8,0.5-3.2,1.7-4,3.3c-0.6,1.2-1.1,3.1-0.1,5.7
							c0.3,0.7,1.7,3.9,4.7,5.1c-8,6.8-11.4,20-12.1,22.8c-4,18.4-4.7,23.6-4.7,26.9c0,11.1,10.9,17,15.4,17c2.7,0,5.7-1.8,6.2-5.8
							c0.2-1.1,0.2-2.3,0.2-4.1c0.2-3.5,2.7-10.3,3.7-12.8c0.8-2.2,1.6-4.3,2.4-6.3c3.2-8.9,5.8-15.8,11.8-22.6
							c0.8-0.8,1.2-1.9,1.4-2.9c0.2,0,0.5,0,0.7-0.1c2.8-0.4,5.1-2,6.2-4.5c0.3-0.7,0.4-1.4,0.5-2.1c0.1-4.3,0-8.6-0.1-12.6
							c1.8,0.3,3.5,0.6,5.1,1c0.1,0,0.2,0,0.3,0.1c0.4,0.1,0.8,0.1,1.2,0.1c2.8,0,5.9-2.1,6.2-6c0.1-1.4-0.1-2.8-0.7-3.9
							c0.2-0.2,0.5-0.4,0.7-0.6c1.8-1.7,3.1-3.8,3.6-5.9c0.6-2.1,0.6-4.1,0-5.9c-0.9-2.9-3.4-4.8-6.5-4.8c-0.7,0-1.5,0.1-2.3,0.4
							c-0.5,0.2-1,0.4-1.5,0.7c-0.8,0.6-1.7,1.1-2.6,1.7c-0.8-1.4-1.8-2.5-3.1-3.3c-0.9-0.6-2-0.9-3.1-0.9c-0.2,0-0.4,0-0.6,0
							c-0.6-2-1.7-3.8-3.5-5.4c-1.4-1.3-2.8-2.3-4.1-3C767.8,399.5,766,399,764.3,399L764.3,399z"/>
					</g>
				</g>
			</g>
		</g>
		<g>
			<g>
				<g>
					<g>
						<path fill="#F0FBFF" d="M336.6,526.7c0.2,3.1-2.2,5.7-5.3,5.8l-79.7,3.9c-3.1,0.1-5.7-2.2-5.8-5.3l-3.7-76
							c-0.1-3.1,2.2-5.7,5.3-5.8l79.7-3.9c3.1-0.1,5.7,2.2,5.8,5.3L336.6,526.7z"/>
					</g>
					<g>
						<path fill="#292978" d="M251.3,538.2c-4,0-7.2-3.1-7.4-7.1l-3.7-76c-0.1-2,0.6-3.9,1.9-5.3c1.3-1.5,3.2-2.3,5.1-2.4l80.1-3.9
							c4,0,7.2,3.1,7.4,7.1l3.7,76c0.1,2-0.6,3.9-1.9,5.3c-1.3,1.5-3.2,2.3-5.1,2.4L251.3,538.2z M327.3,447.2l-79.9,3.9
							c-1,0-1.9,0.5-2.6,1.2c-0.7,0.7-1,1.7-1,2.7l3.7,76c0.1,1.9,1.8,3.5,3.7,3.5h0.2l79.7-3.9c1,0,1.9-0.5,2.6-1.2s1-1.7,1-2.7
							l-3.7-76C330.9,448.8,329.3,447.2,327.3,447.2z"/>
					</g>
				</g>
				<g>
					<g>
						<path fill="#CEE5ED" d="M302,467.5c4.2-11.6,17.2,0.7,13.8,5.9C311.4,480.4,298.8,476.4,302,467.5z"/>
						<path fill="#292978" d="M309.2,478.4c-3.1,0-6.1-1.4-7.7-3.7c-1.5-2.1-1.8-4.8-0.7-7.6c1.8-5,5-5.7,6.8-5.7
							c3.8,0,7.5,3.2,9.2,6.3c1.3,2.5,1.4,4.9,0.3,6.6C315.3,476.9,312.4,478.4,309.2,478.4z M307.5,464.1c-1.9,0-3.3,1.3-4.2,3.9
							c-0.7,1.9-0.6,3.7,0.4,5c1.1,1.6,3.2,2.5,5.4,2.5c2.3,0,4.4-1.1,5.6-2.9c0.6-0.9,0.4-2.2-0.4-3.8
							C313,466.6,310.1,464.1,307.5,464.1z"/>
					</g>
					<g>
						<path fill="#CEE5ED" d="M283.8,488c4.2-11.6,17.2,0.7,13.8,5.9C293.1,500.9,280.5,496.9,283.8,488z"/>
						<path fill="#292978" d="M290.9,498.9c-3.1,0-6.1-1.4-7.7-3.7c-1.5-2.1-1.8-4.8-0.7-7.6c1.8-5,5-5.7,6.8-5.7
							c3.8,0,7.5,3.2,9.2,6.3c1.3,2.5,1.4,4.9,0.3,6.6C297.1,497.4,294.2,498.9,290.9,498.9z M289.3,484.6c-1.9,0-3.3,1.3-4.2,3.9
							c-0.7,1.9-0.6,3.7,0.4,5c1.1,1.6,3.2,2.5,5.4,2.5c2.3,0,4.4-1.1,5.6-2.9c0.6-0.9,0.4-2.2-0.4-3.8
							C294.8,487.1,291.9,484.6,289.3,484.6z"/>
					</g>
					<g>
						<path fill="#CEE5ED" d="M265.5,508.9c4.2-11.6,17.3,0.7,13.8,5.9C274.8,521.8,262.3,517.8,265.5,508.9z"/>
						<path fill="#292978" d="M272.6,519.8c-3.1,0-6.1-1.4-7.7-3.7c-1.5-2.1-1.7-4.8-0.7-7.6c1.8-5,5-5.7,6.8-5.7
							c3.8,0,7.5,3.2,9.2,6.3c1.3,2.5,1.4,4.9,0.3,6.6C278.8,518.2,275.9,519.8,272.6,519.8z M271,505.5c-1.9,0-3.3,1.3-4.2,3.9
							c-0.7,1.9-0.6,3.7,0.4,5c1.1,1.6,3.2,2.5,5.4,2.5c2.3,0,4.4-1.1,5.6-2.9c0.6-0.9,0.4-2.2-0.4-3.8
							C276.5,507.9,273.6,505.5,271,505.5z"/>
					</g>
				</g>
			</g>
			<g>
				<g>
					<g>
						<path fill="#F0FBFF" d="M268.6,512.2c-0.8,2.9-4,4.7-6.9,3.8L185,493.8c-2.9-0.8-4.7-4-3.8-6.9l21.1-73.1
							c0.8-2.9,4-4.7,6.9-3.8l76.7,22.2c2.9,0.9,4.7,4,3.8,6.9L268.6,512.2z"/>
					</g>
					<g>
						<path fill="#292978" d="M263.2,518.1c-0.7,0-1.4-0.1-2.1-0.3l-76.7-22.2c-1.9-0.6-3.5-1.8-4.4-3.6c-1-1.7-1.2-3.7-0.6-5.6
							l21.1-73.1c0.9-3.2,3.9-5.4,7.1-5.4c0.7,0,1.4,0.1,2.1,0.3l76.7,22.2c1.9,0.6,3.5,1.8,4.4,3.6c1,1.7,1.2,3.7,0.6,5.6
							l-21.1,73.1C269.5,515.9,266.5,518.1,263.2,518.1z M207.7,411.6c-1.7,0-3.1,1.1-3.6,2.7L183,487.4c-0.3,0.9-0.2,1.9,0.3,2.8
							s1.3,1.5,2.2,1.8l76.7,22.2c1.9,0.6,4-0.6,4.6-2.5l21.1-73.1c0.3-0.9,0.2-1.9-0.3-2.8s-1.3-1.5-2.2-1.8l-76.7-22.2
							C208.4,411.7,208,411.6,207.7,411.6z"/>
					</g>
				</g>
				<g>
					<g>
						<path fill="#CEE5ED" d="M216.2,437.1c7.7-9.6,16.1,6.3,11.2,10.1C220.9,452.3,210.3,444.5,216.2,437.1z"/>
						<path fill="#292978" d="M222.7,450.2c-3.7,0-7.3-2.2-8.8-5.4c-1.3-2.8-0.9-5.9,1.3-8.6c2.4-2.9,4.7-3.6,6.3-3.6
							c3.9,0,7,3.7,8.2,7.3c1.2,3.5,0.7,6.7-1.4,8.3C226.7,449.6,224.7,450.2,222.7,450.2z M221.4,435.5c-1.4,0-2.7,0.9-4.1,2.5
							c-1.9,2.4-1.6,4.4-0.9,5.7c1.1,2.2,3.7,3.8,6.3,3.8c1.4,0,2.8-0.5,3.9-1.3c1.1-0.8,1.2-2.9,0.4-5.2
							C226.1,438.2,223.9,435.5,221.4,435.5z"/>
					</g>
					<g>
						<path fill="#CEE5ED" d="M251.8,445.8c7.7-9.6,16.1,6.3,11.2,10.1C256.5,460.9,245.9,453.1,251.8,445.8z"/>
						<path fill="#292978" d="M258.3,458.9c-3.7,0-7.3-2.2-8.8-5.4c-1.3-2.8-0.9-5.9,1.3-8.6c2.4-2.9,4.7-3.6,6.3-3.6
							c3.9,0,7,3.7,8.2,7.3c1.2,3.5,0.7,6.7-1.3,8.3C262.3,458.2,260.3,458.9,258.3,458.9z M257,444.1c-1.4,0-2.7,0.8-4.1,2.5
							c-1.9,2.4-1.6,4.4-1,5.7c1.1,2.2,3.7,3.8,6.3,3.8c1.4,0,2.8-0.5,3.9-1.3c1-0.8,1.2-2.9,0.4-5.2
							C261.7,446.8,259.4,444.1,257,444.1z"/>
					</g>
					<g>
						<path fill="#CEE5ED" d="M207.9,473.4c7.7-9.6,16.1,6.3,11.2,10.1C212.5,488.6,201.9,480.8,207.9,473.4z"/>
						<path fill="#292978" d="M214.3,486.6c-3.7,0-7.3-2.2-8.8-5.4c-1.3-2.8-0.9-5.9,1.3-8.6c2.4-2.9,4.7-3.6,6.3-3.6
							c3.9,0,7,3.7,8.2,7.3c1.2,3.5,0.7,6.7-1.3,8.3C218.3,485.9,216.3,486.6,214.3,486.6z M213,471.8c-1.4,0-2.7,0.9-4.1,2.5
							c-1.9,2.4-1.6,4.4-0.9,5.7c1.1,2.2,3.7,3.8,6.3,3.8c1.4,0,2.8-0.5,3.9-1.3c1-0.8,1.2-2.9,0.4-5.2
							C217.7,474.5,215.5,471.8,213,471.8z"/>
					</g>
					<g>
						<path fill="#CEE5ED" d="M241.6,482.1c7.7-9.6,16.1,6.3,11.2,10.1C246.3,497.3,235.7,489.5,241.6,482.1z"/>
						<path fill="#292978" d="M248,495.2c-3.7,0-7.3-2.2-8.8-5.4c-1.3-2.8-0.9-5.9,1.3-8.6c2.4-2.9,4.7-3.6,6.3-3.6
							c3.9,0,7,3.7,8.2,7.3c1.2,3.5,0.7,6.7-1.3,8.3C252,494.5,250.1,495.2,248,495.2z M246.8,480.4c-1.4,0-2.7,0.8-4.1,2.5
							c-1.9,2.4-1.6,4.4-1,5.7c1.1,2.2,3.7,3.8,6.3,3.8c1.4,0,2.8-0.5,3.9-1.3c1-0.8,1.2-2.9,0.4-5.2
							C251.4,483.2,249.2,480.4,246.8,480.4z"/>
					</g>
				</g>
			</g>
		</g>
		<g>
			<g>
				<g>
					<path fill="#F0FBFF" d="M804.3,385.7c-0.7,0-1.4-0.1-2-0.3c-0.5-0.2-0.9-0.6-0.9-1.1c0-0.1-1.4-9.8-3.4-14.5
						c-1-2.3-1.8-5.1-1.9-7.7c-1.2,4-4.3,7.9-9.4,11.8c-3.4,2.6-7.2,4-11.1,4c-12.3,0-22.3-12.9-22.8-13.5c-0.4-0.5-0.4-1.2,0-1.7
						c0.3-0.3,0.7-0.5,1.1-0.5c0.2,0,0.4,0,0.6,0.1c0,0,4,2,8.6,2c5.9,0,10-3.3,12.2-9.7c4-11.9,12.1-13.7,16.5-13.7
						c1.1,0,2.2,0.1,3,0.3c1.7-3.1,5.2-5.8,10.2-7.9c0.6-0.4,5.2-3.4,6.9-7.1c-0.5,0-1-0.1-1.5-0.1c-3.2,0-14.5,1-27.2,13.7
						c-6.1,6.1-14.7,9.2-25.4,9.2c-9.3,0-16.8-2.4-17.1-2.5c-0.5-0.2-0.8-0.5-0.9-1c-0.1-0.5,0-1,0.3-1.3l21.3-22.7
						c0.3-0.3,0.6-0.4,1-0.4c0.2,0,0.4,0,0.6,0.1c1,0.5,1.9,0.9,2.7,1.3c2.2,1.1,3.6,1.8,5.4,1.8c2.4,0,5.9-1.4,12.7-5.1
						c4.2-2.3,9.1-3.5,14.6-3.5c2,0,4.1,0.2,6.3,0.5c-5.4-4.6-11.3-11.2-12.8-18.2c-2.7,2.6-7.6,6.5-11.9,6.5
						c-0.5,0-1.1-0.1-1.6-0.2c-3.9-1-6.8-3.7-7-6.6c-0.2-2.1,0.9-5.2,6.8-7.7c0.2-0.1,0.4-0.1,0.5-0.1h3.9
						c-2.2-2.6-5.2-6.9-4.8-10.6c0.2-1.8,1.2-3.4,3-4.4c1.6-0.9,3.1-1.4,4.5-1.4c2.4,0,4,1.3,5.1,2.7c0.9-2.9,2.4-7.3,4.9-11.8
						c5.8-10.6,14-17.2,23.7-19c4.3-0.8,7.6-1.2,9.9-1.2c1.1,0,4,0,4.6,2c0.2,0.8-0.1,1.7-0.7,2.5c1.9-0.2,4.1-0.4,6.5-0.4
						c3.7,0,6.9,0.4,9.5,1.3c4.2,1.4,4.3,4.3,4.1,5.4c-0.6,3.9-6.5,8.4-13.9,9.7c3.1,2.5,7.3,6.9,7.9,13.5c1.3-0.7,3-1.3,4.8-1.3
						c2,0,4.7,0.8,6.5,4.7c0.1,0.1,0.1,0.3,0.1,0.4c0,0.2,0.5,5.5-2.9,9.2c-2.1,2.3-5.2,3.5-9.1,3.5c-1.7,0-3.6-0.2-5.7-0.7
						c1,2.8,2.8,6.7,5.1,8.2c0.3,0.2,0.6,0.6,0.6,1c0,0.3,0.1,1.7-1.2,3.4c-2,2.4-5.9,4.1-11.6,4.9c1.6,2,3.9,5.5,5.5,9.7
						c4.4-3.4,13.8-10,20.1-10c0.8,0,1.4,0.6,1.4,1.4c0,5.6,0.5,12.3,1.2,13.4c0.3,0.4,0.3,1,0.1,1.5c-0.2,0.4-0.7,0.7-1.2,0.7
						c0,0,0,0-0.1,0c0,0-0.5,0-1.3,0c-2.8,0-12.1,0.3-18.4,4c-0.1,0.7-0.2,1.4-0.3,2.1c1.1-0.3,2.8-0.5,4.7-0.5
						c4.9,0,9.3,1.7,12.7,4.8c0.5,0.4,0.6,1.1,0.3,1.7c0,0.1-4.9,9.2-6.3,13.3c-0.2,0.5-0.6,0.9-1.1,0.9c-0.1,0-0.1,0-0.2,0
						c-0.5,0-0.9-0.2-1.2-0.6c-0.1-0.1-6.3-9.5-14.2-9.5c0,0,0,0-0.1,0c-1.4,1.5-3.1,2.9-5,4.2c-0.5,0.5-2.9,2.7-6.2,5.2
						c-2.4,3.9-2.5,5.9-2.2,6.2c1.7,1.7,10.7,8.1,14,10.5c0.4,0.3,0.6,0.7,0.6,1.1c0,0.5-0.2,0.9-0.6,1.1l-12.1,8.5
						c-0.2,0.2-0.5,0.3-0.8,0.3c-0.4,0-0.8-0.2-1.1-0.5l-12.5-16c-0.8-0.4-1.6-1.1-1.7-2.3c0-0.1,0-0.1,0-0.2
						c-0.4,0.2-0.8,0.4-1.2,0.6c0.6,1,1.6,2.6,3.4,4.8c3.6,4.3,7.7,11.2,7.9,11.5c0.4,0.7,0.2,1.5-0.5,1.9
						C816.6,381.2,809.2,385.7,804.3,385.7z M794.1,351.6c0.7,0.9,2.3,3.2,2.3,6.5c0-0.1,0.1-0.2,0.1-0.2c0.3-0.6,0.7-1.2,1.2-1.6
						c-1.3-1.6-2.7-3.6-3.6-5.9C794.1,350.7,794.1,351.2,794.1,351.6z"/>
				</g>
			</g>
			<g>
				<g>
					<path fill="#292978" d="M828.6,245.4c8,0-1.1,5.4-1.1,5.4s5.4-1.3,11.5-1.3c3,0,6.3,0.3,9.1,1.3c8.5,2.8-1.4,12.8-13.5,12.8
						c0,0,11.3,5.7,10.6,17c0,0,3-2.5,6.1-2.5c1.9,0,3.9,0.9,5.2,3.9c0,0,1,11.2-10.7,11.2c-2.1,0-4.7-0.4-7.7-1.2
						c0,0,2.1,8.5,6.4,11.3c0,0,0.7,5.7-14.2,7.1c0,0,5.2,5.6,7.6,13.1c2.5-2,13.8-10.9,20.8-10.9c0,0,0,12.1,1.4,14.2
						c0,0-0.5,0-1.3,0c-3.5,0-13.2,0.4-19.7,4.5c-0.1,2-0.5,4-1.3,5.9l1.1-1.2c0,0,2.5-0.9,5.9-0.9s7.9,0.9,11.8,4.4
						c0,0-5,9.2-6.4,13.5c0,0-6.6-10.2-15.4-10.2c-0.2,0-0.5,0-0.7,0c-1.4,1.5-3.1,3-5.2,4.5c0,0-2.6,2.6-6.4,5.3
						c-1.3,2.1-3.7,6.5-2.1,8.1c2.1,2.1,14.2,10.6,14.2,10.6l-12.1,8.5l-7.5-9.6l-5.2-6.7c0,0-4.3-1.4,3.5-5.7h0.1v-0.1
						c-1.3,0.5-2.5,0.9-3.8,1.2c-1.4,1.1-3.2,2.3-5.5,3.2c0,0,0.7,2.1,4.3,6.4c3.5,4.3,7.8,11.3,7.8,11.3s-7.3,4.5-11.9,4.5
						c-0.6,0-1.1-0.1-1.6-0.2c0,0-1.4-9.9-3.5-14.9c-1.9-4.5-3.3-11.4,0.8-12.6c-1.7-1.8-4-4.8-4.9-8.1c-0.3-0.2-0.6-0.2-0.9-0.2
						c-1.8,0-1.4,3.9-1.4,3.9s8.5,8.5-7.1,20.6c-3.4,2.7-6.9,3.7-10.3,3.7c-11.7,0-21.7-12.9-21.7-12.9s4.3,2.1,9.2,2.1
						c5,0,10.6-2.1,13.5-10.6c3.6-10.8,10.6-12.7,15.2-12.7c1.6,0,3,0.2,3.8,0.4c1.2-2.9,4.2-5.8,10.1-8.3c0,0,6.9-4.2,8.1-9.5
						c-1-0.2-2.1-0.3-3.4-0.3c-6.8,0-17.5,3.4-28.2,14.1c-6.9,7-16.4,8.8-24.4,8.8c-9.2,0-16.7-2.4-16.7-2.4l21.3-22.7
						c3.9,1.8,5.8,3.2,8.6,3.2c2.7,0,6.3-1.4,13.4-5.3c4.5-2.4,9.3-3.3,13.9-3.3c4.4,0,8.5,0.8,11.7,1.6
						c-5.9-4.3-17.1-13.9-17.1-23.8c0,0-7.4,8.2-13,8.2c-0.4,0-0.8,0-1.2-0.2c-5.7-1.4-9.9-7.5,0-11.7h7.1c0,0-11.3-10.9-4.3-15.2
						c1.4-0.9,2.7-1.2,3.7-1.2c4.1,0,5.5,5.3,5.5,5.3s5.7-29.1,28.4-33.4C823.6,245.7,826.6,245.4,828.6,245.4 M813.4,357.8l0.2-0.1
						C813.6,357.7,813.5,357.7,813.4,357.8L813.4,357.8 M828.6,242.6v2.8V242.6c-2.4,0-5.7,0.4-10.1,1.2
						c-17.8,3.3-25.8,20.3-28.9,29.5c-1.2-0.9-2.6-1.5-4.4-1.5c-1.7,0-3.4,0.5-5.2,1.6c-2.1,1.3-3.4,3.1-3.6,5.4
						c-0.4,3.2,1.4,6.7,3.3,9.4h-1.1c-0.4,0-0.8,0.1-1.1,0.2c-7,3-7.8,7-7.6,9.1c0.3,3.6,3.5,6.7,8,7.9c0.6,0.2,1.2,0.2,1.9,0.2
						c3.9,0,8.1-2.8,11.1-5.4c1.7,5.2,5.5,10,9.5,13.9c-0.8,0-1.5-0.1-2.3-0.1c-5.7,0-10.9,1.2-15.2,3.6c-6.5,3.6-9.9,5-12,5
						c-1.3,0-2.5-0.5-4.7-1.7c-0.8-0.4-1.7-0.8-2.7-1.3c-0.4-0.2-0.8-0.2-1.1-0.2c-0.8,0-1.5,0.3-2,0.9L739.1,343
						c-0.7,0.7-0.9,1.7-0.7,2.6s0.9,1.7,1.8,2c0.3,0.1,8,2.6,17.6,2.6c8.7,0,15.9-2,21.8-5.8c-2.2,2.2-4.2,5.3-5.6,9.7
						c-2,5.9-5.5,8.7-10.8,8.7c-4.2,0-7.9-1.8-8-1.8c-0.4-0.2-0.8-0.3-1.2-0.3c-0.8,0-1.6,0.4-2.2,1c-0.8,1-0.9,2.4-0.1,3.5
						c0.4,0.6,10.9,14,23.9,14c4.3,0,8.3-1.4,12-4.3c3.5-2.7,6.2-5.5,7.9-8.3c0.4,1.6,1,3,1.3,3.7c2,4.6,3.3,14.1,3.3,14.2
						c0.2,1,0.9,1.9,1.9,2.2c0.7,0.2,1.6,0.4,2.5,0.4c5.2,0,12.5-4.4,13.4-4.9s1.3-1.5,1.3-2.4l1.4,1.8c0.5,0.7,1.4,1.1,2.2,1.1
						c0.6,0,1.1-0.2,1.6-0.5l12.1-8.5c0.7-0.5,1.2-1.4,1.2-2.3s-0.4-1.8-1.2-2.3c-4.3-3.1-11.6-8.3-13.5-10.1c0.1-0.7,0.6-2.3,2-4.5
						c3.1-2.3,5.4-4.5,6.1-5.1c1.7-1.2,3.3-2.5,4.7-3.9c6.9,0.4,12.5,8.8,12.5,8.9c0.5,0.8,1.4,1.3,2.3,1.3c0.1,0,0.2,0,0.4,0
						c1.1-0.1,1.9-0.9,2.3-1.9c1.3-4,6.2-12.9,6.2-13c0.6-1.1,0.4-2.5-0.6-3.4c-3.7-3.4-8.4-5.2-13.7-5.2c-0.7,0-1.3,0-1.9,0.1
						c5.9-2.6,13.5-2.9,15.9-2.9c0.7,0,1.2,0,1.2,0h0.1c1,0,1.9-0.5,2.4-1.4s0.5-2-0.1-2.8c-0.6-1.3-1-7.6-1-12.7
						c0-1.5-1.2-2.8-2.8-2.8c-6.1,0-14.4,5.4-19.5,9.2c-1.1-2.5-2.5-4.8-3.7-6.5c4.9-1,8.4-2.7,10.3-5c1.3-1.7,1.7-3.4,1.5-4.5
						c-0.1-0.8-0.5-1.5-1.2-2c-1.4-0.9-2.7-3.1-3.7-5.3c1.2,0.2,2.4,0.3,3.5,0.3c4.4,0,7.8-1.3,10.2-4c3.8-4.2,3.3-10,3.3-10.3
						c0-0.3-0.1-0.6-0.2-0.9c-2.2-4.8-5.8-5.5-7.7-5.5c-1.3,0-2.5,0.3-3.7,0.7c-0.9-4.7-3.5-8.2-6.1-10.7
						c6.4-1.8,11.6-5.9,12.3-10.2c0.2-1.2,0.4-5.2-5-7c-2.8-0.9-6.1-1.4-10-1.4c-1.5,0-3,0.1-4.3,0.2c0.1-0.6-0.1-1-0.1-1.3
						C833.7,242.6,829.9,242.6,828.6,242.6L828.6,242.6z M782.9,341.8c0.4-0.4,0.8-0.7,1.2-1.1c11.2-11.2,21.3-13,25.2-13.2
						c-1.6,2.1-3.9,3.8-5.1,4.5c-4.9,2.1-8.3,4.6-10.3,7.7c-0.7-0.1-1.4-0.1-2.3-0.1C789.4,339.5,786.1,339.9,782.9,341.8
						L782.9,341.8z"/>
				</g>
			</g>
		</g>
	</g>
</g>
</svg>
