<?xml version="1.0" encoding="utf-8"?>
<!-- Generator: Adobe Illustrator 18.0.0, SVG Export Plug-In . SVG Version: 6.00 Build 0)  -->
<!DOCTYPE svg PUBLIC "-//W3C//DTD SVG 1.1//EN" "http://www.w3.org/Graphics/SVG/1.1/DTD/svg11.dtd">
<svg version="1.1" id="Layer_1" xmlns="http://www.w3.org/2000/svg" xmlns:xlink="http://www.w3.org/1999/xlink" x="0px" y="0px"
	 viewBox="200 10 560 540" enable-background="new 200 10 560 540" xml:space="preserve">
<g>
	<path fill="#105A62" d="M328.5,125.9c-0.1-3.4-0.2-6.8-0.2-10.2c0-2.1,0.6-3.9,2.8-4.6c2.1-0.8,3.7,0.3,5.2,1.6
		c1.7,1.4,2.2,3.7,4.3,6.3c0-3.3-0.1-5.4,0-7.6c0.4-4.8,1.8-6,6.6-6.3c5-9,5.4-9.2,17.3-10.3c2.1-3.6,3.5-7.4,4.6-11.3
		c-0.7-1.1-1.7-0.7-2.5-0.7c-12,0.7-24,1.4-36,2c-2.4,0.1-5.1,0.8-6.8-2.3c0.8-2.2,3-3,4.9-4.1c11-6.3,22.5-11.2,34.5-15.2
		c19.1-6.3,38.8-9.6,58.9-10.9c3.5-0.2,7.1-0.6,11.2-0.9c-4.7-3.1-9-6-13.3-8.8c-7.8-5.1-14.2-11.6-20.4-18.5
		c-0.9-1-1.8-2.1-2.3-3.2c-1.2-2.3,0.2-4.2,2.8-4c1.4,0.1,2.4,1,3.5,1.8c5,4.1,10.6,6.8,16.7,9.1c11,4.2,21.9,8.2,33.5,10.5
		c10.2,2.1,20.5,3,30.8,4.3c18.5,2.4,37.3,2.6,55.7,6.1c12.2,2.3,24.6,4.1,36.2,8.9c22.5,9.2,41.4,23,53.4,44.9
		c2.1,3.9,3.6,8.1,5.7,12.7c1.1-1.7,1.9-3,2.7-4.3c3.9-6.5,7.7-13,11.7-19.4c2.7-4.4,2.8-4.3,7.8-3c2.3,0.6,4.7,0.8,7,1.2
		c4.6,0.7,7.8,2.9,9.5,7.6c2.6,7.4,4.9,14.9,7.2,22.4c0.6,2,1.4,3.6,3.7,4.5c3.5,1.4,5.6,4.2,6.4,8c4.4,20.7,9.3,41.4,12.4,62.4
		c4.4,29.7,11.5,58.7,21,87.2c7.9,23.6,16.3,47.1,23.1,71.1c4.1,14.3,7.1,28.8,8.6,43.6c1.5,14.4,1.5,28.7-1,43
		c-3.3,19.3-11.9,36.2-24,51.4c-10.5,13.1-22,25.3-34.4,36.5c-4.2,3.7-8.9,6.3-13.9,8.6c-11.7,5.4-24,7.5-36.8,7.1
		c-0.4,0-0.8-0.3-1.2-0.4c-0.6-1.4-0.2-2.7,0.4-3.9c7.1-13.3,14.1-26.7,20.4-40.4c6.7-14.7,10.3-30.3,12.1-46.3
		c0.5-4.4,0.8-8.9,1.1-13.3c0.1-0.8,0.4-1.7-0.8-2.8c-3.2,3.8-6.5,7.5-9.7,11.3c-10,12-20.9,23.1-31.4,34.6
		c-0.3,0.3-0.6,0.6-0.9,0.9c-1.1,1.1-2.4,1.8-4,0.9c-1.8-1.1-1.7-2.7-1-4.3c1-2.3,1.9-4.7,3.2-6.8c6.5-11,12.8-22.1,18.3-33.6
		c2.2-4.6,4.5-9.2,6.1-14.7c-2.3,0.6-3.3,2.1-4.5,3.1c-12.2,10.1-24.8,19.8-37.4,29.5c-13.3,10.3-26.4,20.7-36.9,33.9
		c-2.8,3.5-5.5,6.9-8.3,10.4c-0.7,0.9-1.4,1.9-2.9,2.2c-1.4-2.2-1.8-4.6-1.5-7.1c0.9-8.3,3.4-16.2,6.7-23.9
		c7.1-16.7,17.7-31.1,29-45.2c9.4-11.7,19.6-22.7,29.4-34c8.1-9.3,15.7-18.9,21.4-29.9c6.2-11.9,7.9-24.4,6.1-37.6
		c-1.2-8.8-3-17.5-7-25.8c-3.8-0.3-7.3,1-10.8,1.8c-22.3,4.9-44.3,11.2-66,18.1c-2,0.6-4,1.2-6,1.7c-2.2,0.5-4.2,1.3-5.8,3.1
		c-1.7,2-3.8,2.1-6.4,1.7c-5.3-0.8-9.4-3.5-12.9-7.4c-3.4,2.4-6.6,4.5-9.6,6.9c-1.8,1.3-2.8,3.1-1.7,5.4c1,2.2,0.7,4.4,0,6.5
		c-1.9,6.2-2.2,12.5-2.1,18.9c0,1.3-0.1,2.6,1.3,3.5c2.6,1.6,2.2,3.9,1.5,6.3c-0.3,0.8-0.7,1.6-1.1,2.4c-1.5,2.9-1,5.4,1.1,7.7
		c3,3.3,6,6.6,9.7,9.1c2.6,1.7,4.5,4.3,7.3,5.8c1.7,0.9,2.5,2.8,2,5c-0.4,1.7-0.4,3.5-0.6,5.2c1.4,1.6,3.1,0.8,4.7,0.7
		c3.5-0.2,7.1-0.8,10.6-0.8c4.9,0.1,5.9,1.6,4.7,6.4c-0.9,3.9-0.8,8-1.8,11.9c-0.6,2.3-1.7,4.1-3.5,5.9c-4.4,4.4-8.5,9.2-11.3,14.8
		c-1.4,2.9-3.5,4-6.6,4.4c-3.9,0.5-7.7-0.2-11.5-0.2c-2.8,0-2.9-2.9-4.2-5.1c-3.5,2.9-6.6,6-9.6,9.3c-1,1.1-2,2.2-3,3.3
		c-1.1,1.2-2.5,1.8-4,1.1c-2.2-0.9-4-0.2-5.8,1.1c-1.3,0.9-2.9,1.6-4.2,2.5c-2.1,1.4-4.5,1.8-6.8,1c-3.9-1.4-7.6-0.6-11.5,0.5
		c-0.6,1.6-0.7,3.4-0.8,5.1c-0.5,9.5-1,19-1.5,28.4c-0.1,1.2,0,2.3,0.2,3.5c2,8.9-0.5,16.9-6,23.7c-4.6,5.6-11.4,7.6-18.2,5.4
		c-7.2-2.3-11.6-8.1-12.6-15.9c-0.5-4.3-0.4-8.6,0.7-12.8c2.9-10.8,4.2-21.8,6.3-32.7c0.5-2.3,0.8-4.7,1.3-7.3
		c-3.9-1.6-8.1-1.3-12.2-2c-2.3-0.4-4.7-0.6-7.1-0.8c-3.4-0.2-5.8-1.9-6.7-5c-1.3-4.7-4.7-6.1-8.9-6.5c-1.6-0.2-3.3-0.3-4.9-0.5
		c-3.6-0.5-4.9-1.8-5.6-5.3c-0.1-0.7-0.1-1.5-0.4-2.2c-0.6-2,0.9-5.2-1.9-5.8c-3.7-0.9-7.5-3.3-11.5-0.9c-1.9,1.1-3.9,2.1-6.2,2.4
		c-1.9,0.2-3.3-1.2-4.9-2c-8.4,6.3-16.7,12.6-24.9,18.8c-5.1,3.9-10.2,7.7-15.2,11.7c-4.8,3.9-10,6.4-16.3,5c-0.8,1.5,0.4,2.1,1,2.8
		c4.9,5.5,10.2,10.8,15.5,16c1.6,1.5,3.3,3,3.5,5.8c-3.2,1.4-6.2,1.1-9.2-0.4c-7.2-3.7-14.4-7.6-21.7-11.2
		c-6.6-3.3-13.4-6.3-20.8-9.8c3.8,18.8,5.7,37.3,12.7,54.9c-3.2,1.2-5.8,0.9-8.4-0.3c-9.8-4.4-18.8-10-27.2-16.7
		c-14.3-11.5-24.5-26-31.2-43.1c-5.2-13.4-7.6-27.4-7.8-41.7c0-1.6,0.4-3.2-0.6-5.2c-1.5,5.2-1.7,10.3-2.2,15.3
		c-1.6,13.1-1.7,26.3-0.4,39.5c1.5,15.5,5.4,30.3,11.7,44.5c1.5,3.3,1.3,5.3-0.5,6.3c-1.6,1-4.7,0.1-6.7-2
		c-4.7-4.8-8.4-10.4-11.9-16.1c-10-16.1-17.6-33.3-21.4-52c-2.9-14.3-4.3-28.7-3.9-43.3c0.7-21.9,5.2-42.9,12.6-63.4
		c8.5-23.6,20.6-45.3,34.2-66.2c15.4-23.8,32.4-46.5,48.6-69.7c7.4-10.6,15.1-20.9,20.9-32.5c2.3-4.5,4-9.2,4.9-14.2
		c0.4-2.1,0.6-4.4,2.5-5.9c-1-1.5-2.5-2.3-3.8-3.2c-3.3-0.1-5.4,3.9-9.2,2.5c-0.6-2.3,0.5-4.1,1.5-5.9c0.8-1.3,1.1-2.5,0.8-4.1
		c-1.1-5-0.2-6.2,5.3-7.1c-0.4-2-0.8-3.9-1.2-5.9c-0.5-2.2-0.9-4.6,1.4-6.1c2.3-1.5,4.2,0,5.9,1.5c0.2,0.2,0.5,0.3,0.8,0.4
		c0.2,0.3,0.4,0.8,0.8,0.4C329,126.6,328.8,126.2,328.5,125.9z M662.9,170.8c0.3-0.1,1,0,0.4-0.7C663.2,170.3,663,170.6,662.9,170.8
		c-0.3,0.1-1,0-0.4,0.6C662.7,171.2,662.8,171,662.9,170.8z M641.6,470c0.5-0.1,0.8-0.4,0.9-0.9c0.3-0.2,1-0.2,0.3-0.8
		c-0.1,0.2-0.3,0.4-0.5,0.7C641.9,469.2,641.6,469.5,641.6,470c-0.3,0.1-1,0.1-0.4,0.6C641.3,470.4,641.4,470.2,641.6,470z
		 M357.4,151.1c-0.8,0.3-1,0.9-1.2,1.6c-8.4,6.7-14.2,15.4-18.4,25.2c-6.9,11.5-10.3,24.2-13.1,37.1c-0.7,3.1,1.1,5.9,4,7.2
		c0.4-1.1,0.9-2.2,1.1-3.3c1.3-7.8,3.7-15.4,6.1-22.9c1.3-3.9,3.6-7.4,3.8-11.6c0.2-0.2,0.6-0.3,0.7-0.5
		c4.8-10.5,10.5-20.6,16.4-30.6c0.7-0.4,0.9-1,0.9-1.7c0.3-0.4,0.7-0.7,1-1.1c1.2,0,1.4-0.8,1.4-1.8c0.1-0.1,0.3-0.1,0.4-0.2
		c0.1-0.1,0-0.2,0.1-0.3c-0.2,0.2-0.3,0.3-0.5,0.5c-1.1-0.1-1.8,0.3-1.8,1.5C358,150.4,357.7,150.7,357.4,151.1z M426,396
		c5.2-1,9.6-3.8,13.6-7c3.4-2.8,4.6-6.9,6.8-10.5c0.5-0.8,1.5-1.6,0.2-3c-5.8,4-10.8,8.9-15.4,14.3C429.2,391.6,427,393.3,426,396
		c-0.1,0.2-0.9,0-0.3,0.6C425.8,396.5,425.9,396.3,426,396z M377.2,91.6c1.8,0.2,3.4-0.6,3.9-2.2c0.7-2.2,1-4.5,1.2-6.8
		c0.2-2.1-1.4-1.8-2.7-1.8c-0.9,0-1.9,0-2.6,0.8c-1.3,0-2.8-0.2-3.4,1.4c-1.6,4.4-3.1,8.9-4.7,13.5c1.7,0,2.6-0.5,3.5-1.3
		C374.6,94.6,376.4,93.8,377.2,91.6z M369.3,135.2c1,0,1.7-0.5,2.2-1.2c2.4-3,4.7-6.1,7.6-9.8c-4.2,1.1-7.3,2.5-10.4,4
		c-1.4,0-2.4,0.6-3.4,1.6c-1.5,0.1-2.7,1.1-4,1.7c-1.8,0.7-2.3,1.8-1.7,3.8c0.8,2.4,1.5,4.9,1.5,7.5c2.9,0.1,2.9,0.1,4.6-2.8
		C368.3,139.4,368.9,137.4,369.3,135.2z M475,319.5c0,0.6,0,1.3,0.7,1.5c2.5,0.4,4.9,0.8,7.4,1c1.6,0.1,3-0.4,3-2.4
		c1.2-1.1,2.1-2.5,0.6-3.7c-1.9-1.6-3.6-4.1-6.7-3.2C476.8,313.5,475,315.8,475,319.5z M550.7,260.7c8-8,10.6-16.1,8.1-25.8
		c-1.2,3.6-2.3,6.7-3.2,9.9C554.1,250.2,551.5,255.2,550.7,260.7c-0.3,0.1-0.9,0-0.4,0.6C550.5,261.1,550.6,260.9,550.7,260.7z
		 M385.9,380.1c0.3,4.3-0.8,8.8,1.1,12.9c3.8-3.8,5-7.9,2.7-12.8c-0.3-0.6-0.3-1.4-0.4-2.2c0.1-4.1,0.3-8.1-2.2-11.8
		c-4-5.8-10-6.9-16.3-7.6c0-0.1,0-0.3-0.1-0.4c0-0.1-0.2-0.1-0.3-0.1c0.1,0.1,0.3,0.3,0.5,0.4c1.8,2.9,4.5,5.1,7.3,6.8
		C383.8,368.9,386.3,373.7,385.9,380.1z M394,364.9c-1,0.1-2.1-0.3-3.2,0.5c1,2.7,1.7,5.5,1.5,8.5c-0.1,3,0.9,5.8,1.5,9.1
		c2.9-3.4,5.2-6.8,8.2-9.2c3.2-2.7,3-5.9,2.7-9.2c-0.2-2.3-2.1-3.3-4.5-2.6C397.9,362.5,395.7,363.2,394,364.9z M609.5,137
		c-0.2-0.2,0-0.9-0.6-0.4C609.1,136.7,609.3,136.8,609.5,137c0,8.2,0,16.4,0,24.8c3.3,0.1,6.1,0.5,9-0.4c-0.7-2.5-1.1-4.8-1.9-7
		C614.4,148.4,613.5,142.1,609.5,137z M644.1,162.7L644.1,162.7c-1.2,0.9-1.7,2.3-2.4,3.5c-3.1,5.4-6.1,10.8-9.2,16.2
		c-0.7,1.2-0.9,3-3.1,2.6c-1-1.3-0.3-2.4,0.4-3.6c4-6.9,8-13.9,12-20.8c0.7-1.3,1.5-2.9,2.8-3.3c3.3-1,3.4-3.7,3.9-6.3
		c0.6-3.3,1.1-6.7,1.7-10.1c0.1-1,0.6-2-0.5-3c-2.7,0.7-4,2.8-5.2,5c-3.9,7.3-7.6,14.7-10.8,22.4c-2.1,5.1-4.4,10-6.8,14.9
		c-1.5,3-3.6,5.7-6.4,7.8c-2.6,1.9-5,4.2-7.5,6.3c-1.4,0.4-1.5,1.6-1.7,2.8c-0.7,5-0.8,10-0.5,15.1c0.5,8.3,2,16.4,5.5,24.4
		c7.3-6.9,14.4-13.6,21.4-20.3c3.6,0.1,6.7-1.7,10.2-2.4c6.9-1.3,11.9-5.2,14.4-12c0.6-0.5,0.7-1.3,0.8-2c0.5-2.8,2-3.7,4.9-3.8
		c4-0.1,7.9-1,11.8-1.7c1.1-0.2,2.3-0.7,3.1-1.6c0.6-0.7,0.5-1.3-0.3-1.8c-1.6-2.3-4-2.3-6.3-2.4c-3.3-0.1-6.5,0.1-9.8-0.4
		c-2.9-3.9-2.7-4.7,1.4-7c4.2-2.4,8.6-4.6,12.3-7.9c2-1.7,3.6-3.5,3.1-6.4c0.4-2.4-0.6-3-2.7-2.1c-6.3,2.6-11.8,6.8-17.7,10.1
		c-2.1,0.4-4-0.1-4.8-2.2c-0.6-1.7,0.8-3,1.9-4.2c0.4-0.4,0.8-0.8,1.2-1.3c4.7-5.7,9.1-11.6,10.6-19.1c0.5-1.3,1.3-2.6,0.3-4
		c-4.3,2.5-11.9,11.2-19.2,21.7c-0.8,0.3-1.4,0.8-1.7,1.6c-1.5,0.5-2.3,1.5-2.6,3.1c-0.4,2.3-1.1,4.6-1.8,6.8
		c-0.7,2.3-0.8,4.4-0.1,6.8c1.2,4.3-0.4,8.4-2.2,12.3c-0.8,1.7-2,1.4-2.9-0.1c1.8-4.5,4-9,1.8-14.1c-0.6-1.3,0-2.9,0.4-4.4
		c0.7-2.3,1.4-4.5,1.9-6.9c0.8-3.8,2.2-7.6,1.2-11.6c-1.4,0.3-1.9,1.1-2.3,2.2C644.3,162.2,644.2,162.5,644.1,162.7z M529.3,424.6
		c0.5-0.1,0.8-0.5,1-1c0.8-1.3,2.7-1,3.5-2.9c-1.7-1.3-1.9-4.1-4.7-5c-5,3.2-10.3,5.9-15.9,8.1c-2.2,0.6-4.5,1.2-6.7,1.8
		c-2.9,0.7-6.1,0.7-8.8,2.2c-0.3,1.2-0.7,2.3,0.7,3.1c0,1,0,2.1,0,3.1c-0.1,2.6,1.3,4.1,3.8,4.5c2.3,0.4,4.6,0.9,6.9,1.1
		c2.4,0.2,4.6-0.5,6.4-2.3c3-3.1,6.1-5.9,9.5-8.6C526.4,427.4,528.5,426.6,529.3,424.6L529.3,424.6z M566.9,159.9
		c-4.6-5.8-10.4-9.7-18.4-12c1.2,4.9,1,9.2,2.9,13.1c0.3,4.1,0.7,8.1,2.7,11.8c0,3.6,0.8,7,1.5,10.5c1.9,8.6,3.6,17.3,4.6,26
		c1.2,9.9,1.4,20,2,30c0.1,0.9-0.5,2.2,1,2.6c3.7-3.9,6.1-8.7,9.1-13c9.2-13.2,17.6-26.9,27.3-39.7c2.8-3.6,4.8-7.4,5.1-11.9
		c0.2-3.2,1.9-6.3,0.7-9.6c1.4-3.9,0.7-8,0.5-12c0.4-8.7-0.2-17.4-0.7-26.2c-0.2-3.7-1-7-2.8-10.1c-3.3-6-7.1-11.6-11.1-17.1
		c-1.4-1.9-2.9-3.7-4.4-5.6c-0.5-0.6-0.7-1.4-0.1-2c0.7-0.8,1.6-0.7,2.4-0.2c0.5,0.3,0.9,0.7,1.3,1.2c5.2,7.3,10.7,14.5,15,22.5
		c1.8,3.4,2.3,7.3,4.1,10.7c4,7.7,7.7,15.6,9.9,24.1c0.4,4,1.6,7.8,3.8,11.2c-1-3.8-0.9-7.8-3-11.2c-0.6-4.1,0.5-7.9,2.2-11.6
		c2.7-5.6,5.7-11.1,8.9-16.4c0.8-1.3,1.9-2.6,1.3-4.5c-3.1-8.8-6.8-17.3-12.3-25c-9.3-13.2-22.1-22.1-36-29.6
		c-9-4.9-18.9-7.6-28.9-9.7c-11.7-2.4-23.5-4.6-35.4-5.9c-5.2-0.6-10.4-0.2-15.5-1c-11.4-1.7-22.9-2.7-34.4-4
		c-12.2-1.4-24.2-4-35.9-7.6c-7.5-2.3-14.5-6-22.1-7.9c-0.3-0.3-0.6-0.7-1-0.3c-0.4,0.4,0.1,0.7,0.4,0.9c1,1.3,2.2,2.4,3.5,3.4
		c9,7,18.5,13.3,28.9,18.1c1.1,0.5,2.8,0.8,2.5,2.6c-0.3,1.9-2,1.4-3.2,1.4c-6.8,0.1-13.6,0.3-20.4,0.8c-10.4,0.7-20.6,1.9-30.8,3.8
		c-18.7,3.4-36.7,9.3-53.7,17.7c-0.8,0.4-2.1,0.5-1.8,2.2c8.9-0.4,17.7-0.6,26.6-1.2c13.3-0.9,26.6-1.7,39.9-1.6
		c0.7,0,1.5,0,2.2,0.1c0.9,0.1,1.8,0.4,2,1.5c0.3,1.4-0.8,1.6-1.8,2c-15.8,7-30.3,16-44.2,26.2c-2.4,1.8-5.4,3.1-6.8,6.1
		c-4.3,1.7-7.6,4.4-9.8,8.5c-0.6-0.1-1.2,0.1-1.6,0.6c-7.2,7.2-14.7,14.1-20.4,22.6c-0.2,0.2-0.9,0-0.3,0.6c0.1-0.2,0.2-0.4,0.3-0.6
		c1.4,0.3,2.6-0.4,3.8-1c10.7-5.6,21.9-10.1,32.8-15.5c5.1-1.7,10.1-3.4,14.5-6.7c2.8-0.1,5-1.7,7.4-2.6c2.1-0.7,4.1-1.6,6.2-2.4
		c1-0.4,2.1-0.8,2.8,0.3c0.7,1.1-0.1,1.9-1,2.6c-0.6,0.5-1.2,0.8-1.8,1.3c-1.6,1.5-3.5,2.8-4.5,4.8c-3.5,2.1-5.4,5.5-7.9,8.5
		c-0.3,0.3,0,1.1,0,1.6c-2-0.1-2.9,1.6-3.7,2.8c-5.2,7.3-10.7,14.4-15.4,22.1c-10.3,16.7-17.6,34.6-22.4,53.5
		c-0.2,0.7-0.5,1.6,0.5,2.3c3.8-4.9,7.5-9.6,11.5-14.2c2.8-3.2,6-6.2,8.7-9.5c6.2-7.6,13.7-14,20.4-21c1-1.1,2.3-1.8,3.5-1
		c1.4,0.9,0.5,2.3,0.1,3.6c-1.5,4.9-3,9.8-4.3,14.8c-3.3,12.4-5.3,25-5.8,37.8c0,0.9,0.1,1.8,0.1,2.8c1.1-0.2,1.3-0.8,1.6-1.3
		c4.1-7.7,7.4-15.8,12-23.2c0.6-1,0.5-2,0.4-3c-0.1-6.6,0.8-13.2,1.7-19.8c1.3-10.4,4-20.4,7-30.4c0.9-2.9,2.1-5.8,2.1-9
		c2.9-3.4,3.6-7.6,4.6-11.7c0.8-0.3,0.9-1.2,1.1-1.8c4-10.4,8.9-20.3,14.6-29.8c3.4-5.6,7.1-10.9,11.6-15.6c1-1.1,2.2-3.7,4.1-1.8
		c1.5,1.5-0.6,2.8-1.6,4c-1.4,1.7-3,3.3-4.3,5c-9.8,12.6-16.7,26.8-22.2,41.7c-1.9,3.4-3,7.1-4,10.8c-6.4,18.1-10.8,36.7-11.7,55.8
		c-0.6,12.4-1.1,24.8,0.8,37.9c1.3-3.2,2.4-5.7,3.3-8.3c4.7-13.6,11-26.6,17.3-39.6c0.8-1.7,2-3.3,2.8-5c2.3-5.2,5.2-10.2,7.9-15.2
		c2.9-5.3,6.4-10.3,8.6-15.9c1.4-0.5,1.7-1.9,2.5-2.9c0.8-0.9,3.2-5.5,4.8-5.5c1,0.6-1.2,4.4-1.6,5.3c-0.7,1.3-1.4,2.6-2.2,3.9
		c-4.2,7.1-8.7,14.1-12.3,21.6c-3.8,6.9-7.6,13.9-11.3,20.8c-0.6,1.1-0.8,2.5-1.3,3.6c-1.2,3.1-0.8,6.3-1.4,9.4
		c-1.5,7.7-2.6,15.4-3.9,23.1c-0.8,4.8-2.2,9.5-3.5,14.2c-0.5,1.8,1.5,7.4,3.2,9.4c0.1,0.6,0,1.2,0.2,1.7c3.1,5.4,7,9.9,12,13.6
		c5.9,4.4,12.6,7.2,19.1,10.3c3.5,1.7,7.3,3.5,11.5,3.2c0-4.2,0-8.2,0-12.2c0-9.1,3.3-17.3,6.9-25.5c0.8-1.8,1.8-2.3,3.8-2
		c7.2,0.8,14.4,1.3,21.6,2.2c10.6,1.3,21.1,2.8,31.7,4c2.2,0.3,3.8,1.4,5.4,2.8c2.6,5.9,5.3,11.7,7.9,17.6c1.7,7.5,3.4,15.1,4.2,23
		c8.6-5.7,14.6-12.9,18-22.2c1.7-1.6,0.4-4.3,2.2-5.8c1.8-3.5,3.3-7,4.4-10.8c1.7-2.9,2.5-6,3.4-9.2c0.1-2.5,2.2-4.3,2.2-6.8
		c4.9-12.2,4.9-24.8,2.8-37.5c-2.7-16.8-6.7-33.4-10-50.1c-1.3-6.8-1.4-6.8-8.2-7.4c-1-0.7-2.3-0.4-3.4-0.7
		c-0.6-0.2-1.1-0.6-1.1-1.2c-0.1-0.6,0.3-1.1,0.9-1.3c0.6-0.2,1.1-0.2,1.7-0.3c2.6,0.2,5,1.5,8.3,0.9c-4-15.3-7.1-30.6-12.8-45.3
		c-1.1,0.8-1.4,1.5-1.6,2.2c-3.5,11.8-8,23.2-12,34.8c-3.5,10.1-7,20.1-9.8,30.3c-1.7,6.4-3.5,12.8-5.2,19.2
		c-1.4,0.9-0.6,2.3-0.8,3.5c0.1,0.3,0.2,0.7,0.2,1c-1,4-1.9,8.1-2.9,12.1c-2.4,9.6-3.5,19.5-6.1,29.1c-0.3,1.1-0.3,2.5-1.8,2.7
		c-1.2,0.1-1.8-1-2.4-1.8c-0.5-0.6-0.9-1.2-1.3-1.8c-6.6-9.3-10.9-19.6-13.5-30.7c-2.4-10.1-3.2-20.4-3.9-30.8
		c-0.8-12.2-0.6-24.3,0.8-36.4c0.9-7.7,2.8-15.1,4.2-22.7c0.5-0.4,0.5-1,0.7-1.5c1.6-6.7,3.2-13.4,5.3-19.9c1.7-1.1,1.3-1.9-0.3-2.5
		c-0.5-0.2-1.1-0.2-1.6-0.4c0.5-3.1,3-4.9,4.8-7.2c0.7-0.9,1.9-0.9,2.9-0.3c1.2,0.7,0.7,1.8,0.1,2.7c-1.7,2.8-2.9,5.8-3.7,9
		c-1.9,7.1-3.6,14.3-5.3,21.5c-3.6,14.5-5.8,29.2-5.5,44.2c0.1,3.8-0.6,7.7,0.7,11.4c0.1,22.2,3.8,43.4,17.1,62.8
		c0.9-3.6,1.8-6.5,2.3-9.4c2.1-13.2,5.2-26.2,8.2-39.2c0.7-3.1,2.2-6.1,1.8-9.5c2.4-3.5,3-7.6,3.5-11.7c0.8-0.4,0.8-1.2,1-1.9
		c1.8-5.6,3.5-11.2,5.4-16.8c5.4-15.5,11.4-30.7,16-46.5c0.3-0.9,0.5-2.1,2-2.4c1.8,1.5,2.3,3.8,3.1,5.9
		c5.6,14.5,9.1,29.6,12.5,44.7c0.4,1.7,0.7,2.8,2.7,3.5c9.1,3,16.5,8.3,22.2,16.1c2.5,3.1,3.2,7.3,6.2,10c0.3,3.8,1.5,7.5,2.3,11.2
		c0.8,3.7,1.6,7.5,1.4,11.3c-0.1,0.9,0.1,1.9-1.1,2.1c-1.5,0.2-1.6-0.9-1.6-2c0-5.9-1.9-11.6-2.9-17.3c-0.3-1.7-0.9-3.7-2.8-4.8
		c0.3-0.7,0.4-1.3,0-2.1C571.8,165.9,570.1,162.4,566.9,159.9z M466.1,435.3c3.9,2.9,8.5,4.5,12.7,6.7c0.6,0.3,1.5,0.5,2.1,0.3
		c4.8-1.5,9.7-3.1,14.4-4.6c-0.3-2.2-0.6-4.1-0.8-5.9c-0.1-1.4,0.5-3-0.7-4.4c-5.9,1.8-12.2,0-18.2,1.7c-2.5,0.7-4.9-1.1-7.4-0.8
		c-3.7,0.5-6.6-0.8-9-3.7c-0.4-0.5-0.9-1.2-1.8-1.1c-0.3,7.6-2.1,6.6,6.1,11.1C464.4,434.9,465.2,435.4,466.1,435.3z M334.5,166.4
		c0.7,1.7,1.8,2.9,3.8,3.4c4.5-7.5,9.7-14.3,16-20.2c0.8-0.7,1.7-1.5,1.3-2.6c-1.2-3.8-1.6-7.9-3.3-11.6c-1.7,0.6-1.3,1.7-1.3,2.7
		c0,2.1,0.1,4.1,0.1,6.2c0,0.9-0.4,1.8-1.6,1.7c-0.9-0.1-1.1-0.9-1.1-1.7c-0.1-2.1,0.3-4.4-0.5-6.6c-1.3,0.2-2.3,0.2-3,1.1
		c-0.8,0.1-1.4,0.5-1.6,1.3c-0.8,2.9-1.6,5.7-1.1,8.7c0.2,1.2,1,2.6-0.8,4.1c-3.7-3.2-1.8-7.6-2-11.4c-2,0.3-3.2,1.5-4.7,2
		c-1.4,0.5-2,1.5-2.4,2.9C330.2,153.3,330.7,160,334.5,166.4z M466,448.7c3.6,2.2,7.5,3.9,10.7,6.4c6.5-3.6,13-5.8,19.7-8
		c0.1-1.9,0.5-3.8-0.7-5.8c-3.9,0.4-7.4,1.8-11,3.1c-3.4,1.2-6.6,0.9-9.8-0.7c-2.9-1.5-5.6-3.2-8.8-4.1c-2.8-1.7-5.6-3.3-8.5-5
		c-0.8,1.3-1.1,2.4-1.3,3.6c-0.6,3.1,0.5,5.3,3.3,6.8C461.8,446.1,463.9,447.4,466,448.7z M543.5,288.2c0.3-2.6-1-4.9-0.8-7.9
		c-5.1,5.4-4.9,5.9-3.6,10.8c0.7,6.4,1.7,12.9,4.7,18.6c2.9,5.7,6.9,10.6,13.7,12.2c2.8,0.7,3.3,0.4,4.7-2.8c-0.3-0.3-0.5-0.7-0.8-1
		c-7.1-6.6-12.5-14.4-15.3-23.8C545.4,292.2,544.4,290.2,543.5,288.2z M495.5,320.4c0.3,1.4,0.8,2.7,2.3,2.8c0.9,0.1,1.3-1,1.6-1.9
		c4.9-5.7,8.8-12.1,12.9-18.5c0.8-1.3,1.8-2.8,0.7-4.5c-4.1-0.7-8.2,0.5-12.3,0.6c-1.2,0-1.9,0.7-2.6,1.5c-3.6,3.8-7.3,7.7-11,11.6
		C490.3,314.1,492.5,317.6,495.5,320.4z M418.1,417.3c2,0.3,4.1,0.4,6.1,0.7c4.2,0.6,6.3,2.9,6.8,6.9c0.3,2.9,0.7,5.8,1.6,8.7
		c0.8,2.3,2.1,3.5,4.3,3.9c2.5,0.4,5,1,7.4,1.1c2.9,0,5.7,1.5,8.7,0.9c1.6-7.7,1.6-7.7-5.5-9.4c-0.6-0.1-1.2-0.2-1.8-0.3
		c-5.1-1-9.2-3.2-10.4-8.8c-0.2-0.8-0.9-1.6-1.1-2.4c-1.4-5.9-5.5-7.6-10.9-7.5c-0.9,0-1.8,0-2.7,0c-1.3-1.3-3.1-1.2-3.8,0.1
		c-1.1,2-3.3,3.3-4.2,5.7C414.7,417.7,416.4,417.4,418.1,417.3z M663.1,94.1c-0.8-0.9-1.7-0.7-2.7-0.4c-1.3-0.3-2.6-0.4-3.8-0.9
		c-1.5-0.6-2.5-0.2-3.3,1.2c-1.8,3-3.7,6-5.4,9.1c-4.4,7.5-8.7,15-13,22.6c-3.2,5.6-6.8,11-9.4,17c-1,2.4-2.8,5.1-2.3,7.5
		c1.1,6.1,2.5,12.2,5.8,18.5c1.4-3,2.5-5.3,3.6-7.7c0.7-2.7,2.6-5,3-7.8c0.9-1.5,1.8-3,2.5-4.6c2.4-5,4.9-9.7,9.3-13.3
		c1.5-1.3,2.3-3.3,3.3-5.2c4.2-8.3,7.3-17.1,12.2-25c1.8-2.9,3.5-6.1,4.5-9.3C666.2,93.9,664.6,94.3,663.1,94.1z M442.1,395.2
		c-0.2-2.5-1.4-3.1-3.5-1.8c-4.8,3-9.9,5.5-15.3,7.4c-2.5,0.9-3.9,3.5-4.2,6.4c1.5,0.8,2.9,0.3,4.1,0.5c7.3,0,12.4,3,14.5,10.4
		c0.4,1.5,1.3,3,1.8,4.5c0.4,1.2,1.1,2.2,2.3,2.6c4,1.4,8,2.7,12.5,2.9c0.5-4.5,0.6-8.3-2.4-12.2
		C447.2,409.7,444.2,402.6,442.1,395.2z M687.8,137.8c-0.3-7.6-1.8-9.3-9.2-11c-6.7-1.6-13.5-1.5-20.2-1.4c-0.6,0-1.4,0-1.6,0.4
		c-2.3,2.8-4.9,6.2-4.3,9.3c0.8,3.8,0.2,7.2,0,10.8c-1.6,4-1.3,8.2-2.8,12.4c5.2-0.3,5.5-0.5,8.3-3.6c3.4-3.9,6.9-7.7,10.4-11.5
		c1.6-0.9,3.1-2.2,5.2-1.7c2.1,1.6,2,3.7,1.7,5.9c-0.3,1.7-1.3,3.3-0.7,5.1c-2,2.7-3.4,5.9-4.8,8.9c-1.3,2.8-4.9,4.5-4.9,8.8
		c2-0.9,3.2-1.6,4.5-2.4c3.7-2.4,7.5-4.8,11.8-6c2.7-0.7,4.1-0.1,5.1,2.5c1.6,3.9,0.2,7.2-2.3,10.1c-3,3.5-7.1,5.7-11.1,8
		c-1.5,0.8-3.2,1.3-4.3,2.7c0.4,0.4,0.6,0.8,0.8,0.8c2.7,0.1,5.3,0.3,8,0.1c2.7-0.2,5,0.9,7,2.3c3,2.1,2.8,6.2-0.4,8.1
		c-1,0.6-2.1,1-3.3,1.2c-3.5,0.5-6.9,1.1-10.4,1.7c-2.3,0.4-3.9,1.1-4.8,3.8c-1.2,3.4-2.9,6.8-6.3,8.9c-1.8,1.1-1.8,2.3-0.6,4
		c2.7,3.7,5.5,7.3,7.7,11.3c8.5,15.7,13.6,32.5,16.1,50.1c0.6,4.4,0.2,8.8-1.7,13c-1.1,2.5-2.8,3.9-5.6,4.3c-5.8,0.8-11.5,2-17.3,3
		c-0.1,0.6-0.3,1-0.1,1.4c3.2,8.2,5.3,16.8,6.5,25.5c1,6.9,1.1,14,0.2,20.8c-1.4,11-6.3,20.8-12.4,29.9c-7.7,11.6-17,21.9-26.2,32.2
		c-9.6,10.8-19.1,21.7-27.7,33.3c-10.4,13.9-19.4,28.5-24.3,45.3c-0.6,2-1.2,4-0.9,6.1c-0.3,0.1-0.9,0.1-0.3,0.6
		c0.1-0.2,0.2-0.4,0.4-0.6c3.1-2.1,5.1-5.3,7.4-8.1c6-7.3,13-13.4,20.1-19.4c6.1-5.1,12.5-9.8,18.8-14.8
		c9.1-7.2,18.3-14.5,27.3-21.7c6.6-5.3,13.4-10.2,17.3-18.1c0.6-1.3,1.6-2.1,3.4-1c0.3,4.9-1.3,9.5-3,14c-5,13.8-11.7,26.7-19,39.4
		c-0.8,1.4-2.2,2.7-1.5,4.8c1.2-0.1,1.8-0.8,2.4-1.4c5.2-4.7,9.4-10.2,14.2-15.3c4.1-4.4,7.6-9.4,11.6-13.9c2.6-3,5.3-5.9,7.5-9.3
		c1.1-1.7,2.3-1.4,3.3,0.4c0.7,1.3,0.6,2.6,0.6,3.9c0.2,10.4-0.8,20.6-2.5,30.8c-2.6,15.6-7,30.6-14.3,44.7
		c-4.7,9.2-9.3,18.5-13.9,27.8c-0.5,1-1.5,1.9-1,3.2c0.7,0.5,1.5,0.4,2.2,0.4c7.6,0.1,14.8-1.9,21.9-4.4c8.9-3.2,16.9-7.8,23.4-14.6
		c6.5-6.7,13.4-13,19.4-20.1c6.9-8.1,13.6-16.3,19.2-25.3c5.4-8.7,9.1-18.1,11.6-28c1.3-5.2,2.1-10.3,2.9-15.6
		c0.9-5.9,0.9-11.8,1-17.6c0-5.3-0.4-10.8-1.1-16.2c-1.3-10.2-2.9-20.3-5.3-30.3c-4.1-16.7-9.4-33.1-14.9-49.4
		c-7.4-22.3-15.4-44.5-21.5-67.2c-4.5-16.6-7.8-33.4-10.2-50.4c-0.9-6.1-2-12.1-3.2-18.2c-2.1-10.9-4.4-21.8-6.6-32.8
		C690.3,144.7,689.4,141.2,687.8,137.8z M461.6,464.6c-1.5,4.5-1.7,9.2-2.6,13.8c-1.2,5.6-1.3,11.5-3.1,16.8
		c-1.5,4.4-1.2,8.7-1.4,13.1c-0.1,1.8,0.4,3.5,1.8,4.8c1.2,4.1,3.8,7.2,8.2,7.7c5.4,0.7,10.6,0,14.1-5.2c2.8-4.1,4-8.6,4.7-13.5
		c0.6-3.6-0.1-5.9-2.8-8c-1.7-2.6-4.1-3-7-2.4c-3.4,0.7-6.4,2.2-9.4,3.8c-0.8,0.4-1.8,0.6-2.3-0.4c-0.5-0.9,0-1.8,0.7-2.3
		c0.6-0.4,1.3-0.7,1.9-1.1c4.3-2.6,9-3.5,14.1-3.1c3.5,1.3,4.4,1,4.5-2c0.1-7.2,1.5-14.4,0.9-21.6c-0.1-1,0.4-2.1-1-3
		c-6.8,2.5-13.8-0.5-20.7-0.8C461.5,462.5,461.8,463.6,461.6,464.6z M598.9,213.5c-0.4,9.5,0,18.9,3.4,27.9
		c2.6,6.7,5.3,13.5,8.8,19.8c2.4,4.3,5.3,8.2,9,11.4c3.8,3.2,7.8,6.3,11.8,9.3c6.9,5.1,14.2,9.4,22.4,12.1c4,1.3,7.2-0.7,11.4-0.8
		c-1.3-1.6-2.5-1.2-3.4-1.5c-14.7-5.6-26.1-15.2-35.2-27.8c-6.1-8.5-10.9-17.6-14.4-27.6c-3-8.6-5.1-17.2-4.9-26.3
		c0.1-3.3,0-6.5,0-9.8c1.1-7.4,2.8-14.7,4.3-22C602.6,188.1,598.4,199.9,598.9,213.5z M322.8,414c-5.3,0.1-7.8,2-9.3,6.9
		c-0.8,2.7-0.6,5.4-0.1,8.2c0.7,4.3,2.6,8.1,4.4,11.9c2.5,5.3,5.4,10.4,9.7,14.6c4.4,4.2,7.3,4.6,12.7,2.1c2.8-1.3,5.5-2.8,8-4.7
		c5.1-3.9,10.3-7.7,15.3-11.9c6.6-5.6,14.1-10.1,20.6-15.8c3.6-3.2,3.8-3.5,1.2-7.8c-0.2-6.3-2.3-11.9-6.3-17
		c-1.9,0.8-3.7,1.5-5.4,2.3c-11.9,5.9-23.8,11.7-35,19c-2.1,1.4-3.4,1.1-5.3-0.7C330.3,418.1,327.1,415.1,322.8,414z M495.3,326.7
		c-1.3-2.5-2.8-5-4.8-7c-0.9,0.6-1.1,1.3-1.2,2.1c-0.5,6.1-2.4,11.8-5.1,17.2c-5.2,10.7-13.1,19.2-22.9,25.8
		c-5.3,3.6-8.6,8.7-11.4,14.2c-2.2,2.6-3.4,5.8-5.3,8.7c-0.7,1-0.8,2-0.5,3.4c3.1,11.6,8.1,22.1,16.7,30.8c2.2,2.2,4.6,3.4,7.8,3.5
		c7.8,0.4,15.7,0.1,23.5-0.8c11.7-1.3,22.9-3.9,33.1-10.2c4.9-3,8.5-6.6,10.6-11.9c0.3-0.3,0.7-0.6,0.9-0.9c1.2-1.7,2.4-3.4,3.5-5.1
		c1.4-2.1,4.3-0.9,6-2.8c-0.6-1.3-1.7-2.2-2.9-3.1c-4-3-7.7-6.4-11.2-10.1c-3.8-4.1-5.1-8.5-2.5-13.7c0.6-1.2,1.2-2.5-0.3-3.6
		c-1.9-1.4-2-3.5-2-5.6c0.1-4.7-0.1-9.4,0.8-14.2c0.3-1.8,1.4-3.7,0.6-6.4c-1.8,3.4-4.2,4.4-7.3,3.6c-5.1-2.3-7.5-6.3-7.4-11.9
		c0-2.8,0-5.6,0.1-8.4c1.9-7.7,4.3-15.3,7.3-22.8c-3.8-0.1-3.8-0.1-4.7,2.3c-1.4,3.6-3.3,6.9-5.4,10.1c-2.5,3.7-4.9,7.3-7.3,11
		c-1.6,2-3.3,4-5,6C497.7,328.6,496.5,328.5,495.3,326.7z M484.7,324.9c-2.5-0.2-5,0.1-7.5-0.7c-2.3-0.8-3.6,0.3-4.4,2.4
		c-0.7,1.6-1.5,3.2-2.8,4.5c-5.4,5.9-11.5,11.1-18.2,15.5c-5.1,3.3-10.7,5.6-16,8.3c-8.3,4.3-16.1,9.4-24,14.5
		c-2.3,1.5-4.5,3.2-6.3,5.3c5.2,4.3,5.4,4.7,3.5,8.9c-2.9-1-4.5-4.3-7.9-4.7c-1.3,1.7-2.9,3-3.7,5c0.8,0.6,1.5,1.1,2.2,1.6
		c0.7,0.5,1.4,1.1,2.1,1.6c3.2,2.6,3.1,3.5-0.9,5.9c-0.5-0.4-1.1-0.9-1.7-1.4c-0.6-0.4-1.2-0.9-1.8-1.2c-2.8-1.6-3.9-1.4-5.5,1.2
		c-1.9,3-3.4,6.2-5.2,9.3c-0.5,0.8-0.7,1.7-0.5,2.6c1.2,4.4,1.1,9.1,3.2,13.2c0,2,0.7,3.7,1.7,5.4c1.5,2.6,2.2,2.9,4.9,1.7
		c4.1-1.8,7.6-4.6,10.9-7.5c2-1.7,4.6-2.8,5.8-5.4c3.4-7.6,8.2-14.4,13.5-20.7c4.6-5.4,9.6-10.4,15.1-15
		c7.2-5.9,15.2-10.6,22.5-16.5c10.6-8.6,18.3-19.1,21.6-32.5C485.6,325.8,485.7,325.2,484.7,324.9z M498,254.3
		c-2.6-1.1-5.5-0.7-8.3-1.2c-8.4-1.5-16.8-2.7-25.4-2.9c-1.8-0.5-3.7-0.9-5.7-1c-8.1-0.4-8.6,0-10.3,8.2c-2.5,5.8-4,11.7-3.6,18.1
		c0.2,2.9,0.6,5.9,0.3,8.8c-0.3,2.6,1.1,3.7,3,3.9c8.7,1,17,4.1,25.8,5.2c14.4,1.8,28.8,3.1,43.3,1.2c2.9-0.4,3.4-0.9,3-3.6
		c-0.4-3.1-0.9-6.1-1.6-9.2c-1.4-6-2.7-12.1-6.1-17.5c-0.6-2.8-2.3-5-3.5-7.6c-0.6-1.2-1.6-1.8-2.8-1.9
		C503.5,254.5,500.8,254.4,498,254.3z M546.3,283.9c-0.3,4,2.1,7.3,3.3,10.9c2.7,8.1,7.3,15,13.7,20.8c2.1,1.9,4.3,2.7,7.3,1.7
		c5.8-1.9,11.8-3.5,17.6-5.3c18.7-5.9,37.7-10.8,56.8-14.8c1.2-0.2,2.9-0.3,3.6-2c-4.5-1.7-8.5-3.9-12.3-6.3
		c-5.3-3.4-10.1-7.6-15.1-11.5c-4.3-3.4-7.8-7.5-11-11.9c-3.4-4.7-5.6-10-7.8-15.3c-3.4-8.3-6.8-16.6-6.3-25.9
		c0.1-1.4-0.4-2.6-1-3.8c0.2-6.9-0.1-13.9,1.5-20.8c-18.1,25-34.4,51.1-52.2,76.3C546.9,278.2,546,281.2,546.3,283.9z M305.5,420
		c-2.1,2.1-1.7,3.3,1.4,4.6c0.6,0.5,0.7,1.1,0.7,1.9c-1.4,0.8-1,2.1-0.6,3.1c0.9,2.3,1.8,4.7,3.1,6.8c1.6,2.5,2.7,5.5,5.2,7.7
		c0.5-1.1,0.3-1.6,0.1-2.2c-2-5.3-4.1-10.6-6.1-15.8c-0.4-0.8-0.3-1.7-0.2-2.6c0.2-5.4,2.1-10.1,7.2-12.3c5.1-2.1,10.2-1.5,14.6,2.3
		c1.8,1.5,3.7,2.9,5.8,4.5c10.9-7,22.6-12.7,34.6-18.7c-1.5-1.1-2.5-2-3.6-2.6c-2.2-1.4-3.2-3.7-2.1-5.7c2.2-4.2,0.2-6.3-3.1-8.2
		c-0.8-0.4-1.4-1.1-2.1-1.7c-1-0.8-1.3-1.8-1-3.2c1.5-7.1,2.9-14.2,4.4-21.3c0.8-3.8,1.6-4,5.6-3c6.4,1.6,12.7,3.7,19,6.2
		c0.2-0.7,0.4-1.1,0.4-1.5c-0.5-8.9,2.3-7.4,8.3-7.3c0.6,0,1.2,0.1,1.8,0.1c8.8,1.3,17.7,1.3,26.6,1.8c2.5,0.2,4.4-0.4,5.7-2.5
		c1.1-1.7,2.4-3,4.4-3.6c1.8-0.6,2.8-2.1,3.9-3.5c4-5.2,8.2-10.1,12-15.4c2.2-3.1,4.2-5.8,4.4-9.8c0.3-4.7,0.7-4.7-3.6-7.2
		c-2.9,4.2-3.8,4.7-7,3.3c-3.7-1.8-7.4-3.6-10.7-6.3c-10.8-9-21.9-17.6-33.6-25.5c-4.5-3.1-9-6.3-13.4-9.4c-0.1-0.5-0.2-1.1-0.9-1.1
		c-0.9,0-0.9,0.8-1,1.5c-0.8,2.5-1.7,5.1-2.4,7.6c-1.2,4.1-2.5,8.2-3.7,12.4c-0.3,1.1-0.8,1.9-2.1,2c-1.2,0.1-2-0.6-2.4-1.6
		c-0.7-2.1-1.7-4-2-6.3c-1.1-7.4-1.1-14.8-1-22.2c0-1.3,0.6-2.7-0.7-3.8c-5-3.9-9.7-8.2-15.4-11.2c-12.4,18.1-24.6,35.9-35.5,54.6
		c-7.7,13.3-14.3,26.9-18.9,41.6c-4,12.7-5.9,25.6-3.7,38.6C300.2,396.5,301.7,408.5,305.5,420z M296,354.2c0.2-0.1,0.4-0.3,0.7-0.4
		c-0.2-0.2-0.4-0.3-0.6-0.5c0.4-2.3,0.6-4.7,1.3-6.9c2.2-7.2,4.6-14.3,7.8-21.1c7.6-16,16.5-31.3,26.2-46.1
		c6.6-10,13.3-19.8,20-29.7c0.7-1.1,1.6-2.1,1.5-3.5c-0.3-0.4-0.6-0.8-0.9-1c-8.7-6.7-17.5-13.4-26.2-20.2c-1.6-1.2-3.6-2.4-3.8-4.7
		c-0.2-2.7-0.5-5.4,0.1-8c2.2-10.4,5.3-20.5,9.9-30.1c1.5-3,3-6.1,4.6-9.3c-4.9-2.7-6.3-7.4-7.9-12.4c-1.6,5.6-2.7,10.9-5.3,15.7
		c-6.5,12.1-14.3,23.3-22.4,34.4c-11.8,16.2-23.5,32.5-34.8,49c-14.9,21.8-29.3,43.9-40,68.1c-3,6.9-6,13.8-8.3,20.9
		c-3.3,10-6.1,20.2-8.1,30.6c-1.3,7.1-2.3,14.3-2.6,21.4c-0.6,14.3-0.4,28.6,2.5,42.8c1.5,7.2,3,14.4,5.3,21.3
		c3.9,11.7,9.5,22.6,15.7,33.1c3,5.1,6,10.1,10.2,14.3c0.2,0.2,0.1,0.9,0.7,0.4c-0.2-0.1-0.4-0.3-0.6-0.4c-0.6-5.3-3.2-10-4.6-15.1
		c-3.5-12.7-5.9-25.5-6-38.6c-0.1-7.8-0.2-15.6,0.6-23.5c0.7-6.6,1.3-13.2,2.2-19.7c1.4-9.7,3.8-19.2,6.4-28.7
		c1.1-4.1,3.5-7.8,4-12.1c0.1-1.3,0.3-2.6,1.8-2.6c1.8,0.1,1.7,1.7,1.7,3c0,0.3,0.1,0.6,0,0.9c-1.1,4.6-1.3,9.3-2.1,13.9
		c-1.2,7.3-1.7,14.6-2.2,21.9c-0.4,5.9-0.1,11.8,0.5,17.7c0.6,5.3,1.4,10.5,2.6,15.6c2.5,10.4,6.2,20.2,11.5,29.5
		c4.7,8.2,10.6,15.4,17.2,21.8c6,5.8,12.9,10.8,20.2,14.9c3.6,2.1,7.3,4.2,12,5.7c-3.2-9.6-5.1-18.9-6.7-28.2
		c-1.6-9.5-4-18.8-5.2-28.3c2-0.8,3-0.4,4.3,0.3c3.2,1.9,6.4,3.7,9.8,5.1c9.9,4.2,19.4,9.4,29,14.3c0.7,0.4,1.3,1.4,2.3,0.5
		c0.2-1.1-0.6-1.6-1.2-2.2c-5.6-5.6-11-11.5-16.1-17.7c-10-12.4-17.8-26-22.2-41.4c-0.9-3.1-2.5-6-2.1-9.4c0.9-0.4,0.7-0.6-0.1-0.9
		c-0.6-0.3-0.7-0.8-0.8-1.4c-0.5-3.2-0.9-6.4-1.5-9.5c-2.1-11.7-4.4-23.4-2.2-35.4C294.7,359.5,294.5,356.7,296,354.2z M617.5,239.8
		c1.1,2.7,2,5.2,3.2,7.5c6.2,11.6,13.6,22.3,24.2,30.6c8.2,6.4,16.9,11.1,27.3,12.2c4.3,0.4,6.3-0.8,6.7-5c0.3-3.4,0.5-6.9-0.1-10.2
		c-1.2-6-2.3-12-4.1-17.9c-4.3-14-9.5-27.5-18.8-39c-1.2-1.6-2.4-2.2-4.1-1.6c-1.1,0.4-2.3,0.4-3.4,0.7c-5.7,1.4-11.4,2.7-15.2,7.8
		c-1,1.3-2.2,2.4-3.5,3.4C625,231.6,621.6,236.1,617.5,239.8z M373.3,178.5c-8.7,7-15.5,15.6-23.1,23.5c-1.8,1.8-3.8,3.8-5.1,6.1
		c-2.9,5.3-5.2,10.9-6.9,16.7c-1.1,3.7-0.3,5.3,2.9,7.8c7.7,6,15.2,12.1,23.2,17.6c3.2,2.2,6.3,4.6,9.4,7c0.9-1,0.6-1.9,0.7-2.7
		c0.6-4.9,1.3-9.8,2.5-14.7c1.5-6.3,3.1-12.5,5.2-18.6c0.7-2,1.2-4.5-1-6.5c-1.2,1.1-1.6,2.4-2.2,3.5c-2.9,5.8-5.9,11.6-8.8,17.4
		c-0.6,1.1-1.1,2.2-2.6,2c-1.4-0.2-1.9-1.2-2-2.5c-0.6-8.2,0.8-16.4,0.3-24.6c2.2-3.8,1.9-8.2,2.9-12.3
		C370.2,191.6,371.9,185.1,373.3,178.5z M393.2,252c-2.9,4.9-4.7,10.2-6.2,15.7c17.9,11.2,34.5,23.7,51,36.9
		c1.7-5.4,4.8-9.7,6.7-14.8c-3.3-1.1-6.5-2.1-9.6-3.2c-12.4-4.5-24.2-10-33.3-20.1c-2.7-3-4.8-6.2-6.2-10.1
		C395.1,254.9,395.3,253,393.2,252z M542.9,314.5c-4.6-7.5-5.5-16.2-7.5-24.7c-8,4.9-13.3,11-15.1,19.9c-0.5,2.3-1.4,4.5-1.9,6.8
		c-1.2,5.1-1.9,10.1-0.8,15.4c0.6,2.6,2,4.1,4.2,5.3c1.9,1,3.4,0.9,4.3-1.3c0.9-2.2,2.2-4.2,2.8-6.5c1-3.9,3.3-6.5,6.5-8.6
		C538.1,319,541.1,317.5,542.9,314.5z M377.1,284.6c1.3-1.1,1.5-2.2,1.8-3.4c3.8-11.7,8.4-23.1,13-34.5c0.9-2.2,2.8-3.5,3.1-6.2
		c0.7-6.8,2.3-13.5,3.3-20.3c0.2-1.7,1.9-3.3,0.4-5.3c-0.3,0.6-0.7,1.1-0.9,1.6c-3.7,9.6-7.6,19.1-10.8,28.9
		c-0.4,1.3-0.5,2.9-2.3,2.6c-1.3-0.3-1.5-1.7-1.4-2.9c0.4-4.2-1.2-8.1-1.3-12.3C377.4,249.7,374.7,266.7,377.1,284.6z M367.7,360.7
		c-1.5,5.3-2.2,9.9-3.2,14.4c-0.7,3,0.4,4.4,2.6,6c2.7,2,5.1,4.7,3.4,8.6c-0.9,2-0.1,3.2,1.3,4.1c1.1,0.8,2.2,1.5,3.2,2.4
		c2.5,2.2,4.7-0.1,7-0.8c2.2-0.7,1.6-2.8,1.3-4.2c-0.5-2-0.8-4-0.8-6.1c0-3.1-0.1-6.2,0-9.3c0.1-1.8-0.5-3.2-1.9-4.2
		C376.3,368.4,372.2,365,367.7,360.7z M561,406.7c-7.7,0.5-14.7,0.4-19.3-6.3c-4.1,3.9-5.2,9.4-9,13.4c2.5,4.2,5.5,8.1,9.3,11.1
		c2.1,1.7,3.4,3.4,3.8,5.9c3.1-0.3,4.1-2.4,5.3-4.5C554.6,420.2,556.5,413.4,561,406.7z M499.6,441.7c-0.3,5.4,0.2,6.1,5,6.8
		c1.2,0.2,2.4,0.2,3.5,0.3c6,0.6,11.9,1.2,15.8-5c1.1-1.7,2.9-3,4.4-4.4c4.1-3.8,7.4-8.3,12.3-11.3c-1.2-2.1-2.5-3.4-4.4-4.6
		c-6.2,5.2-12.7,9.8-18.2,15.5c-1.7,1.8-3.6,3.1-6.1,3.2c-2.8,0.1-5.6,0.3-8.4-0.5C502.2,441.5,500.9,441.1,499.6,441.7z
		 M465.8,315.1c-8.5,11.1-16.3,21.9-25,32.6c2.7,0.7,4.2-0.6,5.6-1.4c5.6-3.1,10.7-6.9,15.4-11.2c3.1-2.8,6.2-5.5,8.2-9.3
		c1.3-2.5,2.2-5.1,1.1-7.9C469,317.5,466.4,319,465.8,315.1z M541.9,440.2c4.4,2.1,9,1.3,10.8-1.7c3.3-5.8,7.6-10.9,12-15.8
		c0.9-1,1.9-1.8,2.2-3.2c0.9-4.3,2-8.6,1.6-13c-1.7-0.9-2.7-0.5-3.9,0.9c-3,3.6-4.8,7.8-6.6,12c-1.5,3.7-3.3,7.3-5.4,10.6
		c-1.6,2.5-3.6,4.4-6.7,4.4c-1.7,0-2.4,0.9-2.9,2.2C542.5,437.7,542.3,438.8,541.9,440.2z M669.9,99.6c-4.5,7.3-9.4,14.4-12.2,23
		c7,0.4,13.6-0.4,20.5,1.1C675.6,115.2,673.6,107.4,669.9,99.6z M431.2,438.9c-1.9-5.1-3.5-9.6-3.5-14.6c0-2.3-2.1-3.2-3.7-3.2
		c-5,0-9.9-1.6-14.9-1.1c-1,0.1-2,0.2-2.4,1.9c2,0.6,4.1,1,6.1,1.8c1.8,0.7,3.3,1.5,3.6,3.9c0.3,2,0.7,4,0.7,6.1
		c0,1.9,0.6,3.2,2.8,3.2C423.6,436.9,427,438.3,431.2,438.9z M459.8,317.7c3.2-2.7,3.3-6.7,6.8-7.8c0.2-0.1,0.3-0.8,0.4-1.2
		c0.8-4.3,1.9-8.5,3.9-12.8c-3.2-0.7-6.1-1.2-9-1.9c-1.4-0.3-2.2,0.3-2.8,1.5c-1.3,2.6-2.7,5.2-4,7.9c-1.2,2.4-0.9,4.5,1.5,5.6
		C460.2,310.8,460.9,313.5,459.8,317.7z M456.6,293.5c-2.4-1.5-4.6-2.1-6.9-2.5c-2.2-0.4-3.4,0.7-3.8,2.6c-0.5,2.5-1.7,4.5-3.2,6.6
		c-3.6,5-3,6.3,2.5,8.8c0.8,0.4,1.5,0.9,2.6,0.4C451.1,304.6,454.2,299.5,456.6,293.5z M461.2,450.3c-3.6-2.9-6.7-6.3-10.6-7.4
		c-5.1-1.5-10.6-1.6-16.3-2.3c0.4,1,0.7,1.7,0.9,2.4c1,5.1,4.4,6.3,9.2,6.8c4.2,0.4,8.5,0,12.6,1.4
		C458.1,451.5,459.4,451.6,461.2,450.3z M469.1,314.3c4.5-1.9,8.4-4.4,12.9-5c0.4-2.2,0.3-4.1-0.4-5.9c-0.7-1.9,0-4.1-1-6
		c-0.6-0.1-1.2-0.2-1.8-0.3c-4.6-1-5.4-0.7-6.8,3.7C470.6,305,469.5,309.4,469.1,314.3z M408.1,368c6.1-3.8,11.5-7.2,16.9-10.5
		c-0.1-0.2-0.2-0.5-0.2-0.7c-9.2-0.6-18.4-1.2-28.6-1.8c2,1.5,3.2,2.6,4.8,2.9C406,359,408.7,362,408.1,368z M613.2,189.4
		c5.4-2.6,9.7-7.4,12.3-13.7c-2-2-3.8-4.2-6.2-5.9C616.8,172.7,615,178.2,613.2,189.4z M484.4,454.8c-2.2,0.4-3.8,1.4-5.4,2.5
		c-1.8,1.3-3.4,1.3-5.1-0.3c-2.8-2.7-6.4-4.1-9.9-5.6c-2.4,5.8-2.1,6.6,4.2,7.7c5.1,0.9,10.3,1,15.4,0.1c0.3,0,0.5-0.3,0.7-0.5
		C484.8,457.5,485,456.4,484.4,454.8z M351.4,110.3c7.9-4.6,11.7-8.1,12.2-10.8C356.3,97.8,351.2,102.1,351.4,110.3z M484.1,297.5
		c-0.2,3.9,0.7,7.1,1.9,10.8c3.2-3.6,7-5.8,9.6-9.8C491.5,298.1,488,297.8,484.1,297.5z M608.7,175.7c3.9-3.2,4.9-8.3,9.6-10.9
		c-3.1,0-5.7,0-8.3,0C608.3,168.3,608.6,171.9,608.7,175.7z M489,453.8c2.8,0,5.6-0.9,8.5-0.8c2.8,0.2,5.8,2.6,8.7-0.6
		C500.1,449.7,494.5,449.6,489,453.8z M332.9,127.7c2-1.7,4.1-2.7,3.6-4.5c-0.7-2.6-0.7-5.8-3.9-7.7
		C332.2,119.5,332.4,123.2,332.9,127.7z M323.9,128.9c0.2,3.7,0.2,3.7,1.8,6.5C328.6,133.3,328.5,133,323.9,128.9z M548.4,402.4
		c0.7-1.9,0.8-3.4,0.2-5.2c-1.3,0.6-2.8,0.3-4.2,1.5C545.3,400.1,546.3,401.4,548.4,402.4z M345.6,109.2c-1.9,2.5-1.5,4.7-1.1,7.3
		C347.5,114.2,347.5,114.2,345.6,109.2z M335.8,220.1c-4.3,4.8-4.4,5.3-0.7,6.9C334.5,224.5,336.7,222.7,335.8,220.1z M538.6,439
		c1.6-1.9,1.8-4,2-6.6C536.9,434.2,538.7,436.9,538.6,439z M355.9,133.6c-0.1,5.4,0.6,7.9,2.7,8.8
		C357.1,139.6,357.9,136.5,355.9,133.6z M396.8,359.6c-1-1.4-1.9-2.1-3.5-1.6c-0.2,1.1-0.7,2.1,0.3,3.2
		C394.8,361.1,395.8,360.6,396.8,359.6z M385.5,86.9c2.7-1.6,2.7-1.6,0.6-3.9C384.9,84.1,384.8,85.4,385.5,86.9z M328.7,146.8
		c-1.1-0.4-2.2-0.1-2.5,1c-0.4,1.2,0.8,1.7,1.7,2.1c0.2,0.1,0.5-0.1,0.8-0.2C329.1,148.7,329.3,147.7,328.7,146.8z M435.5,351.2
		c2.5,0.4,3.7-1.2,5.8-2C438.7,348.7,437.1,349.2,435.5,351.2z M383.3,400.5c0.9-0.1,1-0.8,1.1-1.6c0.1-0.6-0.3-0.9-0.7-0.9
		c-0.8-0.1-1.4,0.4-1.5,1.3C382.2,399.8,382.5,400.4,383.3,400.5z M318,447.3c-0.5,0.1-0.6,0.6-0.5,1c0.1,0.7,0.4,1.1,1.1,1
		c0.2,0,0.4-0.4,0.4-0.7C319,447.9,318.6,447.5,318,447.3z M640.2,472.4l0.1-0.2l-0.2,0L640.2,472.4z M341.9,481.3l0.2-0.2l-0.3,0
		L341.9,481.3z M619.7,166.1l0.2-0.2l-0.3,0L619.7,166.1z M434.5,352.2l0.1-0.2l-0.2,0L434.5,352.2z"/>
	<path fill="#2E97A5" d="M690.4,148.4c2.2,10.9,4.5,21.8,6.6,32.8c1.2,6,2.3,12.1,3.2,18.2c2.4,17,5.7,33.8,10.2,50.4
		c6.1,22.7,14.1,44.9,21.5,67.2c5.4,16.3,10.7,32.7,14.9,49.4c2.5,10,4,20.1,5.3,30.3c0.7,5.4,1.2,11,1.1,16.2
		c-0.1,5.8-0.1,11.7-1,17.6c-0.8,5.2-1.6,10.4-2.9,15.6c-2.5,10-6.2,19.3-11.6,28c-5.6,9-12.3,17.2-19.2,25.3
		c-6.1,7.1-12.9,13.4-19.4,20.1c-6.6,6.8-14.5,11.4-23.4,14.6c-7.1,2.5-14.3,4.5-21.9,4.4c-0.7,0-1.5,0.1-2.2-0.4
		c-0.5-1.3,0.5-2.2,1-3.2c4.6-9.3,9.1-18.6,13.9-27.8c7.3-14.1,11.7-29.1,14.3-44.7c1.7-10.2,2.7-20.4,2.5-30.8
		c0-1.3,0.1-2.6-0.6-3.9c-1-1.8-2.2-2.1-3.3-0.4c-2.2,3.3-4.9,6.3-7.5,9.3c-4,4.5-7.5,9.5-11.6,13.9c-4.8,5.1-9,10.6-14.2,15.3
		c-0.6,0.6-1.2,1.3-2.4,1.4c-0.7-2,0.8-3.4,1.5-4.8c7.3-12.7,14.1-25.6,19-39.4c1.6-4.5,3.3-9.1,3-14c-1.8-1.1-2.8-0.3-3.4,1
		c-3.9,7.9-10.8,12.8-17.3,18.1c-9.1,7.3-18.2,14.5-27.3,21.7c-6.2,4.9-12.7,9.6-18.8,14.8c-7.1,6-14.1,12.1-20.1,19.4
		c-2.3,2.8-4.3,6-7.4,8.1l0,0c-0.3-2.1,0.3-4.1,0.9-6.1c4.9-16.8,13.8-31.5,24.3-45.3c8.7-11.6,18.1-22.5,27.7-33.3
		c9.2-10.4,18.5-20.6,26.2-32.2c6.1-9.2,11-19,12.4-29.9c0.9-6.8,0.7-13.9-0.2-20.8c-1.2-8.8-3.3-17.3-6.5-25.5
		c-0.1-0.4,0.1-0.9,0.1-1.4c5.8-1,11.5-2.2,17.3-3c2.8-0.4,4.5-1.8,5.6-4.3c1.8-4.2,2.3-8.6,1.7-13c-2.5-17.6-7.7-34.4-16.1-50.1
		c-2.2-4-5-7.6-7.7-11.3c-1.3-1.7-1.2-2.9,0.6-4c3.4-2,5.1-5.4,6.3-8.9c0.9-2.6,2.5-3.4,4.8-3.8c3.5-0.6,6.9-1.2,10.4-1.7
		c1.2-0.2,2.3-0.6,3.3-1.2c3.1-1.9,3.4-6.1,0.4-8.1c-2.1-1.4-4.3-2.5-7-2.3c-2.7,0.2-5.3,0-8-0.1c-0.2,0-0.4-0.4-0.8-0.8
		c1.1-1.4,2.9-1.8,4.3-2.7c4-2.3,8-4.5,11.1-8c2.5-2.9,4-6.2,2.3-10.1c-1-2.5-2.4-3.2-5.1-2.5c-4.3,1.2-8.1,3.6-11.8,6
		c-1.2,0.8-2.5,1.6-4.5,2.4c0-4.2,3.5-5.9,4.9-8.8c1.4-3,2.8-6.2,4.8-8.9C679.8,151.2,685.1,149.8,690.4,148.4z"/>
	<path fill="#2E97A5" d="M240.8,511.9c-4.2-4.2-7.2-9.2-10.2-14.3c-6.2-10.6-11.8-21.5-15.7-33.1c-2.3-7-3.8-14.2-5.3-21.3
		c-2.9-14.1-3.2-28.5-2.5-42.8c0.3-7.2,1.3-14.3,2.6-21.4c2-10.4,4.8-20.6,8.1-30.6c2.3-7.1,5.3-14,8.3-20.9
		c10.7-24.3,25.1-46.3,40-68.1c11.3-16.5,23-32.8,34.8-49c8.1-11.1,15.8-22.4,22.4-34.4c2.6-4.8,3.7-10.1,5.3-15.7
		c1.6,5,3,9.7,7.9,12.4c-1.6,3.3-3.1,6.3-4.6,9.3c-4.6,9.6-7.6,19.7-9.9,30.1c-0.5,2.6-0.3,5.3-0.1,8c0.1,2.3,2.2,3.5,3.8,4.7
		c8.7,6.8,17.5,13.5,26.2,20.2c0.3,0.3,0.6,0.7,0.9,1c0.1,1.4-0.8,2.4-1.5,3.5c-6.7,9.9-13.4,19.7-20,29.7
		c-9.7,14.8-18.6,30.1-26.2,46.1c-3.2,6.8-5.6,13.9-7.8,21.1c-0.7,2.2-0.9,4.6-1.3,6.9c0,0.3,0,0.6-0.1,0.9c-1.5,2.5-1.3,5.3-1.8,8
		c-2.3,12,0,23.7,2.2,35.4c0.6,3.2,1,6.4,1.5,9.5c0.1,0.6,0.3,1.1,0.8,1.4c0,0.3,0.1,0.6,0.1,0.9c-0.4,3.4,1.3,6.3,2.1,9.4
		c4.4,15.4,12.2,28.9,22.2,41.4c5,6.2,10.4,12.1,16.1,17.7c0.6,0.6,1.4,1.1,1.2,2.2c-1,0.9-1.5-0.1-2.3-0.5
		c-9.6-4.9-19.1-10.1-29-14.3c-3.4-1.4-6.6-3.3-9.8-5.1c-1.3-0.7-2.3-1.1-4.3-0.3c1.2,9.5,3.6,18.8,5.2,28.3
		c1.6,9.4,3.5,18.6,6.7,28.2c-4.7-1.5-8.3-3.6-12-5.7c-7.3-4.2-14.3-9.1-20.2-14.9c-6.6-6.5-12.5-13.7-17.2-21.8
		c-5.3-9.3-9.1-19.1-11.5-29.5c-1.2-5.1-2-10.3-2.6-15.6c-0.6-5.9-0.9-11.8-0.5-17.7c0.5-7.3,0.9-14.6,2.2-21.9
		c0.8-4.6,1-9.3,2.1-13.9c0.1-0.3,0-0.6,0-0.9c0-1.4,0.1-3-1.7-3c-1.5,0-1.7,1.3-1.8,2.6c-0.5,4.3-2.9,8-4,12.1
		c-2.6,9.5-5,19-6.4,28.7c-1,6.5-1.6,13.1-2.2,19.7c-0.8,7.9-0.7,15.7-0.6,23.5c0.1,13.1,2.5,26,6,38.6
		C237.6,501.8,240.3,506.5,240.8,511.9L240.8,511.9z"/>
	<path fill="#90D1D3" d="M354.5,113.3c1.4-3,4.4-4.3,6.8-6.1c13.9-10.2,28.5-19.2,44.2-26.2c1-0.4,2.1-0.7,1.8-2
		c-0.2-1-1.1-1.3-2-1.5c-0.7-0.1-1.5-0.1-2.2-0.1c-13.3-0.1-26.6,0.7-39.9,1.6c-8.9,0.6-17.7,0.8-26.6,1.2c-0.3-1.7,1-1.8,1.8-2.2
		c17.1-8.4,35-14.3,53.7-17.7c10.2-1.8,20.4-3.1,30.8-3.8c6.8-0.4,13.6-0.7,20.4-0.8c1.2,0,2.9,0.5,3.2-1.4c0.3-1.8-1.4-2.1-2.5-2.6
		c-10.4-4.8-19.9-11-28.9-18.1c-1.3-1-2.6-2-3.5-3.4c0.2-0.2,0.4-0.4,0.5-0.5c7.6,1.9,14.6,5.6,22.1,7.9c11.7,3.7,23.7,6.3,35.9,7.6
		c11.5,1.3,22.9,2.3,34.4,4c5.1,0.8,10.3,0.4,15.5,1c11.9,1.3,23.7,3.5,35.4,5.9c10.1,2.1,19.9,4.8,28.9,9.7
		c13.9,7.5,26.7,16.4,36,29.6c5.4,7.7,9.2,16.2,12.3,25c0.7,1.9-0.4,3.2-1.3,4.5c-3.3,5.3-6.2,10.8-8.9,16.4
		c-1.8,3.7-2.9,7.5-2.2,11.6c-0.3,0-0.5,0-0.8,0c-2.2-8.5-5.9-16.4-9.9-24.1c-1.8-3.4-2.2-7.3-4.1-10.7c-4.3-8-9.7-15.2-15-22.5
		c-0.3-0.5-0.8-0.9-1.3-1.2c-0.8-0.5-1.7-0.6-2.4,0.2c-0.6,0.6-0.3,1.4,0.1,2c1.4,1.9,3,3.7,4.4,5.6c4,5.5,7.8,11.1,11.1,17.1
		c1.8,3.2,2.6,6.5,2.8,10.1c0.6,8.7,1.1,17.4,0.7,26.2c-10,1.9-19.9,3.7-30.1,3.7c-1.5,0-2.9,0.3-3.8,1.7
		c-5.6-7.8-13.1-13.1-22.2-16.1c-2-0.6-2.3-1.8-2.7-3.5c-3.4-15.1-6.9-30.2-12.5-44.7c-0.8-2.1-1.3-4.4-3.1-5.9
		c-1.5,0.3-1.8,1.5-2,2.4c-4.6,15.7-10.7,31-16,46.5c-1.9,5.6-3.6,11.2-5.4,16.8c-0.2,0.7-0.2,1.5-1,1.9c-6-0.1-11.9-1.6-17.9-2.3
		c-5.3-0.6-10.3-2.3-15.7-2.1c-0.3-15,1.9-29.7,5.5-44.2c1.8-7.2,3.4-14.3,5.3-21.5c0.8-3.1,2-6.2,3.7-9c0.6-0.9,1-2-0.1-2.7
		c-0.9-0.6-2.2-0.6-2.9,0.3c-1.7,2.3-4.3,4.1-4.8,7.2l0,0.1c-3.6,1.5-5.1,5.1-7.3,7.9c-8,9.6-16.2,19.1-23.5,29.4
		c-2.3,3.3-4.9,5.9-9.4,5c-0.7-0.1-1.4,0.2-2.2,0.3c-9,1.6-16.6,5.8-23.1,12.1c-0.7-1.3-2.1-1.5-3.3-1.9c-3.4-1.2-6.9-2.4-10.3-3.6
		c5.6-14.9,12.5-29.1,22.2-41.7c1.4-1.8,2.9-3.4,4.3-5c1-1.2,3.2-2.4,1.6-4c-1.9-2-3.1,0.7-4.1,1.8c-4.5,4.7-8.2,10.1-11.6,15.6
		c-5.8,9.5-10.6,19.5-14.6,29.8c-0.3,0.7-0.3,1.5-1.1,1.8c-0.7-0.1-1.6,0.2-2.1-0.2c-3.8-2.8-8.5-3.4-12.6-5.5
		c1-2.1,2.8-3.4,4.5-4.8c0.5-0.5,1.2-0.9,1.8-1.3c0.8-0.7,1.7-1.5,1-2.6c-0.7-1.1-1.8-0.7-2.8-0.3c-2.1,0.8-4.1,1.7-6.2,2.4
		c-2.5,0.9-4.7,2.5-7.4,2.6c-0.9,0.1-1.7-0.3-2.5-0.7C365.5,118.9,360.1,116,354.5,113.3z"/>
	<path fill="#3A424A" d="M595.2,220.5c0.6,1.2,1.1,2.4,1,3.8c-0.5,9.2,2.9,17.6,6.3,25.9c2.2,5.3,4.4,10.6,7.8,15.3
		c3.2,4.4,6.7,8.5,11,11.9c5,3.9,9.8,8,15.1,11.5c3.8,2.5,7.8,4.6,12.3,6.3c-0.7,1.7-2.4,1.7-3.6,2c-19.2,4-38.1,8.9-56.8,14.8
		c-5.9,1.8-11.8,3.4-17.6,5.3c-2.9,1-5.1,0.2-7.3-1.7c-6.4-5.7-11-12.6-13.7-20.8c-1.2-3.6-3.5-6.8-3.3-10.9
		c4.3-3.7,7-8.7,10.4-13.1c8.7-11.5,16.7-23.5,25.3-35C586,230.5,589.9,224.9,595.2,220.5z"/>
	<path fill="#BFC8CF" d="M535.9,402.5c-2.1,5.3-5.6,8.9-10.6,11.9c-10.3,6.3-21.4,8.9-33.1,10.2c-7.8,0.9-15.6,1.1-23.5,0.8
		c-3.2-0.1-5.6-1.3-7.8-3.5c-8.5-8.7-13.6-19.1-16.7-30.8c-0.3-1.3-0.2-2.3,0.5-3.4c1.9-2.8,3.1-6,5.3-8.7c2.8,0.1,4.2-2.6,6.7-3.1
		c2.5,1.6,5.3,2.5,8.2,3.2c6.7,1.6,13.4,1.1,20.1-0.1c7.8-1.4,15.6-2.9,22.9-6.2c3.1,0,6.2,0,9.4,0c0.1,0.4,0.1,0.8,0.2,1.3
		c-7.4,2.7-14.9,5.4-22.3,8.1c0.9,0.4,1.9,0.6,2.7,0.4c6.4-1.6,13.1-1.3,19.6-2.5c2.6-0.5,4.2,0.4,5.6,3
		C526.7,389.9,531.5,396.1,535.9,402.5z"/>
	<path fill="#3A424A" d="M617.5,239.8c4.1-3.7,7.6-8.2,12.2-11.5c1.3-0.9,2.6-2.1,3.5-3.4c3.8-5.1,9.5-6.4,15.2-7.8
		c1.1-0.3,2.3-0.2,3.4-0.7c1.7-0.7,2.8,0,4.1,1.6c9.3,11.6,14.5,25.1,18.8,39c1.8,5.9,2.9,11.9,4.1,17.9c0.6,3.3,0.4,6.8,0.1,10.2
		c-0.4,4.2-2.4,5.4-6.7,5c-10.5-1.1-19.1-5.8-27.3-12.2c-10.6-8.3-17.9-19-24.2-30.6C619.4,245,618.6,242.5,617.5,239.8z"/>
	<path fill="#FAA9A9" d="M464.4,250.2c8.5,0.2,17,1.4,25.4,2.9c2.7,0.5,5.6,0.1,8.3,1.2c4.8,3.4,9.7,6.7,14.5,10.1
		c3.3,5.4,4.6,11.5,6.1,17.5c0.7,3,1.2,6.1,1.6,9.2c0.4,2.8-0.1,3.3-3,3.6c-14.5,1.9-28.9,0.6-43.3-1.2c-8.8-1.1-17.1-4.2-25.8-5.2
		c-1.9-0.2-3.3-1.3-3-3.9c0.3-2.9-0.1-5.9-0.3-8.8c-0.4-6.4,1.1-12.3,3.6-18.1c0.9-0.2,1.9-0.2,2.5-0.7
		C455.1,253.8,459.8,252.1,464.4,250.2z"/>
	<path fill="#2E97A5" d="M393.2,143.3c0,3.2-1.2,6.1-2.1,9c-3.1,10-5.7,20-7,30.4c-0.9,6.6-1.8,13.1-1.7,19.8c0,1,0.1,2.1-0.4,3
		c-4.6,7.4-7.9,15.5-12,23.2c-0.3,0.5-0.5,1.1-1.6,1.3c-0.1-0.9-0.2-1.8-0.1-2.8c0.5-12.8,2.4-25.4,5.7-37.8c1.3-5,2.8-9.9,4.3-14.8
		c0.4-1.3,1.2-2.7-0.1-3.6c-1.2-0.8-2.5-0.1-3.5,1c-6.7,7.1-14.2,13.4-20.4,21c-2.7,3.3-5.8,6.3-8.7,9.5c-4,4.6-7.6,9.3-11.4,14.2
		c-1-0.7-0.7-1.6-0.5-2.3c4.9-18.9,12.1-36.8,22.4-53.5c4.7-7.7,10.2-14.8,15.4-22.1c0.9-1.2,1.7-2.9,3.7-2.8
		C381.6,137.4,387.7,139.6,393.2,143.3z"/>
	<path fill="#2E97A5" d="M605.5,167.6c1.2,3.3-0.5,6.4-0.7,9.6c-0.2,4.5-2.3,8.3-5.1,11.9c-9.7,12.8-18.2,26.5-27.3,39.7
		c-3,4.3-5.4,9.1-9.1,13c-1.5-0.4-0.9-1.7-1-2.6c-0.6-10-0.9-20.1-2-30c-1-8.7-2.7-17.4-4.6-26c-0.8-3.4-1.6-6.9-1.5-10.5
		c6.4-0.7,12.9-1.4,19.3-1.3c1.9,1,2.5,3,2.8,4.8c1,5.8,3,11.4,2.9,17.3c0,1.1,0.1,2.2,1.6,2c1.2-0.1,1.1-1.2,1.1-2.1
		c0.2-3.9-0.6-7.6-1.4-11.3c-0.8-3.7-2-7.4-2.3-11.2C587.4,170.2,596.5,169.2,605.5,167.6z"/>
	<path fill="#F8F0E6" d="M612.9,194.5c2.5-2.1,4.8-4.4,7.5-6.3c2.9-2.1,4.9-4.8,6.4-7.8c2.5-4.9,4.8-9.9,6.8-14.9
		c3.2-7.7,6.9-15.1,10.8-22.4c1.2-2.2,2.5-4.3,5.2-5c1.1,1,0.6,2,0.5,3c-0.5,3.4-1,6.7-1.7,10.1c-0.5,2.6-0.6,5.3-3.9,6.3
		c-1.4,0.4-2.1,2-2.8,3.3c-4,6.9-8,13.9-12,20.8c-0.7,1.1-1.4,2.3-0.4,3.6c2.3,0.4,2.5-1.5,3.1-2.6c3.1-5.4,6.1-10.8,9.2-16.2
		c0.7-1.3,1.2-2.7,2.4-3.6c0.6,2.9-1.2,5-2.3,7.4c-1.5,3.7-4.1,7.1-2.3,11.6c0.6,1.5,0.1,3.4-0.2,5.2c-0.5,3.1-1.8,6.1-1.2,9.2
		c1.2,0.8,2.3,0.5,3.3,0.6c0.9,1.5,2.2,1.8,2.9,0.1c1.8-3.9,3.4-8,2.2-12.3c-0.7-2.4-0.6-4.5,0.1-6.8c0.7-2.2,1.4-4.5,1.8-6.8
		c0.3-1.7,1.1-2.7,2.6-3.1c0.1,1,0.1,2,0.2,3c-0.5,1.3,0.1,2.2,1,3c2.3,2.2,3.7,4.9,4.8,7.8c1.5,4,2.5,8.1,2.8,12.4
		c0.1,1.4,0.1,2.7,1.9,2.8c0.1,1.8,0.2,3.7,0.3,5.5c-2.5,6.8-7.5,10.7-14.4,12c-3.5,0.6-6.6,2.4-10.2,2.4c-4.1-2.7-7.6-6.2-12.1-8.4
		c-0.2-0.2,0-0.9-0.6-0.4c0.2,0.1,0.4,0.2,0.6,0.4c0.4,3.5,3.3,5.8,4.5,9.2c-3.4,1.4-5.8,4.4-9.3,6
		C617.3,213.8,614.7,204.3,612.9,194.5z M624,205.9l0.2,0.1l0-0.2L624,205.9z"/>
	<path fill="#8ED0D2" d="M389.3,416.9c-2.2-4.1-2.1-8.8-3.2-13.2c-0.2-0.8,0-1.7,0.5-2.6c1.7-3.1,3.3-6.3,5.2-9.3
		c1.6-2.6,2.7-2.8,5.5-1.2c0.6,0.4,1.2,0.8,1.8,1.2c0.6,0.4,1.1,0.9,1.7,1.4c4-2.4,4.1-3.3,0.9-5.9c-0.7-0.6-1.4-1.1-2.1-1.6
		c-0.7-0.5-1.4-1-2.2-1.6c0.9-2.1,2.5-3.4,3.7-5c3.3,0.4,5,3.7,7.8,4.7c1.9-4.3,1.8-4.6-3.5-8.9c1.8-2.2,4-3.8,6.3-5.3
		c7.8-5.1,15.7-10.2,24-14.5c5.3-2.8,11-5,16-8.3c6.7-4.4,12.8-9.6,18.2-15.5c1.2-1.3,2.1-2.9,2.8-4.5c0.9-2.1,2.1-3.1,4.4-2.4
		c2.4,0.8,5,0.5,7.5,0.7c-3.3,5.6-7.2,10.8-11.6,15.6c-4.7,5.1-10.3,9.3-15.2,14.2c-3.2,3.2-7,5.9-10.8,8.5
		c-7,4.7-13.7,9.7-19.9,15.4c-7.6,7-14.6,14.6-20.3,23.4c-1.8,2.7-3.8,5.2-5.6,7.9c-0.7,1-1.3,1.9-2.5,2.4
		C395.7,413.7,392.5,415.3,389.3,416.9z"/>
	<path fill="#2E97A5" d="M426.1,153.8c-2.2,5.6-5.7,10.6-8.6,15.9c-2.7,5-5.6,9.9-7.9,15.2c-0.8,1.7-2,3.3-2.8,5
		c-6.3,13-12.5,26-17.3,39.6c-0.9,2.6-2,5.1-3.3,8.3c-1.9-13.1-1.4-25.5-0.8-37.9c0.9-19.1,5.4-37.7,11.7-55.8
		c3.2,1.1,6.3,2.2,9.5,3.3c-0.4,1.3-1.6,2-2.3,3.1c-0.4,0.6-0.6,1.4-0.1,2c0.7,0.8,1.5,0.6,2.3,0c1.8-1.2,2.4-3.4,3.9-4.9
		c0.5,2.1,2.5,1.9,4,2.3C418.2,151.1,422.2,152.3,426.1,153.8z"/>
	<path fill="#39424A" d="M373.3,178.5c-1.4,6.6-3,13.1-4.6,19.6c-1,4.1-0.7,8.5-2.9,12.3c0.5,8.2-0.8,16.4-0.3,24.6
		c0.1,1.3,0.6,2.3,2,2.5c1.4,0.2,2-0.9,2.6-2c2.9-5.8,5.8-11.6,8.8-17.4c0.6-1.2,1-2.5,2.2-3.5c2.2,2,1.7,4.5,1,6.5
		c-2,6.1-3.6,12.4-5.2,18.6c-1.2,4.8-1.9,9.7-2.5,14.7c-0.1,0.8,0.2,1.8-0.7,2.7c-3.2-2.3-6.2-4.7-9.4-7c-8-5.6-15.5-11.6-23.2-17.6
		c-3.2-2.5-4.1-4.1-2.9-7.8c1.8-5.8,4-11.4,6.9-16.7c1.3-2.3,3.3-4.2,5.1-6.1C357.8,194.1,364.6,185.5,373.3,178.5z"/>
	<path fill="#BFC8CF" d="M514.3,320.4c0,2.8,0,5.6-0.1,8.4c-0.1,5.5,2.2,9.6,7.4,11.9c-2.3,6.7-3.2,13.4-0.3,20.1
		c-8,4.3-51,12.2-58.5,10.7c5.3-3.5,9.4-8.3,13.8-12.5c6.3-6,10.9-13.4,14.5-21.5c1.4-3.1,3.2-6,2.7-9.6c-0.1-1,0.7-1.1,1.5-1.1
		c1.1,1.8,2.4,1.9,3.8,0.3c1.7-2,3.3-4,4.9-6C507.5,321.7,510.8,319.7,514.3,320.4z"/>
	<path fill="#949AA3" d="M495.3,326.7c-0.8,0-1.7,0.2-1.5,1.1c0.5,3.6-1.3,6.6-2.7,9.6c-3.5,8-8.2,15.5-14.5,21.4
		c-4.4,4.2-8.5,8.9-13.8,12.5c7.4,1.5,50.4-6.4,58.5-10.7c-2.8-6.7-2-13.4,0.3-20.1c3.1,0.8,5.5-0.2,7.3-3.6
		c0.8,2.7-0.3,4.6-0.6,6.4c-0.9,4.7-0.7,9.4-0.8,14.2c0,2.1,0.1,4.2,2,5.6c1.5,1.1,0.9,2.4,0.3,3.6c-2.6,5.2-1.4,9.6,2.5,13.7
		c3.4,3.7,7.2,7.1,11.2,10.1c1.2,0.9,2.3,1.8,2.9,3.1c-1.7,2-4.6,0.8-6,2.8c-1.2,1.7-2.3,3.4-3.5,5.1c-0.3,0.4-0.6,0.6-0.9,0.9
		c-4.3-6.5-9.2-12.6-12.9-19.5c-1.4-2.6-3-3.5-5.6-3c-6.5,1.3-13.2,0.9-19.6,2.5c-0.8,0.2-1.7,0-2.7-0.4c7.4-2.7,14.9-5.4,22.3-8.1
		c-0.1-0.4-0.1-0.8-0.2-1.3c-3.1,0-6.2,0-9.4,0c-0.5-3-2.6-1.8-4.1-1.3c-6.2,1.8-12.4,3.5-18.9,4.5c-5.9,0.9-11.9,2.2-17.9,0.5
		c-2.6-0.7-5.1-1.2-7.6-2.4c-1.5-0.7-3.5-1.2-2.7,1.9c-2.5,0.5-3.9,3.2-6.7,3.1c2.8-5.5,6-10.6,11.4-14.2
		c9.8-6.7,17.7-15.1,22.9-25.8c2.6-5.4,4.6-11.1,5.1-17.2c0.1-0.8,0.3-1.4,1.2-2.1C492.6,321.7,494,324.2,495.3,326.7z"/>
	<path fill="#F9C4AA" d="M536.5,142c0.4-5.3-1.8-10.3-2.6-15.6c-5.5,11.5-9.3,23.5-12.9,35.6c-3.7,12.2-7.3,24.4-10.1,36.8
		c-2.8,12.4-6.3,24.6-8.3,37.2c-0.9-3.2-1-16.9-0.3-19.8c0.1-0.6,0.4-1.1,0.4-1.7c0.1-7.7-0.2-15.4,0.9-23c0.1-1,0.4-2.1-0.6-2.9
		c-0.1-0.3-0.1-0.7-0.2-1c0.9-1,0.8-2.2,0.8-3.5c1.7-6.4,3.5-12.8,5.2-19.2c2.7-10.3,6.3-20.3,9.8-30.3c4-11.6,8.5-23,12-34.8
		c0.2-0.7,0.5-1.4,1.6-2.2c5.7,14.7,8.8,30,12.8,45.3C541.5,143.5,539.1,142.3,536.5,142z"/>
	<path fill="#7C848C" d="M322.8,414c4.3,1.2,7.5,4.1,10.5,7c1.9,1.8,3.1,2.1,5.3,0.7c11.2-7.2,23.1-13.1,35-19
		c1.7-0.8,3.5-1.5,5.4-2.3c3.9,5.1,6.1,10.7,6.3,17c-2.7,2-5.3,4.2-8,6.1c-8.7,6-17.6,11.7-26.7,16.9c-3.9,2.3-8,4.3-12,6.5
		c-0.9,0.5-1.8,1.2-2.6-0.2c0.8-3-0.3-5.9-0.8-8.7c-1.4-7.2-3.8-13.9-9.4-19c-0.2-0.9-0.6-1.5-1.5-1.9
		C322.8,416.6,322.6,415.3,322.8,414z"/>
	<path fill="#2E97A5" d="M503.6,170c0.3,3.3-1.1,6.3-1.8,9.5c-2.9,13-6.1,26-8.2,39.2c-0.5,3-1.4,5.9-2.3,9.4
		c-13.2-19.3-17-40.6-17.1-62.8C484,166.9,493.8,168.5,503.6,170z"/>
	<path fill="#2F9CAA" d="M607.7,200.1c0,3.3,0.1,6.5,0,9.8c-0.1,9.1,1.9,17.7,4.9,26.3c3.5,10,8.3,19.1,14.4,27.6
		c9.1,12.6,20.6,22.2,35.2,27.8c0.9,0.4,2.1-0.1,3.4,1.5c-4.1,0.1-7.3,2.2-11.4,0.8c-8.2-2.7-15.6-7-22.4-12.1c-4-3-8-6.1-11.8-9.3
		c-3.8-3.2-6.6-7.1-9-11.4c-3.5-6.3-6.2-13-8.8-19.8c-3.4-9-3.8-18.4-3.4-27.9c1.1-0.3,1.4-1.3,2-2.2
		C603.1,207.5,605.4,203.8,607.7,200.1z"/>
	<path fill="#39424A" d="M335.9,446.8c0.7,1.4,1.6,0.7,2.6,0.2c4-2.2,8.1-4.2,12-6.5c9.1-5.3,18-10.9,26.7-16.9
		c2.8-1.9,5.3-4.1,8-6.1c2.6,4.3,2.4,4.7-1.2,7.8c-6.5,5.7-13.9,10.2-20.6,15.8c-4.9,4.1-10.1,8-15.3,11.9c-2.5,1.9-5.1,3.4-8,4.7
		c-5.4,2.6-8.3,2.1-12.7-2.1c-4.3-4.1-7.2-9.3-9.7-14.6c-1.8-3.8-3.7-7.6-4.4-11.9c-0.5-2.8-0.7-5.5,0.1-8.2c1.5-4.9,4-6.8,9.3-6.9
		c-0.2,1.4,0,2.6,1.3,3.3c0.9,0.4,1.3,1,1.5,1.9c-0.7,0.2-1.5,0-1.9,1.3c1.8,1.8,2.9,4.3,4.5,6.5c1.7,2.3,2.3,5.1,3,7.7
		c1,3.5,1.6,7,2.1,10.6C333.7,447,334.7,446.8,335.9,446.8z"/>
	<path fill="#2F9CAA" d="M389.3,416.9c3.2-1.5,6.3-3.1,9.5-4.6c1.2-0.5,1.8-1.4,2.5-2.4c1.8-2.7,3.9-5.2,5.6-7.9
		c5.6-8.8,12.7-16.4,20.3-23.4c6.2-5.7,12.9-10.7,19.9-15.4c3.8-2.5,7.5-5.3,10.8-8.5c5-4.9,10.5-9.1,15.2-14.2
		c4.4-4.7,8.3-10,11.6-15.6c1,0.3,0.8,0.9,0.6,1.7c-3.3,13.4-11,23.9-21.6,32.5c-7.2,5.9-15.3,10.6-22.5,16.5
		c-5.5,4.5-10.5,9.6-15.1,15c-5.4,6.3-10.2,13-13.5,20.7c-1.1,2.6-3.8,3.6-5.8,5.4c-3.3,2.9-6.8,5.7-10.9,7.5
		c-2.7,1.2-3.5,0.9-4.9-1.7C390.1,420.6,389.4,418.8,389.3,416.9z"/>
	<path fill="#FAEADD" d="M433.9,227.7c2.6,1.7,5,3.8,6.4,6.5c3.1,6.1,2.9,12.5-0.5,18.2c-6.7,11.3-17.8,14-29.4,10.6
		c-3.9-1.1-6.7-4.1-9.4-7c-1-1-1.5-0.4-1.9,0.6c-1.7-2-3.7-7.6-3.2-9.4c1.3-4.7,2.7-9.4,3.5-14.2c1.7,0.3,2.8-0.6,3.8-1.7
		c7.4-7.7,16.4-8.8,26.2-6.3C429.7,228.2,431.8,228,433.9,227.7z M418.3,258.1c1.2,0,1.8,0,2.4,0c7-0.3,13.4-5.4,14.9-12.2
		c2-9-5.5-15.7-14.1-16.3c-6.3-0.4-10.7,3-14.9,7.2c-3.4,3.4-3.7,10.9-1.2,14.3C408.7,255.5,412.9,258.7,418.3,258.1z"/>
	<path fill="#7A838B" d="M595.2,220.5c-5.2,4.4-9.1,10-13.2,15.4c-8.7,11.5-16.6,23.5-25.3,35c-3.4,4.4-6.1,9.4-10.4,13.1
		c-0.3-2.7,0.6-5.7-1.8-8c17.8-25.2,34.1-51.2,52.2-76.3C595.1,206.6,595.4,213.5,595.2,220.5z"/>
	<path fill="#F9C4AA" d="M542.7,178.9c0.8-0.4,1-1,0.8-1.8c-1.9-10-2.1-20.4-5.2-30.2c-0.1-0.4,0-0.9,0.1-1.3
		c6.8,0.7,6.8,0.7,8.2,7.4c3.3,16.7,7.2,33.3,10,50.1c2.1,12.8,2.1,25.3-2.8,37.5c-0.6-7.6-2.6-15-3.6-22.5
		c-0.8-5.8-2.2-11.5-3.1-17.2c-0.7-4.7-0.9-9.6-3.1-14C544.5,184,544.4,181.3,542.7,178.9z"/>
	<path fill="#7A838B" d="M456.3,513c-1.4-1.3-1.9-3-1.8-4.8c0.2-4.4-0.1-8.6,1.4-13.1c1.8-5.3,2-11.2,3.1-16.8
		c0.9-4.6,1.2-9.3,2.6-13.8c4.4,1.2,8.6,3,13.3,2.8c3.4-0.1,3.6,0.3,3.7,3.9c0,5.8,0,11.5,0,17.3c-5-0.5-9.7,0.5-14.1,3.1
		c-0.6,0.4-1.3,0.7-1.9,1.1c-0.8,0.6-1.2,1.4-0.7,2.3c0.5,1,1.5,0.8,2.3,0.4c3-1.6,6-3.1,9.4-3.8c2.8-0.6,5.3-0.2,7,2.4
		c-7.1,1.9-13.8,4.6-19,10.3C459.2,507,458.6,510.5,456.3,513z"/>
	<path fill="#39424A" d="M393.2,252c2.1,1.1,1.9,3,2.4,4.4c1.4,3.8,3.5,7,6.2,10.1c9.1,10.1,20.8,15.6,33.3,20.1
		c3.1,1.1,6.3,2.1,9.6,3.2c-1.9,5.2-5.1,9.5-6.7,14.8c-16.5-13.2-33.1-25.7-51-36.9C388.5,262.1,390.3,256.9,393.2,252z"/>
	<path fill="#FBF2E9" d="M543.9,186.8c2.1,4.4,2.4,9.3,3.1,14c0.9,5.8,2.3,11.4,3.1,17.2c1,7.5,3,14.9,3.6,22.5
		c0,2.5-2.1,4.3-2.2,6.8c-1,0-1.4-0.7-2-1.4c-1.8-2.2-3.8-4-6.2-5.5c-3.7-2.3-7.6-2-11.6-2C535.1,221.1,539.6,204,543.9,186.8z"/>
	<path fill="#F5C2A9" d="M542.9,314.5c-1.9,3-4.8,4.5-7.5,6.3c-3.3,2.1-5.5,4.7-6.5,8.6c-0.6,2.3-1.9,4.3-2.8,6.5
		c-0.9,2.2-2.4,2.3-4.3,1.3c-2.2-1.2-3.7-2.6-4.2-5.3c-1.1-5.2-0.4-10.3,0.8-15.4c0.5-2.3,1.5-4.5,1.9-6.8c1.8-8.9,7.1-15,15.1-19.9
		C537.4,298.3,538.4,307,542.9,314.5z M523.4,324.1c0.3-0.1,0.6-0.1,0.8-0.2c1-0.6,3.4-7.4,2.9-8.4c-0.4-0.9-1.4-1.5-2-0.6
		c-1.6,2.4-2.3,5.3-2.8,8.2C522.2,323.6,522.8,324,523.4,324.1z"/>
	<path fill="#FCE1D0" d="M548.2,256.6c-1.1,3.7-2.6,7.3-4.4,10.8c-0.9-2.3-2.3-0.8-3.2-0.2c-6.8,4.2-13.3,3.6-19.6-1.1
		c-3.4-2.5-4.1-6.2-3.9-9.8c0.2-4.4,2.8-8,6.6-10.4c1.3-0.8,2.5-1.6,3.1-3c0.7,0,1.4-0.1,2.1-0.1c1.2,0.1,2.3,0.3,3.5,0.3
		c4.3-0.1,7.8,1.5,11,4.5C546.2,250,546.7,253.5,548.2,256.6z M527.1,252.7c-1.2,1.7-3.9,2.4-2.6,5.1c0.7,1.6,2.2,2.2,4.1,2
		c1.6-0.1,2.4-0.8,2.6-2.4C531.5,254.6,529.9,253.5,527.1,252.7z"/>
	<path fill="#90D1D3" d="M673.5,141.5c-2.1-0.5-3.6,0.8-5.2,1.7c-0.4-0.9-1-0.7-1.8-0.5c-4.7,1.1-9.3,2.2-14,3.3
		c0.2-3.6,0.7-7,0-10.8c-0.6-3.1,2-6.6,4.3-9.3c0.3-0.3,1.1-0.4,1.6-0.4c6.8-0.1,13.5-0.1,20.2,1.4c7.4,1.7,9,3.4,9.2,11
		C682.8,138.2,678.1,139.6,673.5,141.5z"/>
	<path fill="#7C848C" d="M632.5,160.9c-1.1,2.3-2.2,4.7-3.6,7.7c-3.3-6.3-4.7-12.5-5.8-18.5c-0.5-2.4,1.3-5,2.3-7.5
		c2.5-6,6.2-11.4,9.4-17c4.3-7.6,8.7-15.1,13-22.6c1.8-3.1,3.6-6,5.4-9.1c0.8-1.4,1.8-1.7,3.3-1.2c1.2,0.5,2.6,0.6,3.8,0.9
		c-1.8,4-4.2,7.8-6.3,11.7c-4.1,7.4-9.5,13.9-13.8,21c-2.2,3.7-5.4,6.6-6.8,10.8c-2.5,7.6-2,15.4-1.7,23.2
		C631.9,160.6,632.3,160.7,632.5,160.9z"/>
	<path fill="#3A424A" d="M456.3,513c2.3-2.5,2.9-6,5.2-8.6c5.2-5.7,11.9-8.4,19-10.3c2.8,2,3.4,4.4,2.8,8c-0.8,4.9-1.9,9.4-4.7,13.5
		c-3.5,5.2-8.7,5.8-14.1,5.2C460.1,520.1,457.6,517.1,456.3,513z"/>
	<path fill="#F9C4AA" d="M414.5,191.3c-0.4-4.4,2-8,3-12.1c0.3-1.1,1.2-2.1-0.1-3.1c3.6-7.5,8-14.5,12.3-21.6
		c0.8-1.4,1.4-2.4,2.2-3.9c0.4-0.8,0.5-1.7-0.5-2.3l0.1,0.1c1.4,1.4,2,0.1,2.6-0.9c2.8-4.1,5.7-8.3,8.5-12.5c4.9-7.2,4.9-7.2,13-3.3
		c-2.3,4.5-5.5,8.3-8.7,12c-7.8,9.2-14,19.5-20.7,29.4c-3.5,5.2-7,10.5-9.9,16.1C415.9,190.3,415.4,191,414.5,191.3L414.5,191.3z"/>
	<path fill="#2E97A5" d="M377.1,284.6c-2.4-17.9,0.3-34.9,4.9-51.8c0.1,4.1,1.7,8.1,1.3,12.3c-0.1,1.2,0,2.7,1.4,2.9
		c1.8,0.3,1.9-1.3,2.3-2.6c3.2-9.8,7.1-19.3,10.8-28.9c0.2-0.5,0.6-1,0.9-1.6c1.5,1.9-0.2,3.6-0.4,5.3c-0.9,6.8-2.6,13.5-3.3,20.3
		c-0.3,2.7-2.3,4-3.1,6.2c-4.6,11.4-9.2,22.8-13,34.5C378.6,282.3,378.4,283.5,377.1,284.6z"/>
	<path fill="#7A838B" d="M442.1,395.2c2.2,7.4,5.1,14.6,9.8,20.7c2.9,3.9,2.9,7.7,2.4,12.2c-4.5-0.2-8.5-1.4-12.5-2.9
		c-1.1-0.4-1.8-1.4-2.3-2.6c-0.5-1.5-1.3-3-1.8-4.5c-2-7.4-7.1-10.4-14.5-10.4c0.3-2.5,1.9-3.8,4.1-4.6c5.1-1.8,10.2-3.6,13.9-7.8
		C441.4,395.1,441.8,395.2,442.1,395.2z"/>
	<path fill="#39424A" d="M367.7,360.7c4.6,4.4,8.6,7.7,12.9,10.9c1.4,1,2,2.4,1.9,4.2c-0.1,3.1,0,6.2,0,9.3c0,2.1,0.2,4.1,0.8,6.1
		c0.3,1.4,0.9,3.5-1.3,4.2c-2.2,0.7-4.4,2.9-7,0.8c-1-0.9-2.1-1.6-3.2-2.4c-1.4-1-2.2-2.1-1.3-4.1c1.7-3.9-0.7-6.5-3.4-8.6
		c-2.2-1.6-3.2-3-2.6-6C365.5,370.6,366.1,366,367.7,360.7z"/>
	<path fill="#39424A" d="M561,406.7c-4.5,6.7-6.4,13.6-9.9,19.7c-1.1,2-2.2,4.2-5.3,4.5c-0.4-2.6-1.8-4.3-3.8-5.9
		c-3.7-3-6.7-6.9-9.3-11.1c3.8-4,4.9-9.5,9-13.4C546.4,407.1,553.3,407.2,561,406.7z"/>
	<path fill="#F5C2A9" d="M476.1,108.4c-2.3,0.6-2.8,2.9-4.1,4.4c-4.7,5.4-9.5,10.7-13.8,16.3c-0.2,0.3-0.7,0.5-1.1,0.7
		c-2.3-1.9-5.2-2.4-8.1-3.6c3.4-4.4,6.6-8.4,9.7-12.5c7-9.1,14.8-17.6,21.6-26.8c0.6,0,1.2,0,1.8,0.1c-2.2,6.5-3.7,13.2-5.3,19.9
		C476.6,107.4,476.6,108,476.1,108.4z"/>
	<path fill="#F6F9FA" d="M503.6,170c-9.8-1.6-19.6-3.1-29.4-4.7c-1.3-3.7-0.6-7.6-0.7-11.4c5.4-0.2,10.4,1.5,15.7,2.1
		c6,0.7,11.9,2.1,17.9,2.3C506.6,162.4,506,166.5,503.6,170z"/>
	<path fill="#F5C2A9" d="M625.5,208.2c4.5,2.1,8,5.7,12.1,8.4c-7.1,6.7-14.1,13.4-21.4,20.3c-3.5-8.1-5.1-16.1-5.5-24.4
		c-0.3-5-0.2-10.1,0.5-15.1c0.2-1.2,0.3-2.4,1.7-2.8c1.8,9.7,4.4,19.3,7.8,28.9c3.5-1.6,5.9-4.6,9.3-6
		C628.8,214,625.9,211.7,625.5,208.2L625.5,208.2z"/>
	<path fill="#F6F9FA" d="M605.5,167.6c-9,1.6-18.2,2.6-27.3,3.5c-3-2.8-3.7-6.9-6.2-10c0.9-1.4,2.3-1.8,3.8-1.7
		c10.2,0.1,20.2-1.7,30.1-3.7C606.2,159.6,606.9,163.7,605.5,167.6z"/>
	<path fill="#7C848C" d="M663.1,94.1c1.4,0.2,3-0.2,4.2,1.6c-1,3.2-2.6,6.3-4.5,9.3c-5,7.9-8,16.7-12.2,25c-0.9,1.8-1.7,3.9-3.3,5.2
		c-4.3,3.6-6.9,8.4-9.3,13.3c-0.8,1.6-1.7,3.1-2.5,4.6c-0.1-2.4-0.3-4.7-0.1-7.1c0.4-3.9,0.6-8.1,3-11.4c3.5-4.6,6.2-9.6,9.5-14.3
		C653.7,112,658.5,103.1,663.1,94.1z"/>
	<path fill="#8BCCCF" d="M420.7,411.1c0.9,0,1.8,0,2.7,0c5.4-0.1,9.6,1.7,10.9,7.5c0.2,0.8,0.9,1.6,1.1,2.4
		c1.2,5.6,5.3,7.8,10.4,8.8c0.6,0.1,1.2,0.1,1.8,0.3c7.1,1.7,7.1,1.7,5.5,9.4c-2.9,0.6-5.7-0.9-8.7-0.9c-2.5,0-5-0.6-7.4-1.1
		c-2.2-0.4-3.6-1.6-4.3-3.9c-1-2.9-1.3-5.8-1.6-8.7c-0.5-4.1-2.6-6.3-6.8-6.9c-2-0.3-4.1-0.4-6.1-0.7
		C418.3,415,420.1,413.3,420.7,411.1z"/>
	<path fill="#949AA3" d="M495.5,320.4c-3-2.8-5.2-6.4-8.4-8.4c3.7-3.9,7.3-7.8,11-11.6c0.7-0.8,1.4-1.5,2.6-1.5
		c4.1-0.1,8.2-1.3,12.3-0.6c1.1,1.8,0.1,3.3-0.7,4.5c-4,6.3-8,12.7-12.9,18.5C498.1,321,496.8,320.7,495.5,320.4z"/>
	<path fill="#F0C2A9" d="M662.2,202.2c-0.1-1.8-0.2-3.7-0.3-5.5c0.6-0.5,1-1.1,0.9-1.9c-0.5-8.1-2.4-15.6-7.5-22.1
		c-1-1.2-2.1-2.6-4-2.1c-0.1-1-0.1-2-0.2-3c0.3-0.8,0.9-1.3,1.7-1.6c0.7,1.9,2.5,2.3,4.2,3c3.9-4,6.6-8.6,9.3-13.3
		c1.5-2.6,2.7-5.5,5.4-7.3c-1.5,7.5-5.9,13.4-10.6,19.1c-0.4,0.5-0.8,0.9-1.2,1.3c-1.1,1.2-2.5,2.5-1.9,4.2c0.7,2.1,2.7,2.5,4.8,2.2
		c0.7,3.1,0.7,3.1,3.1,2c3.7-1.7,7.4-3.6,10.6-6.2c2-1.6,4.3-2.9,6.8-3.9c0.6,2.9-1.1,4.7-3.1,6.4c-3.7,3.2-8.1,5.5-12.3,7.9
		c-4.1,2.3-4.3,3.1-1.4,7c0.6,4.7,1,5,5.3,4.2c3.5-0.7,7.2-1,10.7-1.4c0.8,0.5,0.9,1.1,0.3,1.8c-0.8,1-2,1.4-3.1,1.6
		c-3.9,0.7-7.9,1.7-11.8,1.7c-3,0.1-4.4,1-4.9,3.8C662.9,200.9,662.9,201.7,662.2,202.2z"/>
	<path fill="#8BCCCF" d="M499.6,441.7c1.3-0.7,2.6-0.2,3.8,0.1c2.8,0.8,5.6,0.5,8.4,0.5c2.5-0.1,4.4-1.5,6.1-3.2
		c5.6-5.7,12-10.4,18.2-15.5c1.9,1.2,3.2,2.5,4.4,4.6c-4.8,3-8.2,7.5-12.3,11.3c-1.5,1.4-3.3,2.7-4.4,4.4c-3.9,6.2-9.8,5.6-15.8,5
		c-1.2-0.1-2.4-0.1-3.5-0.3C499.8,447.9,499.3,447.1,499.6,441.7z"/>
	<path fill="#B6C2C9" d="M465.8,315.1c0.7,3.9,3.3,2.4,5.3,2.8c1.2,2.8,0.3,5.4-1.1,7.9c-2,3.7-5.1,6.5-8.2,9.3
		c-4.7,4.3-9.8,8.1-15.4,11.2c-1.5,0.8-2.9,2.1-5.6,1.4C449.4,337,457.2,326.2,465.8,315.1z"/>
	<path fill="#FAEADD" d="M526.8,242.7c-0.6,1.4-1.8,2.2-3.1,3c-3.8,2.4-6.3,6-6.6,10.4c-0.2,3.6,0.5,7.3,3.9,9.8
		c6.3,4.7,12.8,5.3,19.6,1.1c0.9-0.5,2.3-2.1,3.2,0.2c-1.8,1.5-0.5,4.3-2.2,5.8c-0.9,0-1.7,0.2-2.6,0.5c-5.3,1.7-10.6,2.1-15.9-0.3
		c-1.1-0.5-2.4-1.3-3.8-1c-2.6-5.9-5.3-11.7-7.9-17.6c1.1-7.1,5.5-11.7,11.6-14.9c1.3-0.7,2.6-0.4,3.9-0.4
		C526.9,240.5,526.8,241.6,526.8,242.7z"/>
	<path fill="#2E97A5" d="M359.3,128.5c-10.8,5.3-22.1,9.9-32.8,15.5c-1.2,0.6-2.4,1.3-3.8,1l0,0c5.7-8.6,13.2-15.4,20.4-22.6
		c0.4-0.4,1-0.6,1.6-0.6C349.9,123.4,354.5,126.2,359.3,128.5z"/>
	<path fill="#2F9CAA" d="M543.5,288.2c0.9,2,2,4,2.6,6.1c2.8,9.4,8.2,17.2,15.3,23.8c0.3,0.3,0.5,0.7,0.8,1
		c-1.4,3.2-1.9,3.5-4.7,2.8c-6.8-1.6-10.7-6.5-13.7-12.2c-3-5.7-4-12.2-4.7-18.6C540.5,290.2,542,289.2,543.5,288.2z"/>
	<path fill="#2F9CAA" d="M541.9,440.2c0.4-1.4,0.7-2.5,1.1-3.6c0.5-1.3,1.2-2.2,2.9-2.2c3.1,0,5.1-1.9,6.7-4.4
		c2.2-3.4,3.9-6.9,5.4-10.6c1.8-4.2,3.6-8.4,6.6-12c1.2-1.4,2.1-1.8,3.9-0.9c0.5,4.4-0.6,8.7-1.6,13c-0.3,1.5-1.3,2.3-2.2,3.2
		c-4.4,4.9-8.7,10-12,15.8C550.8,441.6,546.3,442.4,541.9,440.2z"/>
	<path fill="#F8F0E6" d="M519.4,272.4c1.4-0.3,2.7,0.5,3.8,1c5.3,2.4,10.6,2,15.9,0.3c0.9-0.3,1.7-0.5,2.6-0.5
		c-3.4,9.3-9.4,16.4-18,22.2C522.7,287.4,521.1,279.9,519.4,272.4z"/>
	<path fill="#39424A" d="M669.9,99.6c3.7,7.8,5.7,15.6,8.3,24.1c-6.9-1.5-13.4-0.7-20.5-1.1C660.4,114,665.4,106.9,669.9,99.6z"/>
	<path fill="#8BCCCF" d="M466.1,439.6c3.1,0.9,5.9,2.7,8.8,4.1c3.2,1.7,6.4,1.9,9.8,0.7c3.6-1.3,7.1-2.6,11-3.1
		c1.2,2,0.7,3.9,0.7,5.8c-6.7,2.2-13.2,4.4-19.7,8c-3.1-2.5-7.1-4.2-10.7-6.4C466,445.6,466.1,442.6,466.1,439.6z"/>
	<path fill="#F8F0E6" d="M334.5,166.4c-3.8-6.3-4.3-13-2.2-20c0.4-1.4,1-2.4,2.4-2.9c1.5-0.6,2.7-1.8,4.7-2c0.2,3.8-1.7,8.2,2,11.4
		c1.8-1.5,1-2.9,0.8-4.1c-0.5-3.1,0.3-5.9,1.1-8.7c0.2-0.8,0.8-1.2,1.6-1.3c0.2,3-0.3,6.2,0.2,9c0.9,5-0.6,8.7-4,11.9
		C338.9,161.8,338.2,165.6,334.5,166.4z"/>
	<path fill="#2F9CAA" d="M339.7,184.3c-0.3,4.2-2.6,7.8-3.8,11.6c-2.4,7.5-4.8,15.1-6.1,22.9c-0.2,1.1-0.7,2.2-1.1,3.3
		c-2.9-1.3-4.7-4.1-4-7.2c2.9-12.9,6.3-25.6,13.1-37.1C339,179.8,339,182.1,339.7,184.3z"/>
	<path fill="#7A838B" d="M494.6,431.7c0.3,1.9,0.5,3.7,0.8,5.9c-4.8,1.6-9.6,3.1-14.5,4.6c-0.6,0.2-1.5,0-2.1-0.3
		c-4.3-2.2-8.8-3.9-12.7-6.7c0-1.9,0.6-3.7,1.5-5.2c1.5-0.2,2.8,0,4.1,0.4c5.3,1.6,10.7,2.6,16.4,2.2
		C490.3,432.4,492.3,431.3,494.6,431.7z"/>
	<path fill="#F6F9FA" d="M359.3,128.5c-4.8-2.3-9.4-5.1-14.5-6.7c2.1-4.1,5.5-6.8,9.8-8.5c5.5,2.7,11,5.6,16.8,7.9
		c0.8,0.3,1.6,0.8,2.5,0.7C369.4,125.1,364.4,126.8,359.3,128.5z"/>
	<path fill="#39424A" d="M431.2,438.9c-4.2-0.7-7.7-2-11.3-1.9c-2.1,0.1-2.8-1.2-2.8-3.2c0-2.1-0.4-4.1-0.7-6.1
		c-0.3-2.5-1.8-3.3-3.6-3.9c-2-0.8-4.1-1.2-6.1-1.8c0.3-1.7,1.3-1.8,2.4-1.9c5-0.5,9.9,1.1,14.9,1.1c1.5,0,3.7,0.9,3.7,3.2
		C427.8,429.3,429.4,433.8,431.2,438.9z"/>
	<path fill="#F6F9FA" d="M393.2,143.3c-5.5-3.7-11.6-5.9-18.1-7.3c0-0.6-0.3-1.3,0-1.6c2.5-3,4.4-6.4,7.9-8.5
		c4.1,2.2,8.8,2.7,12.6,5.5c0.5,0.4,1.4,0.2,2.1,0.2C396.8,135.8,396.1,140,393.2,143.3z"/>
	<path fill="#F6F9FA" d="M573.5,171.5c-6.5-0.1-12.9,0.6-19.3,1.3c-2-3.7-2.4-7.7-2.7-11.8c5.2,0.3,10.3-0.6,15.5-1.1
		c3.2,2.5,4.9,6,6.6,9.5C573.9,170.2,573.8,170.8,573.5,171.5z"/>
	<path fill="#EA74BE" d="M663.1,94.1c-4.7,9-9.5,17.9-15.2,26.3c-3.3,4.7-6,9.7-9.5,14.3c-2.4,3.2-2.7,7.4-3,11.4
		c-0.2,2.3,0.1,4.7,0.1,7.1c-0.4,2.8-2.2,5.1-3,7.8c-0.2-0.2-0.6-0.3-0.6-0.5c-0.3-7.8-0.8-15.6,1.7-23.2c1.4-4.2,4.6-7.2,6.8-10.8
		c4.3-7.2,9.7-13.7,13.8-21c2.1-3.9,4.5-7.6,6.3-11.7C661.4,93.3,662.4,93.2,663.1,94.1z"/>
	<path fill="#F0C2A9" d="M459.8,317.7c1-4.3,0.4-7-3.3-8.7c-2.4-1.2-2.7-3.2-1.5-5.6c1.3-2.6,2.7-5.3,4-7.9c0.6-1.2,1.4-1.8,2.8-1.5
		c2.8,0.7,5.7,1.2,9,1.9c-2,4.2-3.1,8.5-3.9,12.8c-0.1,0.4-0.2,1.1-0.4,1.2C463.1,311,463,315,459.8,317.7z"/>
	<path fill="#7A838B" d="M529.4,424.6c-0.9,2.1-3,2.8-4.5,4.1c-3.4,2.7-6.5,5.5-9.5,8.6c-1.8,1.8-4,2.5-6.4,2.3
		c-2.3-0.2-4.6-0.7-6.9-1.1c-2.5-0.4-3.9-1.9-3.8-4.5c0-1,0-2.1,0-3.1c8,0.2,15.6-1.8,23.2-4C524.1,426.1,526.5,424.5,529.4,424.6z"
		/>
	<path fill="#3A424A" d="M478.5,488.6c0-5.8,0.1-11.5,0-17.3c0-3.6-0.3-4.1-3.7-3.9c-4.7,0.2-8.9-1.6-13.3-2.8
		c0.1-1-0.2-2.1,0.6-3.3c6.9,0.2,13.9,3.2,20.7,0.8c1.4,0.9,0.9,2,1,3c0.6,7.2-0.8,14.4-0.9,21.6C483,489.6,482,489.9,478.5,488.6z"
		/>
	<path fill="#F6F9FA" d="M426.1,153.8c-3.8-1.5-7.8-2.7-11.8-3.9c-1.4-0.4-3.4-0.2-4-2.3c3-2.9,5.2-6.5,9.1-8.5
		c4.4,1.8,8.8,3.7,13.6,4.2c0,1.2-0.7,2.1-1.3,3c-0.5,0.7-1.1,1.3-0.3,2.2l-0.1-0.1c-1.7,0-1.9,1.6-2.7,2.5
		C427.7,151.9,427.4,153.3,426.1,153.8z"/>
	<path fill="#3A424A" d="M529.4,424.6c-2.9-0.1-5.3,1.5-7.9,2.3c-7.6,2.2-15.2,4.2-23.2,4c-1.4-0.8-0.9-2-0.7-3.1
		c2.8-1.5,5.9-1.5,8.8-2.2c3.1,0.9,5.4,0.3,6.7-1.8c5.6-2.1,11-4.9,15.9-8.1c2.8,0.9,3,3.6,4.7,5c-0.8,1.9-2.8,1.6-3.5,2.9
		C529.8,423.8,529.4,424,529.4,424.6L529.4,424.6z"/>
	<path fill="#F0C2A9" d="M334.5,166.4c3.6-0.8,4.4-4.5,6.7-6.7c3.5-3.2,4.9-6.9,4-11.9c-0.5-2.8,0-6-0.2-9c0.7-1,1.7-0.9,3-1.1
		c0.9,2.2,0.4,4.5,0.5,6.6c0,0.8,0.2,1.6,1.1,1.7c1.2,0.1,1.5-0.7,1.6-1.7c0-2.1-0.1-4.1-0.1-6.2c0-1-0.4-2.1,1.3-2.7
		c1.7,3.7,2.1,7.8,3.3,11.6c0.4,1.1-0.6,1.9-1.3,2.6c-6.3,5.9-11.5,12.7-16,20.2C336.4,169.3,335.3,168,334.5,166.4z"/>
	<path fill="#F6F9FA" d="M673.5,141.5c4.6-1.9,9.3-3.4,14.3-3.7c1.6,3.3,2.4,6.9,2.6,10.6c-5.3,1.4-10.7,2.8-16,4.2
		c-0.6-1.8,0.4-3.4,0.7-5.1C675.5,145.2,675.6,143.1,673.5,141.5z"/>
	<path fill="#2F9CAA" d="M456.6,293.5c-2.4,6-5.5,11.1-8.8,16c-1.1,0.5-1.8-0.1-2.6-0.4c-5.6-2.5-6.1-3.9-2.5-8.8
		c1.5-2.1,2.7-4.1,3.2-6.6c0.4-1.9,1.7-3,3.8-2.6C452,291.4,454.2,292,456.6,293.5z"/>
	<path fill="#8BCCCF" d="M607.7,200.1c-2.3,3.7-4.6,7.4-6.9,11.1c-0.5,0.9-0.8,1.9-2,2.2c-0.5-13.5,3.7-25.4,13.1-35.3
		C610.4,185.5,608.8,192.7,607.7,200.1z"/>
	<path fill="#39424A" d="M461.2,450.3c-1.8,1.3-3.1,1.2-4.1,0.8c-4.1-1.4-8.4-1-12.6-1.4c-4.8-0.5-8.2-1.7-9.2-6.8
		c-0.1-0.7-0.5-1.3-0.9-2.4c5.7,0.7,11.2,0.8,16.3,2.3C454.5,444,457.6,447.3,461.2,450.3z"/>
	<path fill="#39424A" d="M494.6,431.7c-2.3-0.5-4.3,0.7-6.5,0.9c-5.7,0.4-11.1-0.6-16.4-2.2c-1.3-0.4-2.6-0.5-4.1-0.4
		c-0.9,1.6-1.4,3.3-1.5,5.2c-0.9,0.1-1.7-0.4-2.5-0.9c-8.2-4.5-6.4-3.5-6.1-11.1c0.9-0.1,1.4,0.6,1.8,1.1c2.3,2.9,5.3,4.2,9,3.7
		c2.5-0.3,4.9,1.5,7.4,0.8c6-1.7,12.3,0.2,18.2-1.7C495.1,428.8,494.4,430.3,494.6,431.7z"/>
	<path fill="#949AA3" d="M469.1,314.3c0.4-4.9,1.5-9.3,2.9-13.6c1.5-4.4,2.3-4.7,6.8-3.7c0.6,0.1,1.2,0.2,1.8,0.3c1,1.9,0.3,4.1,1,6
		c0.7,1.8,0.8,3.7,0.4,5.9C477.5,309.9,473.6,312.4,469.1,314.3z"/>
	<path fill="#B6C2C9" d="M408.1,368c0.6-6-2.1-9-7.1-10.1c-1.6-0.4-2.8-1.4-4.8-2.9c10.2,0.6,19.4,1.2,28.6,1.8
		c0.1,0.2,0.2,0.5,0.2,0.7C419.6,360.8,414.3,364.2,408.1,368z"/>
	<path fill="#F0C2A9" d="M641.5,196.6c-1-0.1-2.1,0.2-3.3-0.6c-0.6-3.1,0.7-6.1,1.2-9.2c0.3-1.8,0.8-3.7,0.2-5.2
		c-1.8-4.5,0.8-7.9,2.3-11.6c1-2.4,2.8-4.5,2.3-7.4l0,0.1c0.7-0.1,1.1-0.2,0.3-0.9c0.3-1,0.8-1.9,2.3-2.2c1.1,4.1-0.4,7.8-1.1,11.6
		c-0.5,2.3-1.2,4.6-1.9,6.9c-0.4,1.4-1,3.1-0.4,4.4C645.4,187.7,643.3,192.1,641.5,196.6z"/>
	<path fill="#F6F9FA" d="M406.6,147.4c-3.2-1.1-6.3-2.2-9.5-3.3c1-3.7,2.1-7.4,4-10.8c3.4,1.2,6.9,2.4,10.3,3.6
		c1.2,0.4,2.6,0.6,3.3,1.9C411.9,141.7,409.2,144.5,406.6,147.4z"/>
	<path fill="#949AA3" d="M514.3,320.4c-3.5-0.7-6.8,1.3-10.2,0.6c2.4-3.7,4.9-7.3,7.3-11c2.1-3.2,4-6.5,5.4-10.1
		c1-2.4,1-2.4,4.7-2.3C518.6,305.1,516.2,312.7,514.3,320.4z"/>
	<path fill="#F6F9FA" d="M652.5,146c4.7-1.1,9.4-2.1,14-3.3c0.8-0.2,1.4-0.4,1.8,0.5c-3.5,3.8-6.9,7.7-10.4,11.5
		c-2.8,3.2-3,3.3-8.3,3.6C651.1,154.2,650.9,149.9,652.5,146z"/>
	<path fill="#8BCCCF" d="M566.9,159.9c-5.1,0.5-10.3,1.4-15.5,1.1c-1.9-3.9-1.8-8.2-2.9-13.1C556.5,150.3,562.4,154.1,566.9,159.9z"
		/>
	<path fill="#8BCCCF" d="M339.7,184.3c-0.7-2.1-0.7-4.4-1.9-6.4c4.2-9.8,9.9-18.5,18.4-25.2c0.2,0.2,0.4,0.3,0.6,0.5
		c-5.9,10-11.6,20.1-16.4,30.6C340.3,184,339.9,184.1,339.7,184.3z"/>
	<path fill="#7A838B" d="M609.5,137c4,5.1,5,11.5,7.1,17.4c0.8,2.2,1.2,4.5,1.9,7c-2.9,0.9-5.6,0.4-9,0.4
		C609.5,153.4,609.5,145.2,609.5,137L609.5,137z"/>
	<path fill="#39424A" d="M394,364.9c1.8-1.7,4-2.4,6.2-3c2.3-0.7,4.3,0.3,4.5,2.6c0.3,3.3,0.5,6.5-2.7,9.2c-3,2.5-5.2,5.8-8.2,9.2
		c-0.6-3.3-1.6-6.1-1.5-9.1c3.1-1.2,5.5-3.4,8.1-5.6C398.4,366.3,395.8,366.3,394,364.9z"/>
	<path fill="#FAEADD" d="M548.2,256.6c-1.5-3.1-2-6.6-4.8-9.2c-3.2-3-6.7-4.6-11-4.5c-1.2,0-2.3-0.2-3.5-0.3
		c1.6-0.9,2.1-2.7,2.9-4.2c4,0,7.9-0.3,11.6,2c2.4,1.5,4.5,3.4,6.2,5.5c0.6,0.7,1,1.4,2,1.4C550.7,250.6,549.9,253.7,548.2,256.6z"
		/>
	<path fill="#F8F0E6" d="M671.8,148.5c-2.7,1.8-3.8,4.7-5.3,7.3c-2.7,4.6-5.4,9.3-9.3,13.3c-1.7-0.7-3.5-1.1-4.2-3
		c7.2-10.4,14.9-19.1,19.2-21.7C673.1,145.9,672.3,147.2,671.8,148.5z"/>
	<path fill="#8BCCCF" d="M370.8,358.7c6.3,0.7,12.3,1.8,16.3,7.6c2.6,3.7,2.4,7.7,2.2,11.8c-1.5,0.1-2.1,1.6-3.4,2
		c0.3-6.4-2.1-11.2-7.7-14.6C375.4,363.8,372.7,361.6,370.8,358.7L370.8,358.7z"/>
	<path fill="#39424A" d="M613.2,189.4c1.9-11.2,3.6-16.7,6.2-19.6c2.4,1.7,4.2,4,6.2,5.9C622.9,181.9,618.5,186.8,613.2,189.4z"/>
	<path fill="#39424A" d="M442.1,395.2c-0.3,0-0.7,0-0.9,0.1c-3.7,4.2-8.8,6-13.9,7.8c-2.2,0.8-3.8,2.1-4.1,4.6
		c-1.3-0.2-2.6,0.3-4.1-0.5c0.3-2.9,1.7-5.5,4.2-6.4c5.4-1.9,10.5-4.4,15.3-7.4C440.7,392.1,441.9,392.7,442.1,395.2z"/>
	<path fill="#F0C2A9" d="M484.4,454.8c0.6,1.5,0.4,2.7,0.1,3.8c-0.3,0.2-0.5,0.4-0.7,0.5c-5.2,1-10.3,0.8-15.4-0.1
		c-6.3-1.1-6.6-1.9-4.2-7.7c3.5,1.5,7.1,2.9,9.9,5.6c1.7,1.7,3.2,1.6,5.1,0.3C480.6,456.2,482.2,455.2,484.4,454.8z"/>
	<path fill="#2F9CAA" d="M466.1,439.6c0,3-0.1,6.1-0.1,9.1c-2.1-1.2-4.2-2.6-6.4-3.7c-2.8-1.5-3.8-3.6-3.3-6.8
		c0.2-1.2,0.5-2.2,1.3-3.6C460.5,436.2,463.3,437.9,466.1,439.6z"/>
	<path fill="#F8F0E6" d="M683.3,167.2c-2.5,0.9-4.8,2.3-6.8,3.9c-3.2,2.6-6.9,4.5-10.6,6.2c-2.4,1.1-2.4,1-3.1-2
		c5.9-3.3,11.4-7.5,17.7-10.1C682.8,164.2,683.8,164.7,683.3,167.2z"/>
	<path fill="#2E97A5" d="M550.7,260.7c0.8-5.5,3.4-10.6,4.9-15.9c0.9-3.2,2-6.3,3.2-9.9C561.3,244.7,558.7,252.7,550.7,260.7
		L550.7,260.7z"/>
	<path fill="#949AA3" d="M431.3,389.8c4.6-5.4,9.6-10.3,15.4-14.3c1.3,1.4,0.2,2.2-0.2,3c-2.1,3.6-3.4,7.7-6.8,10.5
		C436.8,388.5,434.1,389.7,431.3,389.8z"/>
	<path fill="#8BCCCF" d="M351.4,110.3c-0.2-8.2,4.9-12.5,12.2-10.8C363.2,102.2,359.3,105.7,351.4,110.3z"/>
	<path fill="#F0C2A9" d="M484.1,297.5c4,0.3,7.5,0.6,11.5,1c-2.6,4-6.4,6.3-9.6,9.8C484.7,304.6,483.9,301.4,484.1,297.5z"/>
	<path fill="#3A424A" d="M365.8,140c-1.7,2.9-1.7,2.9-4.6,2.8c0-2.6-0.7-5.1-1.5-7.5c-0.7-2-0.1-3,1.7-3.8c1.3-0.6,2.5-1.6,4-1.7
		C365.5,133.2,365.7,136.6,365.8,140z"/>
	<path fill="#D16566" d="M464.4,250.2c-4.6,2-9.3,3.6-13.4,6.5c-0.7,0.5-1.7,0.5-2.5,0.7c1.7-8.2,2.2-8.5,10.3-8.2
		C460.7,249.3,462.5,249.6,464.4,250.2z"/>
	<path fill="#2E97A5" d="M385.9,380.1c1.3-0.4,1.9-1.9,3.4-2c0.1,0.7,0.1,1.5,0.4,2.2c2.3,4.9,1.2,9-2.7,12.8
		C385.1,388.9,386.3,384.4,385.9,380.1z"/>
	<path fill="#2F9CAA" d="M475,319.5c0-3.7,1.8-6,5.1-6.9c3.1-0.8,4.8,1.7,6.7,3.2c1.5,1.2,0.6,2.6-0.6,3.7c-1.9-0.5-1.9-3.4-4.3-3.5
		C479.8,317.6,477.6,318.9,475,319.5z"/>
	<path fill="#FAEADD" d="M682.6,191.2c-3.6,0.5-7.2,0.7-10.7,1.4c-4.3,0.8-4.8,0.6-5.3-4.2c3.2,0.5,6.5,0.2,9.8,0.4
		C678.6,188.9,681.1,189,682.6,191.2z"/>
	<path fill="#165E66" d="M307.6,426.4c0.7,0.3,1.2,0,1.7-0.4c2,5.3,4.1,10.6,6.1,15.8c0.2,0.6,0.4,1.1-0.1,2.2
		c-2.5-2.2-3.5-5.2-5.2-7.7c-1.3-2.1-2.2-4.5-3.1-6.8C306.6,428.4,306.2,427.2,307.6,426.4z"/>
	<path fill="#7A838B" d="M608.7,175.7c0-3.8-0.4-7.4,1.2-10.9c2.7,0,5.3,0,8.3,0C613.6,167.4,612.5,172.5,608.7,175.7z"/>
	<path fill="#D16566" d="M512.5,264.3c-4.8-3.4-9.7-6.7-14.5-10.1c2.7,0.2,5.5,0.3,8.2,0.6c1.2,0.1,2.2,0.7,2.8,1.9
		C510.2,259.3,511.9,261.5,512.5,264.3z"/>
	<path fill="#7A838B" d="M394,364.9c1.9,1.4,4.4,1.4,6.4,3.3c-2.6,2.2-5,4.4-8.1,5.6c0.3-3-0.5-5.8-1.5-8.5
		C391.9,364.6,393,365,394,364.9z"/>
	<path fill="#39424A" d="M368.7,128.2c3.1-1.5,6.2-2.9,10.4-4c-2.9,3.7-5.2,6.8-7.6,9.8c-0.6,0.7-1.3,1.2-2.2,1.2
		C369.1,132.9,368.9,130.6,368.7,128.2z"/>
	<path fill="#3A424A" d="M372.6,95.3c-0.9,0.8-1.8,1.3-3.5,1.3c1.6-4.6,3.1-9.1,4.7-13.5c0.6-1.6,2-1.4,3.4-1.4
		C376.1,86.4,374,90.7,372.6,95.3z"/>
	<path fill="#EA74BE" d="M372.6,95.3c1.4-4.6,3.5-8.9,4.6-13.6c0.7-0.8,1.6-0.8,2.5-0.8c0.4,3.8-1.8,7.1-2.5,10.7
		C376.4,93.8,374.6,94.6,372.6,95.3z"/>
	<path fill="#B6C2C9" d="M431.3,389.8c2.8-0.1,5.5-1.3,8.4-0.8c-4.1,3.2-8.4,6.1-13.6,7l0.1,0.1C427,393.3,429.2,391.6,431.3,389.8z
		"/>
	<path fill="#8ED0D2" d="M475,319.5c2.6-0.6,4.8-1.9,6.8-3.4c2.4,0.1,2.4,3,4.3,3.5c-0.1,2-1.5,2.5-3,2.4c-2.5-0.2-5-0.6-7.4-1
		C475,320.8,475,320.1,475,319.5z"/>
	<path fill="#39424A" d="M489,453.8c5.5-4.2,11.1-4.1,17.2-1.4c-3,3.2-6,0.8-8.7,0.6C494.5,452.8,491.7,453.8,489,453.8z"/>
	<path fill="#EA74BE" d="M368.7,128.2c0.2,2.3,0.4,4.7,0.6,7c-0.4,2.1-1,4.1-3.5,4.8c-0.2-3.4-0.3-6.8-0.5-10.2
		C366.3,128.9,367.3,128.2,368.7,128.2z"/>
	<path fill="#8BCCCF" d="M543.5,288.2c-1.5,1-2.9,1.9-4.4,2.9c-1.3-4.9-1.5-5.4,3.6-10.8C542.5,283.3,543.8,285.6,543.5,288.2z"/>
	<path fill="#FCE1D0" d="M332.9,127.7c-0.5-4.5-0.7-8.2-0.3-12.3c3.2,1.9,3.3,5.1,3.9,7.7C337,125,335,126.1,332.9,127.7z"/>
	<path fill="#2E97A5" d="M420.7,411.1c-0.6,2.2-2.4,3.9-2.6,6.2c-1.7,0-3.5,0.3-5.5-0.4c1-2.4,3.1-3.7,4.2-5.7
		C417.6,409.9,419.4,409.8,420.7,411.1z"/>
	<path fill="#3A424A" d="M377.2,91.6c0.6-3.6,2.8-6.9,2.5-10.7c1.3,0,2.9-0.3,2.7,1.8c-0.3,2.3-0.5,4.6-1.2,6.8
		C380.6,91,379,91.8,377.2,91.6z"/>
	<path fill="#B6C2C9" d="M619.4,153c0.3,0,0.5,0,0.8,0c2.1,3.4,2,7.5,3,11.2C621,160.8,619.9,157,619.4,153z"/>
	<path fill="#FCE1D0" d="M323.9,128.9c4.6,4.1,4.7,4.4,1.8,6.5C324.1,132.6,324.1,132.6,323.9,128.9z"/>
	<path fill="#949AA3" d="M548.4,402.4c-2-1-3-2.3-4-3.8c1.5-1.2,2.9-0.9,4.2-1.5C549.2,399,549.1,400.5,548.4,402.4z"/>
	<path fill="#F0C2A9" d="M345.6,109.2c1.9,5,1.9,5-1.1,7.3C344.1,113.9,343.7,111.6,345.6,109.2z"/>
	<path fill="#2E97A5" d="M335.8,220.1c0.9,2.5-1.3,4.4-0.7,6.9C331.5,225.4,331.6,224.9,335.8,220.1z"/>
	<path fill="#2E97A5" d="M538.6,439c0.1-2.1-1.6-4.8,2-6.6C540.4,435,540.1,437.1,538.6,439z"/>
	<path fill="#165E66" d="M355.9,133.6c2,2.9,1.2,6,2.7,8.8C356.5,141.5,355.8,139,355.9,133.6z"/>
	<path fill="#949AA3" d="M396.8,359.6c-1,1.1-2,1.5-3.2,1.5c-1-1-0.5-2.1-0.3-3.2C394.9,357.5,395.8,358.2,396.8,359.6z"/>
	<path fill="#165E66" d="M305.5,420c0.8,1.4,1.4,2.9,1.4,4.6C303.8,423.3,303.5,422.1,305.5,420z"/>
	<path fill="#7A838B" d="M513.1,423.8c-1.4,2.1-3.6,2.7-6.7,1.8C508.7,425,510.9,424.4,513.1,423.8z"/>
	<path fill="#39424A" d="M385.5,86.9c-0.7-1.4-0.7-2.7,0.6-3.9C388.3,85.3,388.3,85.3,385.5,86.9z"/>
	<path fill="#FCE1D0" d="M328.7,146.8c0.6,1,0.4,2,0,2.9c-0.3,0.1-0.6,0.3-0.8,0.2c-0.9-0.4-2.1-0.9-1.7-2.1
		C326.5,146.7,327.6,146.4,328.7,146.8z"/>
	<path fill="#7A838B" d="M435.5,351.2c1.6-2,3.2-2.5,5.8-2C439.3,350,438,351.6,435.5,351.2z"/>
	<path fill="#155D64" d="M482.1,87c-0.6,0-1.2,0-1.8-0.1c-0.1-0.9-0.2-1.8-0.2-2.7l0-0.1c0.5,0.1,1.1,0.2,1.6,0.4
		C483.4,85.1,483.8,85.9,482.1,87z"/>
	<path fill="#B6C2C9" d="M495.5,320.4c1.3,0.3,2.6,0.6,3.9,0.9c-0.3,0.9-0.7,2-1.6,1.9C496.2,323.1,495.7,321.8,495.5,320.4z"/>
	<path fill="#949AA3" d="M383.3,400.5c-0.8-0.1-1.1-0.7-1-1.2c0-0.8,0.6-1.3,1.5-1.3c0.4,0,0.8,0.4,0.7,0.9
		C384.3,399.6,384.2,400.3,383.3,400.5z"/>
	<path fill="#165E66" d="M318,447.3c0.6,0.2,1,0.6,1,1.3c0,0.2-0.2,0.6-0.4,0.7c-0.7,0.1-1-0.3-1.1-1
		C317.4,447.8,317.5,447.4,318,447.3z"/>
	<path fill="#2E97A5" d="M358.4,150c0-1.2,0.7-1.6,1.8-1.5l0,0c0,1-0.3,1.7-1.4,1.8l-0.3,0L358.4,150z"/>
	<path fill="#165E66" d="M387.8,272.8c-0.6,0.1-1.2,0.2-1.8,0.3c0.1-0.6,0-1.5,1-1.5C387.6,271.6,387.7,272.2,387.8,272.8z"/>
	<path fill="#155D64" d="M503.4,184.2c0,1.2,0.1,2.5-0.8,3.5C502.9,186.5,502,185.1,503.4,184.2z"/>
	<path fill="#8BCCCF" d="M356.2,152.6c0.2-0.6,0.4-1.3,1.2-1.6c0.1,0.1,0.2,0.2,0.3,0.3c0,0.7-0.2,1.4-0.9,1.7
		C356.6,153,356.4,152.8,356.2,152.6z"/>
	<path fill="#2E97A5" d="M550.7,260.7c-0.1,0.2-0.2,0.4-0.4,0.6C549.8,260.8,550.5,260.9,550.7,260.7L550.7,260.7z"/>
	<path fill="#2E97A5" d="M642.4,469c0.1-0.2,0.3-0.4,0.5-0.7c0.6,0.6,0,0.6-0.3,0.8L642.4,469z"/>
	<path fill="#2E97A5" d="M641.5,470c0.1-0.5,0.4-0.8,0.9-0.9l0.1,0.1C642.4,469.6,642.1,470,641.5,470L641.5,470z"/>
	<path fill="#2E97A5" d="M641.6,470c-0.1,0.2-0.3,0.4-0.4,0.6C640.6,470.1,641.2,470.1,641.6,470L641.6,470z"/>
	<polygon fill="#2E97A5" points="640.2,472.4 640.1,472.1 640.3,472.2 	"/>
	<polygon fill="#2E97A5" points="341.9,481.3 341.8,481 342,481.1 	"/>
	<path fill="#2E97A5" d="M573,492.3c-0.1,0.2-0.2,0.4-0.4,0.6C572.1,492.3,572.7,492.4,573,492.3L573,492.3z"/>
	<path fill="#90D1D3" d="M411.6,30.3c-0.3-0.2-0.8-0.5-0.4-0.9c0.3-0.4,0.7,0,1,0.3C412,29.9,411.8,30.1,411.6,30.3z"/>
	<path fill="#2E97A5" d="M240.9,511.8c0.2,0.1,0.4,0.3,0.6,0.4C240.9,512.8,241,512.1,240.9,511.8L240.9,511.8z"/>
	<path fill="#F8F0E6" d="M644.4,161.9c0.8,0.6,0.4,0.8-0.3,0.9C644.2,162.5,644.3,162.2,644.4,161.9z"/>
	<polygon fill="#7A838B" points="619.7,166.1 619.6,165.8 619.8,165.8 	"/>
	<path fill="#2E97A5" d="M662.9,170.8c0.1-0.2,0.3-0.4,0.4-0.6C663.9,170.8,663.2,170.7,662.9,170.8L662.9,170.8z"/>
	<path fill="#2E97A5" d="M662.9,170.8c-0.1,0.2-0.3,0.4-0.4,0.6C662,170.9,662.7,170.9,662.9,170.8L662.9,170.8z"/>
	<path fill="#8BCCCF" d="M357.4,151.1c0.3-0.3,0.7-0.7,1-1l0.1,0.3l0.3,0c-0.3,0.4-0.7,0.7-1,1.1
		C357.6,151.3,357.5,151.2,357.4,151.1z"/>
	<path fill="#B6C2C9" d="M426,396c-0.1,0.2-0.2,0.4-0.3,0.6C425.2,396.1,425.9,396.2,426,396L426,396z"/>
	<path fill="#2E97A5" d="M360.2,148.5c0.2-0.2,0.3-0.3,0.5-0.5c0,0.1,0,0.3-0.1,0.3C360.5,148.4,360.3,148.5,360.2,148.5
		L360.2,148.5z"/>
	<path fill="#165E66" d="M298.7,409.4c0-0.3,0-0.6-0.1-0.9C299.5,408.8,299.6,409.1,298.7,409.4z"/>
	<path fill="#8BCCCF" d="M370.9,358.7c-0.1-0.1-0.3-0.3-0.5-0.4c0.1,0,0.3,0,0.3,0.1C370.8,358.4,370.8,358.6,370.9,358.7
		L370.9,358.7z"/>
	<path fill="#2E97A5" d="M322.8,145c-0.1,0.2-0.2,0.4-0.3,0.6C321.9,145,322.6,145.1,322.8,145L322.8,145z"/>
	<path fill="#7A838B" d="M609.5,136.9c-0.2-0.1-0.4-0.2-0.6-0.4C609.5,136,609.3,136.8,609.5,136.9L609.5,136.9z"/>
	<path fill="#165E66" d="M296,354.2c0-0.3,0-0.6,0.1-0.9c0.2,0.2,0.4,0.3,0.6,0.5C296.4,353.9,296.2,354.1,296,354.2z"/>
	<path fill="#7A838B" d="M529.3,424.6c0.1-0.6,0.5-0.8,1-1C530.2,424.1,529.8,424.5,529.3,424.6z"/>
	<polygon fill="#7A838B" points="434.5,352.2 434.4,351.9 434.7,352 	"/>
	<path fill="#105A62" d="M480.1,84.2c0.1,0.9,0.1,1.8,0.2,2.7c-6.8,9.3-14.6,17.8-21.6,26.8c-3.1,4.1-6.3,8.1-9.7,12.5
		c2.9,1.2,5.8,1.7,8.1,3.6c-0.1,1-0.6,1.7-1.6,2c-8.1-3.9-8.1-3.9-13,3.3c-2.8,4.1-5.7,8.3-8.5,12.5c-0.6,0.9-4.2,7-4.8,3.5
		c-0.8-0.9,2-4.2,2.5-4.8c0.7-0.9,1.4-1.8,1.3-3c3.5-4.1,6.3-8.5,9.5-13.7c-9.5,0.6-16.9,3.6-23.1,9.6c-3.8,2-6.1,5.7-9.1,8.5
		c-1.5,1.5-2,3.7-3.9,4.9c-0.8,0.5-1.6,0.8-2.3,0c-0.5-0.6-0.3-1.4,0.1-2c0.7-1.1,1.9-1.8,2.3-3.1c2.7-2.9,5.3-5.7,8-8.6
		c6.5-6.3,14.2-10.5,23.1-12.1c0.7-0.1,1.5-0.5,2.2-0.3c4.5,0.9,7.1-1.7,9.4-5c7.2-10.3,15.5-19.7,23.5-29.4
		C475,89.3,476.5,85.7,480.1,84.2z"/>
	<path fill="#155D64" d="M433.9,227.7c-2.1,0.3-4.3,0.5-4.4-2.6c5.1-19.8,7.5-40.1,12.4-59.9c0.2-0.7,0.3-1.5,0.6-2.1
		c0.2-0.4,0.6-0.6,1-0.9c2.8,0.7,3.2,2.6,2.8,5.1c-1.5,10-3.7,19.8-5.7,29.6c-1.7,8.3-3.1,16.6-4.7,24.9
		C435.5,223.9,434.9,225.9,433.9,227.7z"/>
	<path fill="#165E66" d="M531.8,238.5c-0.8,1.5-1.3,3.2-2.9,4.2c-0.7,0-1.4,0.1-2.1,0.1c0-1.1,0.1-2.2,0.1-3.3
		c1.7-4,1.7-8.3,2.4-12.5c1.3-7.6,2.8-15.1,4.7-22.5c1.9-7.6,4.6-14.9,5.8-22.7c0.2-1.6,0.4-3.5,2.9-2.8c1.8,2.4,1.8,5.1,1.3,7.9
		C539.6,204,535.1,221.1,531.8,238.5z"/>
	<path fill="#FBF2E9" d="M544.5,177.1c-1.9-10-2.1-20.4-5.2-30.2c-0.1-0.4,0-0.9,0.1-1.3c-1-0.7-2.3-0.4-3.4-0.7
		c-0.6-0.2-1.1-0.6-1.1-1.2c-0.1-0.6,0.3-1.1,0.9-1.3c0.6-0.2,1.1-0.2,1.7-0.3c0.4-5.3-1.8-10.3-2.6-15.6
		c-5.5,11.5-9.3,23.5-12.9,35.6c-3.7,12.2-7.3,24.4-10.1,36.8c-2.8,12.4-6.3,24.6-8.3,37.2c-0.9-3.2-1-16.9-0.3-19.8
		c0.1-0.6,0.4-1.1,0.4-1.7c0.1-7.7-0.2-15.4,0.9-23c0.1-1,0.4-2.1-0.6-2.9c-1,4-1.9,8.1-2.9,12.1c-2.4,9.6-3.5,19.5-6.1,29.1
		c-0.3,1.1-0.3,2.5-1.8,2.7c-1.2,0.1-1.7-1-2.4-1.8c-0.5-0.6-0.9-1.2-1.3-1.8c-6.6-9.3-10.9-19.6-13.5-30.7
		c-2.4-10.1-3.2-20.4-3.9-30.8c-0.8-12.2-0.6-24.3,0.8-36.4c0.9-7.7,2.8-15.1,4.2-22.7c-2.3,0.6-2.8,2.9-4.1,4.4
		c-4.7,5.4-9.5,10.7-13.8,16.3c-0.2,0.3-0.7,0.5-1.1,0.7c-0.1,1-0.6,1.7-1.6,2c-2.3,4.5-5.5,8.3-8.7,12c-7.8,9.2-14,19.5-20.7,29.4
		c-3.5,5.2-7,10.5-9.9,16.1c-0.4,0.8-0.9,1.5-1.8,1.8l0,0c-0.4-4.4,2-8,3-12.1c0.3-1.1,1.2-2.1-0.1-3.1c-3.8,6.9-7.6,13.9-11.3,20.8
		c-0.6,1.1-0.8,2.5-1.3,3.6c-1.2,3.1-0.8,6.3-1.4,9.4c-1.5,7.7-2.6,15.4-3.9,23.1c1.7,0.3,2.8-0.6,3.8-1.7
		c7.4-7.7,16.4-8.8,26.2-6.3c5.1-19.8,7.5-40.1,12.4-59.9c0.2-0.7,0.3-1.5,0.6-2.1c0.2-0.4,0.6-0.6,1-0.9c2.8,0.7,3.2,2.6,2.8,5.1
		c-1.5,10-3.7,19.8-5.7,29.6c-1.7,8.3-3.1,16.6-4.7,24.9c-0.4,2-1,4-2,5.9c2.6,1.7,5,3.8,6.4,6.5c3.1,6.1,2.9,12.5-0.5,18.2
		c-6.7,11.3-17.8,14-29.4,10.6c-3.9-1.1-6.7-4.1-9.4-7c-1-1-1.5-0.4-1.9,0.6c0.1,0.6,0,1.2,0.2,1.7c3.1,5.4,7,9.9,12,13.6
		c5.9,4.4,12.6,7.2,19.1,10.3c3.5,1.7,7.3,3.5,11.4,3.2c0-4.2,0-8.2,0-12.2c0-9.1,3.3-17.3,6.9-25.5c0.8-1.8,1.8-2.3,3.8-2
		c7.2,0.8,14.4,1.3,21.6,2.2c10.6,1.3,21.1,2.8,31.7,4c2.2,0.3,3.8,1.4,5.4,2.8c1.1-7.1,5.5-11.7,11.6-14.9c1.3-0.7,2.6-0.4,3.9-0.4
		c1.7-4,1.7-8.3,2.4-12.5c1.3-7.6,2.8-15.1,4.7-22.5c1.9-7.6,4.6-14.9,5.8-22.7c0.2-1.6,0.4-3.5,2.9-2.8
		C544.4,178.5,544.7,177.9,544.5,177.1z"/>
	<path fill="#155D64" d="M456.7,376c-0.7-3,1.2-2.6,2.7-1.9c2.4,1.2,5,1.7,7.6,2.4c6,1.6,12,0.4,17.9-0.5c6.4-0.9,12.6-2.7,18.9-4.5
		c1.5-0.4,3.6-1.7,4.1,1.3c-7.3,3.3-15,4.9-22.9,6.2c-6.7,1.2-13.4,1.7-20.1,0.1C462,378.5,459.3,377.6,456.7,376z"/>
	<path fill="#165E66" d="M651.4,170.7c2-0.5,3,0.8,4,2.1c5.2,6.4,7.1,14,7.5,22.1c0,0.8-0.4,1.4-0.9,1.9c-1.8-0.1-1.8-1.5-1.9-2.8
		c-0.4-4.2-1.3-8.4-2.8-12.4c-1.1-2.9-2.6-5.6-4.8-7.8C651.5,172.8,650.8,172,651.4,170.7z"/>
	<polygon fill="#F5C2A9" points="624,205.9 624.3,205.9 624.2,206.1 	"/>
	<path fill="#F5C2A9" d="M625.5,208.2c-0.2-0.1-0.4-0.2-0.6-0.4C625.5,207.3,625.4,208,625.5,208.2L625.5,208.2z"/>
	<path fill="#105A62" d="M335.9,446.8c-1.2,0-2.3,0.2-2.5-1.6c-0.6-3.6-1.1-7.1-2.1-10.6c-0.7-2.6-1.3-5.4-3-7.7
		c-1.6-2.2-2.6-4.8-4.5-6.5c0.4-1.3,1.2-1.1,1.9-1.3c5.7,5.1,8.1,11.8,9.4,19C335.6,440.9,336.7,443.8,335.9,446.8z"/>
	<path fill="#FCE1D0" d="M418.3,258.1c-5.4,0.6-9.7-2.6-12.8-7c-2.5-3.4-2.2-10.8,1.2-14.3c4.2-4.2,8.5-7.6,14.9-7.2
		c8.6,0.6,16.1,7.3,14.1,16.3c-1.5,6.8-7.9,11.9-14.9,12.2C420.1,258.1,419.5,258.1,418.3,258.1z M415.8,247.4c2.3,0,4.1-1.5,4-3.6
		c0-1.8-2.5-4.2-4.4-4.2c-1.7,0-3.5,1.8-3.6,3.7C411.7,245.7,413.3,247.3,415.8,247.4z M426,247.3c1.3,0.1,1.8-0.6,1.8-1.8
		c0-1-0.4-1.6-1.5-1.7c-1.2,0-2,0.3-2,1.6C424.3,246.7,424.7,247.4,426,247.3z"/>
	<path fill="#165E66" d="M523.4,324.1c-0.6-0.2-1.2-0.5-1.1-1.2c0.5-2.9,1.2-5.7,2.8-8.2c0.6-0.9,1.6-0.3,2,0.6
		c0.4,1.1-2,7.9-2.9,8.4C524,324,523.7,324.1,523.4,324.1z"/>
	<path fill="#FCFDFD" d="M527.1,252.7c2.8,0.7,4.5,1.9,4.1,4.7c-0.2,1.6-1.1,2.3-2.6,2.4c-1.8,0.2-3.3-0.4-4.1-2
		C523.2,255.2,525.9,254.4,527.1,252.7z"/>
	<path fill="#8ED0D2" d="M419.4,139.1c6.2-6,13.6-9,23.1-9.6c-3.3,5.2-6,9.7-9.5,13.7C428.2,142.7,423.8,140.9,419.4,139.1z"/>
	<path fill="#FCFDFD" d="M415.8,247.4c-2.5,0-4-1.6-4-4.2c0.1-1.9,1.8-3.7,3.6-3.7c1.9,0,4.4,2.4,4.4,4.2
		C419.8,245.8,418.1,247.4,415.8,247.4z"/>
	<path fill="#FCFDFD" d="M426,247.3c-1.3,0-1.8-0.7-1.7-1.9c0-1.4,0.9-1.7,2-1.6c1.1,0,1.5,0.7,1.5,1.7
		C427.9,246.8,427.3,247.4,426,247.3z"/>
</g>
</svg>
