<?xml version="1.0" encoding="utf-8"?>
<!-- Generator: Adobe Illustrator 18.0.0, SVG Export Plug-In . SVG Version: 6.00 Build 0)  -->
<!DOCTYPE svg PUBLIC "-//W3C//DTD SVG 1.1//EN" "http://www.w3.org/Graphics/SVG/1.1/DTD/svg11.dtd">
<svg version="1.1" id="Layer_1" xmlns="http://www.w3.org/2000/svg" xmlns:xlink="http://www.w3.org/1999/xlink" x="0px" y="0px"
	 viewBox="0 0 750 380" enable-background="new 0 0 750 380" xml:space="preserve">
<g>
	<g opacity="0.6">
		<path fill="#2A2A45" d="M743,361c0,7.2-5.8,13-13,13H13c-7.2,0-13-5.8-13-13V17C0,9.8,5.8,4,13,4h717c7.2,0,13,5.8,13,13V361z"/>
	</g>
	<g>
		<g>
			<path fill="#F0FBFF" d="M61.6,89.4c-1.4,0-4.4-0.1-8.3-0.1c-4.1,0-6.6,0.1-7.7,0.1c-0.2-0.2-0.2-1.7,0-1.9
				c1.5-0.2,2.9-0.3,3.7-0.5c1.7-0.3,1.9-1.3,2-3.5c0.1-5.3,0.2-12.9,0.2-21.2c0-0.2-0.2-0.4-0.3-0.4h-5.8c-0.8,0-1.5,0.3-2.1,1.4
				c-0.6,1-1.2,2.6-2,4.8c-0.3,0.1-2-0.3-2.1-0.6c0.4-2.1,0.9-6.3,1.1-8.6c0-0.1,0.6-0.3,0.8-0.2c0.8,0.4,1.8,0.7,4,0.7h18
				c2.6,0,3.8-0.1,5.1-0.8c0.2,0,0.6,0.2,0.7,0.3c-0.5,2-0.9,6.4-1.2,9.1c-0.2,0.3-2,0.2-2.2,0c-0.1-2-0.4-3.7-0.8-4.7
				c-0.4-1-1-1.4-1.9-1.4c-2.7,0-5.2,0-6.4,0c-0.1,0-0.2,0.2-0.2,0.3c0,7.3,0,20.3,0.1,22.7c0.1,0.9,0.4,1.7,1.6,2
				c0.8,0.2,1.9,0.3,4,0.6C62.1,87.7,61.9,89.2,61.6,89.4z"/>
		</g>
		<g>
			<path fill="#F0FBFF" d="M85.3,84.5c0.1,0.4-0.2,1.5-0.3,1.7c-2,2.3-5.8,3.5-7.9,3.5c-2.6,0-4.6-0.8-6.2-2.3c-2.1-2-3-5.1-3-8
				c0-4.5,1.9-7.4,4.4-9c1.6-1,3.7-1.6,5.5-1.6c4.9,0,6.8,4.1,7.1,7.2c0,0.1,0.3,0.4,0.8,0.6c0,0.3-0.3,1.4-0.5,1.6
				c-2.1,0.5-8.6,0.9-13,1.1c-0.2,0-0.2,0.3-0.2,0.5c0.1,1.4,0.8,3.4,2.1,4.5c1.5,1.3,2.9,1.8,5.2,1.8c2,0,3.9-0.7,5.7-2
				C85.1,84.2,85.3,84.4,85.3,84.5z M72.1,76.5c0,0.1,0.1,0.4,0.3,0.4c1.7,0.1,7.2-0.1,8.1-0.3c0.1-0.1,0.2-0.2,0.2-0.4
				c-0.3-2.4-1.9-4.9-4.5-4.9C73.9,71.2,72.3,73.4,72.1,76.5z"/>
		</g>
		<g>
			<path fill="#F0FBFF" d="M98.4,89.8c-3.2,0-5.7-1.2-7.3-3.5c-1.3-1.7-1.9-4.1-1.9-6.7c0-3.7,1.7-6.8,5.1-8.8c2.3-1.5,5-2,6.3-2
				c2.1,0,3.4,0.4,4.3,0.9c0.9,0.4,1.3,0.8,1.5,1.3c0,0.2,0,0.7-0.1,0.9c-0.3,0.9-1.4,2.1-1.8,2.3c-0.1,0.1-0.4,0.1-0.5,0.1
				c-1.2-1.1-3.1-2.8-5.6-2.8c-3.7,0-5.1,3.2-5.1,6.4c0,2.1,0.6,4.3,1.9,5.8c1.3,1.6,3.1,2.4,5.4,2.4c1.8,0,3.6-0.5,5.7-2.4
				c0.1,0.1,0.3,0.2,0.3,0.5c0,0.5-0.2,1.7-0.3,1.8C104.1,88.9,100.6,89.8,98.4,89.8z"/>
		</g>
		<g>
			<path fill="#F0FBFF" d="M108.4,58.4c2.9-0.2,6.4-1,7.9-1.7c0.2,0,0.5,0.8,0.4,1c-0.5,0.9-0.5,1.4-0.6,4.8c0,3.1,0,8,0,9.2
				c0,0.1,0.1,0.1,0.2,0c2.5-1.9,5-2.9,6.6-2.9c4.1,0,6.4,3.2,6.4,8c0,2.8,0,6.6,0,8.7c0,0.9,0.5,1.3,0.9,1.4
				c0.6,0.2,1.4,0.4,2.3,0.5c0.2,0.2,0,1.8-0.3,1.9c-0.9,0-2.8-0.1-5.1-0.1c-1.7,0-4.3,0.1-4.9,0.1c-0.3-0.2-0.3-1.7,0-1.9
				c0.7,0,1.3-0.2,1.8-0.3c0.9-0.2,1.1-0.7,1.1-2.4c0-2.2,0.1-6.9-0.1-9.2c-0.2-1.2-1.3-3.4-4.5-3.4c-1.1,0-2.6,0.4-3.7,1.2
				c-0.4,0.2-0.6,0.8-0.6,1.2c0,3.4,0,8.9,0.1,10.3c0.1,1.6,0.1,1.9,1.3,2.3c0.5,0.1,1,0.2,2,0.3c0.3,0.2,0.2,1.7-0.1,1.9
				c-0.7,0-2.4-0.1-5.2-0.1c-2.9,0-4.4,0.1-5.1,0.1c-0.3-0.3-0.3-1.7,0-1.9c0.9-0.1,1.4-0.3,1.8-0.4c0.9-0.3,1.1-0.6,1.1-1.9
				c0-1.2,0.1-6.8,0.1-7.9c0-10.9,0-13.4-0.1-15.3c0-0.8-0.2-1.3-0.9-1.5c-0.6-0.1-1.7-0.3-2.7-0.4C108,60,108.1,58.5,108.4,58.4z"
				/>
		</g>
		<g>
			<path fill="#F0FBFF" d="M136.5,87.1c0.7-0.1,1-0.7,1.1-1.5c0.1-1.4,0.1-4.8,0.1-7.9v-3.5c-0.2-0.7-1.1-1.4-2.8-2.1
				c-0.1-0.4,0.1-1.3,0.3-1.5c2-0.2,5.2-1.2,6.3-1.8c0.1,0.1,0.3,0.2,0.3,0.4c0,0.2,0,1.9,0,2.7c0,0.1,0.2,0.1,0.3,0.1
				c2.1-1.8,4.6-3.1,6.5-3.1c2.1,0,3.8,1,5,2.6c1,1.5,1.4,3.5,1.4,5.8c0,2.9,0,7.2,0.1,8.7c0,0.1,0.2,0.6,0.3,0.7
				c0.9,0.4,1.7,0.6,2.8,0.7c0.2,0.3,0.1,1.6-0.2,1.9c-0.7,0-2.4-0.1-5.1-0.1c-2.1,0-3.6,0.1-4.9,0.1c-0.2-0.3-0.3-1.7,0-1.9
				c0.9-0.1,1.7-0.2,2-0.4c0.6-0.2,0.8-0.6,0.8-2.4c0-3.2,0-6.9-0.1-8.7c-0.1-0.8-0.4-1.9-1.4-2.7c-0.7-0.6-1.6-1-3-1
				c-1.4,0-3,0.6-4,1.5c-0.3,0.2-0.5,0.7-0.5,1.6c0,3.3,0,8.2,0.1,10.4c0,0.9,0.2,1.3,1,1.5c0.6,0.1,1.2,0.2,2,0.3
				c0.2,0.3,0.1,1.6-0.2,1.9c-0.7,0-2.2-0.1-5-0.1c-2,0-4.5,0.1-5,0.1c-0.2-0.3-0.2-1.7,0-1.9C135.5,87.4,135.9,87.3,136.5,87.1z"/>
		</g>
		<g>
			<path fill="#F0FBFF" d="M170.7,89.4c-0.9,0-2.1-0.1-5.4-0.1c-2.2,0-4.2,0.1-5,0.1c-0.3-0.2-0.3-1.7,0-1.9c1-0.1,1.6-0.3,2.2-0.5
				c0.7-0.2,0.8-0.6,0.9-1.5c0.1-1.2,0.1-3.9,0.1-6.5v-4.9c0-0.2-0.1-0.8-0.4-1.1c-0.5-0.6-1.5-0.9-2.6-1.4c-0.2-0.3,0-1.3,0.3-1.5
				c1.6,0,5-0.7,7-1.5v8.8c0,2.7,0,5.8,0,7.9c0,0.8,0.2,1.4,1,1.6c0.7,0.2,1,0.2,2.2,0.4C171.1,87.7,171,89.1,170.7,89.4z
				 M166.8,64.6c-0.2,0.2-2.2,0.3-2.5,0.1c-0.8-0.5-1.2-1.1-1.5-2.2c0-0.2,0-1.5,0.3-1.7c0.5-0.4,1.7-1,2.7-1c0.9,0,1.4,0.2,1.6,0.4
				c0.2,0.3,0.5,1.1,0.5,1.6C167.9,62.8,167.6,64,166.8,64.6z"/>
		</g>
		<g>
			<path fill="#F0FBFF" d="M183.3,89.8c-3.2,0-5.7-1.2-7.3-3.5c-1.3-1.7-1.9-4.1-1.9-6.7c0-3.7,1.7-6.8,5.1-8.8c2.3-1.5,5-2,6.3-2
				c2.1,0,3.4,0.4,4.3,0.9c0.9,0.4,1.3,0.8,1.5,1.3c0,0.2,0,0.7-0.1,0.9c-0.3,0.9-1.4,2.1-1.8,2.3c-0.1,0.1-0.4,0.1-0.5,0.1
				c-1.2-1.1-3.1-2.8-5.6-2.8c-3.7,0-5.1,3.2-5.1,6.4c0,2.1,0.6,4.3,1.9,5.8c1.3,1.6,3.1,2.4,5.4,2.4c1.7,0,3.6-0.5,5.7-2.4
				c0.1,0.1,0.3,0.2,0.3,0.5c0,0.5-0.2,1.7-0.3,1.8C189,88.9,185.5,89.8,183.3,89.8z"/>
		</g>
		<g>
			<path fill="#F0FBFF" d="M204.9,73.7c-0.8-1.2-2.3-1.8-3.6-1.8c-1.3,0-2,0.3-2.2,0.5c-0.6,0.5-1.4,2.1-2,3.5
				c-0.2,0.2-1.9-0.6-1.8-1c0.2-0.8,1-3.1,1.4-3.4c2.1-1.4,5.3-2.6,6.6-2.6c2.3,0,4,1.1,5.1,2.7c0.9,1.5,1.2,3,1.2,4.9
				c0,2.5-0.2,6.3-0.2,8.3c0,1.1,0.4,1.8,1.9,1.8c0.7,0,1.1-0.1,1.7-0.2c0,0.2,0,1.7-0.2,1.9c-1.2,1.2-3,1.7-4.2,1.7
				c-1.5,0-2.4-0.7-2.7-1.4c-0.2-0.3-0.3-0.7-0.4-1.1c0,0-0.2-0.1-0.2,0c-2.8,1.7-4.6,2.5-6.1,2.5c-0.9,0-1.9-0.6-2.8-1.4
				c-1.1-1.1-1.7-2.7-1.7-4.4c0-1.4,0.9-2.9,1.1-3.1c1.8-0.9,7.3-2.1,9.3-3.1c0.1,0,0.3-0.3,0.3-0.5c0.1-0.3,0.1-0.7,0.1-0.8
				C205.5,75.6,205.5,74.6,204.9,73.7z M205.1,79.8c-1.4,0.5-4.5,1.5-5.6,2.1c-0.2,0.1-0.6,1-0.6,1.6c0,1.8,1.3,3.2,3.4,3.2
				c0.6,0,1.7-0.3,2.3-0.8c0.4-0.3,0.5-0.6,0.6-1.2c0.1-0.6,0.1-3.7,0.1-4.6C205.4,80,205.3,79.7,205.1,79.8z"/>
		</g>
		<g>
			<path fill="#F0FBFF" d="M214.6,87.4c1-0.1,1.6-0.2,2.1-0.5c0.6-0.2,0.8-0.8,0.8-1.3c0.2-1.2,0.2-4.5,0.2-12.6
				c0-3.5,0-9.1-0.1-10.7c0-0.4-0.1-1.5-0.8-1.7c-0.5-0.1-1.6-0.3-3-0.5c-0.2-0.1-0.2-1.4,0.1-1.6c2.7-0.3,6.2-1.1,7.9-1.8
				c0.1,0,0.4,0.5,0.4,0.6c-0.3,0.9-0.4,1.5-0.4,3.2c0,2.4,0,8.2-0.1,12.4c0,7.4,0,10.6,0.1,11.9c0,1.2,0.1,1.8,1.2,2.1
				c0.7,0.2,0.8,0.3,2.1,0.4c0.1,0.3,0.1,1.6-0.2,1.9c-1.1,0-2.4-0.1-5.4-0.1c-1.9,0-4.4,0.1-5,0.1
				C214.4,89.1,214.3,87.8,214.6,87.4z"/>
		</g>
		<g>
			<path fill="#F0FBFF" d="M237.4,87.4c1-0.1,1.6-0.2,2.1-0.5c0.6-0.2,0.8-0.8,0.8-1.3c0.2-1.2,0.2-4.5,0.2-12.6
				c0-3.5,0-9.1-0.1-10.7c0-0.4-0.1-1.5-0.8-1.7c-0.5-0.1-1.6-0.3-3-0.5c-0.2-0.1-0.2-1.4,0.1-1.6c2.7-0.3,6.2-1.1,7.9-1.8
				c0.1,0,0.4,0.5,0.4,0.6c-0.3,0.9-0.4,1.5-0.4,3.2c0,2.4,0,8.2-0.1,12.4c0,7.4,0,10.6,0.1,11.9c0.1,1.2,0.1,1.8,1.2,2.1
				c0.7,0.2,0.8,0.3,2.1,0.4c0.1,0.3,0.1,1.6-0.2,1.9c-1.1,0-2.4-0.1-5.4-0.1c-1.9,0-4.4,0.1-5,0.1
				C237.3,89.1,237.2,87.8,237.4,87.4z"/>
		</g>
		<g>
			<path fill="#F0FBFF" d="M268.6,84.5c0.1,0.4-0.2,1.5-0.3,1.7c-2,2.3-5.8,3.5-7.9,3.5c-2.6,0-4.6-0.8-6.2-2.3c-2.1-2-3-5.1-3-8
				c0-4.5,1.9-7.4,4.4-9c1.7-1,3.7-1.6,5.5-1.6c4.9,0,6.8,4.1,7.1,7.2c0,0.1,0.3,0.4,0.8,0.6c0,0.3-0.3,1.4-0.5,1.6
				c-2.1,0.5-8.6,0.9-13,1.1c-0.2,0-0.2,0.3-0.2,0.5c0.1,1.4,0.8,3.4,2.1,4.5c1.5,1.3,2.9,1.8,5.2,1.8c2,0,3.9-0.7,5.7-2
				C268.4,84.2,268.5,84.4,268.6,84.5z M255.3,76.5c0,0.1,0.1,0.4,0.3,0.4c1.7,0.1,7.2-0.1,8.1-0.3c0.1-0.1,0.2-0.2,0.2-0.4
				c-0.3-2.4-1.9-4.9-4.5-4.9C257.2,71.2,255.6,73.4,255.3,76.5z"/>
		</g>
		<g>
			<path fill="#F0FBFF" d="M282.3,73.7c-0.8-1.2-2.3-1.8-3.6-1.8c-1.3,0-2,0.3-2.2,0.5c-0.6,0.5-1.4,2.1-2,3.5
				c-0.2,0.2-1.9-0.6-1.8-1c0.2-0.8,1-3.1,1.4-3.4c2.1-1.4,5.3-2.6,6.6-2.6c2.3,0,4,1.1,5.1,2.7c0.9,1.5,1.2,3,1.2,4.9
				c0,2.5-0.2,6.3-0.2,8.3c0,1.1,0.4,1.8,1.9,1.8c0.7,0,1.1-0.1,1.7-0.2c0,0.2,0,1.7-0.2,1.9c-1.2,1.2-3,1.7-4.2,1.7
				c-1.5,0-2.4-0.7-2.7-1.4c-0.2-0.3-0.3-0.7-0.4-1.1c0,0-0.2-0.1-0.2,0c-2.8,1.7-4.6,2.5-6.1,2.5c-0.9,0-1.9-0.6-2.8-1.4
				c-1.1-1.1-1.7-2.7-1.7-4.4c0-1.4,0.9-2.9,1.1-3.1c1.8-0.9,7.3-2.1,9.3-3.1c0.1,0,0.3-0.3,0.3-0.5c0.1-0.3,0.1-0.7,0.1-0.8
				C283,75.6,282.9,74.6,282.3,73.7z M282.6,79.8c-1.4,0.5-4.5,1.5-5.6,2.1c-0.2,0.1-0.6,1-0.6,1.6c0,1.8,1.3,3.2,3.4,3.2
				c0.6,0,1.7-0.3,2.3-0.8c0.4-0.3,0.5-0.6,0.6-1.2c0.1-0.6,0.1-3.7,0.1-4.6C282.9,80,282.7,79.7,282.6,79.8z"/>
		</g>
		<g>
			<path fill="#F0FBFF" d="M315.1,88.4c-1.6,0.6-5.4,1.6-6.7,1.7c-0.1,0-0.3-0.3-0.4-0.6c-0.1-0.4-0.1-1.7-0.1-2.3
				c0-0.2-0.2-0.3-0.2-0.3c-2.5,1.7-5.4,2.9-6.8,2.9c-2.2,0-4.2-1-5.6-2.7c-1.5-1.8-2.2-4.4-2.2-7.1c0-3.2,1.5-6.1,3.7-7.9
				c2-1.7,5.9-3.1,9.1-3.1c0.6,0,1.4,0.1,2,0.2c0.1,0,0.2-0.2,0.2-0.3c0-4.5,0-5.6-0.1-6.8c0-0.9-0.2-1.2-1-1.5
				c-0.7-0.1-2.1-0.4-3.3-0.5c-0.2-0.4-0.1-1.6,0.2-1.8c3.3,0,7-0.8,8.6-1.4c0.1,0,0.4,0.8,0.3,0.9c-0.4,0.7-0.5,1.5-0.6,3.2
				c-0.1,2.6-0.1,4.5-0.1,13.5V85c0,1.2,0.4,1.3,0.9,1.4c0.5,0.1,1.4,0.1,2.4,0C315.5,86.8,315.3,88.1,315.1,88.4z M299.4,72.7
				c-1.2,1.1-2.2,3.3-2.2,5.8c0,5.1,2.7,7.6,6.5,7.6c1.5,0,2.8-0.6,3.8-1.4c0.2-0.2,0.3-0.7,0.3-1.1c0-1.1,0-6.6,0-9
				c0-0.9-0.3-1.7-1-2.1c-1.1-0.8-2.5-1.1-4-1.1C301.5,71.4,300.4,71.8,299.4,72.7z"/>
		</g>
		<g>
			<path fill="#F0FBFF" d="M316.3,97.3c2.5-2.2,4.6-5.2,4.5-8.1c0-1.3-0.6-2.7-1.6-4.2c0.1-0.6,2.8-2.9,3.5-3.1c0.2-0.1,1-0.1,1.2,0
				c0.6,0.4,1.5,2.3,1.6,4.5c0,4.7-3.8,9.7-7.1,11.7c-0.3,0.1-1.3-0.2-1.7-0.4C316.4,97.7,316.2,97.4,316.3,97.3z"/>
		</g>
		<g>
			<path fill="#F0FBFF" d="M338.6,69.4c0.8,0,3.1,0.1,5.1,0.1c1.9,0,4.6-0.1,5.6-0.1c0.2,0.2,0.3,1.6,0.1,1.9
				c-0.8,0.1-1.9,0.3-2.2,0.4c-0.5,0.2-0.5,0.7-0.4,0.9c0.5,2.2,2.3,8.8,3.1,11c0,0,0.1,0,0.2,0c1.5-3.5,3.6-9.3,4.6-12.9
				c0.8,0.1,2.4,0,3,0c0.3,1.3,0.7,2.6,1.2,4.2c1.2,3.6,2.9,7.9,3.3,9c0.1,0,0.1,0,0.2,0c0.9-2.6,3.2-9,3.5-10.6
				c0-0.7,0.1-1.1-0.8-1.4c-0.6-0.2-1.1-0.3-2.4-0.5c-0.1-0.5,0-1.7,0.2-1.9c0.7,0,3.3,0.1,4.4,0.1c2.4,0,4,0,5-0.1
				c0.2,0.3,0.2,1.6,0,1.9c-1,0.1-1.2,0.2-1.8,0.4c-1.2,0.5-1.6,1.3-2,2.2c-1.1,2.8-4.6,12.3-5.7,15.5c-0.8-0.1-2.4-0.1-3,0
				c-0.9-3.1-4-11.5-4.5-12.6c0-0.1-0.2,0-0.2,0c-1.2,3.2-3.3,8.4-4.8,12.5c-0.7-0.1-2.3-0.1-3,0c-1-3.8-3.5-12.3-4.6-15.1
				c-0.6-1.6-0.9-2.3-1.9-2.7c-0.6-0.1-1.3-0.3-2.2-0.4C338.2,71,338.3,69.7,338.6,69.4z"/>
		</g>
		<g>
			<path fill="#F0FBFF" d="M391,84.5c0.1,0.4-0.2,1.5-0.3,1.7c-2,2.3-5.8,3.5-7.9,3.5c-2.6,0-4.6-0.8-6.2-2.3c-2.1-2-3-5.1-3-8
				c0-4.5,1.9-7.4,4.4-9c1.7-1,3.7-1.6,5.5-1.6c4.9,0,6.8,4.1,7.1,7.2c0,0.1,0.3,0.4,0.8,0.6c0,0.3-0.3,1.4-0.5,1.6
				c-2.1,0.5-8.6,0.9-13,1.1c-0.2,0-0.2,0.3-0.2,0.5c0.1,1.4,0.8,3.4,2.1,4.5c1.5,1.3,2.9,1.8,5.2,1.8c2,0,3.9-0.7,5.7-2
				C390.8,84.2,390.9,84.4,391,84.5z M377.7,76.5c0,0.1,0.1,0.4,0.3,0.4c1.8,0.1,7.2-0.1,8.1-0.3c0.1-0.1,0.2-0.2,0.2-0.4
				c-0.3-2.4-1.9-4.9-4.5-4.9C379.6,71.2,378,73.4,377.7,76.5z"/>
		</g>
		<g>
			<path fill="#F0FBFF" d="M413.2,71.4c1.7,1.8,2.3,4.5,2.3,6.4c0,4.3-1.7,7.2-4.3,9.2c-2.3,1.7-5.6,2.8-7.6,2.8
				c-1.9,0-3.2-0.3-4.6-0.6c-0.4-0.1-1.1-0.2-2.4,0c-0.1,0-0.4-0.2-0.5-0.3c0.2-3.4,0.2-5.6,0.2-12c0-6.4,0-13.1-0.2-15.2
				c-0.1-0.6-0.3-1.1-1.4-1.3c-0.5-0.1-1.4-0.3-2.4-0.4c-0.2-0.3-0.2-1.5,0.1-1.7c2.5-0.1,6.7-0.9,8.4-1.5c0.2,0,0.4,0.7,0.3,0.9
				c-0.4,0.6-0.7,1-0.7,10.1v3.4c0,0.1,0.2,0.2,0.3,0.1c2.1-1.2,4.9-2.4,6.7-2.4C409.9,68.8,411.9,69.9,413.2,71.4z M401.2,73
				c-0.1,0.1-0.5,0.4-0.5,0.9c-0.1,1.1-0.1,8.5,0,10.2c0,0.9,0.3,1.4,0.8,1.9c1.3,1.1,3,1.3,4.1,1.3c1.4,0,2.7-0.5,3.7-1.7
				c1-1.3,1.7-3.5,1.7-5.5c0-2.8-0.7-4.5-1.6-5.7c-1.4-1.7-3-2.2-4.7-2.2C403.7,72,402,72.5,401.2,73z"/>
		</g>
		<g>
			<path fill="#F0FBFF" d="M440.6,73.7c-0.8-1.2-2.3-1.8-3.6-1.8c-1.3,0-2,0.3-2.2,0.5c-0.6,0.5-1.4,2.1-2,3.5
				c-0.2,0.2-1.9-0.6-1.8-1c0.2-0.8,1-3.1,1.4-3.4c2.1-1.4,5.3-2.6,6.6-2.6c2.3,0,4,1.1,5.1,2.7c0.9,1.5,1.2,3,1.2,4.9
				c0,2.5-0.2,6.3-0.2,8.3c0,1.1,0.4,1.8,1.9,1.8c0.7,0,1.1-0.1,1.8-0.2c0,0.2-0.1,1.7-0.2,1.9c-1.2,1.2-3,1.7-4.2,1.7
				c-1.5,0-2.4-0.7-2.7-1.4c-0.2-0.3-0.3-0.7-0.4-1.1c0,0-0.2-0.1-0.2,0c-2.8,1.7-4.6,2.5-6.1,2.5c-0.9,0-1.9-0.6-2.8-1.4
				c-1.1-1.1-1.7-2.7-1.7-4.4c0-1.4,0.9-2.9,1.1-3.1c1.8-0.9,7.3-2.1,9.3-3.1c0.1,0,0.3-0.3,0.3-0.5c0.1-0.3,0.1-0.7,0.1-0.8
				C441.2,75.6,441.1,74.6,440.6,73.7z M440.8,79.8c-1.4,0.5-4.5,1.5-5.6,2.1c-0.2,0.1-0.6,1-0.6,1.6c0,1.8,1.3,3.2,3.4,3.2
				c0.6,0,1.7-0.3,2.3-0.8c0.4-0.3,0.5-0.6,0.6-1.2c0.1-0.6,0.1-3.7,0.1-4.6C441.1,80,440.9,79.7,440.8,79.8z"/>
		</g>
		<g>
			<path fill="#F0FBFF" d="M452.2,87.1c0.7-0.1,1-0.7,1.1-1.5c0.1-1.4,0.1-4.8,0.1-7.9v-3.5c-0.2-0.7-1.1-1.4-2.8-2.1
				c-0.1-0.4,0.1-1.3,0.3-1.5c2-0.2,5.2-1.2,6.3-1.8c0.1,0.1,0.3,0.2,0.3,0.4c0,0.2,0,1.9,0,2.7c0,0.1,0.2,0.1,0.3,0.1
				c2.1-1.8,4.6-3.1,6.5-3.1c2.1,0,3.8,1,5,2.6c1,1.5,1.4,3.5,1.4,5.8c0,2.9,0,7.2,0.1,8.7c0,0.1,0.2,0.6,0.3,0.7
				c0.9,0.4,1.7,0.6,2.8,0.7c0.2,0.3,0.1,1.6-0.2,1.9c-0.7,0-2.4-0.1-5.1-0.1c-2.1,0-3.6,0.1-4.9,0.1c-0.2-0.3-0.3-1.7,0-1.9
				c0.9-0.1,1.7-0.2,2-0.4c0.6-0.2,0.8-0.6,0.8-2.4c0-3.2,0-6.9-0.1-8.7c-0.1-0.8-0.4-1.9-1.4-2.7c-0.7-0.6-1.6-1-3-1
				c-1.4,0-3,0.6-4,1.5c-0.3,0.2-0.5,0.7-0.5,1.6c0,3.3,0,8.2,0.1,10.4c0,0.9,0.2,1.3,1,1.5c0.6,0.1,1.2,0.2,2,0.3
				c0.2,0.3,0.1,1.6-0.2,1.9c-0.7,0-2.2-0.1-5-0.1c-2,0-4.5,0.1-5,0.1c-0.2-0.3-0.2-1.7,0-1.9C451.1,87.4,451.6,87.3,452.2,87.1z"/>
		</g>
		<g>
			<path fill="#F0FBFF" d="M499.2,88.4c-1.6,0.6-5.4,1.6-6.7,1.7c-0.1,0-0.3-0.3-0.4-0.6c-0.1-0.4-0.1-1.7-0.1-2.3
				c0-0.2-0.2-0.3-0.2-0.3c-2.5,1.7-5.4,2.9-6.8,2.9c-2.2,0-4.2-1-5.6-2.7c-1.5-1.8-2.2-4.4-2.2-7.1c0-3.2,1.5-6.1,3.7-7.9
				c2-1.7,5.9-3.1,9.1-3.1c0.6,0,1.4,0.1,2,0.2c0.1,0,0.2-0.2,0.2-0.3c0-4.5,0-5.6-0.1-6.8c0-0.9-0.2-1.2-1-1.5
				c-0.7-0.1-2.1-0.4-3.3-0.5c-0.2-0.4-0.1-1.6,0.2-1.8c3.3,0,7-0.8,8.6-1.4c0.1,0,0.4,0.8,0.3,0.9c-0.4,0.7-0.5,1.5-0.6,3.2
				c-0.1,2.6-0.1,4.5-0.1,13.5V85c0,1.2,0.4,1.3,0.9,1.4c0.5,0.1,1.4,0.1,2.4,0C499.6,86.8,499.4,88.1,499.2,88.4z M483.5,72.7
				c-1.2,1.1-2.2,3.3-2.2,5.8c0,5.1,2.7,7.6,6.5,7.6c1.5,0,2.8-0.6,3.8-1.4c0.2-0.2,0.3-0.7,0.3-1.1c0-1.1,0-6.6,0-9
				c0-0.9-0.3-1.7-1-2.1c-1.1-0.8-2.5-1.1-4-1.1C485.6,71.4,484.5,71.8,483.5,72.7z"/>
		</g>
		<g>
			<path fill="#F0FBFF" d="M526.9,69.9c0.8,0.3,1.6,0.4,2.7,0.4c1.7,0,2.3-0.5,3-1.2c0.2,0,0.8,0.3,0.8,0.4c0,0.7-0.7,2.4-1.2,3
				c-0.4,0.4-0.8,0.8-1.9,0.8h-1.1c0,0-0.1,0.1-0.1,0.1c0.1,0.4,0.2,1.3,0.2,1.7c0,3.5-1.3,5.1-3,6.4c-1.8,1.4-3.7,1.8-5.1,2
				c-0.1,0-1.1,0.1-1.2,0.1c-0.3,0.1-1.1,0.5-1.1,1.1c0,0.9,0.8,1.3,2.1,1.4c2.6,0.2,6.5,0.4,8.2,1c1.8,0.7,3.3,2.4,3.3,4.8
				c0,3.1-2.1,6.3-6.1,8.2c-2,1-3.9,1.3-5.8,1.3c-2.5,0-4.5-0.5-6.2-1.8c-1.6-1.2-2.3-3.1-2.3-4.4c0-0.4,0.2-1.7,0.4-2
				c0.5-0.7,2.3-2,4.5-3.5c0,0,0-0.1,0-0.1c-1.9-0.7-2.7-1.9-2.9-2.9c0-0.3,0.2-0.9,0.3-1.1c0.7-0.5,2.4-1.4,3.2-2
				c0-0.1,0-0.2,0-0.2c-2.6-0.9-4.6-2.9-4.6-6.8c0-2,0.9-4.2,2.8-5.6c1.2-1,4.4-2.2,6.4-2.1C524.2,68.9,525.4,69.3,526.9,69.9z
				 M528.8,94.2c0-1.5-0.7-2.6-2.4-3.2c-1.3-0.5-3.5-0.7-6-0.7c-0.8,0-1.4,0.2-1.7,0.4c-1.8,1.2-2.5,2.3-2.5,3.5
				c0,1.2,0.4,2.1,1.5,3c1.4,1.2,3.1,1.6,5.1,1.6C527,98.7,528.8,96.3,528.8,94.2z M517.2,75.4c0,2.9,1.3,5.9,4.6,5.9
				c0.6,0,1.7-0.3,2.1-0.8c0.7-0.7,1.3-2.1,1.3-3.9c0-2.9-1.2-5.6-4.5-5.6C518.7,71,517.2,72.6,517.2,75.4z"/>
		</g>
		<g>
			<path fill="#F0FBFF" d="M550.4,70c0,0.1,0.1,0.6,0,0.8c-0.1,0.6-1.1,2.8-1.6,3.5c0,0.1-0.3,0.2-0.4,0.2c-1-0.8-2.1-1.7-3.5-1.7
				c-0.9,0-2,1-2.5,1.9c-0.1,0.2-0.4,0.8-0.4,1.3c0,3.8,0,8.3,0.1,9.3c0,0.8,0.2,1.3,1.1,1.5c0.8,0.2,2.2,0.4,3.4,0.5
				c0.1,0.3,0,1.7-0.2,1.9c-0.5,0-4.4-0.1-6.4-0.1c-1.7,0-4.1,0.1-5.1,0.1c-0.2-0.2-0.2-1.7,0-1.9c0.6-0.1,1.5-0.2,2-0.4
				c0.6-0.2,0.9-0.5,0.9-1.4c0.1-0.8,0.1-4.7,0.1-7.8c0-1.6,0-3,0-3.5c-0.1-0.9-0.6-1.3-2.8-2.3c0-0.3,0.1-1.3,0.2-1.4
				c2.1-0.3,5.1-1.1,6.5-1.8c0,0,0.2,0.1,0.2,0.3c0,0.4-0.1,2.5-0.1,3.4c0,0.2,0.2,0.2,0.3,0.1c1-1.2,2.1-2.3,3.2-3
				c0.8-0.5,1.6-0.8,2.5-0.8C548.9,68.8,550,69.2,550.4,70z"/>
		</g>
		<g>
			<path fill="#F0FBFF" d="M562.5,73.7c-0.8-1.2-2.3-1.8-3.6-1.8c-1.3,0-2,0.3-2.2,0.5c-0.6,0.5-1.4,2.1-2,3.5
				c-0.2,0.2-1.9-0.6-1.8-1c0.2-0.8,1-3.1,1.4-3.4c2.1-1.4,5.3-2.6,6.6-2.6c2.3,0,4,1.1,5.1,2.7c0.9,1.5,1.2,3,1.2,4.9
				c0,2.5-0.2,6.3-0.2,8.3c0,1.1,0.4,1.8,1.9,1.8c0.7,0,1.1-0.1,1.7-0.2c0,0.2,0,1.7-0.2,1.9c-1.2,1.2-3,1.7-4.2,1.7
				c-1.5,0-2.4-0.7-2.7-1.4c-0.2-0.3-0.3-0.7-0.4-1.1c0,0-0.2-0.1-0.2,0c-2.8,1.7-4.6,2.5-6.1,2.5c-0.9,0-1.9-0.6-2.8-1.4
				c-1.1-1.1-1.7-2.7-1.7-4.4c0-1.4,0.9-2.9,1.1-3.1c1.8-0.9,7.3-2.1,9.3-3.1c0.1,0,0.3-0.3,0.3-0.5c0.1-0.3,0.1-0.7,0.1-0.8
				C563.1,75.6,563.1,74.6,562.5,73.7z M562.7,79.8c-1.4,0.5-4.5,1.5-5.6,2.1c-0.2,0.1-0.6,1-0.6,1.6c0,1.8,1.3,3.2,3.4,3.2
				c0.6,0,1.7-0.3,2.3-0.8c0.4-0.3,0.5-0.6,0.6-1.2C563,84,563,80.9,563,80C563,80,562.9,79.7,562.7,79.8z"/>
		</g>
		<g>
			<path fill="#F0FBFF" d="M572,70.4c1.7-0.2,5.1-1.1,7.1-2.1c0.1-0.1,0.4,0.3,0.4,0.4c-0.1,0.7-0.1,2.1-0.1,2.9
				c0,0.1,0.2,0.2,0.3,0.1c3.5-2.4,5.4-2.9,6.9-2.9c2,0,3.8,1,5,2.3c1.7,2,2.4,4.5,2.4,6.7c0,4.5-1.8,7-4.3,9.1
				c-2.5,2-5.9,2.9-8.3,2.9c-0.5,0-1.3,0-1.9-0.2c-0.1,0-0.3,0.1-0.3,0.2c0,1.8,0,4.5,0.1,6.1c0,0.8,0.3,1.5,1.4,1.7
				c0.6,0.1,2.4,0.3,3.4,0.4c0.2,0.4,0,1.7-0.2,1.9h-1.6c-5.4,0-8.7,0.3-11,0.5c-0.2-0.3-0.3-1.6,0-1.9l2.3-0.5
				c1-0.4,1.2-0.8,1.4-2.6c0-1.1,0.1-3.2,0.1-12c0.1-5.4,0-7.2,0-9c0-1.1-0.3-1.5-0.9-1.7c-0.6-0.3-1.4-0.5-2.3-0.7
				C571.7,71.9,571.7,70.7,572,70.4z M579.8,73.8c-0.2,0.2-0.4,0.7-0.4,1c-0.1,1.4,0,7,0,9c0,0.7,0.4,1.5,0.8,1.8
				c1.1,0.9,2.4,1.4,4,1.4c0.7,0,1.9-0.1,3.3-1.3c1.4-1.2,2.2-3.5,2.2-6c0-1.9-0.5-4.1-1.6-5.6c-1.2-1.4-2.5-1.9-4.1-1.9
				C582.8,72.2,581,72.8,579.8,73.8z"/>
		</g>
		<g>
			<path fill="#F0FBFF" d="M596.6,58.4c2.9-0.2,6.4-1,7.9-1.7c0.2,0,0.5,0.8,0.4,1c-0.5,0.9-0.5,1.4-0.6,4.8c0,3.1,0,8,0,9.2
				c0,0.1,0.1,0.1,0.2,0c2.5-1.9,5-2.9,6.6-2.9c4.1,0,6.4,3.2,6.4,8c0,2.8,0,6.6,0,8.7c0,0.9,0.5,1.3,0.9,1.4
				c0.6,0.2,1.4,0.4,2.3,0.5c0.2,0.2,0,1.8-0.3,1.9c-0.9,0-2.8-0.1-5.1-0.1c-1.7,0-4.3,0.1-4.9,0.1c-0.3-0.2-0.3-1.7,0-1.9
				c0.7,0,1.3-0.2,1.8-0.3c0.9-0.2,1.1-0.7,1.1-2.4c0-2.2,0.1-6.9-0.1-9.2c-0.2-1.2-1.3-3.4-4.5-3.4c-1.1,0-2.6,0.4-3.7,1.2
				c-0.4,0.2-0.6,0.8-0.6,1.2c0,3.4,0,8.9,0.1,10.3c0.1,1.6,0.1,1.9,1.3,2.3c0.5,0.1,1,0.2,2,0.3c0.3,0.2,0.2,1.7-0.1,1.9
				c-0.7,0-2.4-0.1-5.2-0.1c-2.9,0-4.4,0.1-5.2,0.1c-0.3-0.3-0.3-1.7,0-1.9c0.9-0.1,1.4-0.3,1.8-0.4c0.9-0.3,1.1-0.6,1.1-1.9
				c0-1.2,0.1-6.8,0.1-7.9c0-10.9,0-13.4-0.1-15.3c0-0.8-0.2-1.3-0.9-1.5c-0.6-0.1-1.7-0.3-2.7-0.4C596.2,60,596.3,58.5,596.6,58.4z
				"/>
		</g>
		<g>
			<path fill="#F0FBFF" d="M633.2,89.4c-0.9,0-2.1-0.1-5.4-0.1c-2.2,0-4.2,0.1-5,0.1c-0.3-0.2-0.3-1.7,0-1.9c1-0.1,1.6-0.3,2.2-0.5
				c0.7-0.2,0.8-0.6,0.9-1.5c0.1-1.2,0.1-3.9,0.1-6.5v-4.9c0-0.2-0.1-0.8-0.4-1.1c-0.5-0.6-1.5-0.9-2.6-1.4c-0.2-0.3,0-1.3,0.3-1.5
				c1.6,0,5-0.7,7-1.5v8.8c0,2.7,0,5.8,0,7.9c0,0.8,0.2,1.4,1,1.6c0.7,0.2,1,0.2,2.2,0.4C633.6,87.7,633.5,89.1,633.2,89.4z
				 M629.3,64.6c-0.2,0.2-2.2,0.3-2.5,0.1c-0.8-0.5-1.2-1.1-1.5-2.2c0-0.2,0-1.5,0.3-1.7c0.5-0.4,1.7-1,2.7-1c0.9,0,1.4,0.2,1.6,0.4
				c0.2,0.3,0.5,1.1,0.5,1.6C630.4,62.8,630.1,64,629.3,64.6z"/>
		</g>
		<g>
			<path fill="#F0FBFF" d="M645.8,89.8c-3.2,0-5.7-1.2-7.3-3.5c-1.3-1.7-1.9-4.1-1.9-6.7c0-3.7,1.7-6.8,5.1-8.8c2.3-1.5,5-2,6.3-2
				c2.1,0,3.4,0.4,4.3,0.9c0.9,0.4,1.3,0.8,1.5,1.3c0,0.2,0,0.7-0.1,0.9c-0.3,0.9-1.4,2.1-1.8,2.3c-0.1,0.1-0.4,0.1-0.5,0.1
				c-1.2-1.1-3.1-2.8-5.6-2.8c-3.7,0-5.1,3.2-5.1,6.4c0,2.1,0.6,4.3,1.9,5.8c1.3,1.6,3.1,2.4,5.4,2.4c1.8,0,3.6-0.5,5.7-2.4
				c0.1,0.1,0.3,0.2,0.3,0.5c0,0.5-0.2,1.7-0.3,1.8C651.5,88.9,647.9,89.8,645.8,89.8z"/>
		</g>
		<g>
			<path fill="#F0FBFF" d="M62.3,146.7c-1.6,0.6-5.4,1.6-6.8,1.7c-0.1,0-0.3-0.3-0.4-0.6c-0.1-0.4-0.1-1.7-0.1-2.3
				c0-0.2-0.2-0.3-0.2-0.3c-2.5,1.7-5.4,2.9-6.8,2.9c-2.2,0-4.2-1-5.6-2.7c-1.5-1.8-2.2-4.4-2.2-7.1c0-3.2,1.5-6.1,3.7-7.9
				c2-1.7,5.9-3.1,9.1-3.1c0.6,0,1.4,0.1,2,0.2c0.1,0,0.2-0.2,0.2-0.3c0-4.5,0-5.6-0.1-6.8c0-0.9-0.2-1.2-1-1.5
				c-0.7-0.1-2.1-0.4-3.3-0.5c-0.2-0.4-0.1-1.6,0.2-1.8c3.3,0,7-0.8,8.6-1.4c0.1,0,0.4,0.8,0.3,0.9c-0.4,0.7-0.5,1.5-0.6,3.2
				c-0.1,2.6-0.1,4.5-0.1,13.5v10.7c0,1.2,0.4,1.3,0.9,1.4c0.5,0.1,1.4,0.1,2.4,0C62.7,145.1,62.5,146.4,62.3,146.7z M46.6,131
				c-1.2,1.1-2.2,3.3-2.2,5.8c0,5.1,2.7,7.6,6.5,7.6c1.5,0,2.8-0.6,3.8-1.4c0.2-0.2,0.3-0.7,0.3-1.1c0-1.1,0-6.6,0-9
				c0-0.9-0.3-1.7-1-2.1c-1.1-0.8-2.5-1.1-4-1.1C48.7,129.7,47.6,130.1,46.6,131z"/>
		</g>
		<g>
			<path fill="#F0FBFF" d="M83.1,142.8c0.1,0.4-0.2,1.5-0.3,1.7c-2,2.3-5.8,3.5-7.9,3.5c-2.6,0-4.6-0.8-6.2-2.3c-2.1-2-3-5.1-3-8
				c0-4.5,1.9-7.4,4.4-9c1.7-1,3.7-1.7,5.5-1.7c4.9,0,6.8,4.1,7.1,7.2c0,0.1,0.3,0.4,0.8,0.6c0,0.3-0.3,1.4-0.5,1.6
				c-2.1,0.5-8.6,0.9-13,1.1c-0.2,0-0.2,0.3-0.2,0.5c0.1,1.4,0.8,3.4,2.1,4.5c1.5,1.3,2.9,1.8,5.2,1.8c2,0,3.9-0.7,5.7-2
				C82.9,142.5,83.1,142.7,83.1,142.8z M69.9,134.8c0,0.1,0.1,0.4,0.3,0.4c1.7,0,7.2-0.1,8.1-0.3c0.1-0.1,0.2-0.2,0.2-0.4
				c-0.3-2.4-1.9-4.9-4.5-4.9C71.8,129.5,70.1,131.7,69.9,134.8z"/>
		</g>
		<g>
			<path fill="#F0FBFF" d="M99.8,133.3c-0.2,0.2-1.5,0.3-1.7,0.1c-0.4-2-0.7-3-1.6-3.6c-0.6-0.4-1.4-0.8-2.6-0.8c-1.7,0-3,1.1-3,2.7
				c0,1.7,1,2.6,4.9,4.2c4.2,1.8,5.3,3.5,5.3,6c0,3.7-3.5,6.2-8.2,6.2c-2,0-4.4-0.5-5.4-1c-0.4-1.1-0.9-4.3-1-5.6
				c0.2-0.2,1.6-0.7,1.8-0.6c0.7,2.3,1.6,3.5,2.8,4.4c0.7,0.4,1.8,0.7,2.7,0.7c2,0,3.1-1,3.1-2.5c0-1.6-0.9-2.6-4.3-4.1
				c-3.8-1.7-5.5-3.5-5.5-6.3c0-3.1,2.5-6,7.6-6c1.3,0,2.7,0.2,3.5,0.3c0.9,0.1,1.6,0.3,2.1,0.3C100.2,129.2,100,131.1,99.8,133.3z"
				/>
		</g>
		<g>
			<path fill="#F0FBFF" d="M114.4,147.7c-0.9,0-2.1-0.1-5.4-0.1c-2.2,0-4.2,0.1-5,0.1c-0.3-0.2-0.3-1.7,0-1.9c1-0.1,1.6-0.3,2.2-0.5
				c0.7-0.2,0.8-0.6,0.9-1.5c0.1-1.2,0.1-3.9,0.1-6.5v-4.9c0-0.2-0.1-0.8-0.4-1.1c-0.5-0.6-1.5-0.9-2.6-1.4c-0.2-0.3,0-1.3,0.3-1.5
				c1.6,0,5-0.7,7-1.5v8.8c0,2.7,0,5.8,0.1,7.9c0,0.8,0.2,1.4,1,1.6c0.7,0.2,1,0.2,2.2,0.4C114.8,146,114.7,147.5,114.4,147.7z
				 M110.5,122.9c-0.2,0.2-2.2,0.3-2.5,0.1c-0.8-0.5-1.2-1.1-1.5-2.2c0-0.2,0-1.5,0.3-1.7c0.5-0.4,1.7-1,2.7-1
				c0.9,0,1.4,0.2,1.6,0.4c0.2,0.3,0.5,1.1,0.5,1.6C111.6,121.1,111.3,122.3,110.5,122.9z"/>
		</g>
		<g>
			<path fill="#F0FBFF" d="M131.3,128.2c0.8,0.3,1.6,0.4,2.7,0.4c1.7,0,2.3-0.5,3-1.2c0.2,0,0.8,0.3,0.8,0.4c0,0.7-0.7,2.4-1.2,3
				c-0.4,0.4-0.8,0.8-1.9,0.8h-1.1c0,0-0.1,0.1-0.1,0.1c0.1,0.4,0.2,1.3,0.2,1.7c0,3.5-1.3,5.2-3,6.4c-1.8,1.4-3.7,1.8-5.1,2
				c-0.1,0-1.1,0.1-1.2,0.1c-0.3,0.1-1.1,0.5-1.1,1.1c0,0.9,0.8,1.3,2.1,1.4c2.6,0.2,6.5,0.4,8.2,1c1.8,0.7,3.3,2.4,3.3,4.8
				c0,3.1-2.1,6.3-6.1,8.2c-2,1-3.9,1.3-5.8,1.3c-2.5,0-4.5-0.5-6.2-1.8c-1.6-1.2-2.3-3.1-2.3-4.4c0-0.4,0.2-1.7,0.4-2
				c0.5-0.7,2.3-2,4.5-3.5c0,0,0-0.1,0-0.1c-1.9-0.7-2.7-1.9-2.9-2.9c0-0.3,0.2-0.9,0.3-1.1c0.7-0.5,2.4-1.4,3.2-2
				c0-0.1,0-0.2,0-0.2c-2.6-0.9-4.6-2.9-4.6-6.8c0-2,0.9-4.2,2.8-5.6c1.2-1,4.4-2.2,6.4-2.1C128.6,127.2,129.7,127.6,131.3,128.2z
				 M133.2,152.5c0-1.5-0.7-2.6-2.4-3.2c-1.3-0.5-3.5-0.7-6-0.7c-0.8,0-1.4,0.2-1.7,0.4c-1.8,1.2-2.5,2.3-2.5,3.5
				c0,1.2,0.4,2.1,1.5,3c1.4,1.2,3.1,1.6,5.1,1.6C131.3,157,133.2,154.6,133.2,152.5z M121.5,133.8c0,2.9,1.3,5.9,4.6,5.9
				c0.6,0,1.7-0.3,2.1-0.8c0.7-0.7,1.3-2.1,1.3-3.9c0-2.9-1.2-5.6-4.5-5.6C123,129.3,121.5,130.9,121.5,133.8z"/>
		</g>
		<g>
			<path fill="#F0FBFF" d="M141.1,145.4c0.7-0.1,1-0.7,1.1-1.5c0.1-1.4,0.1-4.8,0.1-7.9v-3.5c-0.2-0.7-1.1-1.4-2.8-2.1
				c-0.1-0.4,0.1-1.3,0.3-1.5c2-0.2,5.2-1.2,6.3-1.8c0.1,0,0.3,0.2,0.3,0.4c0,0.2,0,1.9,0,2.7c0,0.1,0.2,0.1,0.3,0
				c2.1-1.8,4.6-3.1,6.5-3.1c2.1,0,3.8,1,5,2.6c1,1.5,1.4,3.5,1.4,5.8c0,2.9,0,7.2,0.1,8.7c0,0.1,0.2,0.6,0.3,0.7
				c0.9,0.4,1.7,0.6,2.8,0.7c0.2,0.3,0.1,1.6-0.2,1.9c-0.7,0-2.4-0.1-5.1-0.1c-2.1,0-3.6,0.1-4.9,0.1c-0.2-0.3-0.3-1.7,0-1.9
				c0.9-0.1,1.7-0.2,2-0.4c0.6-0.2,0.8-0.6,0.8-2.4c0-3.2,0-6.9-0.1-8.7c-0.1-0.8-0.4-1.9-1.4-2.7c-0.7-0.6-1.6-1-3-1
				c-1.4,0-3,0.6-4,1.5c-0.3,0.2-0.5,0.7-0.5,1.6c0,3.3,0,8.2,0.1,10.4c0,0.9,0.2,1.3,1,1.5c0.6,0.1,1.2,0.2,2,0.3
				c0.2,0.3,0.1,1.6-0.2,1.9c-0.7,0-2.2-0.1-5-0.1c-2,0-4.5,0.1-5,0.1c-0.2-0.3-0.2-1.7,0-1.9C140,145.7,140.5,145.6,141.1,145.4z"
				/>
		</g>
		<g>
			<path fill="#F0FBFF" d="M183.4,142.8c0.1,0.4-0.2,1.5-0.3,1.7c-2,2.3-5.8,3.5-7.9,3.5c-2.6,0-4.6-0.8-6.2-2.3c-2.1-2-3-5.1-3-8
				c0-4.5,1.9-7.4,4.4-9c1.6-1,3.7-1.7,5.5-1.7c4.9,0,6.8,4.1,7.1,7.2c0,0.1,0.3,0.4,0.8,0.6c0,0.3-0.3,1.4-0.5,1.6
				c-2.1,0.5-8.6,0.9-13,1.1c-0.2,0-0.2,0.3-0.2,0.5c0.1,1.4,0.8,3.4,2.1,4.5c1.5,1.3,2.9,1.8,5.2,1.8c2,0,3.9-0.7,5.7-2
				C183.2,142.5,183.3,142.7,183.4,142.8z M170.1,134.8c0,0.1,0.1,0.4,0.3,0.4c1.7,0,7.2-0.1,8.1-0.3c0.1-0.1,0.2-0.2,0.2-0.4
				c-0.3-2.4-1.9-4.9-4.5-4.9C172,129.5,170.3,131.7,170.1,134.8z"/>
		</g>
		<g>
			<path fill="#F0FBFF" d="M201.9,128.3c0,0.1,0.1,0.6,0,0.8c-0.1,0.6-1.1,2.8-1.6,3.5c0,0.1-0.3,0.2-0.4,0.2
				c-1-0.8-2.1-1.7-3.5-1.7c-0.9,0-2,1-2.5,1.9c-0.1,0.2-0.4,0.8-0.4,1.3c0,3.8,0,8.3,0.1,9.3c0,0.8,0.2,1.3,1.1,1.5
				c0.8,0.2,2.2,0.4,3.5,0.5c0.1,0.3,0,1.7-0.2,1.9c-0.5,0-4.4-0.1-6.4-0.1c-1.7,0-4.1,0.1-5.1,0.1c-0.2-0.2-0.2-1.7,0-1.9
				c0.6-0.1,1.5-0.2,2-0.4c0.6-0.2,0.9-0.5,0.9-1.4c0.1-0.8,0.1-4.7,0.1-7.8c0-1.6,0-3-0.1-3.5c-0.1-0.9-0.6-1.3-2.8-2.3
				c0-0.3,0.1-1.3,0.2-1.4c2.1-0.3,5.1-1.1,6.5-1.8c0,0,0.2,0.1,0.2,0.3c0,0.4-0.1,2.5-0.1,3.5c0,0.2,0.2,0.2,0.3,0.1
				c1-1.2,2.1-2.3,3.2-3c0.8-0.5,1.6-0.8,2.5-0.8C200.4,127.2,201.5,127.5,201.9,128.3z"/>
		</g>
		<g>
			<path fill="#F0FBFF" d="M235.5,137.2c0,4-1.6,7.1-4.6,9.1c-1.4,0.9-3.9,1.8-6,1.8c-7.3,0-10.1-5.5-10.1-10.6
				c0-3.9,1.7-6.6,4.3-8.4c1.8-1.1,4.2-2,6.7-2C231.9,127.2,235.5,131.6,235.5,137.2z M221.9,130.2c-1.3,0.8-2.5,2.4-2.5,6
				c0,5.8,3,9.5,6.7,9.5c1.1,0,2-0.3,2.9-1c1.1-0.9,1.8-2.8,1.8-5.9c0-5.7-2.8-9.2-6.7-9.2C223.4,129.5,222.6,129.7,221.9,130.2z"/>
		</g>
		<g>
			<path fill="#F0FBFF" d="M240.9,145.4c0.7-0.1,1-0.7,1.1-1.5c0.1-1.4,0.1-4.8,0.1-7.9v-3.5c-0.2-0.7-1.1-1.4-2.8-2.1
				c-0.1-0.4,0.1-1.3,0.3-1.5c2-0.2,5.2-1.2,6.3-1.8c0.1,0,0.3,0.2,0.3,0.4c0,0.2,0,1.9,0,2.7c0,0.1,0.2,0.1,0.3,0
				c2.1-1.8,4.6-3.1,6.5-3.1c2.1,0,3.8,1,5,2.6c1,1.5,1.4,3.5,1.4,5.8c0,2.9,0,7.2,0.1,8.7c0,0.1,0.2,0.6,0.3,0.7
				c0.9,0.4,1.7,0.6,2.8,0.7c0.2,0.3,0.1,1.6-0.2,1.9c-0.7,0-2.4-0.1-5.1-0.1c-2.1,0-3.6,0.1-4.9,0.1c-0.2-0.3-0.3-1.7,0-1.9
				c0.9-0.1,1.7-0.2,2-0.4c0.6-0.2,0.8-0.6,0.8-2.4c0-3.2,0-6.9-0.1-8.7c-0.1-0.8-0.4-1.9-1.4-2.7c-0.7-0.6-1.6-1-3-1
				c-1.4,0-3,0.6-4,1.5c-0.3,0.2-0.5,0.7-0.5,1.6c0,3.3,0,8.2,0.1,10.4c0,0.9,0.2,1.3,1,1.5c0.6,0.1,1.2,0.2,2,0.3
				c0.2,0.3,0.1,1.6-0.2,1.9c-0.7,0-2.2-0.1-5-0.1c-2,0-4.5,0.1-5,0.1c-0.2-0.3-0.2-1.7,0-1.9C239.9,145.7,240.4,145.6,240.9,145.4z
				"/>
		</g>
		<g>
			<path fill="#F0FBFF" d="M286.3,132c-0.8-1.2-2.3-1.8-3.6-1.8c-1.3,0-2,0.3-2.2,0.5c-0.6,0.5-1.4,2.1-2,3.5
				c-0.2,0.2-1.9-0.6-1.8-1c0.2-0.8,1-3.1,1.4-3.4c2.1-1.4,5.3-2.6,6.6-2.6c2.3,0,4,1.1,5.1,2.7c0.9,1.5,1.2,3,1.2,4.9
				c0,2.5-0.2,6.3-0.2,8.3c0,1.1,0.4,1.8,1.9,1.8c0.7,0,1.1-0.1,1.7-0.2c0,0.2,0,1.7-0.2,1.9c-1.2,1.2-3,1.7-4.2,1.7
				c-1.5,0-2.4-0.7-2.7-1.4c-0.2-0.3-0.3-0.7-0.4-1.1c0-0.1-0.2-0.1-0.2-0.1c-2.8,1.7-4.6,2.5-6.1,2.5c-0.9,0-1.9-0.6-2.8-1.4
				c-1.1-1.1-1.7-2.7-1.7-4.4c0-1.4,0.9-2.9,1.1-3.1c1.8-0.9,7.3-2.1,9.3-3.1c0.1,0,0.3-0.3,0.3-0.5c0.1-0.3,0.1-0.7,0.1-0.8
				C286.9,134,286.9,132.9,286.3,132z M286.5,138.1c-1.4,0.5-4.5,1.5-5.6,2.1c-0.2,0.1-0.6,1-0.6,1.6c0,1.8,1.3,3.2,3.4,3.2
				c0.6,0,1.7-0.3,2.3-0.8c0.4-0.3,0.5-0.6,0.6-1.2c0.1-0.6,0.1-3.7,0.1-4.6C286.8,138.3,286.7,138,286.5,138.1z"/>
		</g>
		<g>
			<path fill="#F0FBFF" d="M296,145.8c1-0.1,1.6-0.2,2.1-0.5c0.6-0.2,0.8-0.8,0.8-1.3c0.2-1.2,0.2-4.5,0.2-12.6
				c0-3.5,0-9.1-0.1-10.7c0-0.4-0.1-1.5-0.8-1.7c-0.5-0.1-1.6-0.3-3-0.5c-0.2-0.1-0.2-1.4,0.1-1.6c2.7-0.3,6.2-1.1,7.9-1.8
				c0.1,0,0.4,0.5,0.4,0.6c-0.3,0.9-0.4,1.5-0.4,3.2c0,2.4,0,8.2-0.1,12.4c0,7.4,0,10.6,0.1,11.9c0,1.2,0.1,1.8,1.2,2.1
				c0.7,0.2,0.8,0.3,2.1,0.4c0.1,0.3,0.1,1.6-0.2,1.9c-1.1,0-2.4-0.1-5.4-0.1c-1.9,0-4.4,0.1-5,0.1
				C295.8,147.4,295.7,146.1,296,145.8z"/>
		</g>
		<g>
			<path fill="#F0FBFF" d="M308.9,145.8c1-0.1,1.6-0.2,2.1-0.5c0.6-0.2,0.8-0.8,0.8-1.3c0.2-1.2,0.2-4.5,0.2-12.6
				c0-3.5,0-9.1-0.1-10.7c0-0.4-0.1-1.5-0.8-1.7c-0.5-0.1-1.6-0.3-3-0.5c-0.2-0.1-0.2-1.4,0.1-1.6c2.7-0.3,6.2-1.1,7.9-1.8
				c0.1,0,0.4,0.5,0.4,0.6c-0.3,0.9-0.4,1.5-0.4,3.2c0,2.4,0,8.2-0.1,12.4c0,7.4,0,10.6,0.1,11.9c0,1.2,0.1,1.8,1.2,2.1
				c0.7,0.2,0.8,0.3,2.1,0.4c0.1,0.3,0.1,1.6-0.2,1.9c-1.1,0-2.4-0.1-5.4-0.1c-1.9,0-4.4,0.1-5,0.1
				C308.7,147.4,308.6,146.1,308.9,145.8z"/>
		</g>
		<g>
			<path fill="#F0FBFF" d="M334.1,145.4c0.8-0.3,1-0.8,1-1.6c0.1-2.8,0.1-8.4,0.1-12.7c0-0.1-0.2-0.4-0.3-0.4l-3.1-0.2
				c0-0.6,0.3-1.5,0.6-1.8c0.8-0.1,2.1-0.5,2.6-0.8c0.1,0,0.2-0.3,0.2-0.4c0.1-4.3,1.2-7.9,5-10.6c1.6-1.1,3.5-1.8,4.9-1.8
				c1.4,0,2.9,0.3,3.5,1.4c0,0.1,0,0.6,0,0.7c-0.1,0.6-1.4,2.7-1.8,3.1c-0.1,0.1-0.5,0.1-0.6,0c-1.3-1.2-2.8-1.9-3.8-1.9
				c-0.7,0-1.3,0.2-1.9,0.9c-1.1,1.4-1.2,4-1.2,7.4v0.8c0,0.1,0.2,0.4,0.3,0.4c4,0,4.9-0.1,5.7-0.1c-0.1,0.7-0.4,2.2-0.5,3.1
				c-1.8,0-3.6,0-5.2,0c-0.1,0-0.3,0.2-0.3,0.4c0,4.6,0,9.6,0.2,12.4c0,1,0.3,1.5,1.4,1.8c0.7,0.2,1.4,0.3,3,0.5
				c0.2,0.2,0.1,1.7-0.2,1.9c-1.1,0-3.1-0.1-6.5-0.1c-2.9,0-4.3,0.1-5.3,0.1c-0.2-0.3-0.3-1.7,0-1.9
				C333.1,145.6,333.6,145.5,334.1,145.4z"/>
		</g>
		<g>
			<path fill="#F0FBFF" d="M367.7,137.2c0,4-1.6,7.1-4.6,9.1c-1.4,0.9-3.9,1.8-6,1.8c-7.3,0-10.1-5.5-10.1-10.6
				c0-3.9,1.7-6.6,4.3-8.4c1.8-1.1,4.2-2,6.7-2C364,127.2,367.7,131.6,367.7,137.2z M354.1,130.2c-1.3,0.8-2.5,2.4-2.5,6
				c0,5.8,3,9.5,6.7,9.5c1.1,0,2-0.3,2.9-1c1.1-0.9,1.8-2.8,1.8-5.9c0-5.7-2.8-9.2-6.7-9.2C355.6,129.5,354.7,129.7,354.1,130.2z"/>
		</g>
		<g>
			<path fill="#F0FBFF" d="M370.9,128.2c2,0,6-0.4,7.3-0.7c-0.2,1.6-0.3,5.2-0.3,9.7c0,3,0,4.2,0.2,4.9c0.4,1.6,1.6,2.7,4,2.7
				c1.1,0,2.6-0.4,4-1.6c0.3-0.3,0.4-0.5,0.5-1c0-0.4,0-1.6,0-10.2c0-0.7-0.2-1.3-0.9-1.5c-0.6-0.2-1.7-0.3-3.1-0.6
				c-0.1-0.4,0-1.6,0.3-1.8c2.7,0,7-0.3,8.1-0.6c-0.1,0.8-0.1,1.8-0.1,3.5l-0.1,12.1c0,0.6,0.2,1.2,0.7,1.3c0.8,0.1,1.7,0,2.5-0.1
				c0,0.4,0,1.7-0.3,1.9c-1.8,0.9-5.9,2-6.7,2c-0.1,0-0.2-0.3-0.3-0.5c0-0.4-0.1-1.9-0.1-2.6c0-0.1-0.2-0.1-0.3-0.1
				c-2.8,2.3-5,3.1-6.5,3.1c-4.9,0-6-3.3-6-6.6c0-2.4,0.1-7.6,0-9.6c0-0.7-0.2-1.4-0.9-1.6c-0.4-0.1-1.3-0.3-2.2-0.4
				C370.5,129.6,370.7,128.5,370.9,128.2z"/>
		</g>
		<g>
			<path fill="#F0FBFF" d="M414.1,128.3c0,0.1,0.1,0.6,0,0.8c-0.1,0.6-1.1,2.8-1.6,3.5c0,0.1-0.3,0.2-0.4,0.2
				c-1-0.8-2.1-1.7-3.5-1.7c-0.9,0-2,1-2.5,1.9c-0.1,0.2-0.4,0.8-0.4,1.3c0,3.8,0,8.3,0.1,9.3c0,0.8,0.2,1.3,1.1,1.5
				c0.8,0.2,2.2,0.4,3.4,0.5c0.1,0.3,0,1.7-0.2,1.9c-0.5,0-4.4-0.1-6.4-0.1c-1.7,0-4.1,0.1-5.1,0.1c-0.2-0.2-0.2-1.7,0-1.9
				c0.6-0.1,1.5-0.2,2-0.4c0.6-0.2,0.9-0.5,0.9-1.4c0.1-0.8,0.1-4.7,0.1-7.8c0-1.6,0-3,0-3.5c-0.1-0.9-0.6-1.3-2.8-2.3
				c0-0.3,0.1-1.3,0.2-1.4c2.1-0.3,5.1-1.1,6.5-1.8c0,0,0.2,0.1,0.2,0.3c0,0.4-0.1,2.5-0.1,3.5c0,0.2,0.2,0.2,0.3,0.1
				c1-1.2,2.1-2.3,3.2-3c0.8-0.5,1.6-0.8,2.5-0.8C412.5,127.2,413.6,127.5,414.1,128.3z"/>
		</g>
		<g>
			<path fill="#F0FBFF" d="M444.5,142.8c0.1,0.4-0.2,1.5-0.3,1.7c-2,2.3-5.8,3.5-7.9,3.5c-2.6,0-4.6-0.8-6.2-2.3c-2.1-2-3-5.1-3-8
				c0-4.5,1.9-7.4,4.4-9c1.7-1,3.7-1.7,5.5-1.7c4.9,0,6.8,4.1,7.1,7.2c0,0.1,0.3,0.4,0.8,0.6c0,0.3-0.3,1.4-0.5,1.6
				c-2.1,0.5-8.6,0.9-13,1.1c-0.2,0-0.2,0.3-0.2,0.5c0.1,1.4,0.8,3.4,2.1,4.5c1.5,1.3,2.9,1.8,5.2,1.8c2,0,3.9-0.7,5.7-2
				C444.3,142.5,444.4,142.7,444.5,142.8z M431.2,134.8c0,0.1,0.1,0.4,0.3,0.4c1.7,0,7.2-0.1,8.1-0.3c0.1-0.1,0.2-0.2,0.2-0.4
				c-0.3-2.4-1.9-4.9-4.5-4.9C433.1,129.5,431.5,131.7,431.2,134.8z"/>
		</g>
		<g>
			<path fill="#F0FBFF" d="M470.5,146.7c-1.6,0.6-5.4,1.6-6.8,1.7c-0.1,0-0.3-0.3-0.4-0.6c-0.1-0.4-0.1-1.7-0.1-2.3
				c0-0.2-0.2-0.3-0.2-0.3c-2.5,1.7-5.4,2.9-6.8,2.9c-2.2,0-4.2-1-5.6-2.7c-1.5-1.8-2.2-4.4-2.2-7.1c0-3.2,1.5-6.1,3.7-7.9
				c2-1.7,5.9-3.1,9.1-3.1c0.6,0,1.4,0.1,2,0.2c0.1,0,0.2-0.2,0.2-0.3c0-4.5,0-5.6-0.1-6.8c0-0.9-0.2-1.2-1-1.5
				c-0.7-0.1-2.1-0.4-3.3-0.5c-0.2-0.4-0.1-1.6,0.2-1.8c3.3,0,7-0.8,8.6-1.4c0.1,0,0.4,0.8,0.3,0.9c-0.4,0.7-0.5,1.5-0.6,3.2
				c-0.1,2.6-0.1,4.5-0.1,13.5v10.7c0,1.2,0.4,1.3,0.9,1.4c0.5,0.1,1.4,0.1,2.4,0C470.9,145.1,470.7,146.4,470.5,146.7z M454.8,131
				c-1.2,1.1-2.2,3.3-2.2,5.8c0,5.1,2.7,7.6,6.5,7.6c1.5,0,2.8-0.6,3.8-1.4c0.2-0.2,0.3-0.7,0.3-1.1c0-1.1,0-6.6,0-9
				c0-0.9-0.3-1.7-1-2.1c-1.1-0.8-2.5-1.1-4-1.1C457,129.7,455.8,130.1,454.8,131z"/>
		</g>
		<g>
			<path fill="#F0FBFF" d="M483.5,147.7c-0.9,0-2.1-0.1-5.4-0.1c-2.2,0-4.2,0.1-5,0.1c-0.3-0.2-0.3-1.7,0-1.9c1-0.1,1.6-0.3,2.2-0.5
				c0.7-0.2,0.8-0.6,0.9-1.5c0.1-1.2,0.1-3.9,0.1-6.5v-4.9c0-0.2-0.1-0.8-0.4-1.1c-0.5-0.6-1.5-0.9-2.6-1.4c-0.2-0.3,0-1.3,0.3-1.5
				c1.6,0,5-0.7,7-1.5v8.8c0,2.7,0,5.8,0,7.9c0,0.8,0.2,1.4,1,1.6c0.7,0.2,1,0.2,2.2,0.4C483.9,146,483.8,147.5,483.5,147.7z
				 M479.6,122.9c-0.2,0.2-2.2,0.3-2.5,0.1c-0.8-0.5-1.2-1.1-1.5-2.2c0-0.2,0-1.5,0.3-1.7c0.5-0.4,1.7-1,2.7-1
				c0.9,0,1.4,0.2,1.6,0.4c0.2,0.3,0.5,1.1,0.5,1.6C480.7,121.1,480.4,122.3,479.6,122.9z"/>
		</g>
		<g>
			<path fill="#F0FBFF" d="M492.9,130.7c0,0-0.2,0.2-0.2,0.2c0,1.8,0,5.2,0,7.8c0,2.3,0.1,3.3,0.3,4c0.4,1.5,1.8,2,3.1,2
				c1.4,0,2-0.1,3.3-0.8c0.1,0.2-0.1,1.8-0.3,2.1c-1.2,1.5-3.4,2.1-5.1,2.1c-2.2,0-3.8-1-4.7-2.5c-0.7-1.3-0.8-2.5-0.8-5.6
				c0-2.9,0-6.9,0-8.8c0-0.1-0.1-0.4-0.3-0.5l-2.8-0.2c-0.1-0.4,0.2-1.7,0.5-2c0.8-0.1,2-0.4,2.4-0.6c0,0,0.2-0.2,0.2-0.4v-4.4
				c0.7-0.4,2.6-1.5,3.4-2.1c0.2-0.1,0.9-0.1,1.1-0.1c0,0.9-0.2,3.3-0.2,6.6c0,0.1,0.1,0.3,0.2,0.3c2.2,0,5.5-0.1,6.5-0.2
				c-0.2,0.8-0.5,2.3-0.5,3.2C498,130.7,494.9,130.7,492.9,130.7z"/>
		</g>
		<g>
			<path fill="#F0FBFF" d="M512,147.7c-0.9,0-2.1-0.1-5.4-0.1c-2.2,0-4.2,0.1-5,0.1c-0.3-0.2-0.3-1.7,0-1.9c1-0.1,1.6-0.3,2.2-0.5
				c0.7-0.2,0.8-0.6,0.9-1.5c0.1-1.2,0.1-3.9,0.1-6.5v-4.9c0-0.2-0.1-0.8-0.4-1.1c-0.5-0.6-1.5-0.9-2.6-1.4c-0.2-0.3,0-1.3,0.3-1.5
				c1.6,0,5-0.7,7-1.5v8.8c0,2.7,0,5.8,0,7.9c0,0.8,0.2,1.4,1,1.6c0.7,0.2,1,0.2,2.2,0.4C512.5,146,512.3,147.5,512,147.7z
				 M508.2,122.9c-0.2,0.2-2.2,0.3-2.5,0.1c-0.8-0.5-1.2-1.1-1.5-2.2c0-0.2,0-1.5,0.3-1.7c0.5-0.4,1.7-1,2.7-1
				c0.9,0,1.4,0.2,1.6,0.4c0.2,0.3,0.5,1.1,0.5,1.6C509.3,121.1,508.9,122.3,508.2,122.9z"/>
		</g>
		<g>
			<path fill="#F0FBFF" d="M536,137.2c0,4-1.6,7.1-4.6,9.1c-1.4,0.9-3.9,1.8-6,1.8c-7.3,0-10.1-5.5-10.1-10.6c0-3.9,1.7-6.6,4.3-8.4
				c1.8-1.1,4.2-2,6.7-2C532.3,127.2,536,131.6,536,137.2z M522.4,130.2c-1.3,0.8-2.5,2.4-2.5,6c0,5.8,3,9.5,6.7,9.5
				c1.1,0,2-0.3,2.9-1c1.1-0.9,1.8-2.8,1.8-5.9c0-5.7-2.8-9.2-6.7-9.2C523.9,129.5,523.1,129.7,522.4,130.2z"/>
		</g>
		<g>
			<path fill="#F0FBFF" d="M541.4,145.4c0.7-0.1,1-0.7,1.1-1.5c0.1-1.4,0.1-4.8,0.1-7.9v-3.5c-0.2-0.7-1.1-1.4-2.8-2.1
				c-0.1-0.4,0.1-1.3,0.3-1.5c2-0.2,5.2-1.2,6.3-1.8c0.1,0,0.3,0.2,0.3,0.4c0,0.2,0,1.9,0,2.7c0,0.1,0.2,0.1,0.3,0
				c2.1-1.8,4.6-3.1,6.5-3.1c2.1,0,3.8,1,5,2.6c1,1.5,1.4,3.5,1.4,5.8c0,2.9,0,7.2,0.1,8.7c0,0.1,0.2,0.6,0.3,0.7
				c0.9,0.4,1.7,0.6,2.8,0.7c0.2,0.3,0.1,1.6-0.2,1.9c-0.7,0-2.4-0.1-5.1-0.1c-2.1,0-3.6,0.1-4.9,0.1c-0.2-0.3-0.3-1.7,0-1.9
				c0.9-0.1,1.7-0.2,2-0.4c0.6-0.2,0.8-0.6,0.8-2.4c0-3.2,0-6.9-0.1-8.7c-0.1-0.8-0.4-1.9-1.4-2.7c-0.7-0.6-1.6-1-3-1
				c-1.4,0-3,0.6-4,1.5c-0.3,0.2-0.5,0.7-0.5,1.6c0,3.3,0,8.2,0.1,10.4c0,0.9,0.2,1.3,1,1.5c0.6,0.1,1.2,0.2,2,0.3
				c0.2,0.3,0.1,1.6-0.2,1.9c-0.7,0-2.2-0.1-5-0.1c-2,0-4.5,0.1-5,0.1c-0.2-0.3-0.2-1.7,0-1.9C540.4,145.7,540.8,145.6,541.4,145.4z
				"/>
		</g>
		<g>
			<path fill="#F0FBFF" d="M578.7,133.3c-0.2,0.2-1.5,0.3-1.8,0.1c-0.4-2-0.7-3-1.6-3.6c-0.6-0.4-1.4-0.8-2.6-0.8
				c-1.7,0-3,1.1-3,2.7c0,1.7,1,2.6,4.9,4.2c4.2,1.8,5.3,3.5,5.3,6c0,3.7-3.5,6.2-8.2,6.2c-2,0-4.4-0.5-5.4-1
				c-0.4-1.1-0.9-4.3-1-5.6c0.2-0.2,1.6-0.7,1.8-0.6c0.7,2.3,1.6,3.5,2.8,4.4c0.7,0.4,1.8,0.7,2.7,0.7c2,0,3.1-1,3.1-2.5
				c0-1.6-0.9-2.6-4.3-4.1c-3.8-1.7-5.5-3.5-5.5-6.3c0-3.1,2.5-6,7.6-6c1.3,0,2.7,0.2,3.5,0.3c0.9,0.1,1.6,0.3,2.1,0.3
				C579,129.2,578.8,131.1,578.7,133.3z"/>
		</g>
		<g>
			<path fill="#F0FBFF" d="M615,137.2c0,4-1.6,7.1-4.6,9.1c-1.4,0.9-3.9,1.8-6,1.8c-7.3,0-10.1-5.5-10.1-10.6c0-3.9,1.7-6.6,4.3-8.4
				c1.8-1.1,4.2-2,6.7-2C611.4,127.2,615,131.6,615,137.2z M601.5,130.2c-1.3,0.8-2.5,2.4-2.5,6c0,5.8,3,9.5,6.7,9.5
				c1.1,0,2-0.3,2.9-1c1.1-0.9,1.8-2.8,1.8-5.9c0-5.7-2.8-9.2-6.7-9.2C602.9,129.5,602.1,129.7,601.5,130.2z"/>
		</g>
		<g>
			<path fill="#F0FBFF" d="M620.6,145.4c0.8-0.3,1-0.8,1-1.6c0.1-2.8,0.1-8.4,0.1-12.7c0-0.1-0.2-0.4-0.3-0.4l-3.1-0.2
				c0-0.6,0.3-1.5,0.6-1.8c0.8-0.1,2.1-0.5,2.6-0.8c0.1,0,0.2-0.3,0.2-0.4c0.1-4.3,1.2-7.9,5-10.6c1.6-1.1,3.4-1.8,4.9-1.8
				c1.4,0,2.9,0.3,3.5,1.4c0,0.1,0,0.6,0,0.7c-0.1,0.6-1.4,2.7-1.8,3.1c-0.1,0.1-0.5,0.1-0.6,0c-1.3-1.2-2.8-1.9-3.8-1.9
				c-0.7,0-1.3,0.2-1.9,0.9c-1.1,1.4-1.2,4-1.2,7.4v0.8c0,0.1,0.2,0.4,0.3,0.4c4,0,4.9-0.1,5.7-0.1c-0.1,0.7-0.4,2.2-0.5,3.1
				c-1.8,0-3.6,0-5.1,0c-0.1,0-0.3,0.2-0.3,0.4c0,4.6,0,9.6,0.2,12.4c0,1,0.3,1.5,1.4,1.8c0.7,0.2,1.4,0.3,3,0.5
				c0.2,0.2,0.1,1.7-0.2,1.9c-1.1,0-3.1-0.1-6.5-0.1c-2.9,0-4.3,0.1-5.3,0.1c-0.2-0.3-0.3-1.7,0-1.9
				C619.6,145.6,620.1,145.5,620.6,145.4z"/>
		</g>
		<g>
			<path fill="#F0FBFF" d="M650.3,130.7c0,0-0.2,0.2-0.2,0.2c0,1.8,0,5.2,0,7.8c0,2.3,0.1,3.3,0.3,4c0.4,1.5,1.8,2,3.1,2
				c1.4,0,2-0.1,3.3-0.8c0.1,0.2-0.1,1.8-0.3,2.1c-1.2,1.5-3.4,2.1-5.1,2.1c-2.2,0-3.8-1-4.7-2.5c-0.7-1.3-0.8-2.5-0.8-5.6
				c0-2.9,0-6.9,0-8.8c0-0.1-0.1-0.4-0.3-0.5l-2.8-0.2c0-0.4,0.2-1.7,0.5-2c0.8-0.1,2-0.4,2.4-0.6c0,0,0.2-0.2,0.2-0.4v-4.4
				c0.7-0.4,2.6-1.5,3.4-2.1c0.2-0.1,0.9-0.1,1.1-0.1c0,0.9-0.2,3.3-0.2,6.6c0,0.1,0.1,0.3,0.2,0.3c2.2,0,5.5-0.1,6.5-0.2
				c-0.2,0.8-0.5,2.3-0.5,3.2C655.4,130.7,652.4,130.7,650.3,130.7z"/>
		</g>
		<g>
			<path fill="#F0FBFF" d="M658,116.7c2.9-0.2,6.4-1,7.9-1.7c0.2,0,0.5,0.8,0.4,1c-0.5,0.9-0.5,1.4-0.6,4.8c0,3.1,0,8,0,9.2
				c0,0.1,0.1,0.1,0.2,0c2.5-1.9,5-2.9,6.6-2.9c4.1,0,6.4,3.2,6.4,8c0,2.8,0,6.6,0,8.7c0,0.9,0.5,1.3,0.9,1.4
				c0.6,0.2,1.4,0.4,2.3,0.5c0.2,0.2,0,1.8-0.3,1.9c-0.9,0-2.8-0.1-5.1-0.1c-1.8,0-4.3,0.1-4.9,0.1c-0.3-0.2-0.3-1.7,0-1.9
				c0.7,0,1.3-0.2,1.8-0.3c0.9-0.2,1.1-0.7,1.1-2.4c0-2.2,0.1-6.9-0.1-9.2c-0.2-1.2-1.3-3.5-4.5-3.5c-1.1,0-2.6,0.4-3.7,1.2
				c-0.4,0.2-0.6,0.8-0.6,1.2c0,3.4,0,8.9,0.1,10.3c0.1,1.6,0.1,1.9,1.3,2.3c0.5,0.1,1,0.2,2,0.3c0.3,0.2,0.2,1.7-0.1,1.9
				c-0.7,0-2.4-0.1-5.2-0.1c-2.9,0-4.4,0.1-5.2,0.1c-0.3-0.3-0.3-1.7,0-1.9c0.9-0.1,1.4-0.3,1.8-0.4c0.9-0.3,1.1-0.6,1.1-1.9
				c0-1.2,0.1-6.8,0.1-7.9c0-10.9,0-13.4-0.1-15.3c0-0.8-0.2-1.3-0.9-1.5c-0.6-0.1-1.7-0.3-2.7-0.4
				C657.7,118.3,657.8,116.8,658,116.7z"/>
		</g>
		<g>
			<path fill="#F0FBFF" d="M702.7,142.8c0.1,0.4-0.2,1.5-0.3,1.7c-2,2.3-5.8,3.5-7.9,3.5c-2.6,0-4.6-0.8-6.2-2.3c-2.1-2-3-5.1-3-8
				c0-4.5,1.9-7.4,4.4-9c1.7-1,3.7-1.7,5.5-1.7c4.9,0,6.7,4.1,7.1,7.2c0,0.1,0.3,0.4,0.8,0.6c0,0.3-0.3,1.4-0.5,1.6
				c-2.1,0.5-8.6,0.9-13,1.1c-0.2,0-0.2,0.3-0.2,0.5c0.1,1.4,0.8,3.4,2.1,4.5c1.5,1.3,2.9,1.8,5.2,1.8c2,0,3.9-0.7,5.7-2
				C702.5,142.5,702.7,142.7,702.7,142.8z M689.5,134.8c0,0.1,0.1,0.4,0.3,0.4c1.7,0,7.2-0.1,8.1-0.3c0.1-0.1,0.2-0.2,0.2-0.4
				c-0.3-2.4-1.9-4.9-4.5-4.9C691.4,129.5,689.7,131.7,689.5,134.8z"/>
		</g>
		<g>
			<path fill="#F0FBFF" d="M39.6,175.6c1.1,0,4.5,0.1,6.1,0.1c4,0,6.8,0,8.6,0c5.8,0,9.1,3.5,9.1,7.7c0,4-2.4,6.5-5.5,7.9
				c-0.1,0-0.1,0.3-0.1,0.4c1.7,2.7,5.3,7.3,7.7,9.9c1.8,1.9,2.4,2.1,5.9,2.7c0.2,0.1,0,1.8-0.4,1.9c-2.3,0-6.4,0-8.4-1
				c-0.7-0.4-1.5-1-2.5-2.1c-1.8-2.3-4.5-6.4-6.4-9.1c-0.3-0.4-0.8-0.6-1.2-0.6c-0.6-0.1-2.9-0.1-3.6-0.1c0,0-0.2,0.2-0.2,0.3
				c0,2.7,0,6.9,0.1,8.2c0.1,1.3,0.5,1.8,1.7,2.1c0.8,0.2,1.7,0.3,3,0.4c0.2,0.2,0.1,1.7-0.1,1.9c-1.1,0-3.2-0.1-7.1-0.1
				c-3.2,0-5.5,0.1-6.7,0.1c-0.3-0.3-0.3-1.7,0-1.9c1.1-0.1,1.9-0.2,2.6-0.4c1.2-0.2,1.6-0.7,1.7-2.6c0.1-1,0.1-7.1,0.1-9.9
				c0-6.5,0-9.8,0-10.9c-0.1-1.5-0.3-1.9-1.7-2.3c-0.8-0.2-1.8-0.3-2.9-0.5C39.2,177.3,39.3,175.8,39.6,175.6z M49.1,178.1
				c-0.1,0.1-0.4,0.5-0.4,0.8c-0.1,1.8-0.1,8.3-0.1,11.6c0,0.1,0.1,0.2,0.2,0.2c4.6,0,6-0.2,6.6-0.6c1.6-0.8,2.9-2.7,2.9-5.2
				c0-4.6-2.2-7.2-7.4-7.2C50.7,177.8,49.7,177.9,49.1,178.1z"/>
		</g>
		<g>
			<path fill="#F0FBFF" d="M92.9,195.5c0,4-1.6,7.1-4.6,9.1c-1.4,0.9-3.9,1.8-6,1.8c-7.3,0-10.1-5.5-10.1-10.6
				c0-3.9,1.7-6.6,4.3-8.4c1.8-1.1,4.2-2,6.7-2C89.2,185.5,92.9,189.9,92.9,195.5z M79.3,188.5c-1.3,0.8-2.5,2.4-2.5,6
				c0,5.8,3,9.5,6.7,9.5c1.1,0,2-0.3,2.9-1c1.1-0.9,1.8-2.8,1.8-5.9c0-5.7-2.8-9.2-6.7-9.2C80.8,187.8,80,188,79.3,188.5z"/>
		</g>
		<g>
			<path fill="#F0FBFF" d="M95.9,204.1c1-0.1,1.6-0.2,2.1-0.5c0.6-0.2,0.8-0.8,0.8-1.3c0.2-1.2,0.2-4.5,0.2-12.6
				c0-3.5,0-9.1-0.1-10.7c0-0.4-0.1-1.5-0.8-1.7c-0.5-0.1-1.6-0.3-3-0.5c-0.2-0.1-0.2-1.4,0.1-1.6c2.7-0.3,6.2-1.1,7.9-1.8
				c0.1,0,0.4,0.5,0.4,0.6c-0.3,0.9-0.4,1.5-0.4,3.2c0,2.4,0,8.2-0.1,12.4c0,7.4,0,10.6,0.1,11.9c0,1.2,0.1,1.8,1.2,2.1
				c0.7,0.2,0.8,0.3,2.1,0.4c0.1,0.3,0.1,1.6-0.2,1.9c-1.1,0-2.4-0.1-5.4-0.1c-1.9,0-4.4,0.1-5,0.1
				C95.7,205.7,95.6,204.5,95.9,204.1z"/>
		</g>
		<g>
			<path fill="#F0FBFF" d="M127,201.2c0.1,0.4-0.2,1.5-0.3,1.7c-2,2.3-5.8,3.5-7.9,3.5c-2.6,0-4.6-0.8-6.2-2.3c-2.1-2-3-5.1-3-8
				c0-4.5,1.9-7.4,4.4-9c1.7-1,3.7-1.7,5.5-1.7c4.9,0,6.8,4.1,7.1,7.2c0,0.1,0.3,0.4,0.8,0.6c0,0.3-0.3,1.4-0.5,1.6
				c-2.1,0.5-8.6,0.9-13,1.1c-0.2,0-0.2,0.3-0.2,0.5c0.1,1.4,0.8,3.4,2.1,4.5c1.5,1.3,2.9,1.8,5.2,1.8c2,0,3.9-0.7,5.7-2
				C126.8,200.8,127,201,127,201.2z M113.7,193.1c0,0.1,0.1,0.4,0.3,0.4c1.7,0,7.2-0.1,8.1-0.3c0.1-0.1,0.2-0.2,0.2-0.4
				c-0.3-2.4-1.9-4.9-4.5-4.9C115.6,187.8,114,190,113.7,193.1z"/>
		</g>
		<g>
			<path fill="#F0FBFF" d="M129.6,187.1c1.7-0.2,5.1-1.1,7.1-2.1c0.1-0.1,0.4,0.3,0.4,0.4c-0.1,0.7-0.1,2.1-0.1,2.9
				c0,0.1,0.2,0.2,0.3,0.1c3.5-2.4,5.4-2.9,6.9-2.9c2,0,3.8,1,5,2.3c1.7,2,2.4,4.5,2.4,6.7c0,4.5-1.8,7-4.3,9.1
				c-2.5,2-5.9,2.9-8.3,2.9c-0.5,0-1.3,0-1.9-0.2c-0.1,0-0.3,0.1-0.3,0.2c0,1.8,0,4.5,0.1,6.1c0,0.8,0.3,1.5,1.4,1.7
				c0.6,0.1,2.4,0.3,3.4,0.4c0.2,0.4,0,1.7-0.2,1.9H140c-5.4,0-8.7,0.3-11,0.5c-0.2-0.3-0.3-1.6,0-1.9l2.3-0.5
				c1-0.4,1.2-0.8,1.4-2.6c0.1-1.1,0.1-3.2,0.1-12c0.1-5.4,0-7.2,0-9c0-1.1-0.3-1.5-0.9-1.7c-0.6-0.3-1.4-0.5-2.3-0.7
				C129.3,188.5,129.4,187.4,129.6,187.1z M137.5,190.4c-0.2,0.2-0.4,0.7-0.4,1c-0.1,1.4,0,7,0,9c0,0.7,0.4,1.5,0.8,1.8
				c1.1,0.9,2.4,1.4,4,1.4c0.7,0,1.9-0.1,3.3-1.3c1.4-1.2,2.2-3.5,2.2-6c0-1.9-0.5-4.1-1.6-5.6c-1.2-1.4-2.5-1.9-4.1-1.9
				C140.4,188.9,138.6,189.4,137.5,190.4z"/>
		</g>
		<g>
			<path fill="#F0FBFF" d="M154.7,204.1c1-0.1,1.6-0.2,2.1-0.5c0.6-0.2,0.8-0.8,0.8-1.3c0.2-1.2,0.2-4.5,0.2-12.6
				c0-3.5,0-9.1-0.1-10.7c0-0.4-0.1-1.5-0.8-1.7c-0.5-0.1-1.6-0.3-3-0.5c-0.2-0.1-0.2-1.4,0.1-1.6c2.7-0.3,6.2-1.1,7.9-1.8
				c0.1,0,0.4,0.5,0.4,0.6c-0.3,0.9-0.4,1.5-0.4,3.2c0,2.4,0,8.2-0.1,12.4c0,7.4,0,10.6,0.1,11.9c0,1.2,0.1,1.8,1.2,2.1
				c0.7,0.2,0.8,0.3,2.1,0.4c0.1,0.3,0.1,1.6-0.2,1.9c-1.1,0-2.4-0.1-5.4-0.1c-1.9,0-4.4,0.1-5,0.1
				C154.5,205.7,154.4,204.5,154.7,204.1z"/>
		</g>
		<g>
			<path fill="#F0FBFF" d="M178.3,190.3c-0.8-1.2-2.3-1.8-3.6-1.8s-2,0.3-2.2,0.5c-0.6,0.5-1.4,2.1-2,3.5c-0.2,0.2-1.9-0.6-1.8-1
				c0.2-0.8,1-3.1,1.4-3.4c2.1-1.4,5.3-2.6,6.6-2.6c2.3,0,4,1.1,5.1,2.7c0.9,1.5,1.2,3,1.2,4.9c0,2.5-0.2,6.3-0.2,8.3
				c0,1.1,0.4,1.8,1.9,1.8c0.7,0,1.1-0.1,1.7-0.2c0,0.2,0,1.7-0.2,1.9c-1.2,1.2-3,1.7-4.2,1.7c-1.5,0-2.4-0.7-2.7-1.4
				c-0.2-0.3-0.3-0.7-0.4-1.1c0,0-0.2-0.1-0.2,0c-2.8,1.7-4.6,2.5-6.1,2.5c-0.9,0-1.9-0.6-2.8-1.4c-1.1-1.1-1.7-2.7-1.7-4.4
				c0-1.4,0.9-2.9,1.1-3.1c1.8-0.9,7.3-2.1,9.3-3.1c0.1,0,0.3-0.3,0.3-0.5c0.1-0.3,0.1-0.7,0.1-0.8
				C178.9,192.3,178.9,191.2,178.3,190.3z M178.6,196.4c-1.4,0.5-4.5,1.5-5.6,2.1c-0.2,0.1-0.6,1-0.6,1.6c0,1.8,1.3,3.2,3.4,3.2
				c0.6,0,1.7-0.3,2.3-0.8c0.4-0.3,0.5-0.6,0.6-1.2c0.1-0.6,0.1-3.7,0.1-4.6C178.9,196.6,178.7,196.3,178.6,196.4z"/>
		</g>
		<g>
			<path fill="#F0FBFF" d="M185.9,186c0.9,0,3.4,0.1,5.1,0.1c2.2,0,4.7-0.1,5.6-0.1c0.3,0.2,0.3,1.6,0.1,1.9
				c-0.7,0.1-1.6,0.2-1.9,0.4c-0.5,0.2-0.4,0.8-0.4,1c1.1,3.5,3.7,10.1,4.1,10.7c0,0.1,0.2,0.1,0.2,0c1.4-2.8,3.5-8.1,3.8-10.3
				c0.1-0.6,0-1.1-0.8-1.3c-0.5-0.2-1.4-0.3-2.3-0.4c-0.1-0.4,0-1.7,0.2-1.9c0.6,0,2.6,0.1,4.5,0.1c1.8,0,3.6-0.1,5.2-0.1
				c0.2,0.3,0.2,1.5,0,1.9c-0.9,0.1-1.4,0.2-2,0.4c-0.9,0.3-1.5,1.2-2,2.4c-3.4,8.5-7.7,17.5-11.2,23.5c-0.6,1-1,1.9-1.4,2.7
				l-0.4,0.2c-0.7-0.1-2.5-0.9-3.1-1.4c0-0.2,0-0.9,0-1.1c1.5-1.8,5.2-6.4,6.7-9.8l-0.4-0.9c-1.1-2.8-3.1-7.8-4.5-11.2
				c-1.4-3.3-2-4.2-3.6-4.6l-1.6-0.2C185.6,187.5,185.7,186.2,185.9,186z"/>
		</g>
		<g>
			<path fill="#F0FBFF" d="M221.5,206c-0.9,0-2.1-0.1-5.4-0.1c-2.2,0-4.2,0.1-5,0.1c-0.3-0.2-0.3-1.7,0-1.9c1-0.1,1.6-0.3,2.2-0.5
				c0.7-0.2,0.8-0.6,0.9-1.5c0.1-1.2,0.1-3.9,0.1-6.5v-4.9c0-0.2-0.1-0.8-0.4-1.1c-0.5-0.6-1.5-0.9-2.6-1.4c-0.2-0.3,0-1.3,0.3-1.5
				c1.6-0.1,5-0.7,7-1.5v8.8c0,2.7,0,5.8,0,7.9c0,0.8,0.2,1.4,1,1.6c0.7,0.2,1,0.2,2.2,0.4C221.9,204.4,221.8,205.8,221.5,206z
				 M217.7,181.2c-0.2,0.2-2.2,0.3-2.5,0.1c-0.8-0.5-1.2-1.1-1.5-2.2c0-0.2,0-1.5,0.3-1.7c0.5-0.4,1.7-1,2.7-1
				c0.9,0,1.4,0.2,1.6,0.4c0.2,0.3,0.5,1.1,0.5,1.6C218.7,179.4,218.4,180.6,217.7,181.2z"/>
		</g>
		<g>
			<path fill="#F0FBFF" d="M225.7,203.7c0.7-0.1,1-0.7,1.1-1.5c0.1-1.4,0.1-4.8,0.1-7.9v-3.5c-0.2-0.7-1.1-1.4-2.8-2.1
				c-0.1-0.4,0.1-1.3,0.3-1.5c2-0.2,5.2-1.2,6.3-1.8c0.1,0,0.3,0.2,0.3,0.4c0,0.2,0,1.9,0,2.7c0,0.1,0.2,0.1,0.3,0
				c2.1-1.8,4.6-3.1,6.5-3.1c2.1,0,3.8,1,5,2.6c1,1.5,1.4,3.5,1.4,5.8c0,2.9,0,7.2,0.1,8.7c0,0.1,0.2,0.6,0.3,0.7
				c0.9,0.4,1.7,0.6,2.8,0.7c0.2,0.3,0.1,1.6-0.2,1.9c-0.7,0-2.4-0.1-5.1-0.1c-2.1,0-3.6,0.1-4.9,0.1c-0.2-0.3-0.3-1.7,0-1.9
				c0.9-0.1,1.7-0.2,2-0.4c0.6-0.2,0.8-0.6,0.8-2.4c0-3.2,0-6.9-0.1-8.7c-0.1-0.8-0.4-1.9-1.4-2.7c-0.7-0.6-1.6-1-3-1
				c-1.4,0-3,0.6-4,1.5c-0.3,0.2-0.5,0.7-0.5,1.6c0,3.3,0,8.2,0.1,10.4c0,0.9,0.2,1.3,1,1.5c0.6,0.1,1.2,0.2,2,0.3
				c0.2,0.3,0.1,1.6-0.2,1.9c-0.7,0-2.2-0.1-5-0.1c-2,0-4.5,0.1-5,0.1c-0.2-0.3-0.2-1.7,0-1.9C224.7,204,225.2,203.9,225.7,203.7z"
				/>
		</g>
		<g>
			<path fill="#F0FBFF" d="M263.9,186.5c0.8,0.3,1.6,0.4,2.7,0.4c1.7,0,2.3-0.5,3-1.2c0.2,0,0.8,0.3,0.8,0.4c0,0.7-0.7,2.4-1.2,3
				c-0.4,0.4-0.8,0.8-1.9,0.8h-1.1c0,0-0.1,0.1-0.1,0.1c0.1,0.4,0.2,1.3,0.2,1.6c0,3.5-1.3,5.2-3,6.4c-1.8,1.4-3.7,1.8-5.1,2
				c-0.1,0-1.1,0.1-1.2,0.1c-0.3,0.1-1.1,0.5-1.1,1.1c0,0.9,0.8,1.3,2.1,1.4c2.6,0.2,6.5,0.4,8.2,1c1.8,0.7,3.3,2.4,3.3,4.8
				c0,3.1-2.1,6.3-6.1,8.2c-2,1-3.9,1.3-5.8,1.3c-2.5,0-4.5-0.5-6.2-1.8c-1.6-1.2-2.3-3.1-2.3-4.4c0-0.4,0.2-1.7,0.4-2
				c0.5-0.7,2.3-2,4.5-3.5c0,0,0-0.1,0-0.1c-1.9-0.7-2.7-1.9-2.9-2.9c0-0.3,0.2-0.9,0.3-1.1c0.7-0.5,2.4-1.4,3.2-2c0,0,0-0.2,0-0.2
				c-2.6-0.9-4.6-2.9-4.6-6.8c0-2,0.9-4.2,2.8-5.6c1.2-1,4.4-2.2,6.4-2.1C261.2,185.5,262.4,185.9,263.9,186.5z M265.8,210.8
				c0-1.5-0.7-2.6-2.4-3.2c-1.3-0.5-3.5-0.7-6-0.7c-0.8,0-1.4,0.2-1.7,0.4c-1.8,1.2-2.5,2.3-2.5,3.5c0,1.2,0.4,2.1,1.5,3
				c1.4,1.2,3.1,1.6,5.1,1.6C264,215.3,265.8,213,265.8,210.8z M254.2,192.1c0,2.9,1.3,5.9,4.6,5.9c0.6,0,1.7-0.3,2.1-0.8
				c0.7-0.7,1.3-2.1,1.3-3.9c0-2.9-1.2-5.6-4.5-5.6C255.7,187.6,254.2,189.2,254.2,192.1z"/>
		</g>
		<g>
			<path fill="#F0FBFF" d="M292.7,206c-0.9,0-2.1-0.1-5.4-0.1c-2.2,0-4.2,0.1-5,0.1c-0.3-0.2-0.3-1.7,0-1.9c1-0.1,1.6-0.3,2.2-0.5
				c0.7-0.2,0.8-0.6,0.9-1.5c0.1-1.2,0.1-3.9,0.1-6.5v-4.9c0-0.2-0.1-0.8-0.4-1.1c-0.5-0.6-1.5-0.9-2.6-1.4c-0.2-0.3,0-1.3,0.3-1.5
				c1.6-0.1,5-0.7,7-1.5v8.8c0,2.7,0,5.8,0,7.9c0,0.8,0.2,1.4,1,1.6c0.7,0.2,1,0.2,2.2,0.4C293.2,204.4,293,205.8,292.7,206z
				 M288.9,181.2c-0.2,0.2-2.2,0.3-2.5,0.1c-0.8-0.5-1.2-1.1-1.5-2.2c0-0.2,0-1.5,0.3-1.7c0.5-0.4,1.7-1,2.7-1
				c0.9,0,1.4,0.2,1.6,0.4c0.2,0.3,0.5,1.1,0.5,1.6C290,179.4,289.6,180.6,288.9,181.2z"/>
		</g>
		<g>
			<path fill="#F0FBFF" d="M309.2,191.6c-0.2,0.2-1.5,0.3-1.7,0.1c-0.4-2-0.7-3-1.6-3.6c-0.6-0.4-1.4-0.8-2.6-0.8
				c-1.7,0-3,1.1-3,2.7c0,1.7,1,2.6,4.9,4.2c4.2,1.7,5.3,3.5,5.3,6c0,3.7-3.5,6.2-8.2,6.2c-2,0-4.4-0.5-5.4-1
				c-0.4-1.1-0.9-4.3-1-5.6c0.2-0.2,1.6-0.7,1.8-0.6c0.7,2.3,1.6,3.5,2.8,4.4c0.7,0.4,1.8,0.7,2.7,0.7c2,0,3.1-1,3.1-2.5
				c0-1.7-0.9-2.6-4.3-4.1c-3.8-1.7-5.5-3.5-5.5-6.3c0-3.1,2.5-6,7.6-6c1.3,0,2.7,0.2,3.5,0.3c0.9,0.1,1.6,0.3,2.1,0.3
				C309.6,187.6,309.4,189.4,309.2,191.6z"/>
		</g>
		<g>
			<path fill="#F0FBFF" d="M325,175.6c2.1,0,4.6,0.1,9.7,0.1c0.1,1.1,0.4,1.7,0.9,2.9c2.3,5.1,8.2,17.3,9,18.8c0,0.1,0.1,0.1,0.2,0
				c0.8-1.5,7-14.4,9.1-19.2c0.4-1.1,0.6-1.7,0.8-2.5c5.1,0,7.2-0.1,9.5-0.1c0.2,0.1,0.2,1.7,0,1.9c-1.6,0.2-2.7,0.4-3.5,0.6
				c-0.7,0.2-1.3,0.6-1.3,1.9c-0.1,3.1,0.3,17.7,0.6,20.8c0.2,1.7,0.5,2.4,2,2.8c0.7,0.1,1.6,0.2,2.9,0.4c0.2,0.4,0.2,1.6,0,1.9
				c-1.4,0-3.6-0.1-6.9-0.1c-2.7,0-5.7,0.1-7,0.1c-0.2-0.3-0.2-1.6,0-1.9c1.1-0.2,2.2-0.4,2.9-0.6c1.1-0.3,1.3-1.2,1.3-1.9
				c0-3.3,0-14.6-0.1-19.3c0-0.1-0.1-0.1-0.3,0c-1.3,3-8.8,18.6-10.6,23.5c-0.2,0.1-1.7,0.2-1.9,0.1c-1.2-3.9-7.5-17.9-9.8-23.3
				c-0.1-0.1-0.2,0-0.3,0.1c-0.3,4.5-0.8,13.1-1,18c0,1.5,0.1,2.3,1.7,2.8c0.8,0.3,1.9,0.4,3.4,0.6c0.2,0.2,0.1,1.7-0.2,1.9
				c-0.8,0-3.8-0.1-6.5-0.1c-2.8,0-5.3,0.1-6.2,0.1c-0.2-0.3-0.2-1.7,0-1.9c1.2-0.1,2-0.3,2.8-0.5c1.5-0.5,1.7-1.1,2-3.1
				c0.6-4.2,1.4-15.4,1.8-20.2c0-0.9-0.3-1.7-1.3-2c-0.8-0.2-1.8-0.4-3.6-0.7C324.7,177.3,324.8,175.8,325,175.6z"/>
		</g>
		<g>
			<path fill="#F0FBFF" d="M377.7,190.3c-0.8-1.2-2.3-1.8-3.6-1.8c-1.3,0-2,0.3-2.2,0.5c-0.6,0.5-1.4,2.1-2,3.5
				c-0.2,0.2-1.9-0.6-1.8-1c0.2-0.8,1-3.1,1.4-3.4c2.1-1.4,5.3-2.6,6.6-2.6c2.3,0,4,1.1,5.1,2.7c0.9,1.5,1.2,3,1.2,4.9
				c0,2.5-0.2,6.3-0.2,8.3c0,1.1,0.4,1.8,1.9,1.8c0.7,0,1.1-0.1,1.7-0.2c0,0.2,0,1.7-0.2,1.9c-1.2,1.2-3,1.7-4.2,1.7
				c-1.5,0-2.4-0.7-2.7-1.4c-0.2-0.3-0.3-0.7-0.4-1.1c0,0-0.2-0.1-0.2,0c-2.8,1.7-4.6,2.5-6.1,2.5c-0.9,0-1.9-0.6-2.8-1.4
				c-1.1-1.1-1.7-2.7-1.7-4.4c0-1.4,0.9-2.9,1.1-3.1c1.8-0.9,7.3-2.1,9.3-3.1c0.1,0,0.3-0.3,0.3-0.5c0.1-0.3,0.1-0.7,0.1-0.8
				C378.4,192.3,378.3,191.2,377.7,190.3z M378,196.4c-1.4,0.5-4.5,1.5-5.6,2.1c-0.2,0.1-0.6,1-0.6,1.6c0,1.8,1.3,3.2,3.4,3.2
				c0.6,0,1.7-0.3,2.3-0.8c0.4-0.3,0.5-0.6,0.6-1.2c0.1-0.6,0.1-3.7,0.1-4.6C378.3,196.6,378.1,196.3,378,196.4z"/>
		</g>
		<g>
			<path fill="#F0FBFF" d="M402,186.5c0.8,0.3,1.6,0.4,2.7,0.4c1.7,0,2.3-0.5,3-1.2c0.2,0,0.8,0.3,0.8,0.4c0,0.7-0.7,2.4-1.2,3
				c-0.4,0.4-0.8,0.8-1.9,0.8h-1.1c0,0-0.1,0.1-0.1,0.1c0.1,0.4,0.2,1.3,0.2,1.6c0,3.5-1.3,5.2-3,6.4c-1.8,1.4-3.7,1.8-5.1,2
				c-0.1,0-1.1,0.1-1.2,0.1c-0.3,0.1-1.1,0.5-1.1,1.1c0,0.9,0.8,1.3,2.1,1.4c2.6,0.2,6.5,0.4,8.2,1c1.8,0.7,3.3,2.4,3.3,4.8
				c0,3.1-2.1,6.3-6.1,8.2c-2,1-3.9,1.3-5.8,1.3c-2.5,0-4.5-0.5-6.2-1.8c-1.6-1.2-2.3-3.1-2.3-4.4c0-0.4,0.2-1.7,0.4-2
				c0.5-0.7,2.3-2,4.5-3.5c0,0,0-0.1,0-0.1c-1.9-0.7-2.7-1.9-2.9-2.9c0-0.3,0.2-0.9,0.3-1.1c0.7-0.5,2.4-1.4,3.2-2c0,0,0-0.2,0-0.2
				c-2.6-0.9-4.6-2.9-4.6-6.8c0-2,0.9-4.2,2.8-5.6c1.2-1,4.4-2.2,6.4-2.1C399.2,185.5,400.4,185.9,402,186.5z M403.9,210.8
				c0-1.5-0.7-2.6-2.4-3.2c-1.3-0.5-3.5-0.7-6-0.7c-0.8,0-1.4,0.2-1.7,0.4c-1.8,1.2-2.5,2.3-2.5,3.5c0,1.2,0.4,2.1,1.5,3
				c1.4,1.2,3.1,1.6,5.1,1.6C402,215.3,403.9,213,403.9,210.8z M392.2,192.1c0,2.9,1.3,5.9,4.6,5.9c0.6,0,1.7-0.3,2.1-0.8
				c0.7-0.7,1.3-2.1,1.3-3.9c0-2.9-1.2-5.6-4.5-5.6C393.7,187.6,392.2,189.2,392.2,192.1z"/>
		</g>
		<g>
			<path fill="#F0FBFF" d="M420.6,206c-0.9,0-2.1-0.1-5.4-0.1c-2.2,0-4.2,0.1-5,0.1c-0.3-0.2-0.3-1.7,0-1.9c1-0.1,1.6-0.3,2.2-0.5
				c0.7-0.2,0.8-0.6,0.9-1.5c0.1-1.2,0.1-3.9,0.1-6.5v-4.9c0-0.2-0.1-0.8-0.4-1.1c-0.5-0.6-1.5-0.9-2.6-1.4c-0.2-0.3,0-1.3,0.3-1.5
				c1.6-0.1,5-0.7,7-1.5v8.8c0,2.7,0,5.8,0,7.9c0,0.8,0.2,1.4,1,1.6c0.7,0.2,1,0.2,2.2,0.4C421,204.4,420.9,205.8,420.6,206z
				 M416.7,181.2c-0.2,0.2-2.2,0.3-2.5,0.1c-0.8-0.5-1.2-1.1-1.5-2.2c0-0.2,0-1.5,0.3-1.7c0.5-0.4,1.7-1,2.7-1
				c0.9,0,1.4,0.2,1.6,0.4c0.2,0.3,0.5,1.1,0.5,1.6C417.8,179.4,417.5,180.6,416.7,181.2z"/>
		</g>
		<g>
			<path fill="#F0FBFF" d="M433.2,206.4c-3.2,0-5.7-1.2-7.3-3.5c-1.3-1.7-1.9-4.1-1.9-6.7c0-3.7,1.7-6.8,5.1-8.8c2.3-1.5,5-2,6.3-2
				c2.1,0,3.4,0.4,4.3,0.9c0.9,0.4,1.3,0.8,1.5,1.3c0,0.2,0,0.7-0.1,0.9c-0.3,0.9-1.4,2.1-1.8,2.3c-0.1,0-0.4,0.1-0.5,0
				c-1.2-1.1-3.1-2.8-5.6-2.8c-3.7,0-5.1,3.2-5.1,6.4c0,2.1,0.6,4.3,1.9,5.8c1.3,1.6,3.1,2.4,5.4,2.4c1.7,0,3.6-0.5,5.7-2.4
				c0.1,0,0.3,0.2,0.3,0.5c0,0.5-0.2,1.7-0.3,1.8C438.9,205.5,435.4,206.4,433.2,206.4z"/>
		</g>
		<g>
			<path fill="#F0FBFF" d="M461.5,189c-0.1,0-0.2,0.2-0.2,0.2c0,1.8,0,5.2,0,7.8c0,2.3,0.1,3.3,0.3,4c0.4,1.5,1.8,2,3.1,2
				c1.4,0,2-0.1,3.3-0.8c0.1,0.2-0.1,1.8-0.3,2.1c-1.2,1.5-3.4,2.1-5.1,2.1c-2.2,0-3.8-1-4.7-2.5c-0.7-1.3-0.8-2.5-0.8-5.6
				c0-2.9,0-6.9,0-8.8c0-0.1-0.1-0.4-0.3-0.5l-2.8-0.2c0-0.4,0.2-1.7,0.5-2c0.8-0.1,2-0.4,2.4-0.6c0,0,0.2-0.2,0.2-0.4v-4.4
				c0.7-0.4,2.6-1.5,3.3-2.1c0.2-0.1,0.9-0.1,1.1-0.1c0,0.9-0.2,3.3-0.2,6.6c0,0.1,0.1,0.3,0.2,0.3c2.2,0,5.5-0.1,6.5-0.2
				c-0.2,0.8-0.5,2.3-0.5,3.2C466.5,189.1,463.5,189,461.5,189z"/>
		</g>
		<g>
			<path fill="#F0FBFF" d="M480.9,190.3c-0.8-1.2-2.3-1.8-3.6-1.8c-1.3,0-2,0.3-2.2,0.5c-0.6,0.5-1.4,2.1-2,3.5
				c-0.2,0.2-1.9-0.6-1.8-1c0.2-0.8,1-3.1,1.4-3.4c2.1-1.4,5.3-2.6,6.6-2.6c2.3,0,4,1.1,5.1,2.7c0.9,1.5,1.2,3,1.2,4.9
				c0,2.5-0.2,6.3-0.2,8.3c0,1.1,0.4,1.8,1.9,1.8c0.7,0,1.1-0.1,1.7-0.2c0,0.2,0,1.7-0.2,1.9c-1.2,1.2-3,1.7-4.2,1.7
				c-1.5,0-2.4-0.7-2.7-1.4c-0.2-0.3-0.3-0.7-0.4-1.1c0,0-0.2-0.1-0.2,0c-2.8,1.7-4.6,2.5-6.1,2.5c-0.9,0-1.9-0.6-2.8-1.4
				c-1.1-1.1-1.7-2.7-1.7-4.4c0-1.4,0.9-2.9,1.1-3.1c1.8-0.9,7.3-2.1,9.3-3.1c0.1,0,0.3-0.3,0.3-0.5c0.1-0.3,0.1-0.7,0.1-0.8
				C481.6,192.3,481.5,191.2,480.9,190.3z M481.2,196.4c-1.4,0.5-4.5,1.5-5.6,2.1c-0.2,0.1-0.6,1-0.6,1.6c0,1.8,1.3,3.2,3.4,3.2
				c0.6,0,1.7-0.3,2.3-0.8c0.4-0.3,0.5-0.6,0.6-1.2c0.1-0.6,0.1-3.7,0.1-4.6C481.5,196.6,481.3,196.3,481.2,196.4z"/>
		</g>
		<g>
			<path fill="#F0FBFF" d="M509.9,188c1.7,1.8,2.3,4.5,2.3,6.4c0,4.3-1.7,7.2-4.3,9.2c-2.3,1.7-5.6,2.8-7.6,2.8
				c-1.9,0-3.2-0.3-4.6-0.6c-0.4-0.1-1.1-0.2-2.4,0c-0.1,0-0.4-0.2-0.5-0.3c0.2-3.4,0.2-5.6,0.2-12c0-6.4,0-13.1-0.2-15.2
				c-0.1-0.6-0.3-1.1-1.4-1.3c-0.5-0.1-1.4-0.3-2.4-0.4c-0.2-0.3-0.2-1.5,0.1-1.7c2.5-0.1,6.7-0.9,8.4-1.5c0.2,0,0.4,0.7,0.3,0.9
				c-0.4,0.6-0.7,1-0.7,10.1v3.4c0,0.1,0.2,0.2,0.3,0.1c2.1-1.2,4.9-2.4,6.7-2.4C506.7,185.5,508.7,186.5,509.9,188z M498,189.6
				c-0.1,0.1-0.5,0.4-0.5,0.9c-0.1,1.1-0.1,8.6,0,10.2c0,0.9,0.3,1.4,0.8,1.9c1.3,1.1,3,1.3,4.1,1.3c1.4,0,2.7-0.5,3.7-1.7
				c1-1.3,1.6-3.5,1.6-5.5c0-2.8-0.7-4.5-1.5-5.7c-1.4-1.7-3-2.2-4.7-2.2C500.5,188.6,498.8,189.1,498,189.6z"/>
		</g>
		<g>
			<path fill="#F0FBFF" d="M515.2,204.1c1-0.1,1.6-0.2,2.1-0.5c0.6-0.2,0.8-0.8,0.8-1.3c0.2-1.2,0.2-4.5,0.2-12.6
				c0-3.5,0-9.1-0.1-10.7c0-0.4-0.1-1.5-0.8-1.7c-0.5-0.1-1.6-0.3-3-0.5c-0.2-0.1-0.2-1.4,0.1-1.6c2.7-0.3,6.2-1.1,7.9-1.8
				c0.1,0,0.4,0.5,0.4,0.6c-0.3,0.9-0.4,1.5-0.4,3.2c0,2.4,0,8.2-0.1,12.4c0,7.4,0,10.6,0.1,11.9c0.1,1.2,0.1,1.8,1.2,2.1
				c0.7,0.2,0.8,0.3,2.1,0.4c0.1,0.3,0.1,1.6-0.2,1.9c-1.1,0-2.4-0.1-5.4-0.1c-1.9,0-4.4,0.1-5,0.1
				C515,205.7,514.9,204.5,515.2,204.1z"/>
		</g>
		<g>
			<path fill="#F0FBFF" d="M546.3,201.2c0.1,0.4-0.2,1.5-0.3,1.7c-2,2.3-5.8,3.5-7.9,3.5c-2.6,0-4.6-0.8-6.2-2.3c-2.1-2-3-5.1-3-8
				c0-4.5,1.9-7.4,4.4-9c1.7-1,3.7-1.7,5.5-1.7c4.9,0,6.8,4.1,7.1,7.2c0,0.1,0.3,0.4,0.8,0.6c0,0.3-0.3,1.4-0.5,1.6
				c-2.1,0.5-8.6,0.9-13,1.1c-0.2,0-0.2,0.3-0.2,0.5c0.1,1.4,0.8,3.4,2.1,4.5c1.5,1.3,2.9,1.8,5.2,1.8c2,0,3.9-0.7,5.7-2
				C546.1,200.8,546.3,201,546.3,201.2z M533.1,193.1c0,0.1,0.1,0.4,0.3,0.4c1.7,0,7.2-0.1,8.1-0.3c0.1-0.1,0.2-0.2,0.2-0.4
				c-0.3-2.4-1.9-4.9-4.5-4.9C535,187.8,533.3,190,533.1,193.1z"/>
		</g>
		<g>
			<path fill="#F0FBFF" d="M556.5,189c0,0-0.2,0.2-0.2,0.2c0,1.8,0,5.2,0,7.8c0,2.3,0.1,3.3,0.3,4c0.4,1.5,1.8,2,3.1,2
				c1.4,0,2-0.1,3.3-0.8c0.1,0.2-0.1,1.8-0.3,2.1c-1.2,1.5-3.4,2.1-5.1,2.1c-2.2,0-3.8-1-4.7-2.5c-0.7-1.3-0.8-2.5-0.8-5.6
				c0-2.9,0-6.9,0-8.8c0-0.1-0.1-0.4-0.3-0.5l-2.8-0.2c0-0.4,0.2-1.7,0.5-2c0.8-0.1,2-0.4,2.4-0.6c0,0,0.2-0.2,0.2-0.4v-4.4
				c0.7-0.4,2.6-1.5,3.4-2.1c0.2-0.1,0.9-0.1,1.1-0.1c0,0.9-0.2,3.3-0.2,6.6c0,0.1,0.1,0.3,0.2,0.3c2.2,0,5.5-0.1,6.5-0.2
				c-0.2,0.8-0.5,2.3-0.5,3.2C561.6,189.1,558.6,189,556.5,189z"/>
		</g>
		<g>
			<path fill="#F0FBFF" d="M586.2,195.5c0,4-1.6,7.1-4.6,9.1c-1.4,0.9-3.9,1.8-6,1.8c-7.3,0-10.1-5.5-10.1-10.6
				c0-3.9,1.7-6.6,4.3-8.4c1.8-1.1,4.2-2,6.7-2C582.5,185.5,586.2,189.9,586.2,195.5z M572.6,188.5c-1.3,0.8-2.5,2.4-2.5,6
				c0,5.8,3,9.5,6.7,9.5c1.1,0,2-0.3,2.9-1c1.1-0.9,1.8-2.8,1.8-5.9c0-5.7-2.8-9.2-6.7-9.2C574.1,187.8,573.3,188,572.6,188.5z"/>
		</g>
		<g>
			<path fill="#F0FBFF" d="M589.4,187.1c1.7-0.2,5.1-1.1,7.1-2.1c0.1-0.1,0.4,0.3,0.4,0.4c-0.1,0.7-0.1,2.1-0.1,2.9
				c0,0.1,0.2,0.2,0.3,0.1c3.5-2.4,5.4-2.9,6.9-2.9c2,0,3.8,1,5,2.3c1.7,2,2.4,4.5,2.4,6.7c0,4.5-1.8,7-4.3,9.1
				c-2.5,2-5.9,2.9-8.3,2.9c-0.5,0-1.3,0-1.9-0.2c-0.1,0-0.3,0.1-0.3,0.2c0,1.8,0,4.5,0.1,6.1c0,0.8,0.3,1.5,1.4,1.7
				c0.6,0.1,2.4,0.3,3.4,0.4c0.2,0.4,0,1.7-0.2,1.9h-1.6c-5.4,0-8.7,0.3-11,0.5c-0.2-0.3-0.3-1.6,0-1.9l2.3-0.5
				c1-0.4,1.2-0.8,1.4-2.6c0-1.1,0.1-3.2,0.1-12c0.1-5.4,0-7.2,0-9c0-1.1-0.3-1.5-0.9-1.7c-0.6-0.3-1.4-0.5-2.3-0.7
				C589,188.5,589.1,187.4,589.4,187.1z M597.2,190.4c-0.2,0.2-0.4,0.7-0.4,1c-0.1,1.4,0,7,0,9c0,0.7,0.4,1.5,0.8,1.8
				c1.1,0.9,2.4,1.4,4,1.4c0.7,0,1.9-0.1,3.3-1.3c1.4-1.2,2.2-3.5,2.2-6c0-1.9-0.5-4.1-1.6-5.6c-1.2-1.4-2.5-1.9-4.1-1.9
				C600.2,188.9,598.4,189.4,597.2,190.4z"/>
		</g>
		<g>
			<path fill="#F0FBFF" d="M54.6,244.9c0,0.1,0.1,0.6,0,0.8c-0.1,0.6-1.1,2.8-1.6,3.5c0,0.1-0.3,0.2-0.4,0.2c-1-0.8-2.1-1.7-3.5-1.7
				c-0.9,0-2,1-2.5,1.9c-0.1,0.2-0.4,0.8-0.4,1.3c0,3.8,0,8.3,0.1,9.3c0,0.8,0.2,1.3,1.1,1.5c0.8,0.2,2.2,0.4,3.5,0.5
				c0.1,0.3,0,1.7-0.2,1.9c-0.5,0-4.4-0.1-6.4-0.1c-1.7,0-4.1,0.1-5.1,0.1c-0.2-0.2-0.2-1.7,0-1.9c0.6-0.1,1.5-0.2,2-0.4
				c0.6-0.2,0.9-0.5,0.9-1.4c0.1-0.8,0.1-4.7,0.1-7.8c0-1.6,0-3,0-3.5c-0.1-0.9-0.6-1.3-2.8-2.3c0-0.3,0.1-1.3,0.2-1.4
				c2.1-0.3,5.1-1.1,6.5-1.8c0,0,0.2,0.1,0.2,0.3c0,0.4-0.1,2.5-0.1,3.4c0,0.2,0.2,0.2,0.3,0.1c1-1.2,2.1-2.3,3.2-3
				c0.8-0.5,1.6-0.8,2.5-0.8C53,243.8,54.2,244.2,54.6,244.9z"/>
		</g>
		<g>
			<path fill="#F0FBFF" d="M77.1,253.8c0,4-1.6,7.1-4.6,9.1c-1.4,0.9-3.9,1.8-6,1.8c-7.3,0-10.1-5.5-10.1-10.6
				c0-3.9,1.7-6.6,4.3-8.4c1.8-1.1,4.2-2,6.7-2C73.4,243.8,77.1,248.2,77.1,253.8z M63.5,246.8c-1.3,0.8-2.5,2.4-2.5,6
				c0,5.8,3,9.5,6.7,9.5c1.1,0,2-0.3,2.9-1c1.1-0.9,1.8-2.8,1.8-5.9c0-5.7-2.8-9.2-6.7-9.2C65,246.2,64.1,246.3,63.5,246.8z"/>
		</g>
		<g>
			<path fill="#F0FBFF" d="M80,262.4c1-0.1,1.6-0.2,2.1-0.5c0.6-0.2,0.8-0.8,0.8-1.3c0.2-1.2,0.2-4.5,0.2-12.6c0-3.5,0-9.1-0.1-10.7
				c0-0.4-0.1-1.5-0.8-1.7c-0.5-0.1-1.6-0.3-3-0.5c-0.2-0.1-0.2-1.4,0.1-1.6c2.7-0.3,6.2-1.1,7.9-1.8c0.1,0,0.4,0.5,0.4,0.6
				c-0.3,0.9-0.4,1.5-0.4,3.2c0,2.4,0,8.2-0.1,12.4c0,7.4,0,10.6,0.1,11.9c0,1.2,0.1,1.8,1.2,2.1c0.7,0.2,0.8,0.3,2.1,0.4
				c0.1,0.3,0.1,1.6-0.2,1.9c-1.1,0-2.4-0.1-5.4-0.1c-1.9,0-4.4,0.1-5,0.1C79.8,264,79.7,262.8,80,262.4z"/>
		</g>
		<g>
			<path fill="#F0FBFF" d="M111.2,259.5c0.1,0.4-0.2,1.5-0.3,1.7c-2,2.3-5.8,3.5-7.9,3.5c-2.6,0-4.6-0.8-6.2-2.3c-2.1-2-3-5.1-3-8
				c0-4.5,1.9-7.4,4.4-9c1.6-1,3.7-1.7,5.5-1.7c4.9,0,6.8,4.1,7.1,7.2c0,0.1,0.3,0.4,0.8,0.6c0,0.3-0.3,1.4-0.5,1.6
				c-2.1,0.5-8.6,0.9-13,1.1c-0.2,0-0.2,0.3-0.2,0.5c0.1,1.4,0.8,3.4,2.1,4.5c1.5,1.3,2.9,1.8,5.2,1.8c2,0,3.9-0.7,5.7-2
				C111,259.1,111.1,259.3,111.2,259.5z M97.9,251.4c0,0.1,0.1,0.4,0.3,0.4c1.7,0,7.2-0.1,8.1-0.3c0.1-0.1,0.2-0.2,0.2-0.4
				c-0.3-2.4-1.9-4.9-4.5-4.9C99.8,246.1,98.1,248.3,97.9,251.4z"/>
		</g>
		<g>
			<path fill="#F0FBFF" d="M113.8,245.4c1.7-0.2,5.1-1.1,7.1-2.1c0.1-0.1,0.4,0.3,0.4,0.4c-0.1,0.7-0.1,2.1-0.1,2.9
				c0,0.1,0.2,0.2,0.3,0.1c3.5-2.4,5.4-2.9,6.9-2.9c2,0,3.8,1,5,2.3c1.7,2,2.4,4.5,2.4,6.7c0,4.5-1.8,7-4.3,9.1
				c-2.5,2-5.9,2.9-8.3,2.9c-0.5,0-1.3,0-1.9-0.2c-0.1,0-0.3,0.1-0.3,0.2c0,1.8,0,4.5,0.1,6.1c0,0.8,0.3,1.5,1.4,1.7
				c0.6,0.1,2.4,0.3,3.4,0.4c0.2,0.4,0,1.7-0.2,1.9h-1.6c-5.4-0.1-8.7,0.3-11,0.5c-0.2-0.3-0.3-1.6,0-1.9l2.3-0.5
				c1-0.4,1.2-0.8,1.4-2.6c0-1.1,0.1-3.2,0.1-12c0.1-5.4,0-7.2,0-9c0-1.1-0.3-1.5-0.9-1.7c-0.6-0.3-1.4-0.5-2.3-0.7
				C113.5,246.8,113.5,245.7,113.8,245.4z M121.6,248.7c-0.2,0.2-0.4,0.7-0.4,1c-0.1,1.4,0,7,0,9c0,0.7,0.4,1.5,0.8,1.8
				c1.1,0.9,2.4,1.4,4,1.4c0.7,0,1.9-0.1,3.3-1.3c1.4-1.2,2.2-3.5,2.2-6c0-1.9-0.5-4.1-1.6-5.6c-1.2-1.4-2.5-1.9-4.1-1.9
				C124.6,247.2,122.8,247.8,121.6,248.7z"/>
		</g>
		<g>
			<path fill="#F0FBFF" d="M138.8,262.4c1-0.1,1.6-0.2,2.1-0.5c0.6-0.2,0.8-0.8,0.8-1.3c0.2-1.2,0.2-4.5,0.2-12.6
				c0-3.5,0-9.1-0.1-10.7c0-0.4-0.1-1.5-0.8-1.7c-0.5-0.1-1.6-0.3-3-0.5c-0.2-0.1-0.2-1.4,0.1-1.6c2.7-0.3,6.2-1.1,7.9-1.8
				c0.1,0,0.4,0.5,0.4,0.6c-0.3,0.9-0.4,1.5-0.4,3.2c0,2.4,0,8.2-0.1,12.4c0,7.4,0,10.6,0.1,11.9c0,1.2,0.1,1.8,1.2,2.1
				c0.7,0.2,0.8,0.3,2.1,0.4c0.1,0.3,0.1,1.6-0.2,1.9c-1.1,0-2.4-0.1-5.4-0.1c-1.9,0-4.4,0.1-5,0.1
				C138.6,264,138.5,262.8,138.8,262.4z"/>
		</g>
		<g>
			<path fill="#F0FBFF" d="M162.5,248.6c-0.8-1.2-2.3-1.8-3.6-1.8c-1.3,0-2,0.3-2.2,0.5c-0.6,0.5-1.4,2.1-2,3.5
				c-0.2,0.2-1.9-0.6-1.8-1c0.2-0.8,1-3.1,1.4-3.4c2.1-1.4,5.3-2.6,6.6-2.6c2.3,0,4,1.1,5.1,2.7c0.9,1.5,1.2,3,1.2,4.9
				c0,2.5-0.2,6.3-0.2,8.3c0,1.1,0.4,1.8,1.9,1.8c0.7,0,1.1-0.1,1.7-0.2c0,0.2,0,1.7-0.2,1.9c-1.2,1.2-3,1.7-4.2,1.7
				c-1.5,0-2.4-0.7-2.7-1.4c-0.2-0.3-0.3-0.7-0.4-1.1c0,0-0.2-0.1-0.2,0c-2.8,1.7-4.6,2.5-6.1,2.5c-0.9,0-1.9-0.6-2.8-1.4
				c-1.1-1.1-1.7-2.7-1.7-4.4c0-1.4,0.9-2.9,1.1-3.1c1.8-0.9,7.3-2.1,9.3-3.1c0.1,0,0.3-0.3,0.3-0.5c0.1-0.3,0.1-0.7,0.1-0.8
				C163.1,250.6,163.1,249.5,162.5,248.6z M162.7,254.7c-1.4,0.5-4.5,1.5-5.6,2.1c-0.2,0.1-0.6,1-0.6,1.6c0,1.8,1.3,3.2,3.4,3.2
				c0.6,0,1.7-0.3,2.3-0.8c0.4-0.3,0.5-0.6,0.6-1.2c0.1-0.6,0.1-3.7,0.1-4.6C163,254.9,162.9,254.7,162.7,254.7z"/>
		</g>
		<g>
			<path fill="#F0FBFF" d="M170.1,244.3c0.9,0,3.4,0.1,5.1,0.1c2.2,0,4.7-0.1,5.6-0.1c0.3,0.2,0.3,1.6,0.1,1.9
				c-0.7,0.1-1.6,0.2-1.9,0.4c-0.5,0.2-0.4,0.8-0.4,1c1.1,3.5,3.7,10.1,4.1,10.7c0,0,0.2,0.1,0.2,0c1.4-2.8,3.4-8.1,3.8-10.3
				c0.1-0.6,0-1.1-0.8-1.3c-0.5-0.2-1.4-0.3-2.3-0.4c-0.1-0.4,0-1.7,0.2-1.9c0.6,0,2.6,0.1,4.5,0.1c1.8,0,3.6-0.1,5.2-0.1
				c0.2,0.3,0.2,1.5,0,1.9c-0.9,0.1-1.4,0.2-2,0.4c-0.9,0.3-1.5,1.2-2,2.4c-3.4,8.5-7.7,17.5-11.2,23.5c-0.6,1-1,1.9-1.4,2.7
				l-0.4,0.2c-0.7-0.1-2.5-0.9-3.1-1.4c0-0.2,0-0.9,0-1.1c1.5-1.8,5.2-6.4,6.8-9.8l-0.4-0.9c-1.1-2.8-3.1-7.8-4.5-11.2
				c-1.4-3.3-2-4.2-3.6-4.6l-1.6-0.2C169.7,245.8,169.8,244.5,170.1,244.3z"/>
		</g>
		<g>
			<path fill="#F0FBFF" d="M205.7,264.3c-0.9,0-2.1-0.1-5.4-0.1c-2.2,0-4.2,0.1-5,0.1c-0.3-0.2-0.3-1.7,0-1.9c1-0.1,1.6-0.3,2.2-0.5
				c0.7-0.2,0.8-0.6,0.9-1.5c0.1-1.2,0.1-3.9,0.1-6.5v-4.9c0-0.2-0.1-0.8-0.4-1.1c-0.5-0.6-1.5-0.9-2.6-1.4c-0.2-0.3,0-1.3,0.3-1.5
				c1.6,0,5-0.7,7-1.5v8.8c0,2.7,0,5.8,0,7.9c0,0.8,0.2,1.4,1,1.6c0.7,0.2,1,0.2,2.2,0.4C206.1,262.7,206,264.1,205.7,264.3z
				 M201.8,239.5c-0.2,0.2-2.2,0.3-2.5,0.1c-0.8-0.5-1.2-1.1-1.5-2.2c0-0.2,0-1.5,0.3-1.7c0.5-0.4,1.7-1,2.7-1
				c0.9,0,1.4,0.2,1.6,0.4c0.2,0.3,0.5,1.1,0.5,1.6C202.9,237.7,202.6,238.9,201.8,239.5z"/>
		</g>
		<g>
			<path fill="#F0FBFF" d="M209.9,262c0.7-0.1,1-0.7,1.1-1.5c0.1-1.4,0.1-4.8,0.1-7.9v-3.5c-0.2-0.7-1.1-1.4-2.8-2.1
				c-0.1-0.4,0.1-1.3,0.3-1.5c2-0.2,5.1-1.2,6.3-1.8c0.1,0,0.3,0.2,0.3,0.4c0,0.2,0,1.9,0,2.7c0,0.1,0.2,0.1,0.3,0
				c2.1-1.8,4.6-3.1,6.5-3.1c2.1,0,3.8,1,5,2.6c1,1.5,1.4,3.5,1.4,5.8c0,2.9,0,7.2,0.1,8.7c0,0.1,0.2,0.6,0.3,0.7
				c0.9,0.4,1.7,0.6,2.8,0.7c0.2,0.3,0.1,1.6-0.2,1.9c-0.7,0-2.4-0.1-5.1-0.1c-2.1,0-3.6,0.1-4.9,0.1c-0.2-0.3-0.3-1.7,0-1.9
				c0.9-0.1,1.7-0.2,2-0.4c0.6-0.2,0.8-0.6,0.8-2.4c0-3.2,0-6.9-0.1-8.7c-0.1-0.8-0.4-1.9-1.4-2.7c-0.7-0.6-1.6-1-3-1
				c-1.4,0-3,0.6-4,1.5c-0.3,0.2-0.5,0.7-0.5,1.6c0,3.3,0,8.2,0.1,10.4c0,0.9,0.2,1.3,1,1.5c0.6,0.1,1.2,0.2,2,0.3
				c0.2,0.3,0.1,1.6-0.2,1.9c-0.7,0-2.2-0.1-5-0.1c-2,0-4.5,0.1-5,0.1c-0.2-0.3-0.2-1.7,0-1.9C208.8,262.3,209.3,262.2,209.9,262z"
				/>
		</g>
		<g>
			<path fill="#F0FBFF" d="M248.1,244.8c0.8,0.3,1.6,0.4,2.7,0.4c1.6,0,2.3-0.5,3-1.2c0.2,0,0.8,0.3,0.8,0.4c0,0.7-0.7,2.4-1.2,3
				c-0.4,0.4-0.8,0.8-1.9,0.8h-1.1c0,0-0.1,0.1-0.1,0.1c0.1,0.4,0.2,1.3,0.2,1.7c0,3.5-1.3,5.1-3,6.4c-1.8,1.4-3.7,1.8-5.1,2
				c-0.1,0-1.1,0.1-1.2,0.1c-0.3,0.1-1.1,0.5-1.1,1.1c0,0.9,0.8,1.3,2.1,1.4c2.6,0.2,6.5,0.4,8.2,1c1.8,0.7,3.3,2.4,3.3,4.8
				c0,3.1-2.1,6.3-6.1,8.2c-2,1-3.9,1.3-5.8,1.3c-2.5,0-4.5-0.5-6.2-1.8c-1.6-1.2-2.3-3.1-2.3-4.4c0-0.4,0.2-1.7,0.4-2
				c0.5-0.7,2.3-2,4.5-3.5c0,0,0-0.1,0-0.1c-1.9-0.7-2.7-1.9-2.9-2.9c0-0.3,0.2-0.9,0.3-1.1c0.7-0.5,2.4-1.4,3.2-2c0,0,0-0.2,0-0.2
				c-2.6-0.9-4.6-2.9-4.6-6.8c0-2,0.9-4.2,2.8-5.6c1.2-1,4.4-2.2,6.4-2.1C245.4,243.8,246.5,244.3,248.1,244.8z M250,269.1
				c0-1.5-0.7-2.6-2.4-3.2c-1.3-0.5-3.5-0.7-6-0.7c-0.8,0-1.4,0.2-1.7,0.4c-1.8,1.2-2.5,2.3-2.5,3.5c0,1.2,0.4,2.1,1.5,3
				c1.4,1.2,3.1,1.6,5.1,1.6C248.1,273.6,250,271.3,250,269.1z M238.3,250.4c0,2.9,1.3,5.9,4.6,5.9c0.6,0,1.7-0.3,2.1-0.8
				c0.7-0.7,1.3-2.1,1.3-3.9c0-2.9-1.2-5.6-4.5-5.6C239.8,246,238.3,247.6,238.3,250.4z"/>
		</g>
		<g>
			<path fill="#F0FBFF" d="M281.4,244.8c0.8,0.3,1.6,0.4,2.7,0.4c1.7,0,2.3-0.5,3-1.2c0.2,0,0.8,0.3,0.8,0.4c0,0.7-0.7,2.4-1.2,3
				c-0.4,0.4-0.8,0.8-1.9,0.8h-1.1c0,0-0.1,0.1-0.1,0.1c0.1,0.4,0.2,1.3,0.2,1.7c0,3.5-1.3,5.1-3,6.4c-1.8,1.4-3.7,1.8-5.1,2
				c-0.1,0-1.1,0.1-1.2,0.1c-0.3,0.1-1.1,0.5-1.1,1.1c0,0.9,0.8,1.3,2.1,1.4c2.6,0.2,6.5,0.4,8.2,1c1.8,0.7,3.3,2.4,3.3,4.8
				c0,3.1-2.1,6.3-6.1,8.2c-2,1-3.9,1.3-5.8,1.3c-2.5,0-4.5-0.5-6.2-1.8c-1.6-1.2-2.3-3.1-2.3-4.4c0-0.4,0.2-1.7,0.4-2
				c0.5-0.7,2.3-2,4.5-3.5c0,0,0-0.1,0-0.1c-1.9-0.7-2.7-1.9-2.9-2.9c0-0.3,0.2-0.9,0.3-1.1c0.7-0.5,2.4-1.4,3.2-2c0,0,0-0.2,0-0.2
				c-2.6-0.9-4.6-2.9-4.6-6.8c0-2,0.9-4.2,2.8-5.6c1.2-1,4.4-2.2,6.4-2.1C278.7,243.8,279.8,244.3,281.4,244.8z M283.3,269.1
				c0-1.5-0.7-2.6-2.4-3.2c-1.3-0.5-3.5-0.7-6-0.7c-0.8,0-1.4,0.2-1.7,0.4c-1.8,1.2-2.5,2.3-2.5,3.5c0,1.2,0.4,2.1,1.5,3
				c1.4,1.2,3.1,1.6,5.1,1.6C281.4,273.6,283.3,271.3,283.3,269.1z M271.6,250.4c0,2.9,1.3,5.9,4.6,5.9c0.6,0,1.7-0.3,2.1-0.8
				c0.7-0.7,1.3-2.1,1.3-3.9c0-2.9-1.2-5.6-4.5-5.6C273.1,246,271.6,247.6,271.6,250.4z"/>
		</g>
		<g>
			<path fill="#F0FBFF" d="M299.5,248.6c-0.8-1.2-2.3-1.8-3.6-1.8c-1.3,0-2,0.3-2.2,0.5c-0.6,0.5-1.4,2.1-2,3.5
				c-0.2,0.2-1.9-0.6-1.8-1c0.2-0.8,1-3.1,1.4-3.4c2.1-1.4,5.3-2.6,6.6-2.6c2.3,0,4,1.1,5.1,2.7c0.9,1.5,1.2,3,1.2,4.9
				c0,2.5-0.2,6.3-0.2,8.3c0,1.1,0.4,1.8,1.9,1.8c0.7,0,1.1-0.1,1.7-0.2c0,0.2,0,1.7-0.2,1.9c-1.2,1.2-3,1.7-4.2,1.7
				c-1.5,0-2.4-0.7-2.7-1.4c-0.2-0.3-0.3-0.7-0.4-1.1c0,0-0.2-0.1-0.2,0c-2.8,1.7-4.6,2.5-6.1,2.5c-0.9,0-1.9-0.6-2.8-1.4
				c-1.1-1.1-1.7-2.7-1.7-4.4c0-1.4,0.9-2.9,1.1-3.1c1.8-0.9,7.3-2.1,9.3-3.1c0.1,0,0.3-0.3,0.3-0.5c0.1-0.3,0.1-0.7,0.1-0.8
				C300.1,250.6,300.1,249.5,299.5,248.6z M299.7,254.7c-1.4,0.5-4.5,1.5-5.6,2.1c-0.2,0.1-0.6,1-0.6,1.6c0,1.8,1.3,3.2,3.4,3.2
				c0.6,0,1.7-0.3,2.3-0.8c0.4-0.3,0.5-0.6,0.6-1.2c0.1-0.6,0.1-3.7,0.1-4.6C300,254.9,299.9,254.7,299.7,254.7z"/>
		</g>
		<g>
			<path fill="#F0FBFF" d="M311.1,262c0.8-0.2,1.1-0.6,1.1-1.7c0.1-2.7,0.1-7.7,0.1-11c0-0.4,0-0.9-0.4-1.2
				c-0.6-0.4-1.4-0.8-2.5-1.1c-0.2-0.3,0-1.5,0.2-1.6c2.6-0.4,5.2-1.1,6.6-1.7l0.1,0.3c0,0.3,0,1.9,0,2.7c0,0.1,0.2,0.2,0.3,0.1
				c2.8-2.2,5.3-3,6.6-3c2.4,0,4,1.3,5.1,3.2c0.1,0.1,0.2,0.1,0.3,0c2.5-1.9,5.1-3.2,6.8-3.2c3.9,0,6.5,2.9,6.5,8.2
				c0,2.7,0,6.8,0,8.9c0,0.2,0.3,0.8,0.7,0.9c0.6,0.3,1.5,0.4,2.6,0.6c0.2,0.2,0,1.8-0.3,1.9c-0.7,0-2.3-0.1-4.4-0.1
				c-2.6,0-4,0-5.4,0.1c-0.1-0.2-0.2-1.7,0-1.9c0.8-0.1,1.2-0.2,1.7-0.4c0.7-0.2,1-0.5,1-1.7c0-2.1,0.1-8-0.1-9.5
				c-0.2-1.4-1.2-3.6-4.2-3.6c-1.2,0-2.8,0.5-4.3,1.7c0,0-0.1,0.2-0.1,0.3c0.2,0.9,0.2,2,0.2,3.6c0,2.7,0,5.9,0,8
				c0,0.8,0.4,1,0.9,1.2c0.7,0.1,1.1,0.3,2,0.4c0.2,0.3,0.1,1.8-0.2,1.9c-1.4,0-3-0.1-5.2-0.1c-1.2,0-3.8,0.1-4.7,0.1
				c-0.3-0.2-0.3-1.7,0-1.9c0.8-0.1,1.4-0.2,2-0.4c0.6-0.2,0.9-0.5,0.9-1.4c0.1-2.2,0.2-8.4,0-9.9c-0.3-1.7-1.2-3.6-4-3.6
				c-1.2,0-2.9,0.6-4.3,1.7c-0.2,0.1-0.3,0.5-0.3,0.9c0,3.2,0,9.1,0,11.3c0,0.5,0.2,1,1.1,1.2c0.3,0.1,1.1,0.2,1.8,0.3
				c0.2,0.2,0.1,1.7-0.1,1.9c-1.1,0-2.8-0.1-5-0.1c-2.6,0-3.8,0.1-5.1,0.1c-0.3-0.2-0.3-1.7,0-1.9
				C310.1,262.2,310.5,262.1,311.1,262z"/>
		</g>
		<g>
			<path fill="#F0FBFF" d="M365.9,259.5c0.1,0.4-0.2,1.5-0.3,1.7c-2,2.3-5.8,3.5-7.9,3.5c-2.6,0-4.6-0.8-6.2-2.3c-2.1-2-3-5.1-3-8
				c0-4.5,1.9-7.4,4.4-9c1.7-1,3.7-1.7,5.5-1.7c4.9,0,6.8,4.1,7.1,7.2c0,0.1,0.3,0.4,0.8,0.6c0,0.3-0.3,1.4-0.5,1.6
				c-2.1,0.5-8.6,0.9-13,1.1c-0.2,0-0.2,0.3-0.2,0.5c0.1,1.4,0.8,3.4,2.1,4.5c1.5,1.3,2.9,1.8,5.2,1.8c2,0,3.9-0.7,5.7-2
				C365.7,259.1,365.8,259.3,365.9,259.5z M352.6,251.4c0,0.1,0.1,0.4,0.3,0.4c1.7,0,7.2-0.1,8.1-0.3c0.1-0.1,0.2-0.2,0.2-0.4
				c-0.3-2.4-1.9-4.9-4.5-4.9C354.5,246.1,352.9,248.3,352.6,251.4z"/>
		</g>
		<g>
			<path fill="#F0FBFF" d="M366.9,272.2c2.5-2.2,4.6-5.2,4.5-8.1c0-1.3-0.6-2.7-1.6-4.2c0.1-0.6,2.8-2.9,3.5-3.1
				c0.2-0.1,1-0.1,1.2,0c0.6,0.4,1.5,2.3,1.6,4.5c0,4.7-3.8,9.7-7.1,11.7c-0.3,0.1-1.3-0.2-1.7-0.4
				C367,272.6,366.9,272.3,366.9,272.2z"/>
		</g>
		<g>
			<path fill="#F0FBFF" d="M409.9,246.3c1.7,1.8,2.3,4.5,2.3,6.4c0,4.3-1.7,7.2-4.3,9.2c-2.3,1.7-5.6,2.8-7.6,2.8
				c-1.9,0-3.2-0.3-4.6-0.6c-0.4-0.1-1.1-0.2-2.4,0c-0.1,0-0.4-0.2-0.5-0.3c0.2-3.4,0.2-5.6,0.2-12c0-6.4,0-13.1-0.2-15.2
				c-0.1-0.6-0.3-1.1-1.4-1.3c-0.5-0.1-1.4-0.3-2.4-0.4c-0.2-0.3-0.2-1.5,0.1-1.7c2.5-0.1,6.7-0.9,8.4-1.5c0.2,0,0.4,0.7,0.3,0.9
				c-0.4,0.6-0.7,1-0.7,10.1v3.4c0,0.1,0.2,0.2,0.3,0.1c2.1-1.2,4.9-2.4,6.7-2.4C406.7,243.8,408.7,244.8,409.9,246.3z M398,248
				c-0.1,0.1-0.5,0.4-0.5,0.9c-0.1,1.1-0.1,8.5,0,10.2c0,0.9,0.3,1.4,0.8,1.9c1.3,1.1,3,1.3,4.1,1.3c1.4,0,2.7-0.5,3.7-1.7
				c1-1.3,1.6-3.5,1.6-5.5c0-2.8-0.7-4.5-1.6-5.7c-1.4-1.7-3-2.2-4.7-2.2C400.5,246.9,398.8,247.4,398,248z"/>
		</g>
		<g>
			<path fill="#F0FBFF" d="M415.5,244.8c2,0,6-0.4,7.3-0.7c-0.2,1.6-0.3,5.2-0.3,9.7c0,3,0,4.2,0.2,4.9c0.4,1.6,1.6,2.7,4,2.7
				c1.1,0,2.6-0.4,4-1.6c0.3-0.3,0.4-0.5,0.5-1c0-0.4,0-1.6,0-10.2c0-0.7-0.2-1.3-0.9-1.5c-0.6-0.2-1.7-0.3-3.1-0.6
				c-0.1-0.4,0-1.6,0.3-1.8c2.7,0,7-0.3,8.1-0.6c-0.1,0.8-0.1,1.8-0.1,3.5l-0.1,12c0,0.6,0.2,1.2,0.7,1.3c0.8,0.1,1.7,0,2.5-0.1
				c0,0.4,0,1.7-0.3,1.9c-1.8,0.9-5.9,2-6.7,2c-0.1,0-0.2-0.3-0.3-0.5c0-0.4-0.1-1.9-0.1-2.6c0-0.1-0.2-0.1-0.3-0.1
				c-2.8,2.3-5,3.1-6.5,3.1c-4.9,0-6-3.3-6-6.6c0-2.4,0.1-7.6,0-9.6c0-0.7-0.2-1.4-0.9-1.6c-0.4-0.1-1.3-0.3-2.2-0.4
				C415.1,246.2,415.2,245.1,415.5,244.8z"/>
		</g>
		<g>
			<path fill="#F0FBFF" d="M451,264.3c-0.9,0-2.1-0.1-5.4-0.1c-2.2,0-4.2,0.1-5,0.1c-0.3-0.2-0.3-1.7,0-1.9c1-0.1,1.6-0.3,2.2-0.5
				c0.7-0.2,0.8-0.6,0.9-1.5c0.1-1.2,0.1-3.9,0.1-6.5v-4.9c0-0.2-0.1-0.8-0.4-1.1c-0.5-0.6-1.5-0.9-2.6-1.4c-0.2-0.3,0-1.3,0.3-1.5
				c1.6,0,5-0.7,7-1.5v8.8c0,2.7,0,5.8,0,7.9c0,0.8,0.2,1.4,1,1.6c0.7,0.2,1,0.2,2.2,0.4C451.4,262.7,451.3,264.1,451,264.3z
				 M447.2,239.5c-0.2,0.2-2.2,0.3-2.5,0.1c-0.8-0.5-1.2-1.1-1.5-2.2c0-0.2,0-1.5,0.3-1.7c0.5-0.4,1.7-1,2.7-1
				c0.9,0,1.4,0.2,1.6,0.4c0.2,0.3,0.5,1.1,0.5,1.6C448.2,237.7,447.9,238.9,447.2,239.5z"/>
		</g>
		<g>
			<path fill="#F0FBFF" d="M453.6,262.4c1-0.1,1.6-0.2,2.1-0.5c0.6-0.2,0.8-0.8,0.8-1.3c0.2-1.2,0.2-4.5,0.2-12.6
				c0-3.5,0-9.1-0.1-10.7c0-0.4-0.1-1.5-0.8-1.7c-0.5-0.1-1.6-0.3-3-0.5c-0.2-0.1-0.2-1.4,0.1-1.6c2.7-0.3,6.2-1.1,7.9-1.8
				c0.1,0,0.4,0.5,0.4,0.6c-0.3,0.9-0.4,1.5-0.4,3.2c0,2.4,0,8.2-0.1,12.4c0,7.4,0,10.6,0.1,11.9c0.1,1.2,0.1,1.8,1.2,2.1
				c0.7,0.2,0.8,0.3,2.1,0.4c0.1,0.3,0.1,1.6-0.2,1.9c-1.1,0-2.4-0.1-5.4-0.1c-1.9,0-4.4,0.1-5,0.1
				C453.4,264,453.3,262.8,453.6,262.4z"/>
		</g>
		<g>
			<path fill="#F0FBFF" d="M473.4,247.3c0,0-0.2,0.2-0.2,0.2c0,1.8,0,5.2,0,7.8c0,2.3,0.1,3.3,0.3,4c0.4,1.5,1.8,2,3.1,2
				c1.4,0,2-0.1,3.3-0.8c0.1,0.2-0.1,1.8-0.3,2.1c-1.2,1.5-3.4,2.1-5.1,2.1c-2.2,0-3.8-1-4.7-2.5c-0.7-1.3-0.8-2.5-0.8-5.6
				c0-2.9,0-6.9,0-8.8c0-0.1-0.1-0.4-0.3-0.5l-2.8-0.2c0-0.4,0.2-1.7,0.5-2c0.8-0.1,2-0.4,2.4-0.6c0,0,0.2-0.2,0.2-0.4v-4.4
				c0.7-0.4,2.6-1.5,3.4-2.1c0.2-0.1,0.9-0.1,1.1-0.1c0,0.9-0.2,3.3-0.2,6.6c0,0.1,0.1,0.3,0.2,0.3c2.2,0,5.5-0.1,6.5-0.2
				c-0.2,0.8-0.5,2.3-0.5,3.2C478.5,247.4,475.4,247.3,473.4,247.3z"/>
		</g>
		<g>
			<path fill="#F0FBFF" d="M511.7,246.3c1.7,1.8,2.3,4.5,2.3,6.4c0,4.3-1.7,7.2-4.3,9.2c-2.3,1.7-5.6,2.8-7.6,2.8
				c-1.9,0-3.2-0.3-4.6-0.6c-0.4-0.1-1.1-0.2-2.4,0c-0.1,0-0.4-0.2-0.5-0.3c0.2-3.4,0.2-5.6,0.2-12c0-6.4,0-13.1-0.2-15.2
				c-0.1-0.6-0.3-1.1-1.4-1.3c-0.5-0.1-1.4-0.3-2.4-0.4c-0.2-0.3-0.2-1.5,0.1-1.7c2.5-0.1,6.7-0.9,8.4-1.5c0.2,0,0.4,0.7,0.3,0.9
				c-0.4,0.6-0.7,1-0.7,10.1v3.4c0,0.1,0.2,0.2,0.3,0.1c2.1-1.2,4.9-2.4,6.7-2.4C508.5,243.8,510.5,244.8,511.7,246.3z M499.8,248
				c-0.1,0.1-0.5,0.4-0.5,0.9c-0.1,1.1-0.1,8.5,0,10.2c0,0.9,0.3,1.4,0.8,1.9c1.3,1.1,3,1.3,4.1,1.3c1.4,0,2.7-0.5,3.7-1.7
				c1-1.3,1.7-3.5,1.7-5.5c0-2.8-0.7-4.5-1.6-5.7c-1.4-1.7-3-2.2-4.7-2.2C502.3,246.9,500.6,247.4,499.8,248z"/>
		</g>
		<g>
			<path fill="#F0FBFF" d="M516,244.3c0.9,0,3.4,0.1,5.1,0.1c2.2,0,4.7-0.1,5.6-0.1c0.3,0.2,0.3,1.6,0.1,1.9
				c-0.7,0.1-1.6,0.2-1.9,0.4c-0.5,0.2-0.4,0.8-0.4,1c1.1,3.5,3.7,10.1,4.1,10.7c0,0,0.2,0.1,0.2,0c1.4-2.8,3.4-8.1,3.8-10.3
				c0.1-0.6,0-1.1-0.8-1.3c-0.5-0.2-1.4-0.3-2.3-0.4c-0.1-0.4,0-1.7,0.2-1.9c0.6,0,2.6,0.1,4.5,0.1c1.8,0,3.6-0.1,5.2-0.1
				c0.2,0.3,0.2,1.5,0,1.9c-0.9,0.1-1.4,0.2-2,0.4c-0.9,0.3-1.5,1.2-2,2.4c-3.4,8.5-7.7,17.5-11.2,23.5c-0.6,1-1,1.9-1.4,2.7
				l-0.4,0.2c-0.7-0.1-2.5-0.9-3.1-1.4c0-0.2,0-0.9,0-1.1c1.5-1.8,5.2-6.4,6.8-9.8l-0.4-0.9c-1.1-2.8-3.1-7.8-4.5-11.2
				c-1.4-3.3-2-4.2-3.6-4.6l-1.7-0.2C515.6,245.8,515.7,244.5,516,244.3z"/>
		</g>
		<g>
			<path fill="#F0FBFF" d="M561.4,248.6c-0.8-1.2-2.3-1.8-3.6-1.8c-1.3,0-2,0.3-2.2,0.5c-0.6,0.5-1.4,2.1-2,3.5
				c-0.2,0.2-1.9-0.6-1.8-1c0.2-0.8,1-3.1,1.4-3.4c2.1-1.4,5.3-2.6,6.6-2.6c2.3,0,4,1.1,5.1,2.7c0.9,1.5,1.2,3,1.2,4.9
				c0,2.5-0.2,6.3-0.2,8.3c0,1.1,0.4,1.8,1.9,1.8c0.7,0,1.1-0.1,1.7-0.2c0,0.2,0,1.7-0.2,1.9c-1.2,1.2-3,1.7-4.2,1.7
				c-1.5,0-2.4-0.7-2.7-1.4c-0.2-0.3-0.3-0.7-0.4-1.1c0,0-0.2-0.1-0.2,0c-2.8,1.7-4.6,2.5-6.1,2.5c-0.9,0-1.9-0.6-2.8-1.4
				c-1.1-1.1-1.7-2.7-1.7-4.4c0-1.4,0.9-2.9,1.1-3.1c1.8-0.9,7.3-2.1,9.3-3.1c0.1,0,0.3-0.3,0.3-0.5c0.1-0.3,0.1-0.7,0.1-0.8
				C562,250.6,561.9,249.5,561.4,248.6z M561.6,254.7c-1.4,0.5-4.5,1.5-5.6,2.1c-0.2,0.1-0.6,1-0.6,1.6c0,1.8,1.3,3.2,3.4,3.2
				c0.6,0,1.7-0.3,2.3-0.8c0.4-0.3,0.5-0.6,0.6-1.2c0.1-0.6,0.1-3.7,0.1-4.6C561.9,254.9,561.7,254.7,561.6,254.7z"/>
		</g>
		<g>
			<path fill="#F0FBFF" d="M589,247.3c0,0-0.2,0.2-0.2,0.2c-0.1,1.8-0.1,5.2-0.1,7.8c0,2.3,0.1,3.3,0.3,4c0.4,1.5,1.8,2,3.1,2
				c1.4,0,2-0.1,3.3-0.8c0.1,0.2-0.1,1.8-0.3,2.1c-1.2,1.5-3.4,2.1-5.1,2.1c-2.2,0-3.8-1-4.7-2.5c-0.7-1.3-0.8-2.5-0.8-5.6
				c0-2.9,0-6.9,0-8.8c0-0.1-0.1-0.4-0.3-0.5l-2.8-0.2c0-0.4,0.2-1.7,0.5-2c0.8-0.1,2-0.4,2.4-0.6c0.1,0,0.2-0.2,0.2-0.4v-4.4
				c0.7-0.4,2.6-1.5,3.3-2.1c0.2-0.1,0.9-0.1,1.1-0.1c0,0.9-0.2,3.3-0.2,6.6c0,0.1,0.1,0.3,0.2,0.3c2.2,0,5.5-0.1,6.5-0.2
				c-0.2,0.8-0.5,2.3-0.5,3.2C594.1,247.4,591,247.3,589,247.3z"/>
		</g>
		<g>
			<path fill="#F0FBFF" d="M615.5,259.5c0.1,0.4-0.2,1.5-0.3,1.7c-2,2.3-5.8,3.5-7.9,3.5c-2.6,0-4.6-0.8-6.2-2.3c-2.1-2-3-5.1-3-8
				c0-4.5,1.9-7.4,4.4-9c1.6-1,3.7-1.7,5.5-1.7c4.9,0,6.8,4.1,7.1,7.2c0,0.1,0.3,0.4,0.8,0.6c0,0.3-0.3,1.4-0.5,1.6
				c-2.1,0.5-8.6,0.9-13,1.1c-0.2,0-0.2,0.3-0.2,0.5c0.1,1.4,0.8,3.4,2.1,4.5c1.5,1.3,2.9,1.8,5.2,1.8c2,0,3.9-0.7,5.7-2
				C615.3,259.1,615.4,259.3,615.5,259.5z M602.2,251.4c0,0.1,0.1,0.4,0.3,0.4c1.7,0,7.2-0.1,8.1-0.3c0.1-0.1,0.2-0.2,0.2-0.4
				c-0.3-2.4-1.9-4.9-4.5-4.9C604.1,246.1,602.5,248.3,602.2,251.4z"/>
		</g>
		<g>
			<path fill="#F0FBFF" d="M629.2,248.6c-0.8-1.2-2.3-1.8-3.6-1.8c-1.3,0-2,0.3-2.2,0.5c-0.6,0.5-1.4,2.1-2,3.5
				c-0.2,0.2-1.9-0.6-1.8-1c0.2-0.8,1-3.1,1.4-3.4c2.1-1.4,5.3-2.6,6.6-2.6c2.3,0,4,1.1,5.1,2.7c0.9,1.5,1.2,3,1.2,4.9
				c0,2.5-0.2,6.3-0.2,8.3c0,1.1,0.4,1.8,1.9,1.8c0.7,0,1.1-0.1,1.8-0.2c0,0.2-0.1,1.7-0.2,1.9c-1.2,1.2-3,1.7-4.2,1.7
				c-1.5,0-2.4-0.7-2.7-1.4c-0.2-0.3-0.3-0.7-0.4-1.1c0,0-0.2-0.1-0.2,0c-2.8,1.7-4.6,2.5-6.1,2.5c-0.9,0-1.9-0.6-2.8-1.4
				c-1.1-1.1-1.7-2.7-1.7-4.4c0-1.4,0.9-2.9,1.1-3.1c1.8-0.9,7.3-2.1,9.3-3.1c0.1,0,0.3-0.3,0.3-0.5c0.1-0.3,0.1-0.7,0.1-0.8
				C629.9,250.6,629.8,249.5,629.2,248.6z M629.5,254.7c-1.4,0.5-4.5,1.5-5.6,2.1c-0.2,0.1-0.6,1-0.6,1.6c0,1.8,1.3,3.2,3.4,3.2
				c0.6,0,1.7-0.3,2.3-0.8c0.4-0.3,0.5-0.6,0.6-1.2c0.1-0.6,0.1-3.7,0.1-4.6C629.8,254.9,629.6,254.7,629.5,254.7z"/>
		</g>
		<g>
			<path fill="#F0FBFF" d="M640.8,262c0.8-0.2,1.1-0.6,1.1-1.7c0.1-2.7,0.1-7.7,0.1-11c0-0.4,0-0.9-0.4-1.2
				c-0.6-0.4-1.4-0.8-2.5-1.1c-0.2-0.3,0-1.5,0.2-1.6c2.6-0.4,5.2-1.1,6.6-1.7l0.1,0.3c0,0.3,0,1.9,0,2.7c0,0.1,0.2,0.2,0.3,0.1
				c2.8-2.2,5.3-3,6.6-3c2.4,0,4,1.3,5.1,3.2c0.1,0.1,0.2,0.1,0.3,0c2.5-1.9,5.1-3.2,6.8-3.2c3.9,0,6.5,2.9,6.5,8.2
				c0,2.7,0,6.8,0,8.9c0,0.2,0.3,0.8,0.7,0.9c0.6,0.3,1.5,0.4,2.6,0.6c0.2,0.2,0,1.8-0.3,1.9c-0.7,0-2.3-0.1-4.4-0.1
				c-2.6,0-4,0-5.4,0.1c-0.1-0.2-0.2-1.7,0-1.9c0.8-0.1,1.2-0.2,1.7-0.4c0.7-0.2,1-0.5,1-1.7c0-2.1,0.1-8-0.1-9.5
				c-0.2-1.4-1.2-3.6-4.2-3.6c-1.2,0-2.8,0.5-4.3,1.7c0,0-0.1,0.2-0.1,0.3c0.2,0.9,0.2,2,0.2,3.6c0,2.7,0,5.9,0,8
				c0,0.8,0.4,1,0.9,1.2c0.7,0.1,1.1,0.3,2,0.4c0.2,0.3,0.1,1.8-0.2,1.9c-1.4,0-3-0.1-5.2-0.1c-1.2,0-3.8,0.1-4.7,0.1
				c-0.3-0.2-0.3-1.7,0-1.9c0.8-0.1,1.4-0.2,2-0.4c0.6-0.2,0.9-0.5,0.9-1.4c0.1-2.2,0.2-8.4,0-9.9c-0.3-1.7-1.2-3.6-4-3.6
				c-1.2,0-2.9,0.6-4.3,1.7c-0.2,0.1-0.3,0.5-0.3,0.9c0,3.2,0,9.1,0,11.3c0,0.5,0.2,1,1.1,1.2c0.3,0.1,1.1,0.2,1.8,0.3
				c0.2,0.2,0.1,1.7-0.1,1.9c-1.1,0-2.8-0.1-5-0.1c-2.6,0-3.8,0.1-5.1,0.1c-0.3-0.2-0.3-1.7,0-1.9
				C639.8,262.2,640.3,262.1,640.8,262z"/>
		</g>
		<g>
			<path fill="#F0FBFF" d="M60.7,312.1c0,4-1.6,7.1-4.6,9.1c-1.4,0.9-3.9,1.8-6,1.8c-7.3,0-10.1-5.5-10.1-10.6
				c0-3.9,1.7-6.6,4.3-8.4c1.8-1.1,4.2-2,6.7-2C57,302.1,60.7,306.5,60.7,312.1z M47.1,305.1c-1.3,0.8-2.5,2.4-2.5,6
				c0,5.8,3,9.5,6.7,9.5c1.1,0,2-0.3,2.9-1c1.1-0.9,1.8-2.8,1.8-5.9c0-5.7-2.8-9.2-6.7-9.2C48.6,304.5,47.8,304.7,47.1,305.1z"/>
		</g>
		<g>
			<path fill="#F0FBFF" d="M66.2,320.3c0.8-0.3,1-0.8,1-1.6c0.1-2.8,0.1-8.4,0.1-12.7c0-0.1-0.2-0.4-0.3-0.4l-3.1-0.2
				c0-0.6,0.3-1.5,0.6-1.8c0.8-0.1,2.1-0.5,2.6-0.8c0.1,0,0.2-0.3,0.2-0.4c0.1-4.3,1.2-7.9,5-10.6c1.6-1.1,3.5-1.8,4.9-1.8
				c1.4,0,2.9,0.3,3.5,1.4c0,0.1,0,0.6,0,0.7c-0.1,0.6-1.4,2.7-1.8,3.1c-0.1,0.1-0.5,0.1-0.6,0c-1.3-1.2-2.8-1.9-3.8-1.9
				c-0.7,0-1.3,0.2-1.9,0.9c-1.1,1.4-1.2,4-1.2,7.4v0.8c0,0.1,0.2,0.4,0.3,0.4c4,0,4.9-0.1,5.7-0.1c-0.1,0.7-0.4,2.2-0.5,3.1
				c-1.8,0-3.6,0-5.2,0c-0.1,0-0.3,0.2-0.3,0.4c0,4.6,0,9.6,0.2,12.4c0,1,0.3,1.5,1.4,1.7c0.7,0.2,1.4,0.3,3,0.5
				c0.2,0.2,0.1,1.7-0.2,1.9c-1.1,0-3.1-0.1-6.5-0.1c-2.9,0-4.3,0.1-5.3,0.1c-0.2-0.3-0.3-1.7,0-1.9
				C65.2,320.5,65.7,320.4,66.2,320.3z"/>
		</g>
		<g>
			<path fill="#F0FBFF" d="M87.5,302.6c0.8,0,3.1,0.1,5.1,0.1c1.9,0,4.6-0.1,5.6-0.1c0.2,0.2,0.3,1.6,0.1,1.9
				c-0.8,0.1-1.9,0.3-2.2,0.4c-0.5,0.2-0.5,0.7-0.4,0.9c0.5,2.2,2.3,8.8,3.1,11c0,0,0.1,0,0.2,0c1.5-3.5,3.6-9.3,4.6-12.9
				c0.8,0.1,2.4,0.1,3,0c0.3,1.3,0.7,2.6,1.2,4.2c1.2,3.6,2.9,7.9,3.3,9c0.1,0,0.1,0,0.2-0.1c0.9-2.6,3.2-9,3.5-10.6
				c0-0.7,0.1-1.1-0.8-1.4c-0.6-0.2-1.1-0.3-2.4-0.5c-0.1-0.5,0-1.7,0.2-1.9c0.7,0,3.3,0.1,4.4,0.1c2.4,0,4-0.1,5-0.1
				c0.2,0.3,0.2,1.6,0,1.9c-1,0.1-1.2,0.2-1.7,0.4c-1.2,0.5-1.6,1.3-2,2.2c-1.1,2.8-4.6,12.3-5.7,15.5c-0.8-0.1-2.4-0.1-3,0
				c-0.9-3.1-4-11.5-4.5-12.6c0-0.1-0.2,0-0.2,0c-1.2,3.2-3.4,8.5-4.8,12.5c-0.7-0.1-2.3-0.1-3,0c-1-3.8-3.5-12.3-4.6-15.1
				c-0.6-1.6-0.9-2.3-1.9-2.7c-0.6-0.1-1.3-0.3-2.2-0.4C87.1,304.2,87.2,302.9,87.5,302.6z"/>
		</g>
		<g>
			<path fill="#F0FBFF" d="M138,303.2c0,0.1,0.1,0.6,0,0.8c-0.1,0.6-1.1,2.8-1.6,3.5c0,0.1-0.3,0.2-0.4,0.2c-1-0.8-2.1-1.7-3.5-1.7
				c-0.9,0-2,1-2.5,1.9c-0.1,0.2-0.4,0.8-0.4,1.3c0,3.8,0,8.3,0.1,9.3c0,0.8,0.2,1.3,1.1,1.5c0.8,0.2,2.2,0.4,3.4,0.5
				c0.1,0.3,0,1.7-0.2,1.9c-0.5,0-4.4-0.1-6.4-0.1c-1.7,0-4.1,0.1-5.1,0.1c-0.2-0.2-0.2-1.7,0-1.9c0.6-0.1,1.5-0.2,2-0.4
				c0.6-0.2,0.9-0.5,0.9-1.4c0.1-0.8,0.1-4.7,0.1-7.8c0-1.6,0-3,0-3.5c-0.1-0.9-0.6-1.3-2.8-2.3c0-0.3,0.1-1.3,0.2-1.4
				c2.1-0.3,5.1-1.1,6.5-1.8c0,0,0.2,0.1,0.2,0.3c0,0.4-0.1,2.5-0.1,3.4c0,0.2,0.2,0.2,0.3,0.1c1-1.2,2.1-2.3,3.2-3
				c0.8-0.5,1.6-0.8,2.5-0.8C136.4,302.1,137.5,302.5,138,303.2z"/>
		</g>
		<g>
			<path fill="#F0FBFF" d="M150.3,322.6c-0.9,0-2.1-0.1-5.4-0.1c-2.2,0-4.2,0.1-5,0.1c-0.3-0.2-0.3-1.7,0-1.9c1-0.1,1.6-0.3,2.2-0.5
				c0.7-0.2,0.8-0.6,0.9-1.5c0.1-1.2,0.1-3.9,0.1-6.5v-4.9c0-0.2-0.1-0.8-0.4-1.1c-0.5-0.6-1.5-0.9-2.6-1.4c-0.2-0.3,0-1.3,0.3-1.5
				c1.6,0,5-0.7,7-1.5v8.8c0,2.7,0,5.8,0,7.9c0,0.8,0.2,1.4,1,1.6c0.7,0.2,1,0.2,2.2,0.4C150.8,321,150.6,322.4,150.3,322.6z
				 M146.5,297.9c-0.2,0.2-2.2,0.3-2.5,0.1c-0.8-0.5-1.2-1.1-1.5-2.2c0-0.2,0-1.5,0.3-1.7c0.5-0.4,1.7-1,2.7-1
				c0.9,0,1.4,0.2,1.6,0.4c0.2,0.3,0.5,1.1,0.5,1.6C147.6,296.1,147.2,297.2,146.5,297.9z"/>
		</g>
		<g>
			<path fill="#F0FBFF" d="M159.8,305.6c0,0-0.2,0.2-0.2,0.2c0,1.8,0,5.2,0,7.8c0,2.3,0.1,3.3,0.3,4c0.4,1.5,1.8,2,3.1,2
				c1.4,0,2-0.1,3.3-0.8c0.1,0.2-0.1,1.8-0.3,2.1c-1.2,1.5-3.4,2.1-5.1,2.1c-2.2,0-3.8-1-4.7-2.5c-0.7-1.3-0.8-2.5-0.8-5.6
				c0-2.9,0-6.9,0-8.8c0-0.1-0.1-0.4-0.3-0.5l-2.8-0.2c0-0.4,0.2-1.7,0.5-2c0.8-0.1,2-0.4,2.4-0.6c0,0,0.2-0.2,0.2-0.4V298
				c0.7-0.4,2.6-1.5,3.4-2.1c0.2-0.1,0.9-0.1,1.1-0.1c0,0.9-0.2,3.3-0.2,6.6c0,0.1,0.1,0.3,0.2,0.3c2.2,0,5.5-0.1,6.5-0.2
				c-0.2,0.8-0.5,2.3-0.5,3.2C164.9,305.7,161.8,305.6,159.8,305.6z"/>
		</g>
		<g>
			<path fill="#F0FBFF" d="M186.2,317.8c0.1,0.4-0.2,1.5-0.3,1.7c-2,2.3-5.8,3.5-7.9,3.5c-2.6,0-4.6-0.8-6.2-2.3c-2.1-2-3-5.1-3-8
				c0-4.5,1.9-7.4,4.4-9c1.6-1,3.7-1.7,5.5-1.7c4.9,0,6.7,4.1,7.1,7.2c0,0.1,0.3,0.4,0.8,0.6c0,0.3-0.3,1.4-0.5,1.6
				c-2.1,0.5-8.6,0.9-13,1.1c-0.2,0-0.2,0.3-0.2,0.5c0.1,1.4,0.8,3.4,2.1,4.5c1.5,1.3,2.9,1.8,5.2,1.8c2,0,3.9-0.7,5.7-2
				C186,317.4,186.2,317.6,186.2,317.8z M173,309.7c0,0.1,0.1,0.4,0.3,0.4c1.7,0,7.2-0.1,8.1-0.3c0.1-0.1,0.2-0.2,0.2-0.4
				c-0.3-2.4-1.9-4.9-4.5-4.9C174.9,304.4,173.2,306.6,173,309.7z"/>
		</g>
		<g>
			<path fill="#F0FBFF" d="M204.8,303.2c0,0.1,0.1,0.6,0,0.8c-0.1,0.6-1.1,2.8-1.6,3.5c0,0.1-0.3,0.2-0.4,0.2
				c-1-0.8-2.1-1.7-3.5-1.7c-0.9,0-2,1-2.5,1.9c-0.1,0.2-0.4,0.8-0.4,1.3c0,3.8,0,8.3,0.1,9.3c0,0.8,0.2,1.3,1.1,1.5
				c0.8,0.2,2.2,0.4,3.5,0.5c0.1,0.3,0,1.7-0.2,1.9c-0.5,0-4.4-0.1-6.4-0.1c-1.7,0-4.1,0.1-5.1,0.1c-0.2-0.2-0.2-1.7,0-1.9
				c0.6-0.1,1.5-0.2,2-0.4c0.6-0.2,0.9-0.5,0.9-1.4c0.1-0.8,0.1-4.7,0.1-7.8c0-1.6,0-3,0-3.5c-0.1-0.9-0.6-1.3-2.8-2.3
				c0-0.3,0.1-1.3,0.2-1.4c2.1-0.3,5.1-1.1,6.5-1.8c0,0,0.2,0.1,0.2,0.3c0,0.4-0.1,2.5-0.1,3.4c0,0.2,0.2,0.2,0.3,0.1
				c1-1.2,2.1-2.3,3.2-3c0.8-0.5,1.6-0.8,2.5-0.8C203.2,302.1,204.4,302.5,204.8,303.2z"/>
		</g>
		<g>
			<path fill="#F0FBFF" d="M220.1,308.2c-0.2,0.2-1.5,0.3-1.7,0.1c-0.4-2-0.7-3-1.6-3.6c-0.6-0.4-1.4-0.8-2.6-0.8
				c-1.7,0-3,1.1-3,2.7c0,1.7,1,2.6,4.9,4.2c4.2,1.7,5.3,3.5,5.3,6c0,3.7-3.5,6.2-8.2,6.2c-2,0-4.4-0.5-5.4-1
				c-0.4-1.1-0.9-4.3-1-5.6c0.2-0.2,1.6-0.7,1.8-0.6c0.7,2.3,1.6,3.5,2.8,4.4c0.7,0.4,1.8,0.7,2.7,0.7c2,0,3.1-1,3.1-2.5
				c0-1.7-0.9-2.6-4.3-4.1c-3.8-1.7-5.5-3.5-5.5-6.3c0-3.1,2.5-6,7.6-6c1.3,0,2.7,0.2,3.5,0.3c0.9,0.1,1.6,0.3,2.1,0.3
				C220.5,304.2,220.3,306,220.1,308.2z"/>
		</g>
		<g>
			<path fill="#F0FBFF" d="M245.9,306.9c-0.8-1.2-2.3-1.8-3.6-1.8c-1.3,0-2,0.3-2.2,0.5c-0.6,0.5-1.4,2.1-2,3.5
				c-0.2,0.2-1.9-0.6-1.8-1c0.2-0.8,1-3.1,1.4-3.4c2.1-1.4,5.3-2.6,6.6-2.6c2.3,0,4,1.1,5.1,2.7c0.9,1.5,1.2,3,1.2,4.9
				c0,2.5-0.2,6.3-0.2,8.3c0,1.1,0.4,1.8,1.9,1.8c0.7,0,1.1-0.1,1.7-0.2c0,0.2,0,1.7-0.2,1.9c-1.2,1.2-3,1.7-4.2,1.7
				c-1.5,0-2.4-0.7-2.7-1.4c-0.2-0.3-0.3-0.7-0.4-1.1c0,0-0.2-0.1-0.2,0c-2.8,1.7-4.6,2.5-6.1,2.5c-0.9,0-1.9-0.6-2.8-1.4
				c-1.1-1.1-1.7-2.7-1.7-4.4c0-1.4,0.9-2.9,1.1-3.1c1.8-0.9,7.3-2.1,9.3-3.1c0.1,0,0.3-0.3,0.3-0.5c0.1-0.3,0.1-0.7,0.1-0.8
				C246.5,308.9,246.4,307.8,245.9,306.9z M246.1,313c-1.4,0.5-4.5,1.5-5.6,2.1c-0.2,0.1-0.6,1-0.6,1.6c0,1.8,1.3,3.2,3.4,3.2
				c0.6,0,1.7-0.3,2.3-0.8c0.4-0.3,0.5-0.6,0.6-1.2c0.1-0.6,0.1-3.7,0.1-4.6C246.4,313.2,246.2,313,246.1,313z"/>
		</g>
		<g>
			<path fill="#F0FBFF" d="M257.5,320.3c0.7-0.1,1-0.7,1.1-1.5c0.1-1.4,0.1-4.8,0.1-7.9v-3.5c-0.2-0.7-1.1-1.4-2.8-2.1
				c-0.1-0.4,0.1-1.3,0.3-1.5c2-0.2,5.2-1.2,6.3-1.8c0.1,0,0.3,0.2,0.3,0.4c0,0.2,0,1.9,0,2.7c0,0.1,0.2,0.1,0.3,0
				c2.1-1.8,4.6-3.1,6.5-3.1c2.1,0,3.8,1,5,2.6c1,1.5,1.4,3.5,1.4,5.8c0,2.9,0,7.2,0.1,8.7c0,0.1,0.2,0.6,0.3,0.7
				c0.9,0.4,1.7,0.6,2.8,0.7c0.2,0.3,0.1,1.6-0.2,1.9c-0.7,0-2.4-0.1-5.1-0.1c-2.1,0-3.6,0.1-4.9,0.1c-0.2-0.3-0.3-1.7,0-1.9
				c0.9-0.1,1.7-0.2,2-0.4c0.6-0.2,0.8-0.6,0.8-2.4c0-3.2,0-6.9-0.1-8.7c-0.1-0.8-0.4-1.9-1.4-2.7c-0.7-0.6-1.6-1-3-1
				c-1.4,0-3,0.6-4,1.5c-0.3,0.2-0.5,0.7-0.5,1.6c0,3.3,0,8.2,0.1,10.4c0,0.9,0.2,1.3,1,1.5c0.6,0.1,1.2,0.2,2,0.3
				c0.2,0.3,0.1,1.6-0.2,1.9c-0.7,0-2.2-0.1-5-0.1c-2,0-4.5,0.1-5,0.1c-0.2-0.3-0.2-1.7,0-1.9C256.4,320.6,256.9,320.5,257.5,320.3z
				"/>
		</g>
		<g>
			<path fill="#F0FBFF" d="M304.5,321.6c-1.6,0.6-5.4,1.6-6.8,1.7c-0.1,0-0.3-0.3-0.4-0.6c-0.1-0.4-0.1-1.7-0.1-2.3
				c0-0.2-0.2-0.3-0.2-0.3c-2.5,1.7-5.4,2.9-6.8,2.9c-2.2,0-4.2-1-5.6-2.7c-1.5-1.8-2.2-4.4-2.2-7.1c0-3.2,1.5-6.1,3.7-7.9
				c2-1.7,5.9-3.1,9.1-3.1c0.6,0,1.4,0.1,2,0.2c0.1,0,0.2-0.2,0.2-0.3c0-4.5,0-5.6-0.1-6.8c0-0.9-0.2-1.2-1-1.5
				c-0.7-0.1-2.1-0.4-3.3-0.5c-0.2-0.4-0.1-1.6,0.2-1.8c3.3,0,7-0.8,8.6-1.4c0.1,0.1,0.4,0.8,0.3,0.9c-0.4,0.7-0.5,1.5-0.6,3.2
				c-0.1,2.6-0.1,4.5-0.1,13.5v10.7c0,1.2,0.4,1.3,0.9,1.4c0.5,0.1,1.4,0.1,2.4,0C304.9,320,304.7,321.3,304.5,321.6z M288.8,305.9
				c-1.2,1.1-2.2,3.3-2.2,5.8c0,5.1,2.7,7.6,6.5,7.6c1.5,0,2.8-0.6,3.8-1.4c0.2-0.2,0.3-0.7,0.3-1.1c0-1.1,0-6.6,0-9
				c0-0.9-0.3-1.7-1-2.1c-1.1-0.8-2.5-1.1-4-1.1C290.9,304.6,289.8,305,288.8,305.9z"/>
		</g>
		<g>
			<path fill="#F0FBFF" d="M327.8,322.6c-0.9,0-2.1-0.1-5.4-0.1c-2.2,0-4.2,0.1-5,0.1c-0.3-0.2-0.3-1.7,0-1.9c1-0.1,1.6-0.3,2.2-0.5
				c0.7-0.2,0.8-0.6,0.9-1.5c0.1-1.2,0.1-3.9,0.1-6.5v-4.9c0-0.2-0.1-0.8-0.4-1.1c-0.5-0.6-1.5-0.9-2.6-1.4c-0.2-0.3,0-1.3,0.3-1.5
				c1.6,0,5-0.7,7-1.5v8.8c0,2.7,0,5.8,0,7.9c0,0.8,0.2,1.4,1,1.6c0.7,0.2,1,0.2,2.2,0.4C328.2,321,328.1,322.4,327.8,322.6z
				 M323.9,297.9c-0.2,0.2-2.2,0.3-2.5,0.1c-0.8-0.5-1.2-1.1-1.5-2.2c0-0.2,0-1.5,0.3-1.7c0.5-0.4,1.7-1,2.7-1
				c0.9,0,1.4,0.2,1.6,0.4c0.2,0.3,0.5,1.1,0.5,1.6C325,296.1,324.7,297.2,323.9,297.9z"/>
		</g>
		<g>
			<path fill="#F0FBFF" d="M330.4,320.7c1-0.1,1.6-0.2,2.1-0.5c0.6-0.2,0.8-0.8,0.8-1.3c0.2-1.2,0.2-4.5,0.2-12.6
				c0-3.5,0-9.1-0.1-10.7c0-0.4-0.1-1.5-0.8-1.7c-0.5-0.1-1.6-0.3-3-0.5c-0.2-0.1-0.2-1.4,0.1-1.6c2.7-0.3,6.2-1.1,7.9-1.8
				c0.1,0.1,0.4,0.5,0.4,0.6c-0.3,0.9-0.4,1.5-0.4,3.2c0,2.4,0,8.2-0.1,12.4c0,7.4,0,10.6,0.1,11.9c0,1.2,0.1,1.8,1.2,2.1
				c0.7,0.2,0.8,0.3,2.1,0.4c0.1,0.3,0.1,1.6-0.2,1.9c-1.1,0-2.4-0.1-5.4-0.1c-1.9,0-4.4,0.1-5,0.1
				C330.2,322.3,330.1,321.1,330.4,320.7z"/>
		</g>
		<g>
			<path fill="#F0FBFF" d="M343.3,320.7c1-0.1,1.6-0.2,2.1-0.5c0.6-0.2,0.8-0.8,0.8-1.3c0.2-1.2,0.2-4.5,0.2-12.6
				c0-3.5,0-9.1-0.1-10.7c0-0.4-0.1-1.5-0.8-1.7c-0.5-0.1-1.6-0.3-3-0.5c-0.2-0.1-0.2-1.4,0.1-1.6c2.7-0.3,6.2-1.1,7.9-1.8
				c0.1,0.1,0.4,0.5,0.4,0.6c-0.3,0.9-0.4,1.5-0.4,3.2c0,2.4,0,8.2-0.1,12.4c0,7.4,0,10.6,0.1,11.9c0,1.2,0.1,1.8,1.2,2.1
				c0.7,0.2,0.8,0.3,2.1,0.4c0.1,0.3,0.1,1.6-0.2,1.9c-1.1,0-2.4-0.1-5.4-0.1c-1.9,0-4.4,0.1-5,0.1
				C343.1,322.3,343,321.1,343.3,320.7z"/>
		</g>
		<g>
			<path fill="#F0FBFF" d="M355.7,303.1c2,0,6-0.4,7.3-0.7c-0.2,1.6-0.3,5.2-0.3,9.7c0,3,0,4.2,0.2,4.9c0.4,1.6,1.6,2.7,4,2.7
				c1.1,0,2.6-0.4,4-1.6c0.3-0.3,0.4-0.5,0.5-1c0-0.4,0-1.6,0-10.2c0-0.7-0.2-1.3-0.9-1.5c-0.6-0.2-1.7-0.3-3.1-0.6
				c-0.1-0.4,0-1.6,0.3-1.8c2.7,0,7-0.3,8.1-0.6c-0.1,0.8-0.1,1.8-0.1,3.5l-0.1,12c0,0.6,0.2,1.2,0.7,1.3c0.8,0.1,1.7,0,2.5-0.1
				c0,0.4,0,1.7-0.3,1.9c-1.8,0.9-5.9,2-6.7,2c-0.1,0-0.2-0.3-0.3-0.5c0-0.4-0.1-1.9-0.1-2.6c0-0.1-0.2-0.1-0.3-0.1
				c-2.8,2.3-5,3.1-6.5,3.1c-4.9,0-6-3.3-6-6.6c0-2.4,0.1-7.6,0-9.6c0-0.7-0.2-1.4-0.9-1.6c-0.4-0.1-1.3-0.3-2.2-0.4
				C355.3,304.5,355.4,303.4,355.7,303.1z"/>
		</g>
		<g>
			<path fill="#F0FBFF" d="M394.7,308.2c-0.2,0.2-1.5,0.3-1.7,0.1c-0.4-2-0.7-3-1.6-3.6c-0.6-0.4-1.4-0.8-2.6-0.8
				c-1.7,0-3,1.1-3,2.7c0,1.7,1,2.6,4.9,4.2c4.2,1.7,5.3,3.5,5.3,6c0,3.7-3.5,6.2-8.2,6.2c-2,0-4.4-0.5-5.4-1
				c-0.4-1.1-0.9-4.3-1-5.6c0.2-0.2,1.6-0.7,1.8-0.6c0.7,2.3,1.6,3.5,2.8,4.4c0.7,0.4,1.8,0.7,2.7,0.7c2,0,3.1-1,3.1-2.5
				c0-1.7-0.9-2.6-4.3-4.1c-3.8-1.7-5.5-3.5-5.5-6.3c0-3.1,2.5-6,7.6-6c1.3,0,2.7,0.2,3.5,0.3c0.9,0.1,1.6,0.3,2.1,0.3
				C395,304.2,394.8,306,394.7,308.2z"/>
		</g>
		<g>
			<path fill="#F0FBFF" d="M405.8,305.6c0,0-0.2,0.2-0.2,0.2c0,1.8,0,5.2,0,7.8c0,2.3,0.1,3.3,0.3,4c0.4,1.5,1.8,2,3.1,2
				c1.4,0,2-0.1,3.3-0.8c0.1,0.2-0.1,1.8-0.3,2.1c-1.2,1.5-3.4,2.1-5.1,2.1c-2.2,0-3.8-1-4.7-2.5c-0.7-1.3-0.8-2.5-0.8-5.6
				c0-2.9,0-6.9,0-8.8c0-0.1-0.1-0.4-0.3-0.5l-2.8-0.2c0-0.4,0.2-1.7,0.5-2c0.8-0.1,2-0.4,2.4-0.6c0,0,0.2-0.2,0.2-0.4V298
				c0.7-0.4,2.6-1.5,3.4-2.1c0.2-0.1,0.9-0.1,1.1-0.1c0,0.9-0.2,3.3-0.2,6.6c0,0.1,0.1,0.3,0.2,0.3c2.2,0,5.5-0.1,6.5-0.2
				c-0.2,0.8-0.5,2.3-0.5,3.2C410.9,305.7,407.8,305.6,405.8,305.6z"/>
		</g>
		<g>
			<path fill="#F0FBFF" d="M429.8,303.2c0,0.1,0.1,0.6,0,0.8c-0.1,0.6-1.1,2.8-1.6,3.5c0,0.1-0.3,0.2-0.4,0.2
				c-1-0.8-2.1-1.7-3.5-1.7c-0.9,0-2,1-2.5,1.9c-0.1,0.2-0.4,0.8-0.4,1.3c0,3.8,0,8.3,0.1,9.3c0,0.8,0.2,1.3,1.1,1.5
				c0.8,0.2,2.2,0.4,3.4,0.5c0.1,0.3,0,1.7-0.2,1.9c-0.5,0-4.4-0.1-6.4-0.1c-1.7,0-4.1,0.1-5.1,0.1c-0.2-0.2-0.2-1.7,0-1.9
				c0.6-0.1,1.5-0.2,2-0.4c0.6-0.2,0.9-0.5,0.9-1.4c0.1-0.8,0.1-4.7,0.1-7.8c0-1.6,0-3,0-3.5c-0.1-0.9-0.6-1.3-2.8-2.3
				c0-0.3,0.1-1.3,0.2-1.4c2.1-0.3,5.1-1.1,6.5-1.8c0,0,0.2,0.1,0.2,0.3c0,0.4-0.1,2.5-0.1,3.4c0,0.2,0.2,0.2,0.3,0.1
				c1-1.2,2.1-2.3,3.2-3c0.8-0.5,1.6-0.8,2.5-0.8C428.3,302.1,429.4,302.5,429.8,303.2z"/>
		</g>
		<g>
			<path fill="#F0FBFF" d="M441.9,306.9c-0.8-1.2-2.3-1.8-3.6-1.8c-1.3,0-2,0.3-2.2,0.5c-0.6,0.5-1.4,2.1-2,3.5
				c-0.2,0.2-1.9-0.6-1.8-1c0.2-0.8,1-3.1,1.4-3.4c2.1-1.4,5.3-2.6,6.6-2.6c2.3,0,4,1.1,5.1,2.7c0.9,1.5,1.2,3,1.2,4.9
				c0,2.5-0.2,6.3-0.2,8.3c0,1.1,0.4,1.8,1.9,1.8c0.7,0,1.1-0.1,1.8-0.2c0,0.2,0,1.7-0.2,1.9c-1.2,1.2-3,1.7-4.2,1.7
				c-1.5,0-2.4-0.7-2.7-1.4c-0.2-0.3-0.3-0.7-0.4-1.1c0,0-0.2-0.1-0.2,0c-2.8,1.7-4.6,2.5-6.1,2.5c-0.9,0-1.9-0.6-2.8-1.4
				c-1.1-1.1-1.7-2.7-1.7-4.4c0-1.4,0.9-2.9,1.1-3.1c1.8-0.9,7.3-2.1,9.3-3.1c0.1,0,0.3-0.3,0.3-0.5c0.1-0.3,0.1-0.7,0.1-0.8
				C442.5,308.9,442.4,307.8,441.9,306.9z M442.1,313c-1.4,0.5-4.5,1.5-5.6,2.1c-0.2,0.1-0.6,1-0.6,1.6c0,1.8,1.3,3.2,3.4,3.2
				c0.6,0,1.7-0.3,2.3-0.8c0.4-0.3,0.5-0.6,0.6-1.2c0.1-0.6,0.1-3.7,0.1-4.6C442.4,313.2,442.3,313,442.1,313z"/>
		</g>
		<g>
			<path fill="#F0FBFF" d="M458.3,305.6c0,0-0.2,0.2-0.2,0.2c-0.1,1.8-0.1,5.2-0.1,7.8c0,2.3,0.1,3.3,0.3,4c0.4,1.5,1.8,2,3.1,2
				c1.4,0,2-0.1,3.3-0.8c0.1,0.2-0.1,1.8-0.3,2.1c-1.2,1.5-3.4,2.1-5.1,2.1c-2.2,0-3.8-1-4.7-2.5c-0.7-1.3-0.8-2.5-0.8-5.6
				c0-2.9,0-6.9,0-8.8c0-0.1-0.1-0.4-0.3-0.5l-2.8-0.2c0-0.4,0.2-1.7,0.5-2c0.8-0.1,2-0.4,2.4-0.6c0.1,0,0.2-0.2,0.2-0.4V298
				c0.7-0.4,2.6-1.5,3.3-2.1c0.2-0.1,0.9-0.1,1.1-0.1c0,0.9-0.2,3.3-0.2,6.6c0,0.1,0.1,0.3,0.2,0.3c2.2,0,5.5-0.1,6.5-0.2
				c-0.2,0.8-0.5,2.3-0.5,3.2C463.4,305.7,460.3,305.6,458.3,305.6z"/>
		</g>
		<g>
			<path fill="#F0FBFF" d="M487.9,312.1c0,4-1.6,7.1-4.6,9.1c-1.4,0.9-3.9,1.8-6,1.8c-7.3,0-10.1-5.5-10.1-10.6
				c0-3.9,1.7-6.6,4.3-8.4c1.8-1.1,4.2-2,6.7-2C484.3,302.1,487.9,306.5,487.9,312.1z M474.4,305.1c-1.3,0.8-2.5,2.4-2.5,6
				c0,5.8,3,9.5,6.7,9.5c1.1,0,2-0.3,2.9-1c1.1-0.9,1.8-2.8,1.8-5.9c0-5.7-2.8-9.2-6.7-9.2C475.8,304.5,475,304.7,474.4,305.1z"/>
		</g>
		<g>
			<path fill="#F0FBFF" d="M507,303.2c0,0.1,0.1,0.6,0,0.8c-0.1,0.6-1.1,2.8-1.6,3.5c0,0.1-0.3,0.2-0.4,0.2c-1-0.8-2.1-1.7-3.5-1.7
				c-0.9,0-2,1-2.5,1.9c-0.1,0.2-0.4,0.8-0.4,1.3c0,3.8,0,8.3,0.1,9.3c0,0.8,0.2,1.3,1.1,1.5c0.8,0.2,2.2,0.4,3.4,0.5
				c0.1,0.3,0,1.7-0.2,1.9c-0.5,0-4.4-0.1-6.4-0.1c-1.7,0-4.1,0.1-5.1,0.1c-0.2-0.2-0.2-1.7,0-1.9c0.6-0.1,1.5-0.2,2-0.4
				c0.6-0.2,0.9-0.5,0.9-1.4c0.1-0.8,0.1-4.7,0.1-7.8c0-1.6,0-3,0-3.5c-0.1-0.9-0.6-1.3-2.8-2.3c0-0.3,0.1-1.3,0.2-1.4
				c2.1-0.3,5.1-1.1,6.5-1.8c0,0,0.2,0.1,0.2,0.3c0,0.4-0.1,2.5-0.1,3.4c0,0.2,0.2,0.2,0.3,0.1c1-1.2,2.1-2.3,3.2-3
				c0.8-0.5,1.6-0.8,2.5-0.8C505.5,302.1,506.6,302.5,507,303.2z"/>
		</g>
		<g>
			<path fill="#F0FBFF" d="M522.4,308.2c-0.2,0.2-1.5,0.3-1.7,0.1c-0.4-2-0.7-3-1.6-3.6c-0.6-0.4-1.4-0.8-2.6-0.8
				c-1.7,0-3,1.1-3,2.7c0,1.7,1,2.6,4.9,4.2c4.2,1.7,5.3,3.5,5.3,6c0,3.7-3.6,6.2-8.2,6.2c-2,0-4.4-0.5-5.4-1
				c-0.4-1.1-0.9-4.3-1-5.6c0.2-0.2,1.6-0.7,1.8-0.6c0.7,2.3,1.6,3.5,2.8,4.4c0.7,0.4,1.8,0.7,2.7,0.7c2,0,3.1-1,3.1-2.5
				c0-1.7-0.9-2.6-4.3-4.1c-3.8-1.7-5.5-3.5-5.5-6.3c0-3.1,2.5-6,7.6-6c1.3,0,2.7,0.2,3.5,0.3c0.9,0.1,1.6,0.3,2.1,0.3
				C522.7,304.2,522.5,306,522.4,308.2z"/>
		</g>
		<g>
			<path fill="#F0FBFF" d="M532.9,317.4c0.8,0.7,1,1.7,1,2.5c0,0.6-0.2,1.6-0.9,2.2c-0.7,0.7-1.6,1-2.5,1c-0.6,0-1.5-0.3-2.1-0.9
				c-0.7-0.7-1-1.5-1-2.4c0-0.9,0.4-1.7,1-2.4c0.6-0.6,1.5-0.9,2.2-0.9C531.6,316.6,532.4,316.9,532.9,317.4z"/>
		</g>
	</g>
</g>
</svg>
