<?xml version="1.0" encoding="utf-8"?>
<!-- Generator: Adobe Illustrator 18.0.0, SVG Export Plug-In . SVG Version: 6.00 Build 0)  -->
<!DOCTYPE svg PUBLIC "-//W3C//DTD SVG 1.1//EN" "http://www.w3.org/Graphics/SVG/1.1/DTD/svg11.dtd">
<svg version="1.1" id="Layer_1" xmlns="http://www.w3.org/2000/svg" xmlns:xlink="http://www.w3.org/1999/xlink" x="0px" y="0px"
	 viewBox="0 0 194 104" enable-background="new 0 0 194 104" xml:space="preserve">
<g id="Vector_1_">
	<polygon fill="#B49FC2" points="132.1,70 127.8,69.1 128.2,65 127.6,54.2 124.5,43 118.9,33.5 110.1,24.9 100.9,19.9 94.3,18.1 
		92.5,18 92.8,12.1 92,5.1 89.8,2 86.6,1.4 83.1,4.5 81,10.6 79.8,6.7 76.8,1.4 73.9,2.6 71.4,10.5 71.4,17.1 61.9,18.5 52,20.6 
		45.2,22.8 28.7,40.3 11.6,70.8 12.8,76.7 15.8,84.9 21.4,94.7 22.5,95.6 19.8,99.6 23.7,100.9 28.6,99.8 38.1,102.7 59.6,102.7 
		83.1,98.6 96.6,94.6 108.5,89.4 116.5,83.8 124.7,75.7 127.4,75 131.6,73.7 133.1,71.8 	"/>
	<polygon fill="#D2BC8B" points="48.9,31.8 53.4,30.5 61.1,29.9 65.4,30.7 69.9,32.6 73.8,36.9 77.4,42.3 78.5,45.9 80.7,50.1 
		81.5,53.8 81.3,56.7 79.5,54.2 79.8,56 80.8,59.1 80.8,61.5 79.9,64.3 78.4,66.2 76.4,68 73.1,69 69.6,69 67.8,70 66,70.4 
		67.1,67.4 68.2,63.9 68.5,60.2 68.4,57.5 68.1,55.2 67.5,53.1 66.9,51.3 66.8,52.6 67.2,55.6 66.4,59.6 65.2,62.4 64.9,61.6 
		65,55.3 63.9,49.4 62.7,46.7 63.1,43.5 62.4,41.5 59.7,42.2 58,44 57.1,44.4 55.4,48.1 53.4,49.8 54,47.9 54.4,45.2 54.2,43.7 
		53.5,45.8 50.3,53.4 44.7,60.8 40.4,64.9 37.1,67.4 33,69.9 35,66.9 38.7,60 39.5,56.4 33.3,64.5 29.8,70.2 28.3,67.4 29.6,58.8 
		31.9,52 33.7,48.3 28.7,51.3 22.1,57.2 16.3,64.5 12.1,72 10,76.4 9.1,78.7 8.6,76.1 8.4,69.8 8.5,65.9 8.3,66.3 7.8,69.7 7.7,75 
		8.4,80 6.7,77.9 4.3,72.3 3.7,70.5 3.2,72.5 1.6,66.5 2.1,57.3 4.1,50.8 7.2,46.2 10.5,43 14.5,40.2 15.4,39.5 12.4,40.1 5.8,43.2 
		0.7,47.5 2,42.1 4.3,37.3 7.9,32.8 10.9,30.3 17.5,27.2 24.7,25.8 28.8,26.1 31,26.5 30.4,25.9 26.2,24 21.5,23.2 16.8,23.6 
		13,24.5 15.5,22.5 21.4,20.6 26.3,19.8 31.7,19.8 36.4,21.1 39.5,22.7 42.4,25.3 41.6,21.9 41.9,17.4 43.3,14.2 45.8,11 49.5,8.6 
		52.5,7.8 54.8,7.6 53.9,8.3 50.4,11 48.1,13.8 46.9,16.5 46.1,19.6 46,22.8 46.4,27 47.4,30.1 48.4,31.5 	"/>
	<polygon fill="#D2BC8B" points="113.3,27.5 118.9,33.7 120.7,32.8 124.9,33.7 127.8,35.2 132.3,40 135.9,45.6 139.4,53.5 
		144.4,64.5 152.2,75.2 161.4,83.5 168.4,87.8 168.8,87.1 164.1,82.8 160.6,77.4 161.6,78 165.8,82.8 170.5,85.5 177.8,85.6 
		182.7,84.3 186.4,81.3 191.1,79.8 193.3,78.1 187.2,77.7 179.8,73.3 174.8,65.3 167.4,45.7 164.6,36.8 158.8,27.5 152.6,22.2 
		145.5,18.7 141.6,17.4 144.2,16.4 137.7,15.3 130.1,15.9 123.5,18.2 119,20.9 115.1,24.6 	"/>
	<path fill="#3F3645" d="M14.8,66.1c2.4-2.9,4.3-3.8,9.2-2c3.5,1.2,7.1,5.2,6.9,10.4c-0.2,5.2-2.4,8.6-7.1,7.8c-5-0.8-6.9-2.3-9-6.5
		C12.7,71.4,13.3,67.9,14.8,66.1z"/>
	
		<linearGradient id="SVGID_1_" gradientUnits="userSpaceOnUse" x1="117.0444" y1="-697.9364" x2="131.9959" y2="-699.6116" gradientTransform="matrix(1 0 0 -1 -102 -622)">
		<stop  offset="0" style="stop-color:#C5155E"/>
		<stop  offset="0.4624" style="stop-color:#E34D8A"/>
		<stop  offset="0.6072" style="stop-color:#E04886"/>
		<stop  offset="0.7871" style="stop-color:#D8387A"/>
		<stop  offset="0.9849" style="stop-color:#CA1F67"/>
		<stop  offset="1" style="stop-color:#C91D65"/>
		<stop  offset="1" style="stop-color:#C5165F"/>
		<stop  offset="1" style="stop-color:#C00C56"/>
	</linearGradient>
	<path fill="url(#SVGID_1_)" d="M15.8,72c3.7,4.5,5.8,5,8.2,4.4s3.1-2.4,3.1-3.1c0,0,0.6,1.6-0.8,3.2c0,0,1.1-0.7,1.4-1.9
		c0.4-1.1,1-1.5,1-1.5s0.4,2.2-0.1,3.6c0,0,1.1-1.9,1.1-3c0,0,0.3,3.1-0.4,4.8c-0.8,2-2.6,3.7-6.8,2.8c-4-0.9-6.1-3.7-7.6-6.8
		c0,0,0-0.3,0-0.4c0,0,0.1,0.2,0.2,0.3c0,0-0.1-0.3,0-0.5c0,0,0.3,0.5,0.7,0.8c0,0-0.5-0.9-0.6-1.4c0,0,0.3,0.4,0.7,0.6
		c0,0,0.1-0.2,0.1-0.8C15.9,72.3,15.8,72,15.8,72z"/>
	<path fill="#3F3645" d="M56.4,57.2c7.2,0.2,10.3,5,10.2,10.6s-4,10.5-11.5,10s-8.9-6-8.7-11.1C46.5,63,48.4,56.9,56.4,57.2z"/>
	<polygon fill="#E48097" points="43.9,85.7 40.3,90.4 41.6,92.1 43.7,93.1 44.9,92.1 44.7,88.7 	"/>
	<path fill="#B4304E" d="M40.8,91.2c2-1.6,0.1-2.6,3.3-4.7l-0.7-3.1l-2,0.2l-3.6-1L36.3,85L40.8,91.2z"/>
	<path fill="#3F3645" d="M72.3,86.9c-0.6-1.2-9.4,3.2-9,5.9c0.4,3,10.7,3.1,10.9,2.1c0.2-1.1-8.3-1.1-8.4-2.5
		C65.7,91.2,72.6,87.7,72.3,86.9z"/>
	<path fill="#3F3645" d="M33.3,81.6c-0.6,0.2,1.5,4.3,3,3.6s0.8-2,1.8-2.2c1.1-0.2,2.9,1.4,4.9,0.9s2.7-4.1,2-4.1
		c-0.7,0-0.5,3.4-2.7,3.4c-2.2,0-3.8-1.6-4.9-0.8c-0.7,0.5-0.6,1.8-1.5,2.1C35,84.8,33.9,81.4,33.3,81.6z"/>
	<path fill="#3F3645" d="M36,85.1c0,0,5.5,9.6,8.6,8.1c1.8-0.8-0.8-10.1-0.8-10.1l-0.7,0.4c0,0,2.4,8.2,1,9c-2,1.2-7.5-7.8-7.5-7.8"
		/>
	<path fill="#3F3645" d="M28.6,99.4c-2.7,0.2-7.3,1.2-7.6,0.2c-0.2-0.6,1.1-2.2,2.6-3.8L22,94.7c-2,2-3.7,4.5-3.2,5.8
		c1.1,2.5,8.7,0.9,11-0.3L28.6,99.4z"/>
	<path fill="#3F3645" d="M81.4,65.7c7-0.1,10.8-7.2,10.6-11c-0.2-3.8-1.9-7.1-6.1-4.2c0,0,2.6-4.6,2.4-12.2c-0.2-7.7-5-6.2-6.9-4.3
		c-1.9,1.8-4,8.2-4,8.2l0.9,2.2c0,0,2.3-7,4-8.5c1.7-1.5,4.3-2.8,4.1,2.7s-0.6,9-4,16.2c-0.3,0.6-0.1,1.7,0.4,1.2
		c0.5-0.5,5.9-7.4,7.4-3.2c1.5,4.2-3.5,10-5.3,11.1C83.1,65.1,81.4,65.7,81.4,65.7z"/>
	<path fill="#3F3645" d="M89.3,60.8c5-0.3,10-7.2,10.8-10.3c0.9-3.1-0.6-6.2-2.6-5.4c0,0,4.5-5.7,5.5-11.6s0.8-11.2-3-13.4
		c-3.8-2.2-8.3,4.4-9.7,7.5c-1.4,3.1-2.4,7.9-1.9,8.2c0.4,0.3,4.3-10.2,7.5-12.6c3-2.2,4.5,0.3,5,2.7c0.6,3.2,0.4,7.8-2.2,13
		c-2.6,5.2-6.8,10.7-6,11.5c1.1,1.1,4.1-4.8,5.7-3.3c2.1,1.9-3.4,10.4-8,11.7L89.3,60.8z"/>
	<path fill="#3F3645" d="M91.3,26.8c2-14.4,0.3-25-3.7-24.9c-4,0.1-5.8,8.9-6,13.5c-0.1,3.8,0.6,15-0.3,15c-0.8,0-2-7.5-1.6-15.3
		c0.3-6.2-2.4-15-5-11.9c-2.7,3.2-4.8,23.6,4.2,42.2c0,0-7.9-9.2-8.9-24.5s3.1-20.7,5.4-20.9c4.6-0.4,6.4,12.6,5.4,8
		c0,0,2.3-8.4,6.8-8c5.4,0.5,7.1,10.4,5,25.3L91.3,26.8z"/>
	<path fill="#3F3645" d="M58,49.8c-0.6,0.2-2.1-6.4,1-8c3.8-1.9,4.3-0.8,4.5,1c0.5,4.9-2,8.2-2.9,7.8c-1.1-0.5,1.9-2.8,1.8-6.4
		c-0.1-2.2-0.8-2.3-3-1C57.6,44.3,58.8,49.5,58,49.8z"/>
	<path fill="#FFDE96" d="M111.9,37.6c0,0,0.4,6.6,0.9,10.9c0,0,1.5-1.3,4-2c0,0,0,8.3-1.7,17.2c0,0,0.2-9.8-0.2-13.5
		c0,0-1.9,1.2-3.8,2.9C111,53.2,110.8,45.5,111.9,37.6z"/>
	<path fill="#FFFFFF" d="M52,66c-1.2,0.4-2.2-2.8-1.6-3C51.4,62.7,52,66,52,66z"/>
	
		<linearGradient id="SVGID_2_" gradientUnits="userSpaceOnUse" x1="150.0349" y1="-694.3211" x2="167.3769" y2="-694.3211" gradientTransform="matrix(1 0 0 -1 -102 -622)">
		<stop  offset="0" style="stop-color:#C5155E"/>
		<stop  offset="0.1219" style="stop-color:#CF276D"/>
		<stop  offset="0.3367" style="stop-color:#DE4382"/>
		<stop  offset="0.4624" style="stop-color:#E34D8A"/>
		<stop  offset="0.5832" style="stop-color:#E04886"/>
		<stop  offset="0.7334" style="stop-color:#D8387A"/>
		<stop  offset="0.8985" style="stop-color:#CA1F65"/>
		<stop  offset="1" style="stop-color:#C00C56"/>
	</linearGradient>
	<path fill="url(#SVGID_2_)" d="M64.8,67.4c-3.9,4-5.7,4.3-7.5,4.6c-1.7,0.3-3.5,0.2-5.3-1.2c0,0,1.6,1.7,4,2c0,0-3.9,0.1-6.7-4.7
		c0,0,0.5,1.7,1.3,2.5c0,0-0.8-0.9-1-0.7c-0.2,0.2,0,1-0.3,0.9c-0.3-0.1-1-1.3-1.1-1.9c0,0-1.3,5.6,3.6,7.6
		c5.6,2.2,12.5,0.2,13.5-6.7c0,0-0.2,0.4-0.8,0.7c0,0,0.5-1.1,0.5-1.8C65,68,64.8,67.4,64.8,67.4z"/>
	<path fill="#FFFFFF" d="M58.9,70c0.2,1.2,3.6,0.7,4.3,0.4c0.7-0.3,1.6-0.5,1.6-0.5s-1.1,0-1.7-0.1C61.8,69.5,58.9,70,58.9,70z"/>
	<path fill="#FFFFFF" d="M55.4,57.9c3.6,0,6.8,0.6,8.6,3.7c1.5,2.5,1.8,3.1-0.2,4.8c-1.4,1.1-4.2,2-7.7,0.3c-2.7-1.3-4.6-3-4.3-6.5
		C52,57.8,54.6,57.9,55.4,57.9z"/>
	<path fill="#FFFFFF" d="M20.6,72c-0.6-0.4-1,0.1-1.9-1.1c-1-1.2-0.7-1.8-0.4-2c0.3-0.2,1.4,1.3,1.7,1.8C20.2,71.2,20.6,72,20.6,72z
		"/>
	<path fill="#FFFFFF" d="M28.6,74.2c0.6,1.3-0.8,1.4-1.2,1.3c-0.4-0.1-1.4-0.6-1.2-1.1c0.2-0.3,0.9,0.1,1.6,0.2
		C28.8,74.7,28.6,74.2,28.6,74.2z"/>
	<path fill="#FFFFFF" d="M19.9,64.1c1-0.5,4.2,0.4,6.4,1.9c2.1,1.5,3.8,5,3.6,6.1c-0.2,1.4-3.1,2.3-7-0.1
		C19.1,69.6,18.7,64.7,19.9,64.1z"/>
	<path fill="#3F3645" d="M113.1,27c0,0,2.5-5.8,12.1-9.9c12.8-5.5,24.9,0.5,24.6,1.2c-0.2,0.6-2.6-1.5-7.3-1c0,0,18.3,2.2,24.9,25.6
		s11.3,29.3,17,32.6c5.7,3.2,9.1,1.8,9.6,2.2c0.5,0.4-7.5,7.5-17.2,1.5c0,0,8.9,4.5,16.1-0.9c0,0-4.7,1.3-11-3.3
		c-6.4-4.5-10.8-16.2-15.2-31.4c-4.4-15.1-14.2-24.1-25.9-25.7c-1.9-0.3-5.2,0.8-5.4,0.4c-0.2-0.3,5-1.9,7.6-2
		c0,0-10.2-2.3-19.3,2.3c-8.1,4-9.9,8.5-9.9,8.5L113.1,27z"/>
	<path fill="#3F3645" d="M155.9,24.7c0,0,10,9.8,11,31.7c0.9,20.4,0.7,23.9,4,28.8l0.7,0.2c-4.2-5.2-3.5-17.5-4.2-29.4
		C166.6,42,161,30.5,160,29.2L155.9,24.7z"/>
	<path fill="#3F3645" d="M118.9,32.8c0,0,1.1-0.6,3.5-0.5c2.4,0.1,10.7,3.3,17,20.4s19.1,30.1,29,34.6c0,0-4.5-3.4-6.9-7.7
		c-2.4-4.2-2.2-4.8-1.7-4.8c0.5,0,5.4,10.5,14,10.7c9.6,0.2,12.1-4.1,12.1-4.1l0.6,0c0,0-1.6,4.9-13.1,4.8
		c-7.1-0.1-12.1-7.9-12.1-7.9c3.1,5.9,9.1,8.7,8.3,9.9c-0.9,1.2-21.3-8.8-30.1-32.9c-7.4-20.3-15.6-22.8-19.8-21.4L118.9,32.8z"/>
	<path fill="#3F3645" d="M116.5,29.9c0,0,2.4-6,8.8-7.9c7-2,18.2,4,22.4,18.9c4.2,14.8,9.1,28.1,13.6,36.8l-1.3-1.6
		c-5.4-11.1-9.3-23.3-13-35.8c-2.8-9.4-11.8-19.6-21.1-17.9c-6.2,1.2-9.1,7.7-9.1,7.7L116.5,29.9z"/>
	<path fill="#3F3645" d="M92.7,18.4c0,0,10.9,0.7,22.8,12.7c8.7,8.9,13.8,25.6,11.2,38.7c0,0,5.6,0.1,5.8,1.5
		c0.2,1.8-3.1,3.3-7.8,3.2c0,0-6.5,9-18.2,15c-11.7,6.1-31.8,12.1-54.5,12.7c-22.7,0.7-34.9-4.2-39.5-31.4l-0.8,2.4
		c4.2,26.8,19.7,31.3,38.6,30.8c19.7-0.6,41.4-5.4,55.9-12.5c12.3-5.9,19.2-15.6,19.2-15.6c7.3-0.2,9-3.5,8.6-5.4
		c-0.3-1.5-5.4-2-5.4-2c2.2-13.2-2.3-28.1-11.8-38.6C104.5,16.7,92.7,17,92.7,17L92.7,18.4z"/>
	<g id="Hair_1_">
		<path fill="#3F3645" d="M49.3,32c0,0-3.6-2.1-3-11.5c0.6-9.4,9.8-13.1,9.8-13.1s-10.6-1.6-14.3,9.9c-3.1,9.4,6.7,14.9,6.7,14.9
			h0.2c0,0-9.3-6.3-6.3-15.3c3-8.9,11.7-9.1,11.7-9.1s-7.6,3.6-8.2,12.6C45.1,30.2,49,32.1,49,32.1L49.3,32z"/>
		<path fill="#3F3645" d="M49,32c0,0,9.6-3.2,17.5-0.5c7,2.4,11,12.4,11,12.4s-3-3-7.3-5c0,0,11.8,6.2,10.7,16.7
			c0,0-2.7-4.8-8.4-7.9c0,0,9.6,7,7.7,14.5c-1.9,7.8-10.4,6.6-10.4,6.6l-0.5,0.4c0,0,9.6,1.6,11.5-6.8c0.8-3.6-1.1-7.2-1.1-7.2
			s1.2,1.1,1.5,3.3c0,0,1.7-6.8-2.6-13.3c0,0-0.3-0.3-0.1-1c0,0-3.9-10.6-11.9-13.4c-9.3-3.2-18.1,1-18.1,1L49,32z"/>
		<path fill="#3F3645" d="M71,16c-9.1,0.9-17.7,2.5-25,5.8v1.7c7.4-3.2,16.3-5.1,25-5.9V16z"/>
		<path fill="#3F3645" d="M62.7,47.5c0,0,2.8,5.2,1.8,14l0.6,1.2c0,0,3.2-3.7,1.8-10.7c0,0,3.5,8.1-1.1,17.5l-0.3,1.2
			c0,0,9.3-0.8,8.3-12.8c0,0,0.8,10.1-7.6,12.3c0,0,5.5-9.8-0.2-20.8c0,0,2.1,7.8-0.9,12.2c0,0,1.2-9-2.2-15.1L62.7,47.5z"/>
		<path fill="#3F3645" d="M49,31.8c0,0,9.9,1.9,11.6,9.7h-0.2c0,0-0.6-6.8-11.4-9.5L49,31.8L49,31.8z"/>
		<path fill="#3F3645" d="M57.8,39c0,0,1.1,8.7-4.9,11.6c0,0,1.6-3.7,1.2-6.1c0,0-2,15.3-23.2,27.1c0,0,6.2-6.8,8.3-14.4
			c0,0-5,6.1-9.1,13.2l-0.3-0.7c0,0,2.9-6.2,10.4-14.8c0,0-0.3,6.4-6.7,14.4c0,0,17.8-9.7,20.7-27.8c0,0,1.2,4.9-0.5,7.9
			C53.7,49.4,56.9,48,57.8,39z"/>
		<path fill="#3F3645" d="M49,33.6c0,0,7.5,3.7,5.4,11.5l-0.1-0.2C54.3,44.9,56.6,38.3,49,33.6z"/>
		<path fill="#3F3645" d="M48.7,32.2c0,0,1.1,6.7-6,17.1c0,0,6.3-10.3,5.7-16.8c0,0-9.5-0.4-26.2,14.1c0,0,13.6-13.2,26.4-14.5H48.7
			z"/>
	</g>
	<path fill="#3F3645" d="M46.3,30.5c0,0-3.8-3.1-13.7-2.1c0,0,8.5-0.4,12.4,1.8c0,0-12-3.4-29.3,13.6c0,0,16.6-16.7,31.1-12.8
		L46.3,30.5z"/>
	<path fill="#3F3645" d="M27.9,67c0,0,0.8-10.6,5.2-18c0,0-15,6.6-24.1,30.8c0,0-1.4-6.3-0.6-13.4c0,0-1.9,9.6,1,15
		c0,0-3.8-2.7-5.6-10.2c0,0-0.2,1.2,0,2.3c0,0-4.4-5-1.6-18.2c2.2-10.5,12.6-15.5,12.6-15.5S4.7,41.7,0.1,49.7
		c0,0,0.2-13.8,12.4-20.8c10.1-5.8,18.2-2.6,18.2-2.6s-7.8-5.8-19-0.7c0,0,1.8-4.8,14.2-6.1S42.3,25,42.3,25l0.4,0.9
		c0,0-5-7-15.8-5.9c-10.8,1.1-13,4-13,4s11.7-3.8,18.4,3.1c0,0-7.5-3.7-19.2,2.3C2.8,34.7,1.1,46.8,1.1,46.8S7.5,39,17.9,39
		c0,0-11.3,4.8-14.1,13.8C0.3,63.9,3.1,71.3,3.1,71.3s0-2.9,0.5-4.9c0,0,0.4,8.2,4.7,13.3c0,0-2.3-7.7,0.6-15.5c0,0-0.7,10,0.3,13.9
		c0,0,5.1-19.6,25.8-31.3c0,0-5.2,7.6-6.3,21.1L27.9,67z"/>
</g>
</svg>
